{
  "title" : "",
  "description" : "",
  "author" : "",
  "targetLoudness" : -18.0,
  "shouldApplyLoudnessNormalization" : true,
  "videoFormatFrameRate" : 30,
  "audioFormatSampleRate" : 44100,
  "allowSubFrameEditing" : false,
  "width" : 1280.0,
  "height" : 720.0,
  "version" : "7.0",
  "editRate" : 705600000,
  "authoringClientName" :  {
    "name" : "Camtasia",
    "platform" : "Windows",
    "version" : "2023.0.1"
  },
  "sourceBin" : [
    {
      "id" : 1,
      "src" : "Rec 10-16-2023-2-33-25-PM.trec",
      "rect" : [0, 0, 1280, 720],
      "lastMod" : "20231016T183325",
      "loudnessNormalization" : true,
      "sourceTracks" : [
        {
          "range" : [0, 290],
          "type" : 0,
          "editRate" : 30,
          "trackRect" : [0, 0, 1280, 720],
          "sampleRate" : "294849/10000",
          "bitDepth" : 24,
          "numChannels" : 0,
          "integratedLUFS" : 100.0,
          "peakLevel" : -1.0,
          "metaData" : "Rec 10-16-2023-2-33-25-PM.trec;2b7b6a00-7a1f-11e2-83d0-0017f200be7f;2b7b6aef-7a1f-11e2-83d0-0017f200be7f;2b7b6af0-7a1f-11e2-83d0-0017f200be7f;2b7b6af1-7a1f-11e2-83d0-0017f200be7f;2b7b6af2-7a1f-11e2-83d0-0017f200be7f;2b7b6af3-7a1f-11e2-83d0-0017f200be7f;2b7b6af5-7a1f-11e2-83d0-0017f200be7f;2b7b6af6-7a1f-11e2-83d0-0017f200be7f;2b7b6af7-7a1f-11e2-83d0-0017f200be7f;2b7b6af8-7a1f-11e2-83d0-0017f200be7f;2b7b6af9-7a1f-11e2-83d0-0017f200be7f;2b7b6afa-7a1f-11e2-83d0-0017f200be7f;"
        },
        {
          "range" : [0, 424960],
          "type" : 2,
          "editRate" : 44100,
          "trackRect" : [0, 0, 0, 0],
          "sampleRate" : 44100,
          "bitDepth" : 16,
          "numChannels" : 2,
          "integratedLUFS" : -22.0299582848488,
          "peakLevel" : 0.426446914672852,
          "metaData" : ""
        },
        {
          "range" : [0, 424960],
          "type" : 2,
          "editRate" : 44100,
          "trackRect" : [0, 0, 0, 0],
          "sampleRate" : 44100,
          "bitDepth" : 16,
          "numChannels" : 2,
          "integratedLUFS" : -1.79769313486232e+308,
          "peakLevel" : 2.56796683970606e-05,
          "metaData" : ""
        }
      ],
      "metadata" : {
        "timeAdded" : "20231016T183331.266341"
      }
    },
    {
      "id" : 2,
      "src" : "Rec 10-16-2023-2-37-03-PM.trec",
      "rect" : [0, 0, 1280, 720],
      "lastMod" : "20231016T183703",
      "loudnessNormalization" : true,
      "sourceTracks" : [
        {
          "range" : [0, 1916],
          "type" : 0,
          "editRate" : 30,
          "trackRect" : [0, 0, 1280, 720],
          "sampleRate" : "298279/10000",
          "bitDepth" : 24,
          "numChannels" : 0,
          "integratedLUFS" : 100.0,
          "peakLevel" : -1.0,
          "metaData" : "Rec 10-16-2023-2-37-03-PM.trec;2b7b6a00-7a1f-11e2-83d0-0017f200be7f;2b7b6aef-7a1f-11e2-83d0-0017f200be7f;2b7b6af0-7a1f-11e2-83d0-0017f200be7f;2b7b6af1-7a1f-11e2-83d0-0017f200be7f;2b7b6af2-7a1f-11e2-83d0-0017f200be7f;2b7b6af3-7a1f-11e2-83d0-0017f200be7f;2b7b6af5-7a1f-11e2-83d0-0017f200be7f;2b7b6af6-7a1f-11e2-83d0-0017f200be7f;2b7b6af7-7a1f-11e2-83d0-0017f200be7f;2b7b6af8-7a1f-11e2-83d0-0017f200be7f;2b7b6af9-7a1f-11e2-83d0-0017f200be7f;2b7b6afa-7a1f-11e2-83d0-0017f200be7f;"
        },
        {
          "range" : [0, 2819072],
          "type" : 2,
          "editRate" : 44100,
          "trackRect" : [0, 0, 0, 0],
          "sampleRate" : 44100,
          "bitDepth" : 16,
          "numChannels" : 2,
          "integratedLUFS" : -23.7376429771684,
          "peakLevel" : 0.433529853820801,
          "metaData" : ""
        },
        {
          "range" : [0, 2819072],
          "type" : 2,
          "editRate" : 44100,
          "trackRect" : [0, 0, 0, 0],
          "sampleRate" : 44100,
          "bitDepth" : 16,
          "numChannels" : 2,
          "integratedLUFS" : -1.79769313486232e+308,
          "peakLevel" : 2.56796683970606e-05,
          "metaData" : ""
        }
      ],
      "metadata" : {
        "timeAdded" : "20231016T183704.045796"
      }
    },
    {
      "id" : 3,
      "src" : "Rec 11-7-2023-1-51-37-PM.trec",
      "rect" : [0, 0, 1920, 1080],
      "lastMod" : "20231107T185137",
      "loudnessNormalization" : true,
      "sourceTracks" : [
        {
          "range" : [0, 2343],
          "type" : 0,
          "editRate" : 30,
          "trackRect" : [0, 0, 1920, 1080],
          "sampleRate" : "5009/200",
          "bitDepth" : 24,
          "numChannels" : 0,
          "integratedLUFS" : 100.0,
          "peakLevel" : -1.0,
          "metaData" : "Rec 11-7-2023-1-51-37-PM.trec;2b7b6a00-7a1f-11e2-83d0-0017f200be7f;2b7b6aef-7a1f-11e2-83d0-0017f200be7f;2b7b6af0-7a1f-11e2-83d0-0017f200be7f;2b7b6af1-7a1f-11e2-83d0-0017f200be7f;2b7b6af2-7a1f-11e2-83d0-0017f200be7f;2b7b6af3-7a1f-11e2-83d0-0017f200be7f;2b7b6af5-7a1f-11e2-83d0-0017f200be7f;2b7b6af6-7a1f-11e2-83d0-0017f200be7f;2b7b6af7-7a1f-11e2-83d0-0017f200be7f;2b7b6af8-7a1f-11e2-83d0-0017f200be7f;2b7b6af9-7a1f-11e2-83d0-0017f200be7f;2b7b6afa-7a1f-11e2-83d0-0017f200be7f;"
        },
        {
          "range" : [0, 3446784],
          "type" : 2,
          "editRate" : 44100,
          "trackRect" : [0, 0, 0, 0],
          "sampleRate" : 44100,
          "bitDepth" : 16,
          "numChannels" : 2,
          "integratedLUFS" : -22.9375557020304,
          "peakLevel" : 0.593177139759064,
          "metaData" : ""
        },
        {
          "range" : [0, 3445760],
          "type" : 2,
          "editRate" : 44100,
          "trackRect" : [0, 0, 0, 0],
          "sampleRate" : 44100,
          "bitDepth" : 16,
          "numChannels" : 2,
          "integratedLUFS" : -1.79769313486232e+308,
          "peakLevel" : 2.56796683970606e-05,
          "metaData" : ""
        }
      ],
      "metadata" : {
        "timeAdded" : "20231201T210839.747907"
      }
    },
    {
      "id" : 4,
      "src" : "Rec 11-7-2023-1-54-49-PM.trec",
      "rect" : [0, 0, 1920, 1080],
      "lastMod" : "20231107T185449",
      "loudnessNormalization" : true,
      "sourceTracks" : [
        {
          "range" : [0, 2332],
          "type" : 0,
          "editRate" : 30,
          "trackRect" : [0, 0, 1920, 1080],
          "sampleRate" : "126329/5000",
          "bitDepth" : 24,
          "numChannels" : 0,
          "integratedLUFS" : 100.0,
          "peakLevel" : -1.0,
          "metaData" : "Rec 11-7-2023-1-54-49-PM.trec;2b7b6a00-7a1f-11e2-83d0-0017f200be7f;2b7b6aef-7a1f-11e2-83d0-0017f200be7f;2b7b6af0-7a1f-11e2-83d0-0017f200be7f;2b7b6af1-7a1f-11e2-83d0-0017f200be7f;2b7b6af2-7a1f-11e2-83d0-0017f200be7f;2b7b6af3-7a1f-11e2-83d0-0017f200be7f;2b7b6af5-7a1f-11e2-83d0-0017f200be7f;2b7b6af6-7a1f-11e2-83d0-0017f200be7f;2b7b6af7-7a1f-11e2-83d0-0017f200be7f;2b7b6af8-7a1f-11e2-83d0-0017f200be7f;2b7b6af9-7a1f-11e2-83d0-0017f200be7f;2b7b6afa-7a1f-11e2-83d0-0017f200be7f;"
        },
        {
          "range" : [0, 3431424],
          "type" : 2,
          "editRate" : 44100,
          "trackRect" : [0, 0, 0, 0],
          "sampleRate" : 44100,
          "bitDepth" : 16,
          "numChannels" : 2,
          "integratedLUFS" : -23.2335207466588,
          "peakLevel" : 0.489159256219864,
          "metaData" : ""
        },
        {
          "range" : [0, 3432448],
          "type" : 2,
          "editRate" : 44100,
          "trackRect" : [0, 0, 0, 0],
          "sampleRate" : 44100,
          "bitDepth" : 16,
          "numChannels" : 2,
          "integratedLUFS" : -1.79769313486232e+308,
          "peakLevel" : 2.56796683970606e-05,
          "metaData" : ""
        }
      ],
      "metadata" : {
        "timeAdded" : "20231201T210839.752892"
      }
    },
    {
      "id" : 5,
      "src" : "Rec 11-7-2023-2-00-53-PM.trec",
      "rect" : [0, 0, 1920, 1080],
      "lastMod" : "20231107T190053",
      "loudnessNormalization" : true,
      "sourceTracks" : [
        {
          "range" : [0, 2777],
          "type" : 0,
          "editRate" : 30,
          "trackRect" : [0, 0, 1920, 1080],
          "sampleRate" : "250847/10000",
          "bitDepth" : 24,
          "numChannels" : 0,
          "integratedLUFS" : 100.0,
          "peakLevel" : -1.0,
          "metaData" : "Rec 11-7-2023-2-00-53-PM.trec;2b7b6a00-7a1f-11e2-83d0-0017f200be7f;2b7b6aef-7a1f-11e2-83d0-0017f200be7f;2b7b6af0-7a1f-11e2-83d0-0017f200be7f;2b7b6af1-7a1f-11e2-83d0-0017f200be7f;2b7b6af2-7a1f-11e2-83d0-0017f200be7f;2b7b6af3-7a1f-11e2-83d0-0017f200be7f;2b7b6af5-7a1f-11e2-83d0-0017f200be7f;2b7b6af6-7a1f-11e2-83d0-0017f200be7f;2b7b6af7-7a1f-11e2-83d0-0017f200be7f;2b7b6af8-7a1f-11e2-83d0-0017f200be7f;2b7b6af9-7a1f-11e2-83d0-0017f200be7f;2b7b6afa-7a1f-11e2-83d0-0017f200be7f;"
        },
        {
          "range" : [0, 4082688],
          "type" : 2,
          "editRate" : 44100,
          "trackRect" : [0, 0, 0, 0],
          "sampleRate" : 44100,
          "bitDepth" : 16,
          "numChannels" : 2,
          "integratedLUFS" : -23.1259053954138,
          "peakLevel" : 0.488104432821274,
          "metaData" : ""
        },
        {
          "range" : [0, 4084736],
          "type" : 2,
          "editRate" : 44100,
          "trackRect" : [0, 0, 0, 0],
          "sampleRate" : 44100,
          "bitDepth" : 16,
          "numChannels" : 2,
          "integratedLUFS" : -1.79769313486232e+308,
          "peakLevel" : 2.56796683970606e-05,
          "metaData" : ""
        }
      ],
      "metadata" : {
        "timeAdded" : "20231201T210839.757879"
      }
    },
    {
      "id" : 6,
      "src" : "Rec 11-7-2023-2-06-46-PM.trec",
      "rect" : [0, 0, 1920, 1080],
      "lastMod" : "20231107T190646",
      "loudnessNormalization" : true,
      "sourceTracks" : [
        {
          "range" : [0, 3956],
          "type" : 0,
          "editRate" : 30,
          "trackRect" : [0, 0, 1920, 1080],
          "sampleRate" : "62829/2500",
          "bitDepth" : 24,
          "numChannels" : 0,
          "integratedLUFS" : 100.0,
          "peakLevel" : -1.0,
          "metaData" : "Rec 11-7-2023-2-06-46-PM.trec;2b7b6a00-7a1f-11e2-83d0-0017f200be7f;2b7b6aef-7a1f-11e2-83d0-0017f200be7f;2b7b6af0-7a1f-11e2-83d0-0017f200be7f;2b7b6af1-7a1f-11e2-83d0-0017f200be7f;2b7b6af2-7a1f-11e2-83d0-0017f200be7f;2b7b6af3-7a1f-11e2-83d0-0017f200be7f;2b7b6af5-7a1f-11e2-83d0-0017f200be7f;2b7b6af6-7a1f-11e2-83d0-0017f200be7f;2b7b6af7-7a1f-11e2-83d0-0017f200be7f;2b7b6af8-7a1f-11e2-83d0-0017f200be7f;2b7b6af9-7a1f-11e2-83d0-0017f200be7f;2b7b6afa-7a1f-11e2-83d0-0017f200be7f;"
        },
        {
          "range" : [0, 5819392],
          "type" : 2,
          "editRate" : 44100,
          "trackRect" : [0, 0, 0, 0],
          "sampleRate" : 44100,
          "bitDepth" : 16,
          "numChannels" : 2,
          "integratedLUFS" : -24.4924875084134,
          "peakLevel" : 0.438057839870453,
          "metaData" : ""
        },
        {
          "range" : [0, 5822464],
          "type" : 2,
          "editRate" : 44100,
          "trackRect" : [0, 0, 0, 0],
          "sampleRate" : 44100,
          "bitDepth" : 16,
          "numChannels" : 2,
          "integratedLUFS" : -1.79769313486232e+308,
          "peakLevel" : 2.56796683970606e-05,
          "metaData" : ""
        }
      ],
      "metadata" : {
        "timeAdded" : "20231201T210839.762866"
      }
    },
    {
      "id" : 7,
      "src" : "Rec 11-7-2023-2-10-55-PM.trec",
      "rect" : [0, 0, 1920, 1080],
      "lastMod" : "20231107T191054",
      "loudnessNormalization" : true,
      "sourceTracks" : [
        {
          "range" : [0, 2861],
          "type" : 0,
          "editRate" : 30,
          "trackRect" : [0, 0, 1920, 1080],
          "sampleRate" : "15493/625",
          "bitDepth" : 24,
          "numChannels" : 0,
          "integratedLUFS" : 100.0,
          "peakLevel" : -1.0,
          "metaData" : "Rec 11-7-2023-2-10-55-PM.trec;2b7b6a00-7a1f-11e2-83d0-0017f200be7f;2b7b6aef-7a1f-11e2-83d0-0017f200be7f;2b7b6af0-7a1f-11e2-83d0-0017f200be7f;2b7b6af1-7a1f-11e2-83d0-0017f200be7f;2b7b6af2-7a1f-11e2-83d0-0017f200be7f;2b7b6af3-7a1f-11e2-83d0-0017f200be7f;2b7b6af5-7a1f-11e2-83d0-0017f200be7f;2b7b6af6-7a1f-11e2-83d0-0017f200be7f;2b7b6af7-7a1f-11e2-83d0-0017f200be7f;2b7b6af8-7a1f-11e2-83d0-0017f200be7f;2b7b6af9-7a1f-11e2-83d0-0017f200be7f;2b7b6afa-7a1f-11e2-83d0-0017f200be7f;"
        },
        {
          "range" : [0, 4208640],
          "type" : 2,
          "editRate" : 44100,
          "trackRect" : [0, 0, 0, 0],
          "sampleRate" : 44100,
          "bitDepth" : 16,
          "numChannels" : 2,
          "integratedLUFS" : -23.7749782887071,
          "peakLevel" : 0.410180062055588,
          "metaData" : ""
        },
        {
          "range" : [0, 4208640],
          "type" : 2,
          "editRate" : 44100,
          "trackRect" : [0, 0, 0, 0],
          "sampleRate" : 44100,
          "bitDepth" : 16,
          "numChannels" : 2,
          "integratedLUFS" : -1.79769313486232e+308,
          "peakLevel" : 2.56796683970606e-05,
          "metaData" : ""
        }
      ],
      "metadata" : {
        "timeAdded" : "20231201T210839.769847"
      }
    },
    {
      "id" : 8,
      "src" : "Rec 11-7-2023-2-14-20-PM.trec",
      "rect" : [0, 0, 1920, 1080],
      "lastMod" : "20231107T191420",
      "loudnessNormalization" : true,
      "sourceTracks" : [
        {
          "range" : [0, 2745],
          "type" : 0,
          "editRate" : 30,
          "trackRect" : [0, 0, 1920, 1080],
          "sampleRate" : "244591/10000",
          "bitDepth" : 24,
          "numChannels" : 0,
          "integratedLUFS" : 100.0,
          "peakLevel" : -1.0,
          "metaData" : "Rec 11-7-2023-2-14-20-PM.trec;2b7b6a00-7a1f-11e2-83d0-0017f200be7f;2b7b6aef-7a1f-11e2-83d0-0017f200be7f;2b7b6af0-7a1f-11e2-83d0-0017f200be7f;2b7b6af1-7a1f-11e2-83d0-0017f200be7f;2b7b6af2-7a1f-11e2-83d0-0017f200be7f;2b7b6af3-7a1f-11e2-83d0-0017f200be7f;2b7b6af5-7a1f-11e2-83d0-0017f200be7f;2b7b6af6-7a1f-11e2-83d0-0017f200be7f;2b7b6af7-7a1f-11e2-83d0-0017f200be7f;2b7b6af8-7a1f-11e2-83d0-0017f200be7f;2b7b6af9-7a1f-11e2-83d0-0017f200be7f;2b7b6afa-7a1f-11e2-83d0-0017f200be7f;"
        },
        {
          "range" : [0, 4038656],
          "type" : 2,
          "editRate" : 44100,
          "trackRect" : [0, 0, 0, 0],
          "sampleRate" : 44100,
          "bitDepth" : 16,
          "numChannels" : 2,
          "integratedLUFS" : -25.1871764270567,
          "peakLevel" : 0.360721558332443,
          "metaData" : ""
        },
        {
          "range" : [0, 4036608],
          "type" : 2,
          "editRate" : 44100,
          "trackRect" : [0, 0, 0, 0],
          "sampleRate" : 44100,
          "bitDepth" : 16,
          "numChannels" : 2,
          "integratedLUFS" : -1.79769313486232e+308,
          "peakLevel" : 2.56796683970606e-05,
          "metaData" : ""
        }
      ],
      "metadata" : {
        "timeAdded" : "20231201T210839.773836"
      }
    },
    {
      "id" : 9,
      "src" : "Rec 11-7-2023-2-18-05-PM.trec",
      "rect" : [0, 0, 1920, 1080],
      "lastMod" : "20231107T191805",
      "loudnessNormalization" : true,
      "sourceTracks" : [
        {
          "range" : [0, 2318],
          "type" : 0,
          "editRate" : 30,
          "trackRect" : [0, 0, 1920, 1080],
          "sampleRate" : "123663/5000",
          "bitDepth" : 24,
          "numChannels" : 0,
          "integratedLUFS" : 100.0,
          "peakLevel" : -1.0,
          "metaData" : "Rec 11-7-2023-2-18-05-PM.trec;2b7b6a00-7a1f-11e2-83d0-0017f200be7f;2b7b6aef-7a1f-11e2-83d0-0017f200be7f;2b7b6af0-7a1f-11e2-83d0-0017f200be7f;2b7b6af1-7a1f-11e2-83d0-0017f200be7f;2b7b6af2-7a1f-11e2-83d0-0017f200be7f;2b7b6af3-7a1f-11e2-83d0-0017f200be7f;2b7b6af5-7a1f-11e2-83d0-0017f200be7f;2b7b6af6-7a1f-11e2-83d0-0017f200be7f;2b7b6af7-7a1f-11e2-83d0-0017f200be7f;2b7b6af8-7a1f-11e2-83d0-0017f200be7f;2b7b6af9-7a1f-11e2-83d0-0017f200be7f;2b7b6afa-7a1f-11e2-83d0-0017f200be7f;"
        },
        {
          "range" : [0, 3409920],
          "type" : 2,
          "editRate" : 44100,
          "trackRect" : [0, 0, 0, 0],
          "sampleRate" : 44100,
          "bitDepth" : 16,
          "numChannels" : 2,
          "integratedLUFS" : -25.5571005493084,
          "peakLevel" : 0.313718616962433,
          "metaData" : ""
        },
        {
          "range" : [0, 3409920],
          "type" : 2,
          "editRate" : 44100,
          "trackRect" : [0, 0, 0, 0],
          "sampleRate" : 44100,
          "bitDepth" : 16,
          "numChannels" : 2,
          "integratedLUFS" : -1.79769313486232e+308,
          "peakLevel" : 2.56796683970606e-05,
          "metaData" : ""
        }
      ],
      "metadata" : {
        "timeAdded" : "20231201T210839.780325"
      }
    },
    {
      "id" : 10,
      "src" : "Rec 11-7-2023-2-26-45-PM.trec",
      "rect" : [0, 0, 1920, 1080],
      "lastMod" : "20231107T192645",
      "loudnessNormalization" : true,
      "sourceTracks" : [
        {
          "range" : [0, 2699],
          "type" : 0,
          "editRate" : 30,
          "trackRect" : [0, 0, 1920, 1080],
          "sampleRate" : "242423/10000",
          "bitDepth" : 24,
          "numChannels" : 0,
          "integratedLUFS" : 100.0,
          "peakLevel" : -1.0,
          "metaData" : "Rec 11-7-2023-2-26-45-PM.trec;2b7b6a00-7a1f-11e2-83d0-0017f200be7f;2b7b6aef-7a1f-11e2-83d0-0017f200be7f;2b7b6af0-7a1f-11e2-83d0-0017f200be7f;2b7b6af1-7a1f-11e2-83d0-0017f200be7f;2b7b6af2-7a1f-11e2-83d0-0017f200be7f;2b7b6af3-7a1f-11e2-83d0-0017f200be7f;2b7b6af5-7a1f-11e2-83d0-0017f200be7f;2b7b6af6-7a1f-11e2-83d0-0017f200be7f;2b7b6af7-7a1f-11e2-83d0-0017f200be7f;2b7b6af8-7a1f-11e2-83d0-0017f200be7f;2b7b6af9-7a1f-11e2-83d0-0017f200be7f;2b7b6afa-7a1f-11e2-83d0-0017f200be7f;"
        },
        {
          "range" : [0, 3965952],
          "type" : 2,
          "editRate" : 44100,
          "trackRect" : [0, 0, 0, 0],
          "sampleRate" : 44100,
          "bitDepth" : 16,
          "numChannels" : 2,
          "integratedLUFS" : -25.1936779301375,
          "peakLevel" : 0.323332905769348,
          "metaData" : ""
        },
        {
          "range" : [0, 3965952],
          "type" : 2,
          "editRate" : 44100,
          "trackRect" : [0, 0, 0, 0],
          "sampleRate" : 44100,
          "bitDepth" : 16,
          "numChannels" : 2,
          "integratedLUFS" : -1.79769313486232e+308,
          "peakLevel" : 2.56796683970606e-05,
          "metaData" : ""
        }
      ],
      "metadata" : {
        "timeAdded" : "20231201T210839.785818"
      }
    },
    {
      "id" : 11,
      "src" : "Rec 11-7-2023-2-31-28-PM.trec",
      "rect" : [0, 0, 1920, 1080],
      "lastMod" : "20231107T193128",
      "loudnessNormalization" : true,
      "sourceTracks" : [
        {
          "range" : [0, 2830],
          "type" : 0,
          "editRate" : 30,
          "trackRect" : [0, 0, 1920, 1080],
          "sampleRate" : "122279/5000",
          "bitDepth" : 24,
          "numChannels" : 0,
          "integratedLUFS" : 100.0,
          "peakLevel" : -1.0,
          "metaData" : "Rec 11-7-2023-2-31-28-PM.trec;2b7b6a00-7a1f-11e2-83d0-0017f200be7f;2b7b6aef-7a1f-11e2-83d0-0017f200be7f;2b7b6af0-7a1f-11e2-83d0-0017f200be7f;2b7b6af1-7a1f-11e2-83d0-0017f200be7f;2b7b6af2-7a1f-11e2-83d0-0017f200be7f;2b7b6af3-7a1f-11e2-83d0-0017f200be7f;2b7b6af5-7a1f-11e2-83d0-0017f200be7f;2b7b6af6-7a1f-11e2-83d0-0017f200be7f;2b7b6af7-7a1f-11e2-83d0-0017f200be7f;2b7b6af8-7a1f-11e2-83d0-0017f200be7f;2b7b6af9-7a1f-11e2-83d0-0017f200be7f;2b7b6afa-7a1f-11e2-83d0-0017f200be7f;"
        },
        {
          "range" : [0, 4161536],
          "type" : 2,
          "editRate" : 44100,
          "trackRect" : [0, 0, 0, 0],
          "sampleRate" : 44100,
          "bitDepth" : 16,
          "numChannels" : 2,
          "integratedLUFS" : -24.7954657806193,
          "peakLevel" : 0.321341544389725,
          "metaData" : ""
        },
        {
          "range" : [0, 4159488],
          "type" : 2,
          "editRate" : 44100,
          "trackRect" : [0, 0, 0, 0],
          "sampleRate" : 44100,
          "bitDepth" : 16,
          "numChannels" : 2,
          "integratedLUFS" : -1.79769313486232e+308,
          "peakLevel" : 2.56796683970606e-05,
          "metaData" : ""
        }
      ],
      "metadata" : {
        "timeAdded" : "20231201T210839.790818"
      }
    },
    {
      "id" : 12,
      "src" : "Rec 11-7-2023-2-35-00-PM.trec",
      "rect" : [0, 0, 1920, 1080],
      "lastMod" : "20231107T193500",
      "loudnessNormalization" : true,
      "sourceTracks" : [
        {
          "range" : [0, 4208],
          "type" : 0,
          "editRate" : 30,
          "trackRect" : [0, 0, 1920, 1080],
          "sampleRate" : "249099/10000",
          "bitDepth" : 24,
          "numChannels" : 0,
          "integratedLUFS" : 100.0,
          "peakLevel" : -1.0,
          "metaData" : "Rec 11-7-2023-2-35-00-PM.trec;2b7b6a00-7a1f-11e2-83d0-0017f200be7f;2b7b6aef-7a1f-11e2-83d0-0017f200be7f;2b7b6af0-7a1f-11e2-83d0-0017f200be7f;2b7b6af1-7a1f-11e2-83d0-0017f200be7f;2b7b6af2-7a1f-11e2-83d0-0017f200be7f;2b7b6af3-7a1f-11e2-83d0-0017f200be7f;2b7b6af5-7a1f-11e2-83d0-0017f200be7f;2b7b6af6-7a1f-11e2-83d0-0017f200be7f;2b7b6af7-7a1f-11e2-83d0-0017f200be7f;2b7b6af8-7a1f-11e2-83d0-0017f200be7f;2b7b6af9-7a1f-11e2-83d0-0017f200be7f;2b7b6afa-7a1f-11e2-83d0-0017f200be7f;"
        },
        {
          "range" : [0, 6190080],
          "type" : 2,
          "editRate" : 44100,
          "trackRect" : [0, 0, 0, 0],
          "sampleRate" : 44100,
          "bitDepth" : 16,
          "numChannels" : 2,
          "integratedLUFS" : -24.4583991551158,
          "peakLevel" : 0.405582785606384,
          "metaData" : ""
        },
        {
          "range" : [0, 6188032],
          "type" : 2,
          "editRate" : 44100,
          "trackRect" : [0, 0, 0, 0],
          "sampleRate" : 44100,
          "bitDepth" : 16,
          "numChannels" : 2,
          "integratedLUFS" : -1.79769313486232e+308,
          "peakLevel" : 2.56796683970606e-05,
          "metaData" : ""
        }
      ],
      "metadata" : {
        "timeAdded" : "20231201T210839.796309"
      }
    },
    {
      "id" : 13,
      "src" : "Rec 11-7-2023-2-39-17-PM.trec",
      "rect" : [0, 0, 1920, 1080],
      "lastMod" : "20231107T193917",
      "loudnessNormalization" : true,
      "sourceTracks" : [
        {
          "range" : [0, 3761],
          "type" : 0,
          "editRate" : 30,
          "trackRect" : [0, 0, 1920, 1080],
          "sampleRate" : "243127/10000",
          "bitDepth" : 24,
          "numChannels" : 0,
          "integratedLUFS" : 100.0,
          "peakLevel" : -1.0,
          "metaData" : "Rec 11-7-2023-2-39-17-PM.trec;2b7b6a00-7a1f-11e2-83d0-0017f200be7f;2b7b6aef-7a1f-11e2-83d0-0017f200be7f;2b7b6af0-7a1f-11e2-83d0-0017f200be7f;2b7b6af1-7a1f-11e2-83d0-0017f200be7f;2b7b6af2-7a1f-11e2-83d0-0017f200be7f;2b7b6af3-7a1f-11e2-83d0-0017f200be7f;2b7b6af5-7a1f-11e2-83d0-0017f200be7f;2b7b6af6-7a1f-11e2-83d0-0017f200be7f;2b7b6af7-7a1f-11e2-83d0-0017f200be7f;2b7b6af8-7a1f-11e2-83d0-0017f200be7f;2b7b6af9-7a1f-11e2-83d0-0017f200be7f;2b7b6afa-7a1f-11e2-83d0-0017f200be7f;"
        },
        {
          "range" : [0, 5529600],
          "type" : 2,
          "editRate" : 44100,
          "trackRect" : [0, 0, 0, 0],
          "sampleRate" : 44100,
          "bitDepth" : 16,
          "numChannels" : 2,
          "integratedLUFS" : -24.6367327759668,
          "peakLevel" : 0.468983978033066,
          "metaData" : ""
        },
        {
          "range" : [0, 5531648],
          "type" : 2,
          "editRate" : 44100,
          "trackRect" : [0, 0, 0, 0],
          "sampleRate" : 44100,
          "bitDepth" : 16,
          "numChannels" : 2,
          "integratedLUFS" : -1.79769313486232e+308,
          "peakLevel" : 2.56796683970606e-05,
          "metaData" : ""
        }
      ],
      "metadata" : {
        "timeAdded" : "20231201T210839.802357"
      }
    },
    {
      "id" : 14,
      "src" : "Rec 11-7-2023-2-41-27-PM.trec",
      "rect" : [0, 0, 1920, 1080],
      "lastMod" : "20231107T194127",
      "loudnessNormalization" : true,
      "sourceTracks" : [
        {
          "range" : [0, 1479],
          "type" : 0,
          "editRate" : 30,
          "trackRect" : [0, 0, 1920, 1080],
          "sampleRate" : "15492/625",
          "bitDepth" : 24,
          "numChannels" : 0,
          "integratedLUFS" : 100.0,
          "peakLevel" : -1.0,
          "metaData" : "Rec 11-7-2023-2-41-27-PM.trec;2b7b6a00-7a1f-11e2-83d0-0017f200be7f;2b7b6aef-7a1f-11e2-83d0-0017f200be7f;2b7b6af0-7a1f-11e2-83d0-0017f200be7f;2b7b6af1-7a1f-11e2-83d0-0017f200be7f;2b7b6af2-7a1f-11e2-83d0-0017f200be7f;2b7b6af3-7a1f-11e2-83d0-0017f200be7f;2b7b6af5-7a1f-11e2-83d0-0017f200be7f;2b7b6af6-7a1f-11e2-83d0-0017f200be7f;2b7b6af7-7a1f-11e2-83d0-0017f200be7f;2b7b6af8-7a1f-11e2-83d0-0017f200be7f;2b7b6af9-7a1f-11e2-83d0-0017f200be7f;2b7b6afa-7a1f-11e2-83d0-0017f200be7f;"
        },
        {
          "range" : [0, 2173952],
          "type" : 2,
          "editRate" : 44100,
          "trackRect" : [0, 0, 0, 0],
          "sampleRate" : 44100,
          "bitDepth" : 16,
          "numChannels" : 2,
          "integratedLUFS" : -23.7572097444442,
          "peakLevel" : 0.55375462770462,
          "metaData" : ""
        },
        {
          "range" : [0, 2174976],
          "type" : 2,
          "editRate" : 44100,
          "trackRect" : [0, 0, 0, 0],
          "sampleRate" : 44100,
          "bitDepth" : 16,
          "numChannels" : 2,
          "integratedLUFS" : -1.79769313486232e+308,
          "peakLevel" : 2.56796683970606e-05,
          "metaData" : ""
        }
      ],
      "metadata" : {
        "timeAdded" : "20231201T210839.807924"
      }
    },
    {
      "id" : 15,
      "src" : "Rec 11-7-2023-2-44-36-PM.trec",
      "rect" : [0, 0, 1920, 1080],
      "lastMod" : "20231107T194435",
      "loudnessNormalization" : true,
      "sourceTracks" : [
        {
          "range" : [0, 2996],
          "type" : 0,
          "editRate" : 30,
          "trackRect" : [0, 0, 1920, 1080],
          "sampleRate" : "60181/2500",
          "bitDepth" : 24,
          "numChannels" : 0,
          "integratedLUFS" : 100.0,
          "peakLevel" : -1.0,
          "metaData" : "Rec 11-7-2023-2-44-36-PM.trec;2b7b6a00-7a1f-11e2-83d0-0017f200be7f;2b7b6aef-7a1f-11e2-83d0-0017f200be7f;2b7b6af0-7a1f-11e2-83d0-0017f200be7f;2b7b6af1-7a1f-11e2-83d0-0017f200be7f;2b7b6af2-7a1f-11e2-83d0-0017f200be7f;2b7b6af3-7a1f-11e2-83d0-0017f200be7f;2b7b6af5-7a1f-11e2-83d0-0017f200be7f;2b7b6af6-7a1f-11e2-83d0-0017f200be7f;2b7b6af7-7a1f-11e2-83d0-0017f200be7f;2b7b6af8-7a1f-11e2-83d0-0017f200be7f;2b7b6af9-7a1f-11e2-83d0-0017f200be7f;2b7b6afa-7a1f-11e2-83d0-0017f200be7f;"
        },
        {
          "range" : [0, 4407296],
          "type" : 2,
          "editRate" : 44100,
          "trackRect" : [0, 0, 0, 0],
          "sampleRate" : 44100,
          "bitDepth" : 16,
          "numChannels" : 2,
          "integratedLUFS" : -25.1698557857509,
          "peakLevel" : 0.389188468456268,
          "metaData" : ""
        },
        {
          "range" : [0, 4406272],
          "type" : 2,
          "editRate" : 44100,
          "trackRect" : [0, 0, 0, 0],
          "sampleRate" : 44100,
          "bitDepth" : 16,
          "numChannels" : 2,
          "integratedLUFS" : -1.79769313486232e+308,
          "peakLevel" : 2.56796683970606e-05,
          "metaData" : ""
        }
      ],
      "metadata" : {
        "timeAdded" : "20231201T210839.813619"
      }
    },
    {
      "id" : 16,
      "src" : "Rec 11-7-2023-2-47-57-PM.trec",
      "rect" : [0, 0, 1920, 1080],
      "lastMod" : "20231107T194757",
      "loudnessNormalization" : true,
      "sourceTracks" : [
        {
          "range" : [0, 4101],
          "type" : 0,
          "editRate" : 30,
          "trackRect" : [0, 0, 1920, 1080],
          "sampleRate" : "60607/2500",
          "bitDepth" : 24,
          "numChannels" : 0,
          "integratedLUFS" : 100.0,
          "peakLevel" : -1.0,
          "metaData" : "Rec 11-7-2023-2-47-57-PM.trec;2b7b6a00-7a1f-11e2-83d0-0017f200be7f;2b7b6aef-7a1f-11e2-83d0-0017f200be7f;2b7b6af0-7a1f-11e2-83d0-0017f200be7f;2b7b6af1-7a1f-11e2-83d0-0017f200be7f;2b7b6af2-7a1f-11e2-83d0-0017f200be7f;2b7b6af3-7a1f-11e2-83d0-0017f200be7f;2b7b6af5-7a1f-11e2-83d0-0017f200be7f;2b7b6af6-7a1f-11e2-83d0-0017f200be7f;2b7b6af7-7a1f-11e2-83d0-0017f200be7f;2b7b6af8-7a1f-11e2-83d0-0017f200be7f;2b7b6af9-7a1f-11e2-83d0-0017f200be7f;2b7b6afa-7a1f-11e2-83d0-0017f200be7f;"
        },
        {
          "range" : [0, 6029312],
          "type" : 2,
          "editRate" : 44100,
          "trackRect" : [0, 0, 0, 0],
          "sampleRate" : 44100,
          "bitDepth" : 16,
          "numChannels" : 2,
          "integratedLUFS" : -23.7624597571889,
          "peakLevel" : 0.407190680503845,
          "metaData" : ""
        },
        {
          "range" : [0, 6030336],
          "type" : 2,
          "editRate" : 44100,
          "trackRect" : [0, 0, 0, 0],
          "sampleRate" : 44100,
          "bitDepth" : 16,
          "numChannels" : 2,
          "integratedLUFS" : -1.79769313486232e+308,
          "peakLevel" : 2.56796683970606e-05,
          "metaData" : ""
        }
      ],
      "metadata" : {
        "timeAdded" : "20231201T210839.819775"
      }
    },
    {
      "id" : 17,
      "src" : "Rec 12-4-2023-11-06-41-AM.trec",
      "rect" : [0, 0, 1920, 1080],
      "lastMod" : "20231204T160641",
      "loudnessNormalization" : true,
      "sourceTracks" : [
        {
          "range" : [0, 566],
          "type" : 0,
          "editRate" : 30,
          "trackRect" : [0, 0, 1920, 1080],
          "sampleRate" : "276159/10000",
          "bitDepth" : 24,
          "numChannels" : 0,
          "integratedLUFS" : 100.0,
          "peakLevel" : -1.0,
          "metaData" : "Rec 12-4-2023-11-06-41-AM.trec;2b7b6a00-7a1f-11e2-83d0-0017f200be7f;2b7b6aef-7a1f-11e2-83d0-0017f200be7f;2b7b6af0-7a1f-11e2-83d0-0017f200be7f;2b7b6af1-7a1f-11e2-83d0-0017f200be7f;2b7b6af2-7a1f-11e2-83d0-0017f200be7f;2b7b6af3-7a1f-11e2-83d0-0017f200be7f;2b7b6af5-7a1f-11e2-83d0-0017f200be7f;2b7b6af6-7a1f-11e2-83d0-0017f200be7f;2b7b6af7-7a1f-11e2-83d0-0017f200be7f;2b7b6af8-7a1f-11e2-83d0-0017f200be7f;2b7b6af9-7a1f-11e2-83d0-0017f200be7f;2b7b6afa-7a1f-11e2-83d0-0017f200be7f;"
        },
        {
          "range" : [0, 835584],
          "type" : 2,
          "editRate" : 44100,
          "trackRect" : [0, 0, 0, 0],
          "sampleRate" : 44100,
          "bitDepth" : 16,
          "numChannels" : 2,
          "integratedLUFS" : -22.682504429866,
          "peakLevel" : 0.439481437206268,
          "metaData" : ""
        },
        {
          "range" : [0, 834560],
          "type" : 2,
          "editRate" : 44100,
          "trackRect" : [0, 0, 0, 0],
          "sampleRate" : 44100,
          "bitDepth" : 16,
          "numChannels" : 2,
          "integratedLUFS" : -1.79769313486232e+308,
          "peakLevel" : 2.56796683970606e-05,
          "metaData" : ""
        }
      ],
      "metadata" : {
        "timeAdded" : "20231204T160647.262199"
      }
    },
    {
      "id" : 18,
      "src" : "Rec 12-4-2023-11-15-35-AM.trec",
      "rect" : [0, 0, 1920, 1080],
      "lastMod" : "20231204T161535",
      "loudnessNormalization" : true,
      "sourceTracks" : [
        {
          "range" : [0, 4704],
          "type" : 0,
          "editRate" : 30,
          "trackRect" : [0, 0, 1920, 1080],
          "sampleRate" : "272131/10000",
          "bitDepth" : 24,
          "numChannels" : 0,
          "integratedLUFS" : 100.0,
          "peakLevel" : -1.0,
          "metaData" : "Rec 12-4-2023-11-15-35-AM.trec;2b7b6a00-7a1f-11e2-83d0-0017f200be7f;2b7b6aef-7a1f-11e2-83d0-0017f200be7f;2b7b6af0-7a1f-11e2-83d0-0017f200be7f;2b7b6af1-7a1f-11e2-83d0-0017f200be7f;2b7b6af2-7a1f-11e2-83d0-0017f200be7f;2b7b6af3-7a1f-11e2-83d0-0017f200be7f;2b7b6af5-7a1f-11e2-83d0-0017f200be7f;2b7b6af6-7a1f-11e2-83d0-0017f200be7f;2b7b6af7-7a1f-11e2-83d0-0017f200be7f;2b7b6af8-7a1f-11e2-83d0-0017f200be7f;2b7b6af9-7a1f-11e2-83d0-0017f200be7f;2b7b6afa-7a1f-11e2-83d0-0017f200be7f;"
        },
        {
          "range" : [0, 6917120],
          "type" : 2,
          "editRate" : 44100,
          "trackRect" : [0, 0, 0, 0],
          "sampleRate" : 44100,
          "bitDepth" : 16,
          "numChannels" : 2,
          "integratedLUFS" : -23.2217369194907,
          "peakLevel" : 0.462920129299164,
          "metaData" : ""
        },
        {
          "range" : [0, 6916096],
          "type" : 2,
          "editRate" : 44100,
          "trackRect" : [0, 0, 0, 0],
          "sampleRate" : 44100,
          "bitDepth" : 16,
          "numChannels" : 2,
          "integratedLUFS" : -1.79769313486232e+308,
          "peakLevel" : 2.56796683970606e-05,
          "metaData" : ""
        }
      ],
      "metadata" : {
        "timeAdded" : "20231204T161536.721830"
      }
    },
    {
      "id" : 19,
      "src" : "Rec 12-4-2023-11-24-34-AM.trec",
      "rect" : [0, 0, 1920, 1080],
      "lastMod" : "20231204T162434",
      "loudnessNormalization" : true,
      "sourceTracks" : [
        {
          "range" : [0, 5635],
          "type" : 0,
          "editRate" : 30,
          "trackRect" : [0, 0, 1920, 1080],
          "sampleRate" : "11827/500",
          "bitDepth" : 24,
          "numChannels" : 0,
          "integratedLUFS" : 100.0,
          "peakLevel" : -1.0,
          "metaData" : "Rec 12-4-2023-11-24-34-AM.trec;2b7b6a00-7a1f-11e2-83d0-0017f200be7f;2b7b6aef-7a1f-11e2-83d0-0017f200be7f;2b7b6af0-7a1f-11e2-83d0-0017f200be7f;2b7b6af1-7a1f-11e2-83d0-0017f200be7f;2b7b6af2-7a1f-11e2-83d0-0017f200be7f;2b7b6af3-7a1f-11e2-83d0-0017f200be7f;2b7b6af5-7a1f-11e2-83d0-0017f200be7f;2b7b6af6-7a1f-11e2-83d0-0017f200be7f;2b7b6af7-7a1f-11e2-83d0-0017f200be7f;2b7b6af8-7a1f-11e2-83d0-0017f200be7f;2b7b6af9-7a1f-11e2-83d0-0017f200be7f;2b7b6afa-7a1f-11e2-83d0-0017f200be7f;"
        },
        {
          "range" : [0, 8288256],
          "type" : 2,
          "editRate" : 44100,
          "trackRect" : [0, 0, 0, 0],
          "sampleRate" : 44100,
          "bitDepth" : 16,
          "numChannels" : 2,
          "integratedLUFS" : -23.2151137122711,
          "peakLevel" : 0.501622796058655,
          "metaData" : ""
        },
        {
          "range" : [0, 8287232],
          "type" : 2,
          "editRate" : 44100,
          "trackRect" : [0, 0, 0, 0],
          "sampleRate" : 44100,
          "bitDepth" : 16,
          "numChannels" : 2,
          "integratedLUFS" : -1.79769313486232e+308,
          "peakLevel" : 2.56796683970606e-05,
          "metaData" : ""
        }
      ],
      "metadata" : {
        "timeAdded" : "20231204T162436.208309"
      }
    },
    {
      "id" : 20,
      "src" : "Rec 12-4-2023-11-28-14-AM.trec",
      "rect" : [0, 0, 1920, 1080],
      "lastMod" : "20231204T162814",
      "loudnessNormalization" : true,
      "sourceTracks" : [
        {
          "range" : [0, 3418],
          "type" : 0,
          "editRate" : 30,
          "trackRect" : [0, 0, 1920, 1080],
          "sampleRate" : "136221/5000",
          "bitDepth" : 24,
          "numChannels" : 0,
          "integratedLUFS" : 100.0,
          "peakLevel" : -1.0,
          "metaData" : "Rec 12-4-2023-11-28-14-AM.trec;2b7b6a00-7a1f-11e2-83d0-0017f200be7f;2b7b6aef-7a1f-11e2-83d0-0017f200be7f;2b7b6af0-7a1f-11e2-83d0-0017f200be7f;2b7b6af1-7a1f-11e2-83d0-0017f200be7f;2b7b6af2-7a1f-11e2-83d0-0017f200be7f;2b7b6af3-7a1f-11e2-83d0-0017f200be7f;2b7b6af5-7a1f-11e2-83d0-0017f200be7f;2b7b6af6-7a1f-11e2-83d0-0017f200be7f;2b7b6af7-7a1f-11e2-83d0-0017f200be7f;2b7b6af8-7a1f-11e2-83d0-0017f200be7f;2b7b6af9-7a1f-11e2-83d0-0017f200be7f;2b7b6afa-7a1f-11e2-83d0-0017f200be7f;"
        },
        {
          "range" : [0, 5027840],
          "type" : 2,
          "editRate" : 44100,
          "trackRect" : [0, 0, 0, 0],
          "sampleRate" : 44100,
          "bitDepth" : 16,
          "numChannels" : 2,
          "integratedLUFS" : -21.9775051080029,
          "peakLevel" : 0.644549489021301,
          "metaData" : ""
        },
        {
          "range" : [0, 5028864],
          "type" : 2,
          "editRate" : 44100,
          "trackRect" : [0, 0, 0, 0],
          "sampleRate" : 44100,
          "bitDepth" : 16,
          "numChannels" : 2,
          "integratedLUFS" : -1.79769313486232e+308,
          "peakLevel" : 2.56796683970606e-05,
          "metaData" : ""
        }
      ],
      "metadata" : {
        "timeAdded" : "20231204T162819.951525"
      }
    },
    {
      "id" : 21,
      "src" : "Rec 12-4-2023-11-41-15-AM.trec",
      "rect" : [0, 0, 1920, 1080],
      "lastMod" : "20231204T164114",
      "loudnessNormalization" : true,
      "sourceTracks" : [
        {
          "range" : [0, 4603],
          "type" : 0,
          "editRate" : 30,
          "trackRect" : [0, 0, 1920, 1080],
          "sampleRate" : "116761/5000",
          "bitDepth" : 24,
          "numChannels" : 0,
          "integratedLUFS" : 100.0,
          "peakLevel" : -1.0,
          "metaData" : "Rec 12-4-2023-11-41-15-AM.trec;2b7b6a00-7a1f-11e2-83d0-0017f200be7f;2b7b6aef-7a1f-11e2-83d0-0017f200be7f;2b7b6af0-7a1f-11e2-83d0-0017f200be7f;2b7b6af1-7a1f-11e2-83d0-0017f200be7f;2b7b6af2-7a1f-11e2-83d0-0017f200be7f;2b7b6af3-7a1f-11e2-83d0-0017f200be7f;2b7b6af5-7a1f-11e2-83d0-0017f200be7f;2b7b6af6-7a1f-11e2-83d0-0017f200be7f;2b7b6af7-7a1f-11e2-83d0-0017f200be7f;2b7b6af8-7a1f-11e2-83d0-0017f200be7f;2b7b6af9-7a1f-11e2-83d0-0017f200be7f;2b7b6afa-7a1f-11e2-83d0-0017f200be7f;"
        },
        {
          "range" : [0, 6764544],
          "type" : 2,
          "editRate" : 44100,
          "trackRect" : [0, 0, 0, 0],
          "sampleRate" : 44100,
          "bitDepth" : 16,
          "numChannels" : 2,
          "integratedLUFS" : -22.949452359007,
          "peakLevel" : 0.504039168357849,
          "metaData" : ""
        },
        {
          "range" : [0, 6766592],
          "type" : 2,
          "editRate" : 44100,
          "trackRect" : [0, 0, 0, 0],
          "sampleRate" : 44100,
          "bitDepth" : 16,
          "numChannels" : 2,
          "integratedLUFS" : -1.79769313486232e+308,
          "peakLevel" : 2.56796683970606e-05,
          "metaData" : ""
        }
      ],
      "metadata" : {
        "timeAdded" : "20231204T164116.068613"
      }
    },
    {
      "id" : 22,
      "src" : "Rec 12-4-2023-11-44-20-AM.trec",
      "rect" : [0, 0, 1920, 1080],
      "lastMod" : "20231204T164419",
      "loudnessNormalization" : true,
      "sourceTracks" : [
        {
          "range" : [0, 3379],
          "type" : 0,
          "editRate" : 30,
          "trackRect" : [0, 0, 1920, 1080],
          "sampleRate" : "33627/1250",
          "bitDepth" : 24,
          "numChannels" : 0,
          "integratedLUFS" : 100.0,
          "peakLevel" : -1.0,
          "metaData" : "Rec 12-4-2023-11-44-20-AM.trec;2b7b6a00-7a1f-11e2-83d0-0017f200be7f;2b7b6aef-7a1f-11e2-83d0-0017f200be7f;2b7b6af0-7a1f-11e2-83d0-0017f200be7f;2b7b6af1-7a1f-11e2-83d0-0017f200be7f;2b7b6af2-7a1f-11e2-83d0-0017f200be7f;2b7b6af3-7a1f-11e2-83d0-0017f200be7f;2b7b6af5-7a1f-11e2-83d0-0017f200be7f;2b7b6af6-7a1f-11e2-83d0-0017f200be7f;2b7b6af7-7a1f-11e2-83d0-0017f200be7f;2b7b6af8-7a1f-11e2-83d0-0017f200be7f;2b7b6af9-7a1f-11e2-83d0-0017f200be7f;2b7b6afa-7a1f-11e2-83d0-0017f200be7f;"
        },
        {
          "range" : [0, 4970496],
          "type" : 2,
          "editRate" : 44100,
          "trackRect" : [0, 0, 0, 0],
          "sampleRate" : 44100,
          "bitDepth" : 16,
          "numChannels" : 2,
          "integratedLUFS" : -22.8443976581539,
          "peakLevel" : 0.949274361133575,
          "metaData" : ""
        },
        {
          "range" : [0, 4971520],
          "type" : 2,
          "editRate" : 44100,
          "trackRect" : [0, 0, 0, 0],
          "sampleRate" : 44100,
          "bitDepth" : 16,
          "numChannels" : 2,
          "integratedLUFS" : -1.79769313486232e+308,
          "peakLevel" : 2.56796683970606e-05,
          "metaData" : ""
        }
      ],
      "metadata" : {
        "timeAdded" : "20231204T164421.553641"
      }
    },
    {
      "id" : 23,
      "src" : "Rec 12-4-2023-11-55-03-AM.trec",
      "rect" : [0, 0, 1920, 1080],
      "lastMod" : "20231204T165502",
      "loudnessNormalization" : true,
      "sourceTracks" : [
        {
          "range" : [0, 4130],
          "type" : 0,
          "editRate" : 30,
          "trackRect" : [0, 0, 1920, 1080],
          "sampleRate" : "232009/10000",
          "bitDepth" : 24,
          "numChannels" : 0,
          "integratedLUFS" : 100.0,
          "peakLevel" : -1.0,
          "metaData" : "Rec 12-4-2023-11-55-03-AM.trec;2b7b6a00-7a1f-11e2-83d0-0017f200be7f;2b7b6aef-7a1f-11e2-83d0-0017f200be7f;2b7b6af0-7a1f-11e2-83d0-0017f200be7f;2b7b6af1-7a1f-11e2-83d0-0017f200be7f;2b7b6af2-7a1f-11e2-83d0-0017f200be7f;2b7b6af3-7a1f-11e2-83d0-0017f200be7f;2b7b6af5-7a1f-11e2-83d0-0017f200be7f;2b7b6af6-7a1f-11e2-83d0-0017f200be7f;2b7b6af7-7a1f-11e2-83d0-0017f200be7f;2b7b6af8-7a1f-11e2-83d0-0017f200be7f;2b7b6af9-7a1f-11e2-83d0-0017f200be7f;2b7b6afa-7a1f-11e2-83d0-0017f200be7f;"
        },
        {
          "range" : [0, 6074368],
          "type" : 2,
          "editRate" : 44100,
          "trackRect" : [0, 0, 0, 0],
          "sampleRate" : 44100,
          "bitDepth" : 16,
          "numChannels" : 2,
          "integratedLUFS" : -22.5238289678728,
          "peakLevel" : 0.540524125099182,
          "metaData" : ""
        },
        {
          "range" : [0, 6073344],
          "type" : 2,
          "editRate" : 44100,
          "trackRect" : [0, 0, 0, 0],
          "sampleRate" : 44100,
          "bitDepth" : 16,
          "numChannels" : 2,
          "integratedLUFS" : -1.79769313486232e+308,
          "peakLevel" : 2.56796683970606e-05,
          "metaData" : ""
        }
      ],
      "metadata" : {
        "timeAdded" : "20231204T165504.325382"
      }
    },
    {
      "id" : 24,
      "src" : "Rec 12-18-2023-10-49-29-AM.trec",
      "rect" : [0, 0, 1920, 1080],
      "lastMod" : "20231218T154929",
      "loudnessNormalization" : true,
      "sourceTracks" : [
        {
          "range" : [0, 4850],
          "type" : 0,
          "editRate" : 30,
          "trackRect" : [0, 0, 1920, 1080],
          "sampleRate" : "67377/2500",
          "bitDepth" : 24,
          "numChannels" : 0,
          "integratedLUFS" : 100.0,
          "peakLevel" : -1.0,
          "metaData" : "Rec 12-18-2023-10-49-29-AM.trec;2b7b6a00-7a1f-11e2-83d0-0017f200be7f;2b7b6aef-7a1f-11e2-83d0-0017f200be7f;2b7b6af0-7a1f-11e2-83d0-0017f200be7f;2b7b6af1-7a1f-11e2-83d0-0017f200be7f;2b7b6af2-7a1f-11e2-83d0-0017f200be7f;2b7b6af3-7a1f-11e2-83d0-0017f200be7f;2b7b6af5-7a1f-11e2-83d0-0017f200be7f;2b7b6af6-7a1f-11e2-83d0-0017f200be7f;2b7b6af7-7a1f-11e2-83d0-0017f200be7f;2b7b6af8-7a1f-11e2-83d0-0017f200be7f;2b7b6af9-7a1f-11e2-83d0-0017f200be7f;2b7b6afa-7a1f-11e2-83d0-0017f200be7f;"
        },
        {
          "range" : [0, 7134208],
          "type" : 2,
          "editRate" : 44100,
          "trackRect" : [0, 0, 0, 0],
          "sampleRate" : 44100,
          "bitDepth" : 16,
          "numChannels" : 2,
          "integratedLUFS" : -23.7938932849575,
          "peakLevel" : 0.534076571464539,
          "metaData" : ""
        },
        {
          "range" : [0, 7136256],
          "type" : 2,
          "editRate" : 44100,
          "trackRect" : [0, 0, 0, 0],
          "sampleRate" : 44100,
          "bitDepth" : 16,
          "numChannels" : 2,
          "integratedLUFS" : -1.79769313486232e+308,
          "peakLevel" : 2.56796683970606e-05,
          "metaData" : ""
        }
      ],
      "metadata" : {
        "timeAdded" : "20231218T154930.186281"
      }
    },
    {
      "id" : 25,
      "src" : "Rec 12-18-2023-11-03-54-AM.trec",
      "rect" : [0, 0, 1920, 1080],
      "lastMod" : "20231218T160354",
      "loudnessNormalization" : true,
      "sourceTracks" : [
        {
          "range" : [0, 7136],
          "type" : 0,
          "editRate" : 30,
          "trackRect" : [0, 0, 1920, 1080],
          "sampleRate" : "232653/10000",
          "bitDepth" : 24,
          "numChannels" : 0,
          "integratedLUFS" : 100.0,
          "peakLevel" : -1.0,
          "metaData" : "Rec 12-18-2023-11-03-54-AM.trec;2b7b6a00-7a1f-11e2-83d0-0017f200be7f;2b7b6aef-7a1f-11e2-83d0-0017f200be7f;2b7b6af0-7a1f-11e2-83d0-0017f200be7f;2b7b6af1-7a1f-11e2-83d0-0017f200be7f;2b7b6af2-7a1f-11e2-83d0-0017f200be7f;2b7b6af3-7a1f-11e2-83d0-0017f200be7f;2b7b6af5-7a1f-11e2-83d0-0017f200be7f;2b7b6af6-7a1f-11e2-83d0-0017f200be7f;2b7b6af7-7a1f-11e2-83d0-0017f200be7f;2b7b6af8-7a1f-11e2-83d0-0017f200be7f;2b7b6af9-7a1f-11e2-83d0-0017f200be7f;2b7b6afa-7a1f-11e2-83d0-0017f200be7f;"
        },
        {
          "range" : [0, 10492928],
          "type" : 2,
          "editRate" : 44100,
          "trackRect" : [0, 0, 0, 0],
          "sampleRate" : 44100,
          "bitDepth" : 16,
          "numChannels" : 2,
          "integratedLUFS" : -24.4218044808527,
          "peakLevel" : 0.457486063241959,
          "metaData" : ""
        },
        {
          "range" : [0, 10492928],
          "type" : 2,
          "editRate" : 44100,
          "trackRect" : [0, 0, 0, 0],
          "sampleRate" : 44100,
          "bitDepth" : 16,
          "numChannels" : 2,
          "integratedLUFS" : -1.79769313486232e+308,
          "peakLevel" : 2.56796683970606e-05,
          "metaData" : ""
        }
      ],
      "metadata" : {
        "timeAdded" : "20231218T160355.092820"
      }
    },
    {
      "id" : 26,
      "src" : "Rec 12-18-2023-11-07-51-AM.trec",
      "rect" : [0, 0, 1920, 1080],
      "lastMod" : "20231218T160751",
      "loudnessNormalization" : true,
      "sourceTracks" : [
        {
          "range" : [0, 4255],
          "type" : 0,
          "editRate" : 30,
          "trackRect" : [0, 0, 1920, 1080],
          "sampleRate" : "132833/5000",
          "bitDepth" : 24,
          "numChannels" : 0,
          "integratedLUFS" : 100.0,
          "peakLevel" : -1.0,
          "metaData" : "Rec 12-18-2023-11-07-51-AM.trec;2b7b6a00-7a1f-11e2-83d0-0017f200be7f;2b7b6aef-7a1f-11e2-83d0-0017f200be7f;2b7b6af0-7a1f-11e2-83d0-0017f200be7f;2b7b6af1-7a1f-11e2-83d0-0017f200be7f;2b7b6af2-7a1f-11e2-83d0-0017f200be7f;2b7b6af3-7a1f-11e2-83d0-0017f200be7f;2b7b6af5-7a1f-11e2-83d0-0017f200be7f;2b7b6af6-7a1f-11e2-83d0-0017f200be7f;2b7b6af7-7a1f-11e2-83d0-0017f200be7f;2b7b6af8-7a1f-11e2-83d0-0017f200be7f;2b7b6af9-7a1f-11e2-83d0-0017f200be7f;2b7b6afa-7a1f-11e2-83d0-0017f200be7f;"
        },
        {
          "range" : [0, 6255616],
          "type" : 2,
          "editRate" : 44100,
          "trackRect" : [0, 0, 0, 0],
          "sampleRate" : 44100,
          "bitDepth" : 16,
          "numChannels" : 2,
          "integratedLUFS" : -24.2257914429882,
          "peakLevel" : 0.482612818479538,
          "metaData" : ""
        },
        {
          "range" : [0, 6258688],
          "type" : 2,
          "editRate" : 44100,
          "trackRect" : [0, 0, 0, 0],
          "sampleRate" : 44100,
          "bitDepth" : 16,
          "numChannels" : 2,
          "integratedLUFS" : -1.79769313486232e+308,
          "peakLevel" : 2.56796683970606e-05,
          "metaData" : ""
        }
      ],
      "metadata" : {
        "timeAdded" : "20231218T160751.982128"
      }
    },
    {
      "id" : 27,
      "src" : "Rec 12-18-2023-11-14-44-AM.trec",
      "rect" : [0, 0, 1920, 1080],
      "lastMod" : "20231218T161444",
      "loudnessNormalization" : true,
      "sourceTracks" : [
        {
          "range" : [0, 4788],
          "type" : 0,
          "editRate" : 30,
          "trackRect" : [0, 0, 1920, 1080],
          "sampleRate" : "233269/10000",
          "bitDepth" : 24,
          "numChannels" : 0,
          "integratedLUFS" : 100.0,
          "peakLevel" : -1.0,
          "metaData" : "Rec 12-18-2023-11-14-44-AM.trec;2b7b6a00-7a1f-11e2-83d0-0017f200be7f;2b7b6aef-7a1f-11e2-83d0-0017f200be7f;2b7b6af0-7a1f-11e2-83d0-0017f200be7f;2b7b6af1-7a1f-11e2-83d0-0017f200be7f;2b7b6af2-7a1f-11e2-83d0-0017f200be7f;2b7b6af3-7a1f-11e2-83d0-0017f200be7f;2b7b6af5-7a1f-11e2-83d0-0017f200be7f;2b7b6af6-7a1f-11e2-83d0-0017f200be7f;2b7b6af7-7a1f-11e2-83d0-0017f200be7f;2b7b6af8-7a1f-11e2-83d0-0017f200be7f;2b7b6af9-7a1f-11e2-83d0-0017f200be7f;2b7b6afa-7a1f-11e2-83d0-0017f200be7f;"
        },
        {
          "range" : [0, 7030784],
          "type" : 2,
          "editRate" : 44100,
          "trackRect" : [0, 0, 0, 0],
          "sampleRate" : 44100,
          "bitDepth" : 16,
          "numChannels" : 2,
          "integratedLUFS" : -25.6354521284028,
          "peakLevel" : 0.446735024452209,
          "metaData" : ""
        },
        {
          "range" : [0, 7040000],
          "type" : 2,
          "editRate" : 44100,
          "trackRect" : [0, 0, 0, 0],
          "sampleRate" : 44100,
          "bitDepth" : 16,
          "numChannels" : 2,
          "integratedLUFS" : -1.79769313486232e+308,
          "peakLevel" : 2.56796683970606e-05,
          "metaData" : ""
        }
      ],
      "metadata" : {
        "timeAdded" : "20231218T161445.783215"
      }
    },
    {
      "id" : 28,
      "src" : "Rec 12-18-2023-11-19-26-AM.trec",
      "rect" : [0, 0, 1920, 1080],
      "lastMod" : "20231218T161926",
      "loudnessNormalization" : true,
      "sourceTracks" : [
        {
          "range" : [0, 4433],
          "type" : 0,
          "editRate" : 30,
          "trackRect" : [0, 0, 1920, 1080],
          "sampleRate" : "135619/5000",
          "bitDepth" : 24,
          "numChannels" : 0,
          "integratedLUFS" : 100.0,
          "peakLevel" : -1.0,
          "metaData" : "Rec 12-18-2023-11-19-26-AM.trec;2b7b6a00-7a1f-11e2-83d0-0017f200be7f;2b7b6aef-7a1f-11e2-83d0-0017f200be7f;2b7b6af0-7a1f-11e2-83d0-0017f200be7f;2b7b6af1-7a1f-11e2-83d0-0017f200be7f;2b7b6af2-7a1f-11e2-83d0-0017f200be7f;2b7b6af3-7a1f-11e2-83d0-0017f200be7f;2b7b6af5-7a1f-11e2-83d0-0017f200be7f;2b7b6af6-7a1f-11e2-83d0-0017f200be7f;2b7b6af7-7a1f-11e2-83d0-0017f200be7f;2b7b6af8-7a1f-11e2-83d0-0017f200be7f;2b7b6af9-7a1f-11e2-83d0-0017f200be7f;2b7b6afa-7a1f-11e2-83d0-0017f200be7f;"
        },
        {
          "range" : [0, 6518784],
          "type" : 2,
          "editRate" : 44100,
          "trackRect" : [0, 0, 0, 0],
          "sampleRate" : 44100,
          "bitDepth" : 16,
          "numChannels" : 2,
          "integratedLUFS" : -24.0200546035346,
          "peakLevel" : 0.471981912851334,
          "metaData" : ""
        },
        {
          "range" : [0, 6514688],
          "type" : 2,
          "editRate" : 44100,
          "trackRect" : [0, 0, 0, 0],
          "sampleRate" : 44100,
          "bitDepth" : 16,
          "numChannels" : 2,
          "integratedLUFS" : -1.79769313486232e+308,
          "peakLevel" : 2.56796683970606e-05,
          "metaData" : ""
        }
      ],
      "metadata" : {
        "timeAdded" : "20231218T161932.202050"
      }
    },
    {
      "id" : 29,
      "src" : "Rec 12-18-2023-11-25-22-AM.trec",
      "rect" : [0, 0, 1920, 1080],
      "lastMod" : "20231218T162521",
      "loudnessNormalization" : true,
      "sourceTracks" : [
        {
          "range" : [0, 4513],
          "type" : 0,
          "editRate" : 30,
          "trackRect" : [0, 0, 1920, 1080],
          "sampleRate" : "14857/625",
          "bitDepth" : 24,
          "numChannels" : 0,
          "integratedLUFS" : 100.0,
          "peakLevel" : -1.0,
          "metaData" : "Rec 12-18-2023-11-25-22-AM.trec;2b7b6a00-7a1f-11e2-83d0-0017f200be7f;2b7b6aef-7a1f-11e2-83d0-0017f200be7f;2b7b6af0-7a1f-11e2-83d0-0017f200be7f;2b7b6af1-7a1f-11e2-83d0-0017f200be7f;2b7b6af2-7a1f-11e2-83d0-0017f200be7f;2b7b6af3-7a1f-11e2-83d0-0017f200be7f;2b7b6af5-7a1f-11e2-83d0-0017f200be7f;2b7b6af6-7a1f-11e2-83d0-0017f200be7f;2b7b6af7-7a1f-11e2-83d0-0017f200be7f;2b7b6af8-7a1f-11e2-83d0-0017f200be7f;2b7b6af9-7a1f-11e2-83d0-0017f200be7f;2b7b6afa-7a1f-11e2-83d0-0017f200be7f;"
        },
        {
          "range" : [0, 6636544],
          "type" : 2,
          "editRate" : 44100,
          "trackRect" : [0, 0, 0, 0],
          "sampleRate" : 44100,
          "bitDepth" : 16,
          "numChannels" : 2,
          "integratedLUFS" : -24.2427601721474,
          "peakLevel" : 0.486972689628601,
          "metaData" : ""
        },
        {
          "range" : [0, 6637568],
          "type" : 2,
          "editRate" : 44100,
          "trackRect" : [0, 0, 0, 0],
          "sampleRate" : 44100,
          "bitDepth" : 16,
          "numChannels" : 2,
          "integratedLUFS" : -1.79769313486232e+308,
          "peakLevel" : 2.56796683970606e-05,
          "metaData" : ""
        }
      ],
      "metadata" : {
        "timeAdded" : "20231218T162522.967635"
      }
    },
    {
      "id" : 30,
      "src" : "Rec 12-18-2023-11-52-16-AM.trec",
      "rect" : [0, 0, 1920, 1080],
      "lastMod" : "20231218T165216",
      "loudnessNormalization" : true,
      "sourceTracks" : [
        {
          "range" : [0, 4705],
          "type" : 0,
          "editRate" : 30,
          "trackRect" : [0, 0, 1920, 1080],
          "sampleRate" : "54759/2000",
          "bitDepth" : 24,
          "numChannels" : 0,
          "integratedLUFS" : 100.0,
          "peakLevel" : -1.0,
          "metaData" : "Rec 12-18-2023-11-52-16-AM.trec;2b7b6a00-7a1f-11e2-83d0-0017f200be7f;2b7b6aef-7a1f-11e2-83d0-0017f200be7f;2b7b6af0-7a1f-11e2-83d0-0017f200be7f;2b7b6af1-7a1f-11e2-83d0-0017f200be7f;2b7b6af2-7a1f-11e2-83d0-0017f200be7f;2b7b6af3-7a1f-11e2-83d0-0017f200be7f;2b7b6af5-7a1f-11e2-83d0-0017f200be7f;2b7b6af6-7a1f-11e2-83d0-0017f200be7f;2b7b6af7-7a1f-11e2-83d0-0017f200be7f;2b7b6af8-7a1f-11e2-83d0-0017f200be7f;2b7b6af9-7a1f-11e2-83d0-0017f200be7f;2b7b6afa-7a1f-11e2-83d0-0017f200be7f;"
        },
        {
          "range" : [0, 6918144],
          "type" : 2,
          "editRate" : 44100,
          "trackRect" : [0, 0, 0, 0],
          "sampleRate" : 44100,
          "bitDepth" : 16,
          "numChannels" : 2,
          "integratedLUFS" : -25.1536381037952,
          "peakLevel" : 0.509997725486755,
          "metaData" : ""
        },
        {
          "range" : [0, 6916096],
          "type" : 2,
          "editRate" : 44100,
          "trackRect" : [0, 0, 0, 0],
          "sampleRate" : 44100,
          "bitDepth" : 16,
          "numChannels" : 2,
          "integratedLUFS" : -1.79769313486232e+308,
          "peakLevel" : 2.56796683970606e-05,
          "metaData" : ""
        }
      ],
      "metadata" : {
        "timeAdded" : "20231218T165222.462458"
      }
    },
    {
      "id" : 31,
      "src" : "Rec 12-18-2023-12-00-22-PM.trec",
      "rect" : [0, 0, 1920, 1080],
      "lastMod" : "20231218T170022",
      "loudnessNormalization" : true,
      "sourceTracks" : [
        {
          "range" : [0, 4889],
          "type" : 0,
          "editRate" : 30,
          "trackRect" : [0, 0, 1920, 1080],
          "sampleRate" : "227839/10000",
          "bitDepth" : 24,
          "numChannels" : 0,
          "integratedLUFS" : 100.0,
          "peakLevel" : -1.0,
          "metaData" : "Rec 12-18-2023-12-00-22-PM.trec;2b7b6a00-7a1f-11e2-83d0-0017f200be7f;2b7b6aef-7a1f-11e2-83d0-0017f200be7f;2b7b6af0-7a1f-11e2-83d0-0017f200be7f;2b7b6af1-7a1f-11e2-83d0-0017f200be7f;2b7b6af2-7a1f-11e2-83d0-0017f200be7f;2b7b6af3-7a1f-11e2-83d0-0017f200be7f;2b7b6af5-7a1f-11e2-83d0-0017f200be7f;2b7b6af6-7a1f-11e2-83d0-0017f200be7f;2b7b6af7-7a1f-11e2-83d0-0017f200be7f;2b7b6af8-7a1f-11e2-83d0-0017f200be7f;2b7b6af9-7a1f-11e2-83d0-0017f200be7f;2b7b6afa-7a1f-11e2-83d0-0017f200be7f;"
        },
        {
          "range" : [0, 7187456],
          "type" : 2,
          "editRate" : 44100,
          "trackRect" : [0, 0, 0, 0],
          "sampleRate" : 44100,
          "bitDepth" : 16,
          "numChannels" : 2,
          "integratedLUFS" : -24.9318752266029,
          "peakLevel" : 0.643461287021637,
          "metaData" : ""
        },
        {
          "range" : [0, 7185408],
          "type" : 2,
          "editRate" : 44100,
          "trackRect" : [0, 0, 0, 0],
          "sampleRate" : 44100,
          "bitDepth" : 16,
          "numChannels" : 2,
          "integratedLUFS" : -1.79769313486232e+308,
          "peakLevel" : 2.56796683970606e-05,
          "metaData" : ""
        }
      ],
      "metadata" : {
        "timeAdded" : "20231218T170028.338579"
      }
    },
    {
      "id" : 32,
      "src" : "Rec 12-18-2023-12-12-27-PM.trec",
      "rect" : [0, 0, 1920, 1080],
      "lastMod" : "20231218T171227",
      "loudnessNormalization" : true,
      "sourceTracks" : [
        {
          "range" : [0, 3570],
          "type" : 0,
          "editRate" : 30,
          "trackRect" : [0, 0, 1920, 1080],
          "sampleRate" : "271091/10000",
          "bitDepth" : 24,
          "numChannels" : 0,
          "integratedLUFS" : 100.0,
          "peakLevel" : -1.0,
          "metaData" : "Rec 12-18-2023-12-12-27-PM.trec;2b7b6a00-7a1f-11e2-83d0-0017f200be7f;2b7b6aef-7a1f-11e2-83d0-0017f200be7f;2b7b6af0-7a1f-11e2-83d0-0017f200be7f;2b7b6af1-7a1f-11e2-83d0-0017f200be7f;2b7b6af2-7a1f-11e2-83d0-0017f200be7f;2b7b6af3-7a1f-11e2-83d0-0017f200be7f;2b7b6af5-7a1f-11e2-83d0-0017f200be7f;2b7b6af6-7a1f-11e2-83d0-0017f200be7f;2b7b6af7-7a1f-11e2-83d0-0017f200be7f;2b7b6af8-7a1f-11e2-83d0-0017f200be7f;2b7b6af9-7a1f-11e2-83d0-0017f200be7f;2b7b6afa-7a1f-11e2-83d0-0017f200be7f;"
        },
        {
          "range" : [0, 5249024],
          "type" : 2,
          "editRate" : 44100,
          "trackRect" : [0, 0, 0, 0],
          "sampleRate" : 44100,
          "bitDepth" : 16,
          "numChannels" : 2,
          "integratedLUFS" : -25.8232495219753,
          "peakLevel" : 0.404982268810272,
          "metaData" : ""
        },
        {
          "range" : [0, 5249024],
          "type" : 2,
          "editRate" : 44100,
          "trackRect" : [0, 0, 0, 0],
          "sampleRate" : 44100,
          "bitDepth" : 16,
          "numChannels" : 2,
          "integratedLUFS" : -1.79769313486232e+308,
          "peakLevel" : 2.56796683970606e-05,
          "metaData" : ""
        }
      ],
      "metadata" : {
        "timeAdded" : "20231218T171232.864907"
      }
    },
    {
      "id" : 33,
      "src" : "Rec 12-20-2023-10-56-29-AM.trec",
      "rect" : [0, 0, 1920, 1080],
      "lastMod" : "20231220T155629",
      "loudnessNormalization" : true,
      "sourceTracks" : [
        {
          "range" : [0, 7631],
          "type" : 0,
          "editRate" : 30,
          "trackRect" : [0, 0, 1920, 1080],
          "sampleRate" : "12201/500",
          "bitDepth" : 24,
          "numChannels" : 0,
          "integratedLUFS" : 100.0,
          "peakLevel" : -1.0,
          "metaData" : "Rec 12-20-2023-10-56-29-AM.trec;2b7b6a00-7a1f-11e2-83d0-0017f200be7f;2b7b6aef-7a1f-11e2-83d0-0017f200be7f;2b7b6af0-7a1f-11e2-83d0-0017f200be7f;2b7b6af1-7a1f-11e2-83d0-0017f200be7f;2b7b6af2-7a1f-11e2-83d0-0017f200be7f;2b7b6af3-7a1f-11e2-83d0-0017f200be7f;2b7b6af5-7a1f-11e2-83d0-0017f200be7f;2b7b6af6-7a1f-11e2-83d0-0017f200be7f;2b7b6af7-7a1f-11e2-83d0-0017f200be7f;2b7b6af8-7a1f-11e2-83d0-0017f200be7f;2b7b6af9-7a1f-11e2-83d0-0017f200be7f;2b7b6afa-7a1f-11e2-83d0-0017f200be7f;"
        },
        {
          "range" : [0, 11224064],
          "type" : 2,
          "editRate" : 44100,
          "trackRect" : [0, 0, 0, 0],
          "sampleRate" : 44100,
          "bitDepth" : 16,
          "numChannels" : 2,
          "integratedLUFS" : -22.7021647137455,
          "peakLevel" : 0.724100351333618,
          "metaData" : ""
        },
        {
          "range" : [0, 11224064],
          "type" : 2,
          "editRate" : 44100,
          "trackRect" : [0, 0, 0, 0],
          "sampleRate" : 44100,
          "bitDepth" : 16,
          "numChannels" : 2,
          "integratedLUFS" : -1.79769313486232e+308,
          "peakLevel" : 2.56796683970606e-05,
          "metaData" : ""
        }
      ],
      "metadata" : {
        "timeAdded" : "20231220T155632.104628"
      }
    },
    {
      "id" : 34,
      "src" : "Rec 12-26-2023-1-24-30-PM.trec",
      "rect" : [0, 0, 1920, 1080],
      "lastMod" : "20231226T182430",
      "loudnessNormalization" : true,
      "sourceTracks" : [
        {
          "range" : [0, 4920],
          "type" : 0,
          "editRate" : 30,
          "trackRect" : [0, 0, 1920, 1080],
          "sampleRate" : "51143/2500",
          "bitDepth" : 24,
          "numChannels" : 0,
          "integratedLUFS" : 100.0,
          "peakLevel" : -1.0,
          "metaData" : "Rec 12-26-2023-1-24-30-PM.trec;2b7b6a00-7a1f-11e2-83d0-0017f200be7f;2b7b6aef-7a1f-11e2-83d0-0017f200be7f;2b7b6af0-7a1f-11e2-83d0-0017f200be7f;2b7b6af1-7a1f-11e2-83d0-0017f200be7f;2b7b6af2-7a1f-11e2-83d0-0017f200be7f;2b7b6af3-7a1f-11e2-83d0-0017f200be7f;2b7b6af5-7a1f-11e2-83d0-0017f200be7f;2b7b6af6-7a1f-11e2-83d0-0017f200be7f;2b7b6af7-7a1f-11e2-83d0-0017f200be7f;2b7b6af8-7a1f-11e2-83d0-0017f200be7f;2b7b6af9-7a1f-11e2-83d0-0017f200be7f;2b7b6afa-7a1f-11e2-83d0-0017f200be7f;"
        },
        {
          "range" : [0, 7235584],
          "type" : 2,
          "editRate" : 44100,
          "trackRect" : [0, 0, 0, 0],
          "sampleRate" : 44100,
          "bitDepth" : 16,
          "numChannels" : 2,
          "integratedLUFS" : -25.7273172757868,
          "peakLevel" : 0.62678188085556,
          "metaData" : ""
        },
        {
          "range" : [0, 7233536],
          "type" : 2,
          "editRate" : 44100,
          "trackRect" : [0, 0, 0, 0],
          "sampleRate" : 44100,
          "bitDepth" : 16,
          "numChannels" : 2,
          "integratedLUFS" : -1.79769313486232e+308,
          "peakLevel" : 2.56796683970606e-05,
          "metaData" : ""
        }
      ],
      "metadata" : {
        "timeAdded" : "20231226T182431.638104"
      }
    },
    {
      "id" : 35,
      "src" : "Rec 11-7-2023-1-51-37-PM(1).trec",
      "rect" : [0, 0, 1920, 1080],
      "lastMod" : "20231107T185137",
      "loudnessNormalization" : true,
      "sourceTracks" : [
        {
          "range" : [0, 2343],
          "type" : 0,
          "editRate" : 30,
          "trackRect" : [0, 0, 1920, 1080],
          "sampleRate" : "5009/200",
          "bitDepth" : 24,
          "numChannels" : 0,
          "integratedLUFS" : 100.0,
          "peakLevel" : -1.0,
          "metaData" : "Rec 11-7-2023-1-51-37-PM(1).trec;2b7b6a00-7a1f-11e2-83d0-0017f200be7f;2b7b6aef-7a1f-11e2-83d0-0017f200be7f;2b7b6af0-7a1f-11e2-83d0-0017f200be7f;2b7b6af1-7a1f-11e2-83d0-0017f200be7f;2b7b6af2-7a1f-11e2-83d0-0017f200be7f;2b7b6af3-7a1f-11e2-83d0-0017f200be7f;2b7b6af5-7a1f-11e2-83d0-0017f200be7f;2b7b6af6-7a1f-11e2-83d0-0017f200be7f;2b7b6af7-7a1f-11e2-83d0-0017f200be7f;2b7b6af8-7a1f-11e2-83d0-0017f200be7f;2b7b6af9-7a1f-11e2-83d0-0017f200be7f;2b7b6afa-7a1f-11e2-83d0-0017f200be7f;"
        },
        {
          "range" : [0, 3446784],
          "type" : 2,
          "editRate" : 44100,
          "trackRect" : [0, 0, 0, 0],
          "sampleRate" : 44100,
          "bitDepth" : 16,
          "numChannels" : 2,
          "integratedLUFS" : -22.9375557020304,
          "peakLevel" : 0.593177139759064,
          "metaData" : ""
        },
        {
          "range" : [0, 3445760],
          "type" : 2,
          "editRate" : 44100,
          "trackRect" : [0, 0, 0, 0],
          "sampleRate" : 44100,
          "bitDepth" : 16,
          "numChannels" : 2,
          "integratedLUFS" : -1.79769313486232e+308,
          "peakLevel" : 2.56796683970606e-05,
          "metaData" : ""
        }
      ],
      "metadata" : {
        "timeAdded" : "20240104T162740.557971"
      }
    },
    {
      "id" : 36,
      "src" : "Rec 1-4-2024-11-39-03-AM.trec",
      "rect" : [0, 0, 1920, 1080],
      "lastMod" : "20240104T163903",
      "loudnessNormalization" : true,
      "sourceTracks" : [
        {
          "range" : [0, 2199],
          "type" : 0,
          "editRate" : 30,
          "trackRect" : [0, 0, 1920, 1080],
          "sampleRate" : "245841/10000",
          "bitDepth" : 24,
          "numChannels" : 0,
          "integratedLUFS" : 100.0,
          "peakLevel" : -1.0,
          "metaData" : "Rec 1-4-2024-11-39-03-AM.trec;2b7b6a00-7a1f-11e2-83d0-0017f200be7f;2b7b6aef-7a1f-11e2-83d0-0017f200be7f;2b7b6af0-7a1f-11e2-83d0-0017f200be7f;2b7b6af1-7a1f-11e2-83d0-0017f200be7f;2b7b6af2-7a1f-11e2-83d0-0017f200be7f;2b7b6af3-7a1f-11e2-83d0-0017f200be7f;2b7b6af5-7a1f-11e2-83d0-0017f200be7f;2b7b6af6-7a1f-11e2-83d0-0017f200be7f;2b7b6af7-7a1f-11e2-83d0-0017f200be7f;2b7b6af8-7a1f-11e2-83d0-0017f200be7f;2b7b6af9-7a1f-11e2-83d0-0017f200be7f;2b7b6afa-7a1f-11e2-83d0-0017f200be7f;"
        },
        {
          "range" : [0, 3236864],
          "type" : 2,
          "editRate" : 44100,
          "trackRect" : [0, 0, 0, 0],
          "sampleRate" : 44100,
          "bitDepth" : 16,
          "numChannels" : 2,
          "integratedLUFS" : -22.4346945428146,
          "peakLevel" : 0.496490359306335,
          "metaData" : ""
        },
        {
          "range" : [0, 3233792],
          "type" : 2,
          "editRate" : 44100,
          "trackRect" : [0, 0, 0, 0],
          "sampleRate" : 44100,
          "bitDepth" : 16,
          "numChannels" : 2,
          "integratedLUFS" : -1.79769313486232e+308,
          "peakLevel" : 2.56796683970606e-05,
          "metaData" : ""
        }
      ],
      "metadata" : {
        "timeAdded" : "20240104T163904.890580"
      }
    },
    {
      "id" : 37,
      "src" : "Rec 1-10-2024-11-11-18-AM.trec",
      "rect" : [0, 0, 1920, 1080],
      "lastMod" : "20240110T161118",
      "loudnessNormalization" : true,
      "sourceTracks" : [
        {
          "range" : [0, 1895],
          "type" : 0,
          "editRate" : 30,
          "trackRect" : [0, 0, 1920, 1080],
          "sampleRate" : "255201/10000",
          "bitDepth" : 24,
          "numChannels" : 0,
          "integratedLUFS" : 100.0,
          "peakLevel" : -1.0,
          "metaData" : "Rec 1-10-2024-11-11-18-AM.trec;2b7b6a00-7a1f-11e2-83d0-0017f200be7f;2b7b6aef-7a1f-11e2-83d0-0017f200be7f;2b7b6af0-7a1f-11e2-83d0-0017f200be7f;2b7b6af1-7a1f-11e2-83d0-0017f200be7f;2b7b6af2-7a1f-11e2-83d0-0017f200be7f;2b7b6af3-7a1f-11e2-83d0-0017f200be7f;2b7b6af5-7a1f-11e2-83d0-0017f200be7f;2b7b6af6-7a1f-11e2-83d0-0017f200be7f;2b7b6af7-7a1f-11e2-83d0-0017f200be7f;2b7b6af8-7a1f-11e2-83d0-0017f200be7f;2b7b6af9-7a1f-11e2-83d0-0017f200be7f;2b7b6afa-7a1f-11e2-83d0-0017f200be7f;"
        },
        {
          "range" : [0, 2785280],
          "type" : 2,
          "editRate" : 44100,
          "trackRect" : [0, 0, 0, 0],
          "sampleRate" : 44100,
          "bitDepth" : 16,
          "numChannels" : 2,
          "integratedLUFS" : -24.3504347918729,
          "peakLevel" : 0.482351541519165,
          "metaData" : ""
        },
        {
          "range" : [0, 2792448],
          "type" : 2,
          "editRate" : 44100,
          "trackRect" : [0, 0, 0, 0],
          "sampleRate" : 44100,
          "bitDepth" : 16,
          "numChannels" : 2,
          "integratedLUFS" : -1.79769313486232e+308,
          "peakLevel" : 2.56796683970606e-05,
          "metaData" : ""
        }
      ],
      "metadata" : {
        "timeAdded" : "20240110T161119.902386"
      }
    },
    {
      "id" : 38,
      "src" : "Rec 1-10-2024-11-17-22-AM.trec",
      "rect" : [0, 0, 1920, 1080],
      "lastMod" : "20240110T161722",
      "loudnessNormalization" : true,
      "sourceTracks" : [
        {
          "range" : [0, 4579],
          "type" : 0,
          "editRate" : 30,
          "trackRect" : [0, 0, 1920, 1080],
          "sampleRate" : "208669/10000",
          "bitDepth" : 24,
          "numChannels" : 0,
          "integratedLUFS" : 100.0,
          "peakLevel" : -1.0,
          "metaData" : "Rec 1-10-2024-11-17-22-AM.trec;2b7b6a00-7a1f-11e2-83d0-0017f200be7f;2b7b6aef-7a1f-11e2-83d0-0017f200be7f;2b7b6af0-7a1f-11e2-83d0-0017f200be7f;2b7b6af1-7a1f-11e2-83d0-0017f200be7f;2b7b6af2-7a1f-11e2-83d0-0017f200be7f;2b7b6af3-7a1f-11e2-83d0-0017f200be7f;2b7b6af5-7a1f-11e2-83d0-0017f200be7f;2b7b6af6-7a1f-11e2-83d0-0017f200be7f;2b7b6af7-7a1f-11e2-83d0-0017f200be7f;2b7b6af8-7a1f-11e2-83d0-0017f200be7f;2b7b6af9-7a1f-11e2-83d0-0017f200be7f;2b7b6afa-7a1f-11e2-83d0-0017f200be7f;"
        },
        {
          "range" : [0, 6734848],
          "type" : 2,
          "editRate" : 44100,
          "trackRect" : [0, 0, 0, 0],
          "sampleRate" : 44100,
          "bitDepth" : 16,
          "numChannels" : 2,
          "integratedLUFS" : -23.7182749620584,
          "peakLevel" : 0.439030826091766,
          "metaData" : ""
        },
        {
          "range" : [0, 6735872],
          "type" : 2,
          "editRate" : 44100,
          "trackRect" : [0, 0, 0, 0],
          "sampleRate" : 44100,
          "bitDepth" : 16,
          "numChannels" : 2,
          "integratedLUFS" : -1.79769313486232e+308,
          "peakLevel" : 2.56796683970606e-05,
          "metaData" : ""
        }
      ],
      "metadata" : {
        "timeAdded" : "20240110T161723.484077"
      }
    }
  ],
  "timeline" : {
    "id" : 39,
    "sceneTrack" : {
      "scenes" : [
        {
          "csml" : {
            "tracks" : [
              {
                "trackIndex" : 0,
                "medias" : [
                  {
                    "id" : 40,
                    "_type" : "UnifiedMedia",
                    "video" : 
                        {
                          "id" : 41,
                          "_type" : "ScreenVMFile",
                          "src" : 1,
                          "trackNumber" : 0,
                          "attributes" : {
                            "ident" : "Rec 10-16-2023-2-33-25-PM"
                          },
                          "parameters" : {
                            "sourceCrop0" : {
                              "type" : "double",
                              "defaultValue" : 0.0,
                              "interp" : "eioe"
                            },
                            "sourceCrop1" : {
                              "type" : "double",
                              "defaultValue" : 0.0,
                              "interp" : "eioe"
                            },
                            "sourceCrop2" : {
                              "type" : "double",
                              "defaultValue" : 0.0,
                              "interp" : "eioe"
                            },
                            "sourceCrop3" : {
                              "type" : "double",
                              "defaultValue" : 0.0,
                              "interp" : "eioe"
                            },
                            "geometryCrop0" : {
                              "type" : "double",
                              "defaultValue" : 0.0,
                              "interp" : "eioe"
                            },
                            "geometryCrop1" : {
                              "type" : "double",
                              "defaultValue" : 0.0,
                              "interp" : "eioe"
                            },
                            "geometryCrop2" : {
                              "type" : "double",
                              "defaultValue" : 0.0,
                              "interp" : "eioe"
                            },
                            "geometryCrop3" : {
                              "type" : "double",
                              "defaultValue" : 0.0,
                              "interp" : "eioe"
                            },
                            "cursorScale" : {
                              "type" : "double",
                              "defaultValue" : 2.25,
                              "interp" : "linr"
                            },
                            "cursorOpacity" : {
                              "type" : "double",
                              "defaultValue" : 1.0,
                              "interp" : "linr"
                            },
                            "smoothCursorAcrossEditDuration" : 235200000
                          },
                          "effects" : [

                          ],
                          "start" : 0,
                          "duration" : 6797280000,
                          "mediaStart" : 0,
                          "mediaDuration" : 6797280000,
                          "scalar" : 1,
                          "animationTracks" : {

                          }
                        },
                    "audio" : 
                        {
                          "id" : 42,
                          "_type" : "AMFile",
                          "src" : 1,
                          "trackNumber" : 2,
                          "attributes" : {
                            "ident" : "",
                            "gain" : 1.0,
                            "mixToMono" : false,
                            "loudnessNormalization" : true,
                            "sourceFileOffset" : 0
                          },
                            "channelNumber" : "0,1",
                          "effects" : [
                              {
                                "effectName" : "WinCompression",
                                "bypassed" : false,
                                "category" : "categoryAudioEffects",
                                "parameters" : {
                                  "ratio" : 10.0,
                                  "threshold" : -20.0,
                                  "gain" : 9.0,
                                  "attack" : 0.0,
                                  "release" : 3500.0,
                                  "preset" : 1
                                },
                                "metadata" : {
                                  "effectIndex" : "0",
                                  "presetName" : "Audio Compression"
                                }
                              }
                          ],
                          "start" : 0,
                          "duration" : 6797280000,
                          "mediaStart" : 0,
                          "mediaDuration" : 6797280000,
                          "scalar" : 1,
                          "animationTracks" : {

                          }
                        }
,
                    "start" : 0,
                    "duration" : 6797280000,
                    "mediaStart" : 0,
                    "mediaDuration" : 6797280000,
                    "scalar" : 1,
                    "metadata" : {
                      "AutoAppliedSmartFocus" : "False",
                      "clipSpeedAttribute" : false
                    }
                  },
                  {
                    "id" : 43,
                    "_type" : "UnifiedMedia",
                    "video" : 
                        {
                          "id" : 44,
                          "_type" : "ScreenVMFile",
                          "src" : 2,
                          "trackNumber" : 0,
                          "attributes" : {
                            "ident" : "Rec 10-16-2023-2-37-03-PM"
                          },
                          "parameters" : {
                            "sourceCrop0" : {
                              "type" : "double",
                              "defaultValue" : 0.0,
                              "interp" : "eioe"
                            },
                            "sourceCrop1" : {
                              "type" : "double",
                              "defaultValue" : 0.0,
                              "interp" : "eioe"
                            },
                            "sourceCrop2" : {
                              "type" : "double",
                              "defaultValue" : 0.0,
                              "interp" : "eioe"
                            },
                            "sourceCrop3" : {
                              "type" : "double",
                              "defaultValue" : 0.0,
                              "interp" : "eioe"
                            },
                            "geometryCrop0" : {
                              "type" : "double",
                              "defaultValue" : 0.0,
                              "interp" : "eioe"
                            },
                            "geometryCrop1" : {
                              "type" : "double",
                              "defaultValue" : 0.0,
                              "interp" : "eioe"
                            },
                            "geometryCrop2" : {
                              "type" : "double",
                              "defaultValue" : 0.0,
                              "interp" : "eioe"
                            },
                            "geometryCrop3" : {
                              "type" : "double",
                              "defaultValue" : 0.0,
                              "interp" : "eioe"
                            },
                            "cursorScale" : {
                              "type" : "double",
                              "defaultValue" : 2.25,
                              "interp" : "linr"
                            },
                            "cursorOpacity" : {
                              "type" : "double",
                              "defaultValue" : 1.0,
                              "interp" : "linr"
                            },
                            "smoothCursorAcrossEditDuration" : 235200000
                          },
                          "effects" : [

                          ],
                          "start" : 6797280000,
                          "duration" : 45064320000,
                          "mediaStart" : 0,
                          "mediaDuration" : 45064320000,
                          "scalar" : 1,
                          "animationTracks" : {

                          }
                        },
                    "audio" : 
                        {
                          "id" : 45,
                          "_type" : "AMFile",
                          "src" : 2,
                          "trackNumber" : 2,
                          "attributes" : {
                            "ident" : "",
                            "gain" : 1.0,
                            "mixToMono" : false,
                            "loudnessNormalization" : true,
                            "sourceFileOffset" : 0
                          },
                            "channelNumber" : "0,1",
                          "effects" : [
                              {
                                "effectName" : "WinCompression",
                                "bypassed" : false,
                                "category" : "categoryAudioEffects",
                                "parameters" : {
                                  "ratio" : 10.0,
                                  "threshold" : -20.0,
                                  "gain" : 9.0,
                                  "attack" : 0.0,
                                  "release" : 3500.0,
                                  "preset" : 1
                                },
                                "metadata" : {
                                  "effectIndex" : "0",
                                  "presetName" : "Audio Compression"
                                }
                              },
                              {
                                "effectName" : "NoiseReduction",
                                "bypassed" : false,
                                "category" : "categoryAudioEffects",
                                "parameters" : {
                                  "denoiserAmount" : 20.0,
                                  "denoiserThreshold" : 0.0,
                                  "noiseProfile" : "",
                                  "noiseTrainingType" : "default"
                                },
                                "metadata" : {
                                  "effectIndex" : "1",
                                  "presetName" : "Noise Removal"
                                }
                              }
                          ],
                          "start" : 6797280000,
                          "duration" : 45064320000,
                          "mediaStart" : 0,
                          "mediaDuration" : 45064320000,
                          "scalar" : 1,
                          "animationTracks" : {

                          }
                        }
,
                    "start" : 6797280000,
                    "duration" : 45064320000,
                    "mediaStart" : 0,
                    "mediaDuration" : 45064320000,
                    "scalar" : 1,
                    "metadata" : {
                      "AutoAppliedSmartFocus" : "False",
                      "clipSpeedAttribute" : false
                    }
                  },
                  {
                    "id" : 46,
                    "_type" : "UnifiedMedia",
                    "video" : 
                        {
                          "id" : 47,
                          "_type" : "ScreenVMFile",
                          "src" : 36,
                          "trackNumber" : 0,
                          "attributes" : {
                            "ident" : "Rec 1-4-2024-11-39-03-AM"
                          },
                          "parameters" : {
                            "scale0" : {
                              "type" : "double",
                              "defaultValue" : 0.666666666666667,
                              "interp" : "eioe"
                            },
                            "scale1" : {
                              "type" : "double",
                              "defaultValue" : 0.666666666666667,
                              "interp" : "eioe"
                            },
                            "sourceCrop0" : {
                              "type" : "double",
                              "defaultValue" : 0.0,
                              "interp" : "eioe"
                            },
                            "sourceCrop1" : {
                              "type" : "double",
                              "defaultValue" : 0.0,
                              "interp" : "eioe"
                            },
                            "sourceCrop2" : {
                              "type" : "double",
                              "defaultValue" : 0.0,
                              "interp" : "eioe"
                            },
                            "sourceCrop3" : {
                              "type" : "double",
                              "defaultValue" : 0.0,
                              "interp" : "eioe"
                            },
                            "geometryCrop0" : {
                              "type" : "double",
                              "defaultValue" : 0.0,
                              "interp" : "eioe"
                            },
                            "geometryCrop1" : {
                              "type" : "double",
                              "defaultValue" : 0.0,
                              "interp" : "eioe"
                            },
                            "geometryCrop2" : {
                              "type" : "double",
                              "defaultValue" : 0.0,
                              "interp" : "eioe"
                            },
                            "geometryCrop3" : {
                              "type" : "double",
                              "defaultValue" : 0.0,
                              "interp" : "eioe"
                            },
                            "cursorScale" : {
                              "type" : "double",
                              "defaultValue" : 1.0,
                              "interp" : "linr"
                            },
                            "cursorOpacity" : {
                              "type" : "double",
                              "defaultValue" : 1.0,
                              "interp" : "linr"
                            },
                            "smoothCursorAcrossEditDuration" : 235200000
                          },
                          "effects" : [

                          ],
                          "start" : 52261440000,
                          "duration" : 51720480000,
                          "mediaStart" : 0,
                          "mediaDuration" : 51720480000,
                          "scalar" : 1,
                          "animationTracks" : {

                          }
                        },
                    "audio" : 
                        {
                          "id" : 48,
                          "_type" : "AMFile",
                          "src" : 36,
                          "trackNumber" : 2,
                          "attributes" : {
                            "ident" : "",
                            "gain" : 1.0,
                            "mixToMono" : false,
                            "loudnessNormalization" : true,
                            "sourceFileOffset" : 0
                          },
                            "channelNumber" : "0,1",
                          "effects" : [
                              {
                                "effectName" : "WinCompression",
                                "bypassed" : false,
                                "category" : "categoryAudioEffects",
                                "parameters" : {
                                  "ratio" : 10.0,
                                  "threshold" : -20.0,
                                  "gain" : 9.0,
                                  "attack" : 0.0,
                                  "release" : 3500.0,
                                  "preset" : 1
                                },
                                "metadata" : {
                                  "effectIndex" : "0",
                                  "presetName" : "Audio Compression"
                                }
                              },
                              {
                                "effectName" : "NoiseReduction",
                                "bypassed" : false,
                                "category" : "categoryAudioEffects",
                                "parameters" : {
                                  "denoiserAmount" : 20.0,
                                  "denoiserThreshold" : 0.0,
                                  "noiseProfile" : "",
                                  "noiseTrainingType" : "default"
                                },
                                "metadata" : {
                                  "effectIndex" : "1",
                                  "presetName" : "Noise Removal"
                                }
                              }
                          ],
                          "start" : 52261440000,
                          "duration" : 51720480000,
                          "mediaStart" : 0,
                          "mediaDuration" : 51720480000,
                          "scalar" : 1,
                          "animationTracks" : {

                          }
                        }
,
                    "start" : 52261440000,
                    "duration" : 51720480000,
                    "mediaStart" : 0,
                    "mediaDuration" : 51720480000,
                    "scalar" : 1,
                    "metadata" : {
                      "AutoAppliedSmartFocus" : "False",
                      "clipSpeedAttribute" : false
                    }
                  },
                  {
                    "id" : 49,
                    "_type" : "UnifiedMedia",
                    "video" : 
                        {
                          "id" : 50,
                          "_type" : "ScreenVMFile",
                          "src" : 3,
                          "trackNumber" : 0,
                          "attributes" : {
                            "ident" : "Rec 11-7-2023-1-51-37-PM"
                          },
                          "parameters" : {
                            "scale0" : {
                              "type" : "double",
                              "defaultValue" : 0.666666666666667,
                              "interp" : "eioe"
                            },
                            "scale1" : {
                              "type" : "double",
                              "defaultValue" : 0.666666666666667,
                              "interp" : "eioe"
                            },
                            "sourceCrop0" : {
                              "type" : "double",
                              "defaultValue" : 0.0,
                              "interp" : "eioe"
                            },
                            "sourceCrop1" : {
                              "type" : "double",
                              "defaultValue" : 0.0,
                              "interp" : "eioe"
                            },
                            "sourceCrop2" : {
                              "type" : "double",
                              "defaultValue" : 0.0,
                              "interp" : "eioe"
                            },
                            "sourceCrop3" : {
                              "type" : "double",
                              "defaultValue" : 0.0,
                              "interp" : "eioe"
                            },
                            "geometryCrop0" : {
                              "type" : "double",
                              "defaultValue" : 0.0,
                              "interp" : "eioe"
                            },
                            "geometryCrop1" : {
                              "type" : "double",
                              "defaultValue" : 0.0,
                              "interp" : "eioe"
                            },
                            "geometryCrop2" : {
                              "type" : "double",
                              "defaultValue" : 0.0,
                              "interp" : "eioe"
                            },
                            "geometryCrop3" : {
                              "type" : "double",
                              "defaultValue" : 0.0,
                              "interp" : "eioe"
                            },
                            "cursorScale" : {
                              "type" : "double",
                              "defaultValue" : 1.0,
                              "interp" : "linr"
                            },
                            "cursorOpacity" : {
                              "type" : "double",
                              "defaultValue" : 1.0,
                              "interp" : "linr"
                            },
                            "smoothCursorAcrossEditDuration" : 235200000
                          },
                          "effects" : [

                          ],
                          "start" : 104922720000,
                          "duration" : 54401760000,
                          "mediaStart" : 705600000,
                          "mediaDuration" : 54401760000,
                          "scalar" : 1,
                          "animationTracks" : {

                          }
                        },
                    "audio" : 
                        {
                          "id" : 51,
                          "_type" : "AMFile",
                          "src" : 3,
                          "trackNumber" : 2,
                          "attributes" : {
                            "ident" : "",
                            "gain" : 1.0,
                            "mixToMono" : false,
                            "loudnessNormalization" : true,
                            "sourceFileOffset" : 0
                          },
                            "channelNumber" : "0,1",
                          "effects" : [
                              {
                                "effectName" : "WinCompression",
                                "bypassed" : false,
                                "category" : "categoryAudioEffects",
                                "parameters" : {
                                  "ratio" : 10.0,
                                  "threshold" : -20.0,
                                  "gain" : 9.0,
                                  "attack" : 0.0,
                                  "release" : 3500.0,
                                  "preset" : 1
                                },
                                "metadata" : {
                                  "effectIndex" : "0",
                                  "presetName" : "Audio Compression"
                                }
                              }
                          ],
                          "start" : 104922720000,
                          "duration" : 54401760000,
                          "mediaStart" : 705600000,
                          "mediaDuration" : 54401760000,
                          "scalar" : 1,
                          "animationTracks" : {

                          }
                        }
,
                    "start" : 104922720000,
                    "duration" : 54401760000,
                    "mediaStart" : 705600000,
                    "mediaDuration" : 54401760000,
                    "scalar" : 1,
                    "metadata" : {
                      "AutoAppliedSmartFocus" : "False",
                      "clipSpeedAttribute" : false
                    }
                  },
                  {
                    "id" : 52,
                    "_type" : "UnifiedMedia",
                    "video" : 
                        {
                          "id" : 53,
                          "_type" : "ScreenVMFile",
                          "src" : 4,
                          "trackNumber" : 0,
                          "attributes" : {
                            "ident" : "Rec 11-7-2023-1-54-49-PM"
                          },
                          "parameters" : {
                            "scale0" : {
                              "type" : "double",
                              "defaultValue" : 0.666666666666667,
                              "interp" : "eioe"
                            },
                            "scale1" : {
                              "type" : "double",
                              "defaultValue" : 0.666666666666667,
                              "interp" : "eioe"
                            },
                            "sourceCrop0" : {
                              "type" : "double",
                              "defaultValue" : 0.0,
                              "interp" : "eioe"
                            },
                            "sourceCrop1" : {
                              "type" : "double",
                              "defaultValue" : 0.0,
                              "interp" : "eioe"
                            },
                            "sourceCrop2" : {
                              "type" : "double",
                              "defaultValue" : 0.0,
                              "interp" : "eioe"
                            },
                            "sourceCrop3" : {
                              "type" : "double",
                              "defaultValue" : 0.0,
                              "interp" : "eioe"
                            },
                            "geometryCrop0" : {
                              "type" : "double",
                              "defaultValue" : 0.0,
                              "interp" : "eioe"
                            },
                            "geometryCrop1" : {
                              "type" : "double",
                              "defaultValue" : 0.0,
                              "interp" : "eioe"
                            },
                            "geometryCrop2" : {
                              "type" : "double",
                              "defaultValue" : 0.0,
                              "interp" : "eioe"
                            },
                            "geometryCrop3" : {
                              "type" : "double",
                              "defaultValue" : 0.0,
                              "interp" : "eioe"
                            },
                            "cursorScale" : {
                              "type" : "double",
                              "defaultValue" : 1.0,
                              "interp" : "linr"
                            },
                            "cursorOpacity" : {
                              "type" : "double",
                              "defaultValue" : 1.0,
                              "interp" : "linr"
                            },
                            "smoothCursorAcrossEditDuration" : 235200000
                          },
                          "effects" : [

                          ],
                          "start" : 159348000000,
                          "duration" : 54848640000,
                          "mediaStart" : 0,
                          "mediaDuration" : 54848640000,
                          "scalar" : 1,
                          "animationTracks" : {

                          }
                        },
                    "audio" : 
                        {
                          "id" : 54,
                          "_type" : "AMFile",
                          "src" : 4,
                          "trackNumber" : 2,
                          "attributes" : {
                            "ident" : "",
                            "gain" : 1.0,
                            "mixToMono" : false,
                            "loudnessNormalization" : true,
                            "sourceFileOffset" : 0
                          },
                            "channelNumber" : "0,1",
                          "effects" : [
                              {
                                "effectName" : "WinCompression",
                                "bypassed" : false,
                                "category" : "categoryAudioEffects",
                                "parameters" : {
                                  "ratio" : 10.0,
                                  "threshold" : -20.0,
                                  "gain" : 9.0,
                                  "attack" : 0.0,
                                  "release" : 3500.0,
                                  "preset" : 1
                                },
                                "metadata" : {
                                  "effectIndex" : "0",
                                  "presetName" : "Audio Compression"
                                }
                              }
                          ],
                          "start" : 159348000000,
                          "duration" : 54848640000,
                          "mediaStart" : 0,
                          "mediaDuration" : 54848640000,
                          "scalar" : 1,
                          "animationTracks" : {

                          }
                        }
,
                    "start" : 159348000000,
                    "duration" : 54848640000,
                    "mediaStart" : 0,
                    "mediaDuration" : 54848640000,
                    "scalar" : 1,
                    "metadata" : {
                      "AutoAppliedSmartFocus" : "False",
                      "clipSpeedAttribute" : false
                    }
                  },
                  {
                    "id" : 55,
                    "_type" : "UnifiedMedia",
                    "video" : 
                        {
                          "id" : 56,
                          "_type" : "ScreenVMFile",
                          "src" : 5,
                          "trackNumber" : 0,
                          "attributes" : {
                            "ident" : "Rec 11-7-2023-2-00-53-PM"
                          },
                          "parameters" : {
                            "scale0" : {
                              "type" : "double",
                              "defaultValue" : 0.666666666666667,
                              "interp" : "eioe"
                            },
                            "scale1" : {
                              "type" : "double",
                              "defaultValue" : 0.666666666666667,
                              "interp" : "eioe"
                            },
                            "sourceCrop0" : {
                              "type" : "double",
                              "defaultValue" : 0.0,
                              "interp" : "eioe"
                            },
                            "sourceCrop1" : {
                              "type" : "double",
                              "defaultValue" : 0.0,
                              "interp" : "eioe"
                            },
                            "sourceCrop2" : {
                              "type" : "double",
                              "defaultValue" : 0.0,
                              "interp" : "eioe"
                            },
                            "sourceCrop3" : {
                              "type" : "double",
                              "defaultValue" : 0.0,
                              "interp" : "eioe"
                            },
                            "geometryCrop0" : {
                              "type" : "double",
                              "defaultValue" : 0.0,
                              "interp" : "eioe"
                            },
                            "geometryCrop1" : {
                              "type" : "double",
                              "defaultValue" : 0.0,
                              "interp" : "eioe"
                            },
                            "geometryCrop2" : {
                              "type" : "double",
                              "defaultValue" : 0.0,
                              "interp" : "eioe"
                            },
                            "geometryCrop3" : {
                              "type" : "double",
                              "defaultValue" : 0.0,
                              "interp" : "eioe"
                            },
                            "toc" : {
                              "type" : "string",
                              "keyframes" : [
                                {
                                  "endTime" : 65315040000,
                                  "time" : 65315040000,
                                  "value" : "A Simple Example",
                                  "duration" : 0,
                                  "metadata" : {
                                    "markerIdentifier" : "E8E2E398-EC85-4007-887B-0794DF24208D"
                                  }
                                }
                              ]
                            },
                            "cursorScale" : {
                              "type" : "double",
                              "defaultValue" : 1.0,
                              "interp" : "linr"
                            },
                            "cursorOpacity" : {
                              "type" : "double",
                              "defaultValue" : 1.0,
                              "interp" : "linr"
                            },
                            "smoothCursorAcrossEditDuration" : 235200000
                          },
                          "effects" : [

                          ],
                          "start" : 214243680000,
                          "duration" : 65315040000,
                          "mediaStart" : 0,
                          "mediaDuration" : 65315040000,
                          "scalar" : 1,
                          "animationTracks" : {

                          }
                        },
                    "audio" : 
                        {
                          "id" : 57,
                          "_type" : "AMFile",
                          "src" : 5,
                          "trackNumber" : 2,
                          "attributes" : {
                            "ident" : "",
                            "gain" : 1.0,
                            "mixToMono" : false,
                            "loudnessNormalization" : true,
                            "sourceFileOffset" : 0
                          },
                            "channelNumber" : "0,1",
                          "effects" : [
                              {
                                "effectName" : "WinCompression",
                                "bypassed" : false,
                                "category" : "categoryAudioEffects",
                                "parameters" : {
                                  "ratio" : 10.0,
                                  "threshold" : -20.0,
                                  "gain" : 9.0,
                                  "attack" : 0.0,
                                  "release" : 3500.0,
                                  "preset" : 1
                                },
                                "metadata" : {
                                  "effectIndex" : "0",
                                  "presetName" : "Audio Compression"
                                }
                              }
                          ],
                          "start" : 214243680000,
                          "duration" : 65315040000,
                          "mediaStart" : 0,
                          "mediaDuration" : 65315040000,
                          "scalar" : 1,
                          "animationTracks" : {

                          }
                        }
,
                    "start" : 214243680000,
                    "duration" : 65315040000,
                    "mediaStart" : 0,
                    "mediaDuration" : 65315040000,
                    "scalar" : 1,
                    "metadata" : {
                      "AutoAppliedSmartFocus" : "False",
                      "clipSpeedAttribute" : false
                    }
                  },
                  {
                    "id" : 58,
                    "_type" : "UnifiedMedia",
                    "video" : 
                        {
                          "id" : 59,
                          "_type" : "ScreenVMFile",
                          "src" : 6,
                          "trackNumber" : 0,
                          "attributes" : {
                            "ident" : "Rec 11-7-2023-2-06-46-PM"
                          },
                          "parameters" : {
                            "scale0" : {
                              "type" : "double",
                              "defaultValue" : 0.666666666666667,
                              "interp" : "eioe"
                            },
                            "scale1" : {
                              "type" : "double",
                              "defaultValue" : 0.666666666666667,
                              "interp" : "eioe"
                            },
                            "sourceCrop0" : {
                              "type" : "double",
                              "defaultValue" : 0.0,
                              "interp" : "eioe"
                            },
                            "sourceCrop1" : {
                              "type" : "double",
                              "defaultValue" : 0.0,
                              "interp" : "eioe"
                            },
                            "sourceCrop2" : {
                              "type" : "double",
                              "defaultValue" : 0.0,
                              "interp" : "eioe"
                            },
                            "sourceCrop3" : {
                              "type" : "double",
                              "defaultValue" : 0.0,
                              "interp" : "eioe"
                            },
                            "geometryCrop0" : {
                              "type" : "double",
                              "defaultValue" : 0.0,
                              "interp" : "eioe"
                            },
                            "geometryCrop1" : {
                              "type" : "double",
                              "defaultValue" : 0.0,
                              "interp" : "eioe"
                            },
                            "geometryCrop2" : {
                              "type" : "double",
                              "defaultValue" : 0.0,
                              "interp" : "eioe"
                            },
                            "geometryCrop3" : {
                              "type" : "double",
                              "defaultValue" : 0.0,
                              "interp" : "eioe"
                            },
                            "cursorScale" : {
                              "type" : "double",
                              "defaultValue" : 1.0,
                              "interp" : "linr"
                            },
                            "cursorOpacity" : {
                              "type" : "double",
                              "defaultValue" : 1.0,
                              "interp" : "linr"
                            },
                            "smoothCursorAcrossEditDuration" : 235200000
                          },
                          "effects" : [

                          ],
                          "start" : 279558720000,
                          "duration" : 93045120000,
                          "mediaStart" : 0,
                          "mediaDuration" : 93045120000,
                          "scalar" : 1,
                          "animationTracks" : {

                          }
                        },
                    "audio" : 
                        {
                          "id" : 60,
                          "_type" : "AMFile",
                          "src" : 6,
                          "trackNumber" : 2,
                          "attributes" : {
                            "ident" : "",
                            "gain" : 1.0,
                            "mixToMono" : false,
                            "loudnessNormalization" : true,
                            "sourceFileOffset" : 0
                          },
                            "channelNumber" : "0,1",
                          "effects" : [
                              {
                                "effectName" : "WinCompression",
                                "bypassed" : false,
                                "category" : "categoryAudioEffects",
                                "parameters" : {
                                  "ratio" : 10.0,
                                  "threshold" : -20.0,
                                  "gain" : 9.0,
                                  "attack" : 0.0,
                                  "release" : 3500.0,
                                  "preset" : 1
                                },
                                "metadata" : {
                                  "effectIndex" : "0",
                                  "presetName" : "Audio Compression"
                                }
                              }
                          ],
                          "start" : 279558720000,
                          "duration" : 93045120000,
                          "mediaStart" : 0,
                          "mediaDuration" : 93045120000,
                          "scalar" : 1,
                          "animationTracks" : {

                          }
                        }
,
                    "start" : 279558720000,
                    "duration" : 93045120000,
                    "mediaStart" : 0,
                    "mediaDuration" : 93045120000,
                    "scalar" : 1,
                    "metadata" : {
                      "AutoAppliedSmartFocus" : "False",
                      "clipSpeedAttribute" : false
                    }
                  },
                  {
                    "id" : 61,
                    "_type" : "UnifiedMedia",
                    "video" : 
                        {
                          "id" : 62,
                          "_type" : "ScreenVMFile",
                          "src" : 7,
                          "trackNumber" : 0,
                          "attributes" : {
                            "ident" : "Rec 11-7-2023-2-10-55-PM"
                          },
                          "parameters" : {
                            "scale0" : {
                              "type" : "double",
                              "defaultValue" : 0.666666666666667,
                              "interp" : "eioe"
                            },
                            "scale1" : {
                              "type" : "double",
                              "defaultValue" : 0.666666666666667,
                              "interp" : "eioe"
                            },
                            "sourceCrop0" : {
                              "type" : "double",
                              "defaultValue" : 0.0,
                              "interp" : "eioe"
                            },
                            "sourceCrop1" : {
                              "type" : "double",
                              "defaultValue" : 0.0,
                              "interp" : "eioe"
                            },
                            "sourceCrop2" : {
                              "type" : "double",
                              "defaultValue" : 0.0,
                              "interp" : "eioe"
                            },
                            "sourceCrop3" : {
                              "type" : "double",
                              "defaultValue" : 0.0,
                              "interp" : "eioe"
                            },
                            "geometryCrop0" : {
                              "type" : "double",
                              "defaultValue" : 0.0,
                              "interp" : "eioe"
                            },
                            "geometryCrop1" : {
                              "type" : "double",
                              "defaultValue" : 0.0,
                              "interp" : "eioe"
                            },
                            "geometryCrop2" : {
                              "type" : "double",
                              "defaultValue" : 0.0,
                              "interp" : "eioe"
                            },
                            "geometryCrop3" : {
                              "type" : "double",
                              "defaultValue" : 0.0,
                              "interp" : "eioe"
                            },
                            "cursorScale" : {
                              "type" : "double",
                              "defaultValue" : 1.0,
                              "interp" : "linr"
                            },
                            "cursorOpacity" : {
                              "type" : "double",
                              "defaultValue" : 1.0,
                              "interp" : "linr"
                            },
                            "smoothCursorAcrossEditDuration" : 235200000
                          },
                          "effects" : [

                          ],
                          "start" : 372650880000,
                          "duration" : 67290720000,
                          "mediaStart" : 0,
                          "mediaDuration" : 67290720000,
                          "scalar" : 1,
                          "animationTracks" : {

                          }
                        },
                    "audio" : 
                        {
                          "id" : 63,
                          "_type" : "AMFile",
                          "src" : 7,
                          "trackNumber" : 2,
                          "attributes" : {
                            "ident" : "",
                            "gain" : 1.0,
                            "mixToMono" : false,
                            "loudnessNormalization" : true,
                            "sourceFileOffset" : 0
                          },
                            "channelNumber" : "0,1",
                          "effects" : [
                              {
                                "effectName" : "WinCompression",
                                "bypassed" : false,
                                "category" : "categoryAudioEffects",
                                "parameters" : {
                                  "ratio" : 10.0,
                                  "threshold" : -20.0,
                                  "gain" : 9.0,
                                  "attack" : 0.0,
                                  "release" : 3500.0,
                                  "preset" : 1
                                },
                                "metadata" : {
                                  "effectIndex" : "0",
                                  "presetName" : "Audio Compression"
                                }
                              }
                          ],
                          "start" : 372650880000,
                          "duration" : 67290720000,
                          "mediaStart" : 0,
                          "mediaDuration" : 67290720000,
                          "scalar" : 1,
                          "animationTracks" : {

                          }
                        }
,
                    "start" : 372650880000,
                    "duration" : 67290720000,
                    "mediaStart" : 0,
                    "mediaDuration" : 67290720000,
                    "scalar" : 1,
                    "metadata" : {
                      "AutoAppliedSmartFocus" : "False",
                      "clipSpeedAttribute" : false
                    }
                  },
                  {
                    "id" : 64,
                    "_type" : "UnifiedMedia",
                    "video" : 
                        {
                          "id" : 65,
                          "_type" : "ScreenVMFile",
                          "src" : 8,
                          "trackNumber" : 0,
                          "attributes" : {
                            "ident" : "Rec 11-7-2023-2-14-20-PM"
                          },
                          "parameters" : {
                            "scale0" : {
                              "type" : "double",
                              "defaultValue" : 0.666666666666667,
                              "interp" : "eioe"
                            },
                            "scale1" : {
                              "type" : "double",
                              "defaultValue" : 0.666666666666667,
                              "interp" : "eioe"
                            },
                            "sourceCrop0" : {
                              "type" : "double",
                              "defaultValue" : 0.0,
                              "interp" : "eioe"
                            },
                            "sourceCrop1" : {
                              "type" : "double",
                              "defaultValue" : 0.0,
                              "interp" : "eioe"
                            },
                            "sourceCrop2" : {
                              "type" : "double",
                              "defaultValue" : 0.0,
                              "interp" : "eioe"
                            },
                            "sourceCrop3" : {
                              "type" : "double",
                              "defaultValue" : 0.0,
                              "interp" : "eioe"
                            },
                            "geometryCrop0" : {
                              "type" : "double",
                              "defaultValue" : 0.0,
                              "interp" : "eioe"
                            },
                            "geometryCrop1" : {
                              "type" : "double",
                              "defaultValue" : 0.0,
                              "interp" : "eioe"
                            },
                            "geometryCrop2" : {
                              "type" : "double",
                              "defaultValue" : 0.0,
                              "interp" : "eioe"
                            },
                            "geometryCrop3" : {
                              "type" : "double",
                              "defaultValue" : 0.0,
                              "interp" : "eioe"
                            },
                            "cursorScale" : {
                              "type" : "double",
                              "defaultValue" : 1.0,
                              "interp" : "linr"
                            },
                            "cursorOpacity" : {
                              "type" : "double",
                              "defaultValue" : 1.0,
                              "interp" : "linr"
                            },
                            "smoothCursorAcrossEditDuration" : 235200000
                          },
                          "effects" : [

                          ],
                          "start" : 439988640000,
                          "duration" : 64562400000,
                          "mediaStart" : 0,
                          "mediaDuration" : 64562400000,
                          "scalar" : 1,
                          "animationTracks" : {

                          }
                        },
                    "audio" : 
                        {
                          "id" : 66,
                          "_type" : "AMFile",
                          "src" : 8,
                          "trackNumber" : 2,
                          "attributes" : {
                            "ident" : "",
                            "gain" : 1.0,
                            "mixToMono" : false,
                            "loudnessNormalization" : true,
                            "sourceFileOffset" : 0
                          },
                            "channelNumber" : "0,1",
                          "effects" : [
                              {
                                "effectName" : "WinCompression",
                                "bypassed" : false,
                                "category" : "categoryAudioEffects",
                                "parameters" : {
                                  "ratio" : 10.0,
                                  "threshold" : -20.0,
                                  "gain" : 9.0,
                                  "attack" : 0.0,
                                  "release" : 3500.0,
                                  "preset" : 1
                                },
                                "metadata" : {
                                  "effectIndex" : "0",
                                  "presetName" : "Audio Compression"
                                }
                              }
                          ],
                          "start" : 439988640000,
                          "duration" : 64562400000,
                          "mediaStart" : 0,
                          "mediaDuration" : 64562400000,
                          "scalar" : 1,
                          "animationTracks" : {

                          }
                        }
,
                    "start" : 439988640000,
                    "duration" : 64562400000,
                    "mediaStart" : 0,
                    "mediaDuration" : 64562400000,
                    "scalar" : 1,
                    "metadata" : {
                      "AutoAppliedSmartFocus" : "False",
                      "clipSpeedAttribute" : false
                    }
                  },
                  {
                    "id" : 67,
                    "_type" : "UnifiedMedia",
                    "video" : 
                        {
                          "id" : 68,
                          "_type" : "ScreenVMFile",
                          "src" : 9,
                          "trackNumber" : 0,
                          "attributes" : {
                            "ident" : "Rec 11-7-2023-2-18-05-PM"
                          },
                          "parameters" : {
                            "scale0" : {
                              "type" : "double",
                              "defaultValue" : 0.666666666666667,
                              "interp" : "eioe"
                            },
                            "scale1" : {
                              "type" : "double",
                              "defaultValue" : 0.666666666666667,
                              "interp" : "eioe"
                            },
                            "sourceCrop0" : {
                              "type" : "double",
                              "defaultValue" : 0.0,
                              "interp" : "eioe"
                            },
                            "sourceCrop1" : {
                              "type" : "double",
                              "defaultValue" : 0.0,
                              "interp" : "eioe"
                            },
                            "sourceCrop2" : {
                              "type" : "double",
                              "defaultValue" : 0.0,
                              "interp" : "eioe"
                            },
                            "sourceCrop3" : {
                              "type" : "double",
                              "defaultValue" : 0.0,
                              "interp" : "eioe"
                            },
                            "geometryCrop0" : {
                              "type" : "double",
                              "defaultValue" : 0.0,
                              "interp" : "eioe"
                            },
                            "geometryCrop1" : {
                              "type" : "double",
                              "defaultValue" : 0.0,
                              "interp" : "eioe"
                            },
                            "geometryCrop2" : {
                              "type" : "double",
                              "defaultValue" : 0.0,
                              "interp" : "eioe"
                            },
                            "geometryCrop3" : {
                              "type" : "double",
                              "defaultValue" : 0.0,
                              "interp" : "eioe"
                            },
                            "cursorScale" : {
                              "type" : "double",
                              "defaultValue" : 1.0,
                              "interp" : "linr"
                            },
                            "cursorOpacity" : {
                              "type" : "double",
                              "defaultValue" : 1.0,
                              "interp" : "linr"
                            },
                            "smoothCursorAcrossEditDuration" : 235200000
                          },
                          "effects" : [

                          ],
                          "start" : 504598080000,
                          "duration" : 54519360000,
                          "mediaStart" : 0,
                          "mediaDuration" : 54519360000,
                          "scalar" : 1,
                          "animationTracks" : {

                          }
                        },
                    "audio" : 
                        {
                          "id" : 69,
                          "_type" : "AMFile",
                          "src" : 9,
                          "trackNumber" : 2,
                          "attributes" : {
                            "ident" : "",
                            "gain" : 1.0,
                            "mixToMono" : false,
                            "loudnessNormalization" : true,
                            "sourceFileOffset" : 0
                          },
                            "channelNumber" : "0,1",
                          "effects" : [
                              {
                                "effectName" : "WinCompression",
                                "bypassed" : false,
                                "category" : "categoryAudioEffects",
                                "parameters" : {
                                  "ratio" : 10.0,
                                  "threshold" : -20.0,
                                  "gain" : 9.0,
                                  "attack" : 0.0,
                                  "release" : 3500.0,
                                  "preset" : 1
                                },
                                "metadata" : {
                                  "effectIndex" : "0",
                                  "presetName" : "Audio Compression"
                                }
                              }
                          ],
                          "start" : 504598080000,
                          "duration" : 54519360000,
                          "mediaStart" : 0,
                          "mediaDuration" : 54519360000,
                          "scalar" : 1,
                          "animationTracks" : {

                          }
                        }
,
                    "start" : 504598080000,
                    "duration" : 54519360000,
                    "mediaStart" : 0,
                    "mediaDuration" : 54519360000,
                    "scalar" : 1,
                    "metadata" : {
                      "AutoAppliedSmartFocus" : "False",
                      "clipSpeedAttribute" : false
                    }
                  },
                  {
                    "id" : 70,
                    "_type" : "UnifiedMedia",
                    "video" : 
                        {
                          "id" : 71,
                          "_type" : "ScreenVMFile",
                          "src" : 10,
                          "trackNumber" : 0,
                          "attributes" : {
                            "ident" : "Rec 11-7-2023-2-26-45-PM"
                          },
                          "parameters" : {
                            "scale0" : {
                              "type" : "double",
                              "defaultValue" : 0.666666666666667,
                              "interp" : "eioe"
                            },
                            "scale1" : {
                              "type" : "double",
                              "defaultValue" : 0.666666666666667,
                              "interp" : "eioe"
                            },
                            "sourceCrop0" : {
                              "type" : "double",
                              "defaultValue" : 0.0,
                              "interp" : "eioe"
                            },
                            "sourceCrop1" : {
                              "type" : "double",
                              "defaultValue" : 0.0,
                              "interp" : "eioe"
                            },
                            "sourceCrop2" : {
                              "type" : "double",
                              "defaultValue" : 0.0,
                              "interp" : "eioe"
                            },
                            "sourceCrop3" : {
                              "type" : "double",
                              "defaultValue" : 0.0,
                              "interp" : "eioe"
                            },
                            "geometryCrop0" : {
                              "type" : "double",
                              "defaultValue" : 0.0,
                              "interp" : "eioe"
                            },
                            "geometryCrop1" : {
                              "type" : "double",
                              "defaultValue" : 0.0,
                              "interp" : "eioe"
                            },
                            "geometryCrop2" : {
                              "type" : "double",
                              "defaultValue" : 0.0,
                              "interp" : "eioe"
                            },
                            "geometryCrop3" : {
                              "type" : "double",
                              "defaultValue" : 0.0,
                              "interp" : "eioe"
                            },
                            "cursorScale" : {
                              "type" : "double",
                              "defaultValue" : 1.0,
                              "interp" : "linr"
                            },
                            "cursorOpacity" : {
                              "type" : "double",
                              "defaultValue" : 1.0,
                              "interp" : "linr"
                            },
                            "smoothCursorAcrossEditDuration" : 235200000
                          },
                          "effects" : [

                          ],
                          "start" : 559140960000,
                          "duration" : 63433440000,
                          "mediaStart" : 0,
                          "mediaDuration" : 63433440000,
                          "scalar" : 1,
                          "animationTracks" : {

                          }
                        },
                    "audio" : 
                        {
                          "id" : 72,
                          "_type" : "AMFile",
                          "src" : 10,
                          "trackNumber" : 2,
                          "attributes" : {
                            "ident" : "",
                            "gain" : 1.0,
                            "mixToMono" : false,
                            "loudnessNormalization" : true,
                            "sourceFileOffset" : 0
                          },
                            "channelNumber" : "0,1",
                          "effects" : [
                              {
                                "effectName" : "WinCompression",
                                "bypassed" : false,
                                "category" : "categoryAudioEffects",
                                "parameters" : {
                                  "ratio" : 10.0,
                                  "threshold" : -20.0,
                                  "gain" : 9.0,
                                  "attack" : 0.0,
                                  "release" : 3500.0,
                                  "preset" : 1
                                },
                                "metadata" : {
                                  "effectIndex" : "0",
                                  "presetName" : "Audio Compression"
                                }
                              }
                          ],
                          "start" : 559140960000,
                          "duration" : 63433440000,
                          "mediaStart" : 0,
                          "mediaDuration" : 63433440000,
                          "scalar" : 1,
                          "animationTracks" : {

                          }
                        }
,
                    "start" : 559140960000,
                    "duration" : 63433440000,
                    "mediaStart" : 0,
                    "mediaDuration" : 63433440000,
                    "scalar" : 1,
                    "metadata" : {
                      "AutoAppliedSmartFocus" : "False",
                      "clipSpeedAttribute" : false
                    }
                  },
                  {
                    "id" : 73,
                    "_type" : "UnifiedMedia",
                    "video" : 
                        {
                          "id" : 74,
                          "_type" : "ScreenVMFile",
                          "src" : 11,
                          "trackNumber" : 0,
                          "attributes" : {
                            "ident" : "Rec 11-7-2023-2-31-28-PM"
                          },
                          "parameters" : {
                            "scale0" : {
                              "type" : "double",
                              "defaultValue" : 0.666666666666667,
                              "interp" : "eioe"
                            },
                            "scale1" : {
                              "type" : "double",
                              "defaultValue" : 0.666666666666667,
                              "interp" : "eioe"
                            },
                            "sourceCrop0" : {
                              "type" : "double",
                              "defaultValue" : 0.0,
                              "interp" : "eioe"
                            },
                            "sourceCrop1" : {
                              "type" : "double",
                              "defaultValue" : 0.0,
                              "interp" : "eioe"
                            },
                            "sourceCrop2" : {
                              "type" : "double",
                              "defaultValue" : 0.0,
                              "interp" : "eioe"
                            },
                            "sourceCrop3" : {
                              "type" : "double",
                              "defaultValue" : 0.0,
                              "interp" : "eioe"
                            },
                            "geometryCrop0" : {
                              "type" : "double",
                              "defaultValue" : 0.0,
                              "interp" : "eioe"
                            },
                            "geometryCrop1" : {
                              "type" : "double",
                              "defaultValue" : 0.0,
                              "interp" : "eioe"
                            },
                            "geometryCrop2" : {
                              "type" : "double",
                              "defaultValue" : 0.0,
                              "interp" : "eioe"
                            },
                            "geometryCrop3" : {
                              "type" : "double",
                              "defaultValue" : 0.0,
                              "interp" : "eioe"
                            },
                            "cursorScale" : {
                              "type" : "double",
                              "defaultValue" : 1.0,
                              "interp" : "linr"
                            },
                            "cursorOpacity" : {
                              "type" : "double",
                              "defaultValue" : 1.0,
                              "interp" : "linr"
                            },
                            "smoothCursorAcrossEditDuration" : 235200000
                          },
                          "effects" : [

                          ],
                          "start" : 622574400000,
                          "duration" : 66538080000,
                          "mediaStart" : 0,
                          "mediaDuration" : 66538080000,
                          "scalar" : 1,
                          "animationTracks" : {

                          }
                        },
                    "audio" : 
                        {
                          "id" : 75,
                          "_type" : "AMFile",
                          "src" : 11,
                          "trackNumber" : 2,
                          "attributes" : {
                            "ident" : "",
                            "gain" : 1.0,
                            "mixToMono" : false,
                            "loudnessNormalization" : true,
                            "sourceFileOffset" : 0
                          },
                            "channelNumber" : "0,1",
                          "effects" : [
                              {
                                "effectName" : "WinCompression",
                                "bypassed" : false,
                                "category" : "categoryAudioEffects",
                                "parameters" : {
                                  "ratio" : 10.0,
                                  "threshold" : -20.0,
                                  "gain" : 9.0,
                                  "attack" : 0.0,
                                  "release" : 3500.0,
                                  "preset" : 1
                                },
                                "metadata" : {
                                  "effectIndex" : "0",
                                  "presetName" : "Audio Compression"
                                }
                              }
                          ],
                          "start" : 622574400000,
                          "duration" : 66538080000,
                          "mediaStart" : 0,
                          "mediaDuration" : 66538080000,
                          "scalar" : 1,
                          "animationTracks" : {

                          }
                        }
,
                    "start" : 622574400000,
                    "duration" : 66538080000,
                    "mediaStart" : 0,
                    "mediaDuration" : 66538080000,
                    "scalar" : 1,
                    "metadata" : {
                      "AutoAppliedSmartFocus" : "False",
                      "clipSpeedAttribute" : false
                    }
                  },
                  {
                    "id" : 76,
                    "_type" : "UnifiedMedia",
                    "video" : 
                        {
                          "id" : 77,
                          "_type" : "ScreenVMFile",
                          "src" : 12,
                          "trackNumber" : 0,
                          "attributes" : {
                            "ident" : "Rec 11-7-2023-2-35-00-PM"
                          },
                          "parameters" : {
                            "scale0" : {
                              "type" : "double",
                              "defaultValue" : 0.666666666666667,
                              "interp" : "eioe"
                            },
                            "scale1" : {
                              "type" : "double",
                              "defaultValue" : 0.666666666666667,
                              "interp" : "eioe"
                            },
                            "sourceCrop0" : {
                              "type" : "double",
                              "defaultValue" : 0.0,
                              "interp" : "eioe"
                            },
                            "sourceCrop1" : {
                              "type" : "double",
                              "defaultValue" : 0.0,
                              "interp" : "eioe"
                            },
                            "sourceCrop2" : {
                              "type" : "double",
                              "defaultValue" : 0.0,
                              "interp" : "eioe"
                            },
                            "sourceCrop3" : {
                              "type" : "double",
                              "defaultValue" : 0.0,
                              "interp" : "eioe"
                            },
                            "geometryCrop0" : {
                              "type" : "double",
                              "defaultValue" : 0.0,
                              "interp" : "eioe"
                            },
                            "geometryCrop1" : {
                              "type" : "double",
                              "defaultValue" : 0.0,
                              "interp" : "eioe"
                            },
                            "geometryCrop2" : {
                              "type" : "double",
                              "defaultValue" : 0.0,
                              "interp" : "eioe"
                            },
                            "geometryCrop3" : {
                              "type" : "double",
                              "defaultValue" : 0.0,
                              "interp" : "eioe"
                            },
                            "cursorScale" : {
                              "type" : "double",
                              "defaultValue" : 1.0,
                              "interp" : "linr"
                            },
                            "cursorOpacity" : {
                              "type" : "double",
                              "defaultValue" : 1.0,
                              "interp" : "linr"
                            },
                            "smoothCursorAcrossEditDuration" : 235200000
                          },
                          "effects" : [

                          ],
                          "start" : 689136000000,
                          "duration" : 98972160000,
                          "mediaStart" : 0,
                          "mediaDuration" : 98972160000,
                          "scalar" : 1,
                          "animationTracks" : {

                          }
                        },
                    "audio" : 
                        {
                          "id" : 78,
                          "_type" : "AMFile",
                          "src" : 12,
                          "trackNumber" : 2,
                          "attributes" : {
                            "ident" : "",
                            "gain" : 1.0,
                            "mixToMono" : false,
                            "loudnessNormalization" : true,
                            "sourceFileOffset" : 0
                          },
                            "channelNumber" : "0,1",
                          "effects" : [
                              {
                                "effectName" : "WinCompression",
                                "bypassed" : false,
                                "category" : "categoryAudioEffects",
                                "parameters" : {
                                  "ratio" : 10.0,
                                  "threshold" : -20.0,
                                  "gain" : 9.0,
                                  "attack" : 0.0,
                                  "release" : 3500.0,
                                  "preset" : 1
                                },
                                "metadata" : {
                                  "effectIndex" : "0",
                                  "presetName" : "Audio Compression"
                                }
                              }
                          ],
                          "start" : 689136000000,
                          "duration" : 98972160000,
                          "mediaStart" : 0,
                          "mediaDuration" : 98972160000,
                          "scalar" : 1,
                          "animationTracks" : {

                          }
                        }
,
                    "start" : 689136000000,
                    "duration" : 98972160000,
                    "mediaStart" : 0,
                    "mediaDuration" : 98972160000,
                    "scalar" : 1,
                    "metadata" : {
                      "AutoAppliedSmartFocus" : "False",
                      "clipSpeedAttribute" : false
                    }
                  },
                  {
                    "id" : 79,
                    "_type" : "UnifiedMedia",
                    "video" : 
                        {
                          "id" : 80,
                          "_type" : "ScreenVMFile",
                          "src" : 13,
                          "trackNumber" : 0,
                          "attributes" : {
                            "ident" : "Rec 11-7-2023-2-39-17-PM"
                          },
                          "parameters" : {
                            "scale0" : {
                              "type" : "double",
                              "defaultValue" : 0.666666666666667,
                              "interp" : "eioe"
                            },
                            "scale1" : {
                              "type" : "double",
                              "defaultValue" : 0.666666666666667,
                              "interp" : "eioe"
                            },
                            "sourceCrop0" : {
                              "type" : "double",
                              "defaultValue" : 0.0,
                              "interp" : "eioe"
                            },
                            "sourceCrop1" : {
                              "type" : "double",
                              "defaultValue" : 0.0,
                              "interp" : "eioe"
                            },
                            "sourceCrop2" : {
                              "type" : "double",
                              "defaultValue" : 0.0,
                              "interp" : "eioe"
                            },
                            "sourceCrop3" : {
                              "type" : "double",
                              "defaultValue" : 0.0,
                              "interp" : "eioe"
                            },
                            "geometryCrop0" : {
                              "type" : "double",
                              "defaultValue" : 0.0,
                              "interp" : "eioe"
                            },
                            "geometryCrop1" : {
                              "type" : "double",
                              "defaultValue" : 0.0,
                              "interp" : "eioe"
                            },
                            "geometryCrop2" : {
                              "type" : "double",
                              "defaultValue" : 0.0,
                              "interp" : "eioe"
                            },
                            "geometryCrop3" : {
                              "type" : "double",
                              "defaultValue" : 0.0,
                              "interp" : "eioe"
                            },
                            "cursorScale" : {
                              "type" : "double",
                              "defaultValue" : 1.0,
                              "interp" : "linr"
                            },
                            "cursorOpacity" : {
                              "type" : "double",
                              "defaultValue" : 1.0,
                              "interp" : "linr"
                            },
                            "smoothCursorAcrossEditDuration" : 235200000
                          },
                          "effects" : [

                          ],
                          "start" : 788155200000,
                          "duration" : 88458720000,
                          "mediaStart" : 0,
                          "mediaDuration" : 88458720000,
                          "scalar" : 1,
                          "animationTracks" : {

                          }
                        },
                    "audio" : 
                        {
                          "id" : 81,
                          "_type" : "AMFile",
                          "src" : 13,
                          "trackNumber" : 2,
                          "attributes" : {
                            "ident" : "",
                            "gain" : 1.0,
                            "mixToMono" : false,
                            "loudnessNormalization" : true,
                            "sourceFileOffset" : 0
                          },
                            "channelNumber" : "0,1",
                          "effects" : [
                              {
                                "effectName" : "WinCompression",
                                "bypassed" : false,
                                "category" : "categoryAudioEffects",
                                "parameters" : {
                                  "ratio" : 10.0,
                                  "threshold" : -20.0,
                                  "gain" : 9.0,
                                  "attack" : 0.0,
                                  "release" : 3500.0,
                                  "preset" : 1
                                },
                                "metadata" : {
                                  "effectIndex" : "0",
                                  "presetName" : "Audio Compression"
                                }
                              }
                          ],
                          "start" : 788155200000,
                          "duration" : 88458720000,
                          "mediaStart" : 0,
                          "mediaDuration" : 88458720000,
                          "scalar" : 1,
                          "animationTracks" : {

                          }
                        }
,
                    "start" : 788155200000,
                    "duration" : 88458720000,
                    "mediaStart" : 0,
                    "mediaDuration" : 88458720000,
                    "scalar" : 1,
                    "metadata" : {
                      "AutoAppliedSmartFocus" : "False",
                      "clipSpeedAttribute" : false
                    }
                  },
                  {
                    "id" : 82,
                    "_type" : "UnifiedMedia",
                    "video" : 
                        {
                          "id" : 83,
                          "_type" : "ScreenVMFile",
                          "src" : 14,
                          "trackNumber" : 0,
                          "attributes" : {
                            "ident" : "Rec 11-7-2023-2-41-27-PM"
                          },
                          "parameters" : {
                            "scale0" : {
                              "type" : "double",
                              "defaultValue" : 0.666666666666667,
                              "interp" : "eioe"
                            },
                            "scale1" : {
                              "type" : "double",
                              "defaultValue" : 0.666666666666667,
                              "interp" : "eioe"
                            },
                            "sourceCrop0" : {
                              "type" : "double",
                              "defaultValue" : 0.0,
                              "interp" : "eioe"
                            },
                            "sourceCrop1" : {
                              "type" : "double",
                              "defaultValue" : 0.0,
                              "interp" : "eioe"
                            },
                            "sourceCrop2" : {
                              "type" : "double",
                              "defaultValue" : 0.0,
                              "interp" : "eioe"
                            },
                            "sourceCrop3" : {
                              "type" : "double",
                              "defaultValue" : 0.0,
                              "interp" : "eioe"
                            },
                            "geometryCrop0" : {
                              "type" : "double",
                              "defaultValue" : 0.0,
                              "interp" : "eioe"
                            },
                            "geometryCrop1" : {
                              "type" : "double",
                              "defaultValue" : 0.0,
                              "interp" : "eioe"
                            },
                            "geometryCrop2" : {
                              "type" : "double",
                              "defaultValue" : 0.0,
                              "interp" : "eioe"
                            },
                            "geometryCrop3" : {
                              "type" : "double",
                              "defaultValue" : 0.0,
                              "interp" : "eioe"
                            },
                            "cursorScale" : {
                              "type" : "double",
                              "defaultValue" : 1.0,
                              "interp" : "linr"
                            },
                            "cursorOpacity" : {
                              "type" : "double",
                              "defaultValue" : 1.0,
                              "interp" : "linr"
                            },
                            "smoothCursorAcrossEditDuration" : 235200000
                          },
                          "effects" : [

                          ],
                          "start" : 876613920000,
                          "duration" : 34786080000,
                          "mediaStart" : 0,
                          "mediaDuration" : 34786080000,
                          "scalar" : 1,
                          "animationTracks" : {

                          }
                        },
                    "audio" : 
                        {
                          "id" : 84,
                          "_type" : "AMFile",
                          "src" : 14,
                          "trackNumber" : 2,
                          "attributes" : {
                            "ident" : "",
                            "gain" : 1.0,
                            "mixToMono" : false,
                            "loudnessNormalization" : true,
                            "sourceFileOffset" : 0
                          },
                            "channelNumber" : "0,1",
                          "effects" : [
                              {
                                "effectName" : "WinCompression",
                                "bypassed" : false,
                                "category" : "categoryAudioEffects",
                                "parameters" : {
                                  "ratio" : 10.0,
                                  "threshold" : -20.0,
                                  "gain" : 9.0,
                                  "attack" : 0.0,
                                  "release" : 3500.0,
                                  "preset" : 1
                                },
                                "metadata" : {
                                  "effectIndex" : "0",
                                  "presetName" : "Audio Compression"
                                }
                              }
                          ],
                          "start" : 876613920000,
                          "duration" : 34786080000,
                          "mediaStart" : 0,
                          "mediaDuration" : 34786080000,
                          "scalar" : 1,
                          "animationTracks" : {

                          }
                        }
,
                    "start" : 876613920000,
                    "duration" : 34786080000,
                    "mediaStart" : 0,
                    "mediaDuration" : 34786080000,
                    "scalar" : 1,
                    "metadata" : {
                      "AutoAppliedSmartFocus" : "False",
                      "clipSpeedAttribute" : false
                    }
                  },
                  {
                    "id" : 85,
                    "_type" : "UnifiedMedia",
                    "video" : 
                        {
                          "id" : 86,
                          "_type" : "ScreenVMFile",
                          "src" : 15,
                          "trackNumber" : 0,
                          "attributes" : {
                            "ident" : "Rec 11-7-2023-2-44-36-PM"
                          },
                          "parameters" : {
                            "scale0" : {
                              "type" : "double",
                              "defaultValue" : 0.666666666666667,
                              "interp" : "eioe"
                            },
                            "scale1" : {
                              "type" : "double",
                              "defaultValue" : 0.666666666666667,
                              "interp" : "eioe"
                            },
                            "sourceCrop0" : {
                              "type" : "double",
                              "defaultValue" : 0.0,
                              "interp" : "eioe"
                            },
                            "sourceCrop1" : {
                              "type" : "double",
                              "defaultValue" : 0.0,
                              "interp" : "eioe"
                            },
                            "sourceCrop2" : {
                              "type" : "double",
                              "defaultValue" : 0.0,
                              "interp" : "eioe"
                            },
                            "sourceCrop3" : {
                              "type" : "double",
                              "defaultValue" : 0.0,
                              "interp" : "eioe"
                            },
                            "geometryCrop0" : {
                              "type" : "double",
                              "defaultValue" : 0.0,
                              "interp" : "eioe"
                            },
                            "geometryCrop1" : {
                              "type" : "double",
                              "defaultValue" : 0.0,
                              "interp" : "eioe"
                            },
                            "geometryCrop2" : {
                              "type" : "double",
                              "defaultValue" : 0.0,
                              "interp" : "eioe"
                            },
                            "geometryCrop3" : {
                              "type" : "double",
                              "defaultValue" : 0.0,
                              "interp" : "eioe"
                            },
                            "cursorScale" : {
                              "type" : "double",
                              "defaultValue" : 1.0,
                              "interp" : "linr"
                            },
                            "cursorOpacity" : {
                              "type" : "double",
                              "defaultValue" : 1.0,
                              "interp" : "linr"
                            },
                            "smoothCursorAcrossEditDuration" : 235200000
                          },
                          "effects" : [

                          ],
                          "start" : 911400000000,
                          "duration" : 70465920000,
                          "mediaStart" : 0,
                          "mediaDuration" : 70465920000,
                          "scalar" : 1,
                          "animationTracks" : {

                          }
                        },
                    "audio" : 
                        {
                          "id" : 87,
                          "_type" : "AMFile",
                          "src" : 15,
                          "trackNumber" : 2,
                          "attributes" : {
                            "ident" : "",
                            "gain" : 1.0,
                            "mixToMono" : false,
                            "loudnessNormalization" : true,
                            "sourceFileOffset" : 0
                          },
                            "channelNumber" : "0,1",
                          "parameters" : {
                            "volume" : {
                              "type" : "double",
                              "keyframes" : [
                                {
                                  "endTime" : -23520000,
                                  "time" : -23520000,
                                  "value" : 1.0,
                                  "duration" : 0
                                },
                                {
                                  "endTime" : 0,
                                  "time" : 0,
                                  "value" : 0.0,
                                  "duration" : 0
                                },
                                {
                                  "endTime" : 2116800000,
                                  "time" : 2116800000,
                                  "value" : 1.0,
                                  "duration" : 0
                                }
                              ]
                            }
                          },
                          "effects" : [
                              {
                                "effectName" : "WinCompression",
                                "bypassed" : false,
                                "category" : "categoryAudioEffects",
                                "parameters" : {
                                  "ratio" : 10.0,
                                  "threshold" : -20.0,
                                  "gain" : 9.0,
                                  "attack" : 0.0,
                                  "release" : 3500.0,
                                  "preset" : 1
                                },
                                "metadata" : {
                                  "effectIndex" : "0",
                                  "presetName" : "Audio Compression"
                                }
                              }
                          ],
                          "start" : 911400000000,
                          "duration" : 70465920000,
                          "mediaStart" : 0,
                          "mediaDuration" : 70465920000,
                          "scalar" : 1,
                          "animationTracks" : {

                          }
                        }
,
                    "start" : 911400000000,
                    "duration" : 70465920000,
                    "mediaStart" : 0,
                    "mediaDuration" : 70465920000,
                    "scalar" : 1,
                    "metadata" : {
                      "AutoAppliedSmartFocus" : "False",
                      "clipSpeedAttribute" : false
                    }
                  },
                  {
                    "id" : 88,
                    "_type" : "UnifiedMedia",
                    "video" : 
                        {
                          "id" : 89,
                          "_type" : "ScreenVMFile",
                          "src" : 16,
                          "trackNumber" : 0,
                          "attributes" : {
                            "ident" : "Rec 11-7-2023-2-47-57-PM"
                          },
                          "parameters" : {
                            "scale0" : {
                              "type" : "double",
                              "defaultValue" : 0.666666666666667,
                              "interp" : "eioe"
                            },
                            "scale1" : {
                              "type" : "double",
                              "defaultValue" : 0.666666666666667,
                              "interp" : "eioe"
                            },
                            "sourceCrop0" : {
                              "type" : "double",
                              "defaultValue" : 0.0,
                              "interp" : "eioe"
                            },
                            "sourceCrop1" : {
                              "type" : "double",
                              "defaultValue" : 0.0,
                              "interp" : "eioe"
                            },
                            "sourceCrop2" : {
                              "type" : "double",
                              "defaultValue" : 0.0,
                              "interp" : "eioe"
                            },
                            "sourceCrop3" : {
                              "type" : "double",
                              "defaultValue" : 0.0,
                              "interp" : "eioe"
                            },
                            "geometryCrop0" : {
                              "type" : "double",
                              "defaultValue" : 0.0,
                              "interp" : "eioe"
                            },
                            "geometryCrop1" : {
                              "type" : "double",
                              "defaultValue" : 0.0,
                              "interp" : "eioe"
                            },
                            "geometryCrop2" : {
                              "type" : "double",
                              "defaultValue" : 0.0,
                              "interp" : "eioe"
                            },
                            "geometryCrop3" : {
                              "type" : "double",
                              "defaultValue" : 0.0,
                              "interp" : "eioe"
                            },
                            "cursorScale" : {
                              "type" : "double",
                              "defaultValue" : 1.0,
                              "interp" : "linr"
                            },
                            "cursorOpacity" : {
                              "type" : "double",
                              "defaultValue" : 1.0,
                              "interp" : "linr"
                            },
                            "smoothCursorAcrossEditDuration" : 235200000
                          },
                          "effects" : [

                          ],
                          "start" : 981912960000,
                          "duration" : 96455520000,
                          "mediaStart" : 0,
                          "mediaDuration" : 96455520000,
                          "scalar" : 1,
                          "animationTracks" : {

                          }
                        },
                    "audio" : 
                        {
                          "id" : 90,
                          "_type" : "AMFile",
                          "src" : 16,
                          "trackNumber" : 2,
                          "attributes" : {
                            "ident" : "",
                            "gain" : 1.0,
                            "mixToMono" : false,
                            "loudnessNormalization" : true,
                            "sourceFileOffset" : 0
                          },
                            "channelNumber" : "0,1",
                          "effects" : [
                              {
                                "effectName" : "WinCompression",
                                "bypassed" : false,
                                "category" : "categoryAudioEffects",
                                "parameters" : {
                                  "ratio" : 10.0,
                                  "threshold" : -20.0,
                                  "gain" : 9.0,
                                  "attack" : 0.0,
                                  "release" : 3500.0,
                                  "preset" : 1
                                },
                                "metadata" : {
                                  "effectIndex" : "0",
                                  "presetName" : "Audio Compression"
                                }
                              },
                              {
                                "effectName" : "NoiseReduction",
                                "bypassed" : false,
                                "category" : "categoryAudioEffects",
                                "parameters" : {
                                  "denoiserAmount" : 20.0,
                                  "denoiserThreshold" : 0.0,
                                  "noiseProfile" : "",
                                  "noiseTrainingType" : "default"
                                },
                                "metadata" : {
                                  "effectIndex" : "1",
                                  "presetName" : "Noise Removal"
                                }
                              }
                          ],
                          "start" : 981912960000,
                          "duration" : 96455520000,
                          "mediaStart" : 0,
                          "mediaDuration" : 96455520000,
                          "scalar" : 1,
                          "animationTracks" : {

                          }
                        }
,
                    "start" : 981912960000,
                    "duration" : 96455520000,
                    "mediaStart" : 0,
                    "mediaDuration" : 96455520000,
                    "scalar" : 1,
                    "metadata" : {
                      "AutoAppliedSmartFocus" : "False",
                      "clipSpeedAttribute" : false
                    }
                  },
                  {
                    "id" : 91,
                    "_type" : "UnifiedMedia",
                    "video" : 
                        {
                          "id" : 92,
                          "_type" : "ScreenVMFile",
                          "src" : 17,
                          "trackNumber" : 0,
                          "attributes" : {
                            "ident" : "Rec 12-4-2023-11-06-41-AM"
                          },
                          "parameters" : {
                            "scale0" : {
                              "type" : "double",
                              "defaultValue" : 0.666666666666667,
                              "interp" : "eioe"
                            },
                            "scale1" : {
                              "type" : "double",
                              "defaultValue" : 0.666666666666667,
                              "interp" : "eioe"
                            },
                            "sourceCrop0" : {
                              "type" : "double",
                              "defaultValue" : 0.0,
                              "interp" : "eioe"
                            },
                            "sourceCrop1" : {
                              "type" : "double",
                              "defaultValue" : 0.0,
                              "interp" : "eioe"
                            },
                            "sourceCrop2" : {
                              "type" : "double",
                              "defaultValue" : 0.0,
                              "interp" : "eioe"
                            },
                            "sourceCrop3" : {
                              "type" : "double",
                              "defaultValue" : 0.0,
                              "interp" : "eioe"
                            },
                            "geometryCrop0" : {
                              "type" : "double",
                              "defaultValue" : 0.0,
                              "interp" : "eioe"
                            },
                            "geometryCrop1" : {
                              "type" : "double",
                              "defaultValue" : 0.0,
                              "interp" : "eioe"
                            },
                            "geometryCrop2" : {
                              "type" : "double",
                              "defaultValue" : 0.0,
                              "interp" : "eioe"
                            },
                            "geometryCrop3" : {
                              "type" : "double",
                              "defaultValue" : 0.0,
                              "interp" : "eioe"
                            },
                            "cursorScale" : {
                              "type" : "double",
                              "defaultValue" : 1.0,
                              "interp" : "linr"
                            },
                            "cursorOpacity" : {
                              "type" : "double",
                              "defaultValue" : 1.0,
                              "interp" : "linr"
                            },
                            "smoothCursorAcrossEditDuration" : 235200000
                          },
                          "effects" : [

                          ],
                          "start" : 1078368480000,
                          "duration" : 13312320000,
                          "mediaStart" : 0,
                          "mediaDuration" : 13312320000,
                          "scalar" : 1,
                          "animationTracks" : {

                          }
                        },
                    "audio" : 
                        {
                          "id" : 93,
                          "_type" : "AMFile",
                          "src" : 17,
                          "trackNumber" : 2,
                          "attributes" : {
                            "ident" : "",
                            "gain" : 1.0,
                            "mixToMono" : false,
                            "loudnessNormalization" : true,
                            "sourceFileOffset" : 0
                          },
                            "channelNumber" : "0,1",
                          "effects" : [
                              {
                                "effectName" : "WinCompression",
                                "bypassed" : false,
                                "category" : "categoryAudioEffects",
                                "parameters" : {
                                  "ratio" : 10.0,
                                  "threshold" : -20.0,
                                  "gain" : 9.0,
                                  "attack" : 0.0,
                                  "release" : 3500.0,
                                  "preset" : 1
                                },
                                "metadata" : {
                                  "effectIndex" : "0",
                                  "presetName" : "Audio Compression"
                                }
                              },
                              {
                                "effectName" : "NoiseReduction",
                                "bypassed" : false,
                                "category" : "categoryAudioEffects",
                                "parameters" : {
                                  "denoiserAmount" : 20.0,
                                  "denoiserThreshold" : 0.0,
                                  "noiseProfile" : "",
                                  "noiseTrainingType" : "default"
                                },
                                "metadata" : {
                                  "effectIndex" : "1",
                                  "presetName" : "Noise Removal"
                                }
                              }
                          ],
                          "start" : 1078368480000,
                          "duration" : 13312320000,
                          "mediaStart" : 0,
                          "mediaDuration" : 13312320000,
                          "scalar" : 1,
                          "animationTracks" : {

                          }
                        }
,
                    "start" : 1078368480000,
                    "duration" : 13312320000,
                    "mediaStart" : 0,
                    "mediaDuration" : 13312320000,
                    "scalar" : 1,
                    "metadata" : {
                      "AutoAppliedSmartFocus" : "False",
                      "clipSpeedAttribute" : false
                    }
                  },
                  {
                    "id" : 94,
                    "_type" : "UnifiedMedia",
                    "video" : 
                        {
                          "id" : 95,
                          "_type" : "ScreenVMFile",
                          "src" : 18,
                          "trackNumber" : 0,
                          "attributes" : {
                            "ident" : "Rec 12-4-2023-11-15-35-AM"
                          },
                          "parameters" : {
                            "translation0" : {
                              "type" : "double",
                              "defaultValue" : -2.27373675443232e-13,
                              "interp" : "eioe"
                            },
                            "translation1" : {
                              "type" : "double",
                              "defaultValue" : -1.70530256582424e-13,
                              "interp" : "eioe"
                            },
                            "scale0" : {
                              "type" : "double",
                              "defaultValue" : 0.666666666666667,
                              "interp" : "eioe"
                            },
                            "scale1" : {
                              "type" : "double",
                              "defaultValue" : 0.666666666666667,
                              "interp" : "eioe"
                            },
                            "sourceCrop0" : {
                              "type" : "double",
                              "defaultValue" : 0.0,
                              "interp" : "eioe"
                            },
                            "sourceCrop1" : {
                              "type" : "double",
                              "defaultValue" : 0.0,
                              "interp" : "eioe"
                            },
                            "sourceCrop2" : {
                              "type" : "double",
                              "defaultValue" : 0.0,
                              "interp" : "eioe"
                            },
                            "sourceCrop3" : {
                              "type" : "double",
                              "defaultValue" : 0.0,
                              "interp" : "eioe"
                            },
                            "geometryCrop0" : {
                              "type" : "double",
                              "defaultValue" : 0.0,
                              "interp" : "eioe"
                            },
                            "geometryCrop1" : {
                              "type" : "double",
                              "defaultValue" : 0.0,
                              "interp" : "eioe"
                            },
                            "geometryCrop2" : {
                              "type" : "double",
                              "defaultValue" : 0.0,
                              "interp" : "eioe"
                            },
                            "geometryCrop3" : {
                              "type" : "double",
                              "defaultValue" : 0.0,
                              "interp" : "eioe"
                            },
                            "cursorScale" : {
                              "type" : "double",
                              "defaultValue" : 1.0,
                              "interp" : "linr"
                            },
                            "cursorOpacity" : {
                              "type" : "double",
                              "defaultValue" : 1.0,
                              "interp" : "linr"
                            },
                            "smoothCursorAcrossEditDuration" : 235200000
                          },
                          "effects" : [

                          ],
                          "start" : 1091727840000,
                          "duration" : 110638080000,
                          "mediaStart" : 0,
                          "mediaDuration" : 110638080000,
                          "scalar" : 1,
                          "animationTracks" : {

                          }
                        },
                    "audio" : 
                        {
                          "id" : 96,
                          "_type" : "AMFile",
                          "src" : 18,
                          "trackNumber" : 2,
                          "attributes" : {
                            "ident" : "",
                            "gain" : 1.0,
                            "mixToMono" : false,
                            "loudnessNormalization" : true,
                            "sourceFileOffset" : 0
                          },
                            "channelNumber" : "0,1",
                          "effects" : [
                              {
                                "effectName" : "WinCompression",
                                "bypassed" : false,
                                "category" : "categoryAudioEffects",
                                "parameters" : {
                                  "ratio" : 10.0,
                                  "threshold" : -20.0,
                                  "gain" : 9.0,
                                  "attack" : 0.0,
                                  "release" : 3500.0,
                                  "preset" : 1
                                },
                                "metadata" : {
                                  "effectIndex" : "0",
                                  "presetName" : "Audio Compression"
                                }
                              },
                              {
                                "effectName" : "NoiseReduction",
                                "bypassed" : false,
                                "category" : "categoryAudioEffects",
                                "parameters" : {
                                  "denoiserAmount" : 20.0,
                                  "denoiserThreshold" : 0.0,
                                  "noiseProfile" : "",
                                  "noiseTrainingType" : "default"
                                },
                                "metadata" : {
                                  "effectIndex" : "1",
                                  "presetName" : "Noise Removal"
                                }
                              }
                          ],
                          "start" : 1091727840000,
                          "duration" : 110638080000,
                          "mediaStart" : 0,
                          "mediaDuration" : 110638080000,
                          "scalar" : 1,
                          "animationTracks" : {

                          }
                        }
,
                    "start" : 1091727840000,
                    "duration" : 110638080000,
                    "mediaStart" : 0,
                    "mediaDuration" : 110638080000,
                    "scalar" : 1,
                    "metadata" : {
                      "AutoAppliedSmartFocus" : "False",
                      "clipSpeedAttribute" : false,
                      "default-height" : 720.0,
                      "default-translation0" : 0.0,
                      "default-translation1" : 0.0,
                      "default-translation2" : 0.0,
                      "default-width" : 1280.0
                    }
                  },
                  {
                    "id" : 97,
                    "_type" : "UnifiedMedia",
                    "video" : 
                        {
                          "id" : 98,
                          "_type" : "ScreenVMFile",
                          "src" : 19,
                          "trackNumber" : 0,
                          "attributes" : {
                            "ident" : "Rec 12-4-2023-11-24-34-AM"
                          },
                          "parameters" : {
                            "scale0" : {
                              "type" : "double",
                              "defaultValue" : 0.666666666666667,
                              "interp" : "eioe"
                            },
                            "scale1" : {
                              "type" : "double",
                              "defaultValue" : 0.666666666666667,
                              "interp" : "eioe"
                            },
                            "sourceCrop0" : {
                              "type" : "double",
                              "defaultValue" : 0.0,
                              "interp" : "eioe"
                            },
                            "sourceCrop1" : {
                              "type" : "double",
                              "defaultValue" : 0.0,
                              "interp" : "eioe"
                            },
                            "sourceCrop2" : {
                              "type" : "double",
                              "defaultValue" : 0.0,
                              "interp" : "eioe"
                            },
                            "sourceCrop3" : {
                              "type" : "double",
                              "defaultValue" : 0.0,
                              "interp" : "eioe"
                            },
                            "geometryCrop0" : {
                              "type" : "double",
                              "defaultValue" : 0.0,
                              "interp" : "eioe"
                            },
                            "geometryCrop1" : {
                              "type" : "double",
                              "defaultValue" : 0.0,
                              "interp" : "eioe"
                            },
                            "geometryCrop2" : {
                              "type" : "double",
                              "defaultValue" : 0.0,
                              "interp" : "eioe"
                            },
                            "geometryCrop3" : {
                              "type" : "double",
                              "defaultValue" : 0.0,
                              "interp" : "eioe"
                            },
                            "cursorScale" : {
                              "type" : "double",
                              "defaultValue" : 1.0,
                              "interp" : "linr"
                            },
                            "cursorOpacity" : {
                              "type" : "double",
                              "defaultValue" : 1.0,
                              "interp" : "linr"
                            },
                            "smoothCursorAcrossEditDuration" : 235200000
                          },
                          "effects" : [

                          ],
                          "start" : 1202389440000,
                          "duration" : 132535200000,
                          "mediaStart" : 0,
                          "mediaDuration" : 132535200000,
                          "scalar" : 1,
                          "animationTracks" : {

                          }
                        },
                    "audio" : 
                        {
                          "id" : 99,
                          "_type" : "AMFile",
                          "src" : 19,
                          "trackNumber" : 2,
                          "attributes" : {
                            "ident" : "",
                            "gain" : 1.0,
                            "mixToMono" : false,
                            "loudnessNormalization" : true,
                            "sourceFileOffset" : 0
                          },
                            "channelNumber" : "0,1",
                          "effects" : [
                              {
                                "effectName" : "WinCompression",
                                "bypassed" : false,
                                "category" : "categoryAudioEffects",
                                "parameters" : {
                                  "ratio" : 10.0,
                                  "threshold" : -20.0,
                                  "gain" : 9.0,
                                  "attack" : 0.0,
                                  "release" : 3500.0,
                                  "preset" : 1
                                },
                                "metadata" : {
                                  "effectIndex" : "0",
                                  "presetName" : "Audio Compression"
                                }
                              },
                              {
                                "effectName" : "NoiseReduction",
                                "bypassed" : false,
                                "category" : "categoryAudioEffects",
                                "parameters" : {
                                  "denoiserAmount" : 20.0,
                                  "denoiserThreshold" : 0.0,
                                  "noiseProfile" : "",
                                  "noiseTrainingType" : "default"
                                },
                                "metadata" : {
                                  "effectIndex" : "1",
                                  "presetName" : "Noise Removal"
                                }
                              }
                          ],
                          "start" : 1202389440000,
                          "duration" : 132535200000,
                          "mediaStart" : 0,
                          "mediaDuration" : 132535200000,
                          "scalar" : 1,
                          "animationTracks" : {

                          }
                        }
,
                    "start" : 1202389440000,
                    "duration" : 132535200000,
                    "mediaStart" : 0,
                    "mediaDuration" : 132535200000,
                    "scalar" : 1,
                    "metadata" : {
                      "AutoAppliedSmartFocus" : "False",
                      "clipSpeedAttribute" : false
                    }
                  },
                  {
                    "id" : 100,
                    "_type" : "UnifiedMedia",
                    "video" : 
                        {
                          "id" : 101,
                          "_type" : "ScreenVMFile",
                          "src" : 20,
                          "trackNumber" : 0,
                          "attributes" : {
                            "ident" : "Rec 12-4-2023-11-28-14-AM"
                          },
                          "parameters" : {
                            "scale0" : {
                              "type" : "double",
                              "defaultValue" : 0.666666666666667,
                              "interp" : "eioe"
                            },
                            "scale1" : {
                              "type" : "double",
                              "defaultValue" : 0.666666666666667,
                              "interp" : "eioe"
                            },
                            "sourceCrop0" : {
                              "type" : "double",
                              "defaultValue" : 0.0,
                              "interp" : "eioe"
                            },
                            "sourceCrop1" : {
                              "type" : "double",
                              "defaultValue" : 0.0,
                              "interp" : "eioe"
                            },
                            "sourceCrop2" : {
                              "type" : "double",
                              "defaultValue" : 0.0,
                              "interp" : "eioe"
                            },
                            "sourceCrop3" : {
                              "type" : "double",
                              "defaultValue" : 0.0,
                              "interp" : "eioe"
                            },
                            "geometryCrop0" : {
                              "type" : "double",
                              "defaultValue" : 0.0,
                              "interp" : "eioe"
                            },
                            "geometryCrop1" : {
                              "type" : "double",
                              "defaultValue" : 0.0,
                              "interp" : "eioe"
                            },
                            "geometryCrop2" : {
                              "type" : "double",
                              "defaultValue" : 0.0,
                              "interp" : "eioe"
                            },
                            "geometryCrop3" : {
                              "type" : "double",
                              "defaultValue" : 0.0,
                              "interp" : "eioe"
                            },
                            "cursorScale" : {
                              "type" : "double",
                              "defaultValue" : 1.0,
                              "interp" : "linr"
                            },
                            "cursorOpacity" : {
                              "type" : "double",
                              "defaultValue" : 1.0,
                              "interp" : "linr"
                            },
                            "smoothCursorAcrossEditDuration" : 235200000
                          },
                          "effects" : [

                          ],
                          "start" : 1334995200000,
                          "duration" : 80391360000,
                          "mediaStart" : 0,
                          "mediaDuration" : 80391360000,
                          "scalar" : 1,
                          "animationTracks" : {

                          }
                        },
                    "audio" : 
                        {
                          "id" : 102,
                          "_type" : "AMFile",
                          "src" : 20,
                          "trackNumber" : 2,
                          "attributes" : {
                            "ident" : "",
                            "gain" : 1.0,
                            "mixToMono" : false,
                            "loudnessNormalization" : true,
                            "sourceFileOffset" : 0
                          },
                            "channelNumber" : "0,1",
                          "effects" : [
                              {
                                "effectName" : "NoiseReduction",
                                "bypassed" : false,
                                "category" : "categoryAudioEffects",
                                "parameters" : {
                                  "denoiserAmount" : 20.0,
                                  "denoiserThreshold" : 0.0,
                                  "noiseProfile" : "",
                                  "noiseTrainingType" : "default"
                                },
                                "metadata" : {
                                  "effectIndex" : "0",
                                  "presetName" : "Noise Removal"
                                }
                              },
                              {
                                "effectName" : "WinCompression",
                                "bypassed" : false,
                                "category" : "categoryAudioEffects",
                                "parameters" : {
                                  "ratio" : 10.0,
                                  "threshold" : -20.0,
                                  "gain" : 9.0,
                                  "attack" : 0.0,
                                  "release" : 3500.0,
                                  "preset" : 1
                                },
                                "metadata" : {
                                  "effectIndex" : "1",
                                  "presetName" : "Audio Compression"
                                }
                              }
                          ],
                          "start" : 1334995200000,
                          "duration" : 80391360000,
                          "mediaStart" : 0,
                          "mediaDuration" : 80391360000,
                          "scalar" : 1,
                          "animationTracks" : {

                          }
                        }
,
                    "start" : 1334995200000,
                    "duration" : 80391360000,
                    "mediaStart" : 0,
                    "mediaDuration" : 80391360000,
                    "scalar" : 1,
                    "metadata" : {
                      "AutoAppliedSmartFocus" : "False",
                      "clipSpeedAttribute" : false
                    }
                  },
                  {
                    "id" : 103,
                    "_type" : "UnifiedMedia",
                    "video" : 
                        {
                          "id" : 104,
                          "_type" : "ScreenVMFile",
                          "src" : 21,
                          "trackNumber" : 0,
                          "attributes" : {
                            "ident" : "Rec 12-4-2023-11-41-15-AM"
                          },
                          "parameters" : {
                            "translation0" : {
                              "type" : "double",
                              "defaultValue" : -2.55795384873636e-13,
                              "interp" : "eioe"
                            },
                            "translation1" : {
                              "type" : "double",
                              "defaultValue" : 1.70530256582424e-13,
                              "interp" : "eioe"
                            },
                            "scale0" : {
                              "type" : "double",
                              "defaultValue" : 0.666666666666667,
                              "interp" : "eioe"
                            },
                            "scale1" : {
                              "type" : "double",
                              "defaultValue" : 0.666666666666667,
                              "interp" : "eioe"
                            },
                            "sourceCrop0" : {
                              "type" : "double",
                              "defaultValue" : 0.0,
                              "interp" : "eioe"
                            },
                            "sourceCrop1" : {
                              "type" : "double",
                              "defaultValue" : 0.0,
                              "interp" : "eioe"
                            },
                            "sourceCrop2" : {
                              "type" : "double",
                              "defaultValue" : 0.0,
                              "interp" : "eioe"
                            },
                            "sourceCrop3" : {
                              "type" : "double",
                              "defaultValue" : 0.0,
                              "interp" : "eioe"
                            },
                            "geometryCrop0" : {
                              "type" : "double",
                              "defaultValue" : 0.0,
                              "interp" : "eioe"
                            },
                            "geometryCrop1" : {
                              "type" : "double",
                              "defaultValue" : 0.0,
                              "interp" : "eioe"
                            },
                            "geometryCrop2" : {
                              "type" : "double",
                              "defaultValue" : 0.0,
                              "interp" : "eioe"
                            },
                            "geometryCrop3" : {
                              "type" : "double",
                              "defaultValue" : 0.0,
                              "interp" : "eioe"
                            },
                            "cursorScale" : {
                              "type" : "double",
                              "defaultValue" : 1.0,
                              "interp" : "linr"
                            },
                            "cursorOpacity" : {
                              "type" : "double",
                              "defaultValue" : 1.0,
                              "interp" : "linr"
                            },
                            "smoothCursorAcrossEditDuration" : 235200000
                          },
                          "effects" : [

                          ],
                          "start" : 1415433600000,
                          "duration" : 108262560000,
                          "mediaStart" : 0,
                          "mediaDuration" : 108262560000,
                          "scalar" : 1,
                          "animationTracks" : {

                          }
                        },
                    "audio" : 
                        {
                          "id" : 105,
                          "_type" : "AMFile",
                          "src" : 21,
                          "trackNumber" : 2,
                          "attributes" : {
                            "ident" : "",
                            "gain" : 1.0,
                            "mixToMono" : false,
                            "loudnessNormalization" : true,
                            "sourceFileOffset" : 0
                          },
                            "channelNumber" : "0,1",
                          "effects" : [
                              {
                                "effectName" : "WinCompression",
                                "bypassed" : false,
                                "category" : "categoryAudioEffects",
                                "parameters" : {
                                  "ratio" : 10.0,
                                  "threshold" : -20.0,
                                  "gain" : 9.0,
                                  "attack" : 0.0,
                                  "release" : 3500.0,
                                  "preset" : 1
                                },
                                "metadata" : {
                                  "effectIndex" : "0",
                                  "presetName" : "Audio Compression"
                                }
                              },
                              {
                                "effectName" : "NoiseReduction",
                                "bypassed" : false,
                                "category" : "categoryAudioEffects",
                                "parameters" : {
                                  "denoiserAmount" : 20.0,
                                  "denoiserThreshold" : 0.0,
                                  "noiseProfile" : "",
                                  "noiseTrainingType" : "default"
                                },
                                "metadata" : {
                                  "effectIndex" : "1",
                                  "presetName" : "Noise Removal"
                                }
                              }
                          ],
                          "start" : 1415433600000,
                          "duration" : 108262560000,
                          "mediaStart" : 0,
                          "mediaDuration" : 108262560000,
                          "scalar" : 1,
                          "animationTracks" : {

                          }
                        }
,
                    "start" : 1415433600000,
                    "duration" : 108262560000,
                    "mediaStart" : 0,
                    "mediaDuration" : 108262560000,
                    "scalar" : 1,
                    "metadata" : {
                      "AutoAppliedSmartFocus" : "False",
                      "clipSpeedAttribute" : false,
                      "default-height" : 720.0,
                      "default-translation0" : 0.0,
                      "default-translation1" : 0.0,
                      "default-translation2" : 0.0,
                      "default-width" : 1280.0
                    }
                  },
                  {
                    "id" : 106,
                    "_type" : "UnifiedMedia",
                    "video" : 
                        {
                          "id" : 107,
                          "_type" : "ScreenVMFile",
                          "src" : 22,
                          "trackNumber" : 0,
                          "attributes" : {
                            "ident" : "Rec 12-4-2023-11-44-20-AM"
                          },
                          "parameters" : {
                            "scale0" : {
                              "type" : "double",
                              "defaultValue" : 0.666666666666667,
                              "interp" : "eioe"
                            },
                            "scale1" : {
                              "type" : "double",
                              "defaultValue" : 0.666666666666667,
                              "interp" : "eioe"
                            },
                            "sourceCrop0" : {
                              "type" : "double",
                              "defaultValue" : 0.0,
                              "interp" : "eioe"
                            },
                            "sourceCrop1" : {
                              "type" : "double",
                              "defaultValue" : 0.0,
                              "interp" : "eioe"
                            },
                            "sourceCrop2" : {
                              "type" : "double",
                              "defaultValue" : 0.0,
                              "interp" : "eioe"
                            },
                            "sourceCrop3" : {
                              "type" : "double",
                              "defaultValue" : 0.0,
                              "interp" : "eioe"
                            },
                            "geometryCrop0" : {
                              "type" : "double",
                              "defaultValue" : 0.0,
                              "interp" : "eioe"
                            },
                            "geometryCrop1" : {
                              "type" : "double",
                              "defaultValue" : 0.0,
                              "interp" : "eioe"
                            },
                            "geometryCrop2" : {
                              "type" : "double",
                              "defaultValue" : 0.0,
                              "interp" : "eioe"
                            },
                            "geometryCrop3" : {
                              "type" : "double",
                              "defaultValue" : 0.0,
                              "interp" : "eioe"
                            },
                            "cursorScale" : {
                              "type" : "double",
                              "defaultValue" : 1.0,
                              "interp" : "linr"
                            },
                            "cursorOpacity" : {
                              "type" : "double",
                              "defaultValue" : 1.0,
                              "interp" : "linr"
                            },
                            "smoothCursorAcrossEditDuration" : 235200000
                          },
                          "effects" : [

                          ],
                          "start" : 1523696160000,
                          "duration" : 79474080000,
                          "mediaStart" : 0,
                          "mediaDuration" : 79474080000,
                          "scalar" : 1,
                          "animationTracks" : {

                          }
                        },
                    "audio" : 
                        {
                          "id" : 108,
                          "_type" : "AMFile",
                          "src" : 22,
                          "trackNumber" : 2,
                          "attributes" : {
                            "ident" : "",
                            "gain" : 1.0,
                            "mixToMono" : false,
                            "loudnessNormalization" : true,
                            "sourceFileOffset" : 0
                          },
                            "channelNumber" : "0,1",
                          "effects" : [
                              {
                                "effectName" : "WinCompression",
                                "bypassed" : false,
                                "category" : "categoryAudioEffects",
                                "parameters" : {
                                  "ratio" : 10.0,
                                  "threshold" : -20.0,
                                  "gain" : 9.0,
                                  "attack" : 0.0,
                                  "release" : 3500.0,
                                  "preset" : 1
                                },
                                "metadata" : {
                                  "effectIndex" : "0",
                                  "presetName" : "Audio Compression"
                                }
                              },
                              {
                                "effectName" : "NoiseReduction",
                                "bypassed" : false,
                                "category" : "categoryAudioEffects",
                                "parameters" : {
                                  "denoiserAmount" : 20.0,
                                  "denoiserThreshold" : 0.0,
                                  "noiseProfile" : "",
                                  "noiseTrainingType" : "default"
                                },
                                "metadata" : {
                                  "effectIndex" : "1",
                                  "presetName" : "Noise Removal"
                                }
                              }
                          ],
                          "start" : 1523696160000,
                          "duration" : 79474080000,
                          "mediaStart" : 0,
                          "mediaDuration" : 79474080000,
                          "scalar" : 1,
                          "animationTracks" : {

                          }
                        }
,
                    "start" : 1523696160000,
                    "duration" : 79474080000,
                    "mediaStart" : 0,
                    "mediaDuration" : 79474080000,
                    "scalar" : 1,
                    "metadata" : {
                      "AutoAppliedSmartFocus" : "False",
                      "clipSpeedAttribute" : false
                    }
                  },
                  {
                    "id" : 109,
                    "_type" : "UnifiedMedia",
                    "video" : 
                        {
                          "id" : 110,
                          "_type" : "ScreenVMFile",
                          "src" : 23,
                          "trackNumber" : 0,
                          "attributes" : {
                            "ident" : "Rec 12-4-2023-11-55-03-AM"
                          },
                          "parameters" : {
                            "scale0" : {
                              "type" : "double",
                              "defaultValue" : 0.666666666666667,
                              "interp" : "eioe"
                            },
                            "scale1" : {
                              "type" : "double",
                              "defaultValue" : 0.666666666666667,
                              "interp" : "eioe"
                            },
                            "sourceCrop0" : {
                              "type" : "double",
                              "defaultValue" : 0.0,
                              "interp" : "eioe"
                            },
                            "sourceCrop1" : {
                              "type" : "double",
                              "defaultValue" : 0.0,
                              "interp" : "eioe"
                            },
                            "sourceCrop2" : {
                              "type" : "double",
                              "defaultValue" : 0.0,
                              "interp" : "eioe"
                            },
                            "sourceCrop3" : {
                              "type" : "double",
                              "defaultValue" : 0.0,
                              "interp" : "eioe"
                            },
                            "geometryCrop0" : {
                              "type" : "double",
                              "defaultValue" : 0.0,
                              "interp" : "eioe"
                            },
                            "geometryCrop1" : {
                              "type" : "double",
                              "defaultValue" : 0.0,
                              "interp" : "eioe"
                            },
                            "geometryCrop2" : {
                              "type" : "double",
                              "defaultValue" : 0.0,
                              "interp" : "eioe"
                            },
                            "geometryCrop3" : {
                              "type" : "double",
                              "defaultValue" : 0.0,
                              "interp" : "eioe"
                            },
                            "cursorScale" : {
                              "type" : "double",
                              "defaultValue" : 1.0,
                              "interp" : "linr"
                            },
                            "cursorOpacity" : {
                              "type" : "double",
                              "defaultValue" : 1.0,
                              "interp" : "linr"
                            },
                            "smoothCursorAcrossEditDuration" : 235200000
                          },
                          "effects" : [

                          ],
                          "start" : 1603217280000,
                          "duration" : 97137600000,
                          "mediaStart" : 0,
                          "mediaDuration" : 97137600000,
                          "scalar" : 1,
                          "animationTracks" : {

                          }
                        },
                    "audio" : 
                        {
                          "id" : 111,
                          "_type" : "AMFile",
                          "src" : 23,
                          "trackNumber" : 2,
                          "attributes" : {
                            "ident" : "",
                            "gain" : 1.0,
                            "mixToMono" : false,
                            "loudnessNormalization" : true,
                            "sourceFileOffset" : 0
                          },
                            "channelNumber" : "0,1",
                          "effects" : [
                              {
                                "effectName" : "WinCompression",
                                "bypassed" : false,
                                "category" : "categoryAudioEffects",
                                "parameters" : {
                                  "ratio" : 10.0,
                                  "threshold" : -20.0,
                                  "gain" : 9.0,
                                  "attack" : 0.0,
                                  "release" : 3500.0,
                                  "preset" : 1
                                },
                                "metadata" : {
                                  "effectIndex" : "0",
                                  "presetName" : "Audio Compression"
                                }
                              },
                              {
                                "effectName" : "NoiseReduction",
                                "bypassed" : false,
                                "category" : "categoryAudioEffects",
                                "parameters" : {
                                  "denoiserAmount" : 20.0,
                                  "denoiserThreshold" : 0.0,
                                  "noiseProfile" : "",
                                  "noiseTrainingType" : "default"
                                },
                                "metadata" : {
                                  "effectIndex" : "1",
                                  "presetName" : "Noise Removal"
                                }
                              }
                          ],
                          "start" : 1603217280000,
                          "duration" : 97137600000,
                          "mediaStart" : 0,
                          "mediaDuration" : 97137600000,
                          "scalar" : 1,
                          "animationTracks" : {

                          }
                        }
,
                    "start" : 1603217280000,
                    "duration" : 97137600000,
                    "mediaStart" : 0,
                    "mediaDuration" : 97137600000,
                    "scalar" : 1,
                    "metadata" : {
                      "AutoAppliedSmartFocus" : "False",
                      "clipSpeedAttribute" : false
                    }
                  },
                  {
                    "id" : 112,
                    "_type" : "UnifiedMedia",
                    "video" : 
                        {
                          "id" : 113,
                          "_type" : "ScreenVMFile",
                          "src" : 24,
                          "trackNumber" : 0,
                          "attributes" : {
                            "ident" : "Rec 12-18-2023-10-49-29-AM"
                          },
                          "parameters" : {
                            "scale0" : {
                              "type" : "double",
                              "defaultValue" : 0.666666666666667,
                              "interp" : "eioe"
                            },
                            "scale1" : {
                              "type" : "double",
                              "defaultValue" : 0.666666666666667,
                              "interp" : "eioe"
                            },
                            "sourceCrop0" : {
                              "type" : "double",
                              "defaultValue" : 0.0,
                              "interp" : "eioe"
                            },
                            "sourceCrop1" : {
                              "type" : "double",
                              "defaultValue" : 0.0,
                              "interp" : "eioe"
                            },
                            "sourceCrop2" : {
                              "type" : "double",
                              "defaultValue" : 0.0,
                              "interp" : "eioe"
                            },
                            "sourceCrop3" : {
                              "type" : "double",
                              "defaultValue" : 0.0,
                              "interp" : "eioe"
                            },
                            "geometryCrop0" : {
                              "type" : "double",
                              "defaultValue" : 0.0,
                              "interp" : "eioe"
                            },
                            "geometryCrop1" : {
                              "type" : "double",
                              "defaultValue" : 0.0,
                              "interp" : "eioe"
                            },
                            "geometryCrop2" : {
                              "type" : "double",
                              "defaultValue" : 0.0,
                              "interp" : "eioe"
                            },
                            "geometryCrop3" : {
                              "type" : "double",
                              "defaultValue" : 0.0,
                              "interp" : "eioe"
                            },
                            "cursorScale" : {
                              "type" : "double",
                              "defaultValue" : 1.0,
                              "interp" : "linr"
                            },
                            "cursorOpacity" : {
                              "type" : "double",
                              "defaultValue" : 1.0,
                              "interp" : "linr"
                            },
                            "smoothCursorAcrossEditDuration" : 235200000
                          },
                          "effects" : [

                          ],
                          "start" : 1700401920000,
                          "duration" : 114072000000,
                          "mediaStart" : 0,
                          "mediaDuration" : 114072000000,
                          "scalar" : 1,
                          "animationTracks" : {

                          }
                        },
                    "audio" : 
                        {
                          "id" : 114,
                          "_type" : "AMFile",
                          "src" : 24,
                          "trackNumber" : 2,
                          "attributes" : {
                            "ident" : "",
                            "gain" : 1.0,
                            "mixToMono" : false,
                            "loudnessNormalization" : true,
                            "sourceFileOffset" : 0
                          },
                            "channelNumber" : "0,1",
                          "effects" : [
                              {
                                "effectName" : "WinCompression",
                                "bypassed" : false,
                                "category" : "categoryAudioEffects",
                                "parameters" : {
                                  "ratio" : 10.0,
                                  "threshold" : -20.0,
                                  "gain" : 9.0,
                                  "attack" : 0.0,
                                  "release" : 3500.0,
                                  "preset" : 1
                                },
                                "metadata" : {
                                  "effectIndex" : "0",
                                  "presetName" : "Audio Compression"
                                }
                              },
                              {
                                "effectName" : "NoiseReduction",
                                "bypassed" : false,
                                "category" : "categoryAudioEffects",
                                "parameters" : {
                                  "denoiserAmount" : 20.0,
                                  "denoiserThreshold" : 0.0,
                                  "noiseProfile" : "",
                                  "noiseTrainingType" : "default"
                                },
                                "metadata" : {
                                  "effectIndex" : "1",
                                  "presetName" : "Noise Removal"
                                }
                              }
                          ],
                          "start" : 1700401920000,
                          "duration" : 114072000000,
                          "mediaStart" : 0,
                          "mediaDuration" : 114072000000,
                          "scalar" : 1,
                          "animationTracks" : {

                          }
                        }
,
                    "start" : 1700401920000,
                    "duration" : 114072000000,
                    "mediaStart" : 0,
                    "mediaDuration" : 114072000000,
                    "scalar" : 1,
                    "metadata" : {
                      "AutoAppliedSmartFocus" : "False",
                      "clipSpeedAttribute" : false
                    }
                  },
                  {
                    "id" : 115,
                    "_type" : "UnifiedMedia",
                    "video" : 
                        {
                          "id" : 116,
                          "_type" : "ScreenVMFile",
                          "src" : 25,
                          "trackNumber" : 0,
                          "attributes" : {
                            "ident" : "Rec 12-18-2023-11-03-54-AM"
                          },
                          "parameters" : {
                            "translation0" : {
                              "type" : "double",
                              "defaultValue" : 1.13686837721616e-13,
                              "interp" : "eioe"
                            },
                            "translation1" : {
                              "type" : "double",
                              "defaultValue" : -5.6843418860808e-14,
                              "interp" : "eioe"
                            },
                            "scale0" : {
                              "type" : "double",
                              "defaultValue" : 0.666666666666667,
                              "interp" : "eioe"
                            },
                            "scale1" : {
                              "type" : "double",
                              "defaultValue" : 0.666666666666667,
                              "interp" : "eioe"
                            },
                            "sourceCrop0" : {
                              "type" : "double",
                              "defaultValue" : 0.0,
                              "interp" : "eioe"
                            },
                            "sourceCrop1" : {
                              "type" : "double",
                              "defaultValue" : 0.0,
                              "interp" : "eioe"
                            },
                            "sourceCrop2" : {
                              "type" : "double",
                              "defaultValue" : 0.0,
                              "interp" : "eioe"
                            },
                            "sourceCrop3" : {
                              "type" : "double",
                              "defaultValue" : 0.0,
                              "interp" : "eioe"
                            },
                            "geometryCrop0" : {
                              "type" : "double",
                              "defaultValue" : 0.0,
                              "interp" : "eioe"
                            },
                            "geometryCrop1" : {
                              "type" : "double",
                              "defaultValue" : 0.0,
                              "interp" : "eioe"
                            },
                            "geometryCrop2" : {
                              "type" : "double",
                              "defaultValue" : 0.0,
                              "interp" : "eioe"
                            },
                            "geometryCrop3" : {
                              "type" : "double",
                              "defaultValue" : 0.0,
                              "interp" : "eioe"
                            },
                            "cursorScale" : {
                              "type" : "double",
                              "defaultValue" : 1.0,
                              "interp" : "linr"
                            },
                            "cursorOpacity" : {
                              "type" : "double",
                              "defaultValue" : 1.0,
                              "interp" : "linr"
                            },
                            "smoothCursorAcrossEditDuration" : 235200000
                          },
                          "effects" : [

                          ],
                          "start" : 1814544480000,
                          "duration" : 167838720000,
                          "mediaStart" : 0,
                          "mediaDuration" : 167838720000,
                          "scalar" : 1,
                          "animationTracks" : {

                          }
                        },
                    "audio" : 
                        {
                          "id" : 117,
                          "_type" : "AMFile",
                          "src" : 25,
                          "trackNumber" : 2,
                          "attributes" : {
                            "ident" : "",
                            "gain" : 1.0,
                            "mixToMono" : false,
                            "loudnessNormalization" : true,
                            "sourceFileOffset" : 0
                          },
                            "channelNumber" : "0,1",
                          "effects" : [
                              {
                                "effectName" : "WinCompression",
                                "bypassed" : false,
                                "category" : "categoryAudioEffects",
                                "parameters" : {
                                  "ratio" : 10.0,
                                  "threshold" : -20.0,
                                  "gain" : 9.0,
                                  "attack" : 0.0,
                                  "release" : 3500.0,
                                  "preset" : 1
                                },
                                "metadata" : {
                                  "effectIndex" : "0",
                                  "presetName" : "Audio Compression"
                                }
                              },
                              {
                                "effectName" : "NoiseReduction",
                                "bypassed" : false,
                                "category" : "categoryAudioEffects",
                                "parameters" : {
                                  "denoiserAmount" : 20.0,
                                  "denoiserThreshold" : 0.0,
                                  "noiseProfile" : "",
                                  "noiseTrainingType" : "default"
                                },
                                "metadata" : {
                                  "effectIndex" : "1",
                                  "presetName" : "Noise Removal"
                                }
                              }
                          ],
                          "start" : 1814544480000,
                          "duration" : 167838720000,
                          "mediaStart" : 0,
                          "mediaDuration" : 167838720000,
                          "scalar" : 1,
                          "animationTracks" : {

                          }
                        }
,
                    "start" : 1814544480000,
                    "duration" : 167838720000,
                    "mediaStart" : 0,
                    "mediaDuration" : 167838720000,
                    "scalar" : 1,
                    "metadata" : {
                      "AutoAppliedSmartFocus" : "False",
                      "clipSpeedAttribute" : false,
                      "default-anchor0" : 0.0,
                      "default-anchor1" : 0.0,
                      "default-anchor2" : 0.0,
                      "default-height" : 720.0,
                      "default-rotation0" : 0.0,
                      "default-rotation1" : 0.0,
                      "default-rotation2" : 0.0,
                      "default-scale0" : 0.666666666666667,
                      "default-scale1" : 0.666666666666667,
                      "default-scale2" : 1.0,
                      "default-shear0" : 0.0,
                      "default-shear1" : 0.0,
                      "default-shear2" : 0.0,
                      "default-translation0" : 0.0,
                      "default-translation1" : 0.0,
                      "default-translation2" : 0.0,
                      "default-width" : 1280.0
                    }
                  },
                  {
                    "id" : 118,
                    "_type" : "UnifiedMedia",
                    "video" : 
                        {
                          "id" : 119,
                          "_type" : "ScreenVMFile",
                          "src" : 26,
                          "trackNumber" : 0,
                          "attributes" : {
                            "ident" : "Rec 12-18-2023-11-07-51-AM"
                          },
                          "parameters" : {
                            "scale0" : {
                              "type" : "double",
                              "defaultValue" : 0.666666666666667,
                              "interp" : "eioe"
                            },
                            "scale1" : {
                              "type" : "double",
                              "defaultValue" : 0.666666666666667,
                              "interp" : "eioe"
                            },
                            "sourceCrop0" : {
                              "type" : "double",
                              "defaultValue" : 0.0,
                              "interp" : "eioe"
                            },
                            "sourceCrop1" : {
                              "type" : "double",
                              "defaultValue" : 0.0,
                              "interp" : "eioe"
                            },
                            "sourceCrop2" : {
                              "type" : "double",
                              "defaultValue" : 0.0,
                              "interp" : "eioe"
                            },
                            "sourceCrop3" : {
                              "type" : "double",
                              "defaultValue" : 0.0,
                              "interp" : "eioe"
                            },
                            "geometryCrop0" : {
                              "type" : "double",
                              "defaultValue" : 0.0,
                              "interp" : "eioe"
                            },
                            "geometryCrop1" : {
                              "type" : "double",
                              "defaultValue" : 0.0,
                              "interp" : "eioe"
                            },
                            "geometryCrop2" : {
                              "type" : "double",
                              "defaultValue" : 0.0,
                              "interp" : "eioe"
                            },
                            "geometryCrop3" : {
                              "type" : "double",
                              "defaultValue" : 0.0,
                              "interp" : "eioe"
                            },
                            "cursorScale" : {
                              "type" : "double",
                              "defaultValue" : 1.0,
                              "interp" : "linr"
                            },
                            "cursorOpacity" : {
                              "type" : "double",
                              "defaultValue" : 1.0,
                              "interp" : "linr"
                            },
                            "smoothCursorAcrossEditDuration" : 235200000
                          },
                          "effects" : [

                          ],
                          "start" : 1982430240000,
                          "duration" : 100077600000,
                          "mediaStart" : 0,
                          "mediaDuration" : 100077600000,
                          "scalar" : 1,
                          "animationTracks" : {

                          }
                        },
                    "audio" : 
                        {
                          "id" : 120,
                          "_type" : "AMFile",
                          "src" : 26,
                          "trackNumber" : 2,
                          "attributes" : {
                            "ident" : "",
                            "gain" : 1.0,
                            "mixToMono" : false,
                            "loudnessNormalization" : true,
                            "sourceFileOffset" : 0
                          },
                            "channelNumber" : "0,1",
                          "effects" : [
                              {
                                "effectName" : "NoiseReduction",
                                "bypassed" : false,
                                "category" : "categoryAudioEffects",
                                "parameters" : {
                                  "denoiserAmount" : 20.0,
                                  "denoiserThreshold" : 0.0,
                                  "noiseProfile" : "",
                                  "noiseTrainingType" : "default"
                                },
                                "metadata" : {
                                  "effectIndex" : "0",
                                  "presetName" : "Noise Removal"
                                }
                              },
                              {
                                "effectName" : "WinCompression",
                                "bypassed" : false,
                                "category" : "categoryAudioEffects",
                                "parameters" : {
                                  "ratio" : 10.0,
                                  "threshold" : -20.0,
                                  "gain" : 9.0,
                                  "attack" : 0.0,
                                  "release" : 3500.0,
                                  "preset" : 1
                                },
                                "metadata" : {
                                  "effectIndex" : "1",
                                  "presetName" : "Audio Compression"
                                }
                              }
                          ],
                          "start" : 1982430240000,
                          "duration" : 100077600000,
                          "mediaStart" : 0,
                          "mediaDuration" : 100077600000,
                          "scalar" : 1,
                          "animationTracks" : {

                          }
                        }
,
                    "start" : 1982430240000,
                    "duration" : 100077600000,
                    "mediaStart" : 0,
                    "mediaDuration" : 100077600000,
                    "scalar" : 1,
                    "metadata" : {
                      "AutoAppliedSmartFocus" : "False",
                      "clipSpeedAttribute" : false
                    }
                  },
                  {
                    "id" : 121,
                    "_type" : "UnifiedMedia",
                    "video" : 
                        {
                          "id" : 122,
                          "_type" : "ScreenVMFile",
                          "src" : 27,
                          "trackNumber" : 0,
                          "attributes" : {
                            "ident" : "Rec 12-18-2023-11-14-44-AM"
                          },
                          "parameters" : {
                            "scale0" : {
                              "type" : "double",
                              "defaultValue" : 0.666666666666667,
                              "interp" : "eioe"
                            },
                            "scale1" : {
                              "type" : "double",
                              "defaultValue" : 0.666666666666667,
                              "interp" : "eioe"
                            },
                            "sourceCrop0" : {
                              "type" : "double",
                              "defaultValue" : 0.0,
                              "interp" : "eioe"
                            },
                            "sourceCrop1" : {
                              "type" : "double",
                              "defaultValue" : 0.0,
                              "interp" : "eioe"
                            },
                            "sourceCrop2" : {
                              "type" : "double",
                              "defaultValue" : 0.0,
                              "interp" : "eioe"
                            },
                            "sourceCrop3" : {
                              "type" : "double",
                              "defaultValue" : 0.0,
                              "interp" : "eioe"
                            },
                            "geometryCrop0" : {
                              "type" : "double",
                              "defaultValue" : 0.0,
                              "interp" : "eioe"
                            },
                            "geometryCrop1" : {
                              "type" : "double",
                              "defaultValue" : 0.0,
                              "interp" : "eioe"
                            },
                            "geometryCrop2" : {
                              "type" : "double",
                              "defaultValue" : 0.0,
                              "interp" : "eioe"
                            },
                            "geometryCrop3" : {
                              "type" : "double",
                              "defaultValue" : 0.0,
                              "interp" : "eioe"
                            },
                            "cursorScale" : {
                              "type" : "double",
                              "defaultValue" : 1.0,
                              "interp" : "linr"
                            },
                            "cursorOpacity" : {
                              "type" : "double",
                              "defaultValue" : 1.0,
                              "interp" : "linr"
                            },
                            "smoothCursorAcrossEditDuration" : 235200000
                          },
                          "effects" : [

                          ],
                          "start" : 2082507840000,
                          "duration" : 112613760000,
                          "mediaStart" : 0,
                          "mediaDuration" : 112613760000,
                          "scalar" : 1,
                          "animationTracks" : {

                          }
                        },
                    "audio" : 
                        {
                          "id" : 123,
                          "_type" : "AMFile",
                          "src" : 27,
                          "trackNumber" : 2,
                          "attributes" : {
                            "ident" : "",
                            "gain" : 1.0,
                            "mixToMono" : false,
                            "loudnessNormalization" : true,
                            "sourceFileOffset" : 0
                          },
                            "channelNumber" : "0,1",
                          "effects" : [
                              {
                                "effectName" : "WinCompression",
                                "bypassed" : false,
                                "category" : "categoryAudioEffects",
                                "parameters" : {
                                  "ratio" : 10.0,
                                  "threshold" : -20.0,
                                  "gain" : 9.0,
                                  "attack" : 0.0,
                                  "release" : 3500.0,
                                  "preset" : 1
                                },
                                "metadata" : {
                                  "effectIndex" : "0",
                                  "presetName" : "Audio Compression"
                                }
                              }
                          ],
                          "start" : 2082507840000,
                          "duration" : 112613760000,
                          "mediaStart" : 0,
                          "mediaDuration" : 112613760000,
                          "scalar" : 1,
                          "animationTracks" : {

                          }
                        }
,
                    "start" : 2082507840000,
                    "duration" : 112613760000,
                    "mediaStart" : 0,
                    "mediaDuration" : 112613760000,
                    "scalar" : 1,
                    "metadata" : {
                      "AutoAppliedSmartFocus" : "False",
                      "clipSpeedAttribute" : false
                    }
                  },
                  {
                    "id" : 124,
                    "_type" : "UnifiedMedia",
                    "video" : 
                        {
                          "id" : 125,
                          "_type" : "ScreenVMFile",
                          "src" : 28,
                          "trackNumber" : 0,
                          "attributes" : {
                            "ident" : "Rec 12-18-2023-11-19-26-AM"
                          },
                          "parameters" : {
                            "scale0" : {
                              "type" : "double",
                              "defaultValue" : 0.666666666666667,
                              "interp" : "eioe"
                            },
                            "scale1" : {
                              "type" : "double",
                              "defaultValue" : 0.666666666666667,
                              "interp" : "eioe"
                            },
                            "sourceCrop0" : {
                              "type" : "double",
                              "defaultValue" : 0.0,
                              "interp" : "eioe"
                            },
                            "sourceCrop1" : {
                              "type" : "double",
                              "defaultValue" : 0.0,
                              "interp" : "eioe"
                            },
                            "sourceCrop2" : {
                              "type" : "double",
                              "defaultValue" : 0.0,
                              "interp" : "eioe"
                            },
                            "sourceCrop3" : {
                              "type" : "double",
                              "defaultValue" : 0.0,
                              "interp" : "eioe"
                            },
                            "geometryCrop0" : {
                              "type" : "double",
                              "defaultValue" : 0.0,
                              "interp" : "eioe"
                            },
                            "geometryCrop1" : {
                              "type" : "double",
                              "defaultValue" : 0.0,
                              "interp" : "eioe"
                            },
                            "geometryCrop2" : {
                              "type" : "double",
                              "defaultValue" : 0.0,
                              "interp" : "eioe"
                            },
                            "geometryCrop3" : {
                              "type" : "double",
                              "defaultValue" : 0.0,
                              "interp" : "eioe"
                            },
                            "cursorScale" : {
                              "type" : "double",
                              "defaultValue" : 1.0,
                              "interp" : "linr"
                            },
                            "cursorOpacity" : {
                              "type" : "double",
                              "defaultValue" : 1.0,
                              "interp" : "linr"
                            },
                            "smoothCursorAcrossEditDuration" : 235200000
                          },
                          "effects" : [

                          ],
                          "start" : 2195121600000,
                          "duration" : 104217120000,
                          "mediaStart" : 0,
                          "mediaDuration" : 104217120000,
                          "scalar" : 1,
                          "animationTracks" : {

                          }
                        },
                    "audio" : 
                        {
                          "id" : 126,
                          "_type" : "AMFile",
                          "src" : 28,
                          "trackNumber" : 2,
                          "attributes" : {
                            "ident" : "",
                            "gain" : 1.0,
                            "mixToMono" : false,
                            "loudnessNormalization" : true,
                            "sourceFileOffset" : 0
                          },
                            "channelNumber" : "0,1",
                          "parameters" : {
                            "volume" : {
                              "type" : "double",
                              "keyframes" : [
                                {
                                  "endTime" : 0,
                                  "time" : 0,
                                  "value" : 1.0,
                                  "duration" : 0
                                },
                                {
                                  "endTime" : 102100320000,
                                  "time" : 102100320000,
                                  "value" : 1.0,
                                  "duration" : 0
                                },
                                {
                                  "endTime" : 104217120000,
                                  "time" : 104217120000,
                                  "value" : 0.0,
                                  "duration" : 0
                                },
                                {
                                  "endTime" : 104240640000,
                                  "time" : 104240640000,
                                  "value" : 1.0,
                                  "duration" : 0
                                }
                              ]
                            }
                          },
                          "effects" : [
                              {
                                "effectName" : "NoiseReduction",
                                "bypassed" : false,
                                "category" : "categoryAudioEffects",
                                "parameters" : {
                                  "denoiserAmount" : 20.0,
                                  "denoiserThreshold" : 0.0,
                                  "noiseProfile" : "",
                                  "noiseTrainingType" : "default"
                                },
                                "metadata" : {
                                  "effectIndex" : "0",
                                  "presetName" : "Noise Removal"
                                }
                              },
                              {
                                "effectName" : "WinCompression",
                                "bypassed" : false,
                                "category" : "categoryAudioEffects",
                                "parameters" : {
                                  "ratio" : 10.0,
                                  "threshold" : -20.0,
                                  "gain" : 9.0,
                                  "attack" : 0.0,
                                  "release" : 3500.0,
                                  "preset" : 1
                                },
                                "metadata" : {
                                  "effectIndex" : "1",
                                  "presetName" : "Audio Compression"
                                }
                              }
                          ],
                          "start" : 2195121600000,
                          "duration" : 104217120000,
                          "mediaStart" : 0,
                          "mediaDuration" : 104217120000,
                          "scalar" : 1,
                          "animationTracks" : {

                          }
                        }
,
                    "start" : 2195121600000,
                    "duration" : 104217120000,
                    "mediaStart" : 0,
                    "mediaDuration" : 104217120000,
                    "scalar" : 1,
                    "metadata" : {
                      "AutoAppliedSmartFocus" : "False",
                      "clipSpeedAttribute" : false
                    }
                  },
                  {
                    "id" : 127,
                    "_type" : "UnifiedMedia",
                    "video" : 
                        {
                          "id" : 128,
                          "_type" : "ScreenVMFile",
                          "src" : 29,
                          "trackNumber" : 0,
                          "attributes" : {
                            "ident" : "Rec 12-18-2023-11-25-22-AM"
                          },
                          "parameters" : {
                            "scale0" : {
                              "type" : "double",
                              "defaultValue" : 0.666666666666667,
                              "interp" : "eioe"
                            },
                            "scale1" : {
                              "type" : "double",
                              "defaultValue" : 0.666666666666667,
                              "interp" : "eioe"
                            },
                            "sourceCrop0" : {
                              "type" : "double",
                              "defaultValue" : 0.0,
                              "interp" : "eioe"
                            },
                            "sourceCrop1" : {
                              "type" : "double",
                              "defaultValue" : 0.0,
                              "interp" : "eioe"
                            },
                            "sourceCrop2" : {
                              "type" : "double",
                              "defaultValue" : 0.0,
                              "interp" : "eioe"
                            },
                            "sourceCrop3" : {
                              "type" : "double",
                              "defaultValue" : 0.0,
                              "interp" : "eioe"
                            },
                            "geometryCrop0" : {
                              "type" : "double",
                              "defaultValue" : 0.0,
                              "interp" : "eioe"
                            },
                            "geometryCrop1" : {
                              "type" : "double",
                              "defaultValue" : 0.0,
                              "interp" : "eioe"
                            },
                            "geometryCrop2" : {
                              "type" : "double",
                              "defaultValue" : 0.0,
                              "interp" : "eioe"
                            },
                            "geometryCrop3" : {
                              "type" : "double",
                              "defaultValue" : 0.0,
                              "interp" : "eioe"
                            },
                            "cursorScale" : {
                              "type" : "double",
                              "defaultValue" : 1.0,
                              "interp" : "linr"
                            },
                            "cursorOpacity" : {
                              "type" : "double",
                              "defaultValue" : 1.0,
                              "interp" : "linr"
                            },
                            "smoothCursorAcrossEditDuration" : 235200000
                          },
                          "effects" : [

                          ],
                          "start" : 2299409280000,
                          "duration" : 106145760000,
                          "mediaStart" : 0,
                          "mediaDuration" : 106145760000,
                          "scalar" : 1,
                          "animationTracks" : {

                          }
                        },
                    "audio" : 
                        {
                          "id" : 129,
                          "_type" : "AMFile",
                          "src" : 29,
                          "trackNumber" : 2,
                          "attributes" : {
                            "ident" : "",
                            "gain" : 1.0,
                            "mixToMono" : false,
                            "loudnessNormalization" : true,
                            "sourceFileOffset" : 0
                          },
                            "channelNumber" : "0,1",
                          "effects" : [
                              {
                                "effectName" : "WinCompression",
                                "bypassed" : false,
                                "category" : "categoryAudioEffects",
                                "parameters" : {
                                  "ratio" : 10.0,
                                  "threshold" : -20.0,
                                  "gain" : 9.0,
                                  "attack" : 0.0,
                                  "release" : 3500.0,
                                  "preset" : 1
                                },
                                "metadata" : {
                                  "effectIndex" : "0",
                                  "presetName" : "Audio Compression"
                                }
                              },
                              {
                                "effectName" : "NoiseReduction",
                                "bypassed" : false,
                                "category" : "categoryAudioEffects",
                                "parameters" : {
                                  "denoiserAmount" : 20.0,
                                  "denoiserThreshold" : 0.0,
                                  "noiseProfile" : "",
                                  "noiseTrainingType" : "default"
                                },
                                "metadata" : {
                                  "effectIndex" : "1",
                                  "presetName" : "Noise Removal"
                                }
                              }
                          ],
                          "start" : 2299409280000,
                          "duration" : 106145760000,
                          "mediaStart" : 0,
                          "mediaDuration" : 106145760000,
                          "scalar" : 1,
                          "animationTracks" : {

                          }
                        }
,
                    "start" : 2299409280000,
                    "duration" : 106145760000,
                    "mediaStart" : 0,
                    "mediaDuration" : 106145760000,
                    "scalar" : 1,
                    "metadata" : {
                      "AutoAppliedSmartFocus" : "False",
                      "clipSpeedAttribute" : false
                    }
                  },
                  {
                    "id" : 130,
                    "_type" : "UnifiedMedia",
                    "video" : 
                        {
                          "id" : 131,
                          "_type" : "ScreenVMFile",
                          "src" : 33,
                          "trackNumber" : 0,
                          "attributes" : {
                            "ident" : "Rec 12-20-2023-10-56-29-AM"
                          },
                          "parameters" : {
                            "translation0" : {
                              "type" : "double",
                              "defaultValue" : 2.27373675443232e-13,
                              "interp" : "eioe"
                            },
                            "translation1" : {
                              "type" : "double",
                              "defaultValue" : 1.70530256582424e-13,
                              "interp" : "eioe"
                            },
                            "scale0" : {
                              "type" : "double",
                              "defaultValue" : 0.666666666666667,
                              "interp" : "eioe"
                            },
                            "scale1" : {
                              "type" : "double",
                              "defaultValue" : 0.666666666666667,
                              "interp" : "eioe"
                            },
                            "sourceCrop0" : {
                              "type" : "double",
                              "defaultValue" : 0.0,
                              "interp" : "eioe"
                            },
                            "sourceCrop1" : {
                              "type" : "double",
                              "defaultValue" : 0.0,
                              "interp" : "eioe"
                            },
                            "sourceCrop2" : {
                              "type" : "double",
                              "defaultValue" : 0.0,
                              "interp" : "eioe"
                            },
                            "sourceCrop3" : {
                              "type" : "double",
                              "defaultValue" : 0.0,
                              "interp" : "eioe"
                            },
                            "geometryCrop0" : {
                              "type" : "double",
                              "defaultValue" : 0.0,
                              "interp" : "eioe"
                            },
                            "geometryCrop1" : {
                              "type" : "double",
                              "defaultValue" : 0.0,
                              "interp" : "eioe"
                            },
                            "geometryCrop2" : {
                              "type" : "double",
                              "defaultValue" : 0.0,
                              "interp" : "eioe"
                            },
                            "geometryCrop3" : {
                              "type" : "double",
                              "defaultValue" : 0.0,
                              "interp" : "eioe"
                            },
                            "cursorScale" : {
                              "type" : "double",
                              "defaultValue" : 1.0,
                              "interp" : "linr"
                            },
                            "cursorOpacity" : {
                              "type" : "double",
                              "defaultValue" : 1.0,
                              "interp" : "linr"
                            },
                            "smoothCursorAcrossEditDuration" : 235200000
                          },
                          "effects" : [

                          ],
                          "start" : 2405578560000,
                          "duration" : 179434080000,
                          "mediaStart" : 0,
                          "mediaDuration" : 179434080000,
                          "scalar" : 1,
                          "animationTracks" : {

                          }
                        },
                    "audio" : 
                        {
                          "id" : 132,
                          "_type" : "AMFile",
                          "src" : 33,
                          "trackNumber" : 2,
                          "attributes" : {
                            "ident" : "",
                            "gain" : 1.0,
                            "mixToMono" : false,
                            "loudnessNormalization" : true,
                            "sourceFileOffset" : 0
                          },
                            "channelNumber" : "0,1",
                          "effects" : [
                              {
                                "effectName" : "WinCompression",
                                "bypassed" : false,
                                "category" : "categoryAudioEffects",
                                "parameters" : {
                                  "ratio" : 10.0,
                                  "threshold" : -20.0,
                                  "gain" : 9.0,
                                  "attack" : 0.0,
                                  "release" : 3500.0,
                                  "preset" : 1
                                },
                                "metadata" : {
                                  "effectIndex" : "0",
                                  "presetName" : "Audio Compression"
                                }
                              },
                              {
                                "effectName" : "NoiseReduction",
                                "bypassed" : false,
                                "category" : "categoryAudioEffects",
                                "parameters" : {
                                  "denoiserAmount" : 20.0,
                                  "denoiserThreshold" : 0.0,
                                  "noiseProfile" : "",
                                  "noiseTrainingType" : "default"
                                },
                                "metadata" : {
                                  "effectIndex" : "1",
                                  "presetName" : "Noise Removal"
                                }
                              }
                          ],
                          "start" : 2405578560000,
                          "duration" : 179434080000,
                          "mediaStart" : 0,
                          "mediaDuration" : 179434080000,
                          "scalar" : 1,
                          "animationTracks" : {

                          }
                        }
,
                    "start" : 2405578560000,
                    "duration" : 179434080000,
                    "mediaStart" : 0,
                    "mediaDuration" : 179434080000,
                    "scalar" : 1,
                    "metadata" : {
                      "AutoAppliedSmartFocus" : "False",
                      "clipSpeedAttribute" : false,
                      "default-height" : 720.0,
                      "default-translation0" : 0.0,
                      "default-translation1" : 0.0,
                      "default-translation2" : 0.0,
                      "default-width" : 1280.0
                    }
                  },
                  {
                    "id" : 133,
                    "_type" : "UnifiedMedia",
                    "video" : 
                        {
                          "id" : 134,
                          "_type" : "ScreenVMFile",
                          "src" : 34,
                          "trackNumber" : 0,
                          "attributes" : {
                            "ident" : "Rec 12-26-2023-1-24-30-PM"
                          },
                          "parameters" : {
                            "scale0" : {
                              "type" : "double",
                              "defaultValue" : 0.666666666666667,
                              "interp" : "eioe"
                            },
                            "scale1" : {
                              "type" : "double",
                              "defaultValue" : 0.666666666666667,
                              "interp" : "eioe"
                            },
                            "sourceCrop0" : {
                              "type" : "double",
                              "defaultValue" : 0.0,
                              "interp" : "eioe"
                            },
                            "sourceCrop1" : {
                              "type" : "double",
                              "defaultValue" : 0.0,
                              "interp" : "eioe"
                            },
                            "sourceCrop2" : {
                              "type" : "double",
                              "defaultValue" : 0.0,
                              "interp" : "eioe"
                            },
                            "sourceCrop3" : {
                              "type" : "double",
                              "defaultValue" : 0.0,
                              "interp" : "eioe"
                            },
                            "geometryCrop0" : {
                              "type" : "double",
                              "defaultValue" : 0.0,
                              "interp" : "eioe"
                            },
                            "geometryCrop1" : {
                              "type" : "double",
                              "defaultValue" : 0.0,
                              "interp" : "eioe"
                            },
                            "geometryCrop2" : {
                              "type" : "double",
                              "defaultValue" : 0.0,
                              "interp" : "eioe"
                            },
                            "geometryCrop3" : {
                              "type" : "double",
                              "defaultValue" : 0.0,
                              "interp" : "eioe"
                            },
                            "cursorScale" : {
                              "type" : "double",
                              "defaultValue" : 1.0,
                              "interp" : "linr"
                            },
                            "cursorOpacity" : {
                              "type" : "double",
                              "defaultValue" : 1.0,
                              "interp" : "linr"
                            },
                            "smoothCursorAcrossEditDuration" : 235200000
                          },
                          "effects" : [

                          ],
                          "start" : 2588046720000,
                          "duration" : 115718400000,
                          "mediaStart" : 0,
                          "mediaDuration" : 115718400000,
                          "scalar" : 1,
                          "animationTracks" : {

                          }
                        },
                    "audio" : 
                        {
                          "id" : 135,
                          "_type" : "AMFile",
                          "src" : 34,
                          "trackNumber" : 2,
                          "attributes" : {
                            "ident" : "",
                            "gain" : 1.0,
                            "mixToMono" : false,
                            "loudnessNormalization" : true,
                            "sourceFileOffset" : 0
                          },
                            "channelNumber" : "0,1",
                          "effects" : [
                              {
                                "effectName" : "WinCompression",
                                "bypassed" : false,
                                "category" : "categoryAudioEffects",
                                "parameters" : {
                                  "ratio" : 10.0,
                                  "threshold" : -20.0,
                                  "gain" : 9.0,
                                  "attack" : 0.0,
                                  "release" : 3500.0,
                                  "preset" : 1
                                },
                                "metadata" : {
                                  "effectIndex" : "0",
                                  "presetName" : "Audio Compression"
                                }
                              }
                          ],
                          "start" : 2588046720000,
                          "duration" : 115718400000,
                          "mediaStart" : 0,
                          "mediaDuration" : 115718400000,
                          "scalar" : 1,
                          "animationTracks" : {

                          }
                        }
,
                    "start" : 2588046720000,
                    "duration" : 115718400000,
                    "mediaStart" : 0,
                    "mediaDuration" : 115718400000,
                    "scalar" : 1,
                    "metadata" : {
                      "AutoAppliedSmartFocus" : "False",
                      "clipSpeedAttribute" : false
                    }
                  },
                  {
                    "id" : 136,
                    "_type" : "UnifiedMedia",
                    "video" : 
                        {
                          "id" : 137,
                          "_type" : "ScreenVMFile",
                          "src" : 30,
                          "trackNumber" : 0,
                          "attributes" : {
                            "ident" : "Rec 12-18-2023-11-52-16-AM"
                          },
                          "parameters" : {
                            "translation0" : {
                              "type" : "double",
                              "defaultValue" : -2.27373675443232e-13,
                              "interp" : "eioe"
                            },
                            "translation1" : {
                              "type" : "double",
                              "defaultValue" : 1.70530256582424e-13,
                              "interp" : "eioe"
                            },
                            "scale0" : {
                              "type" : "double",
                              "defaultValue" : 0.666666666666667,
                              "interp" : "eioe"
                            },
                            "scale1" : {
                              "type" : "double",
                              "defaultValue" : 0.666666666666667,
                              "interp" : "eioe"
                            },
                            "sourceCrop0" : {
                              "type" : "double",
                              "defaultValue" : 0.0,
                              "interp" : "eioe"
                            },
                            "sourceCrop1" : {
                              "type" : "double",
                              "defaultValue" : 0.0,
                              "interp" : "eioe"
                            },
                            "sourceCrop2" : {
                              "type" : "double",
                              "defaultValue" : 0.0,
                              "interp" : "eioe"
                            },
                            "sourceCrop3" : {
                              "type" : "double",
                              "defaultValue" : 0.0,
                              "interp" : "eioe"
                            },
                            "geometryCrop0" : {
                              "type" : "double",
                              "defaultValue" : 0.0,
                              "interp" : "eioe"
                            },
                            "geometryCrop1" : {
                              "type" : "double",
                              "defaultValue" : 0.0,
                              "interp" : "eioe"
                            },
                            "geometryCrop2" : {
                              "type" : "double",
                              "defaultValue" : 0.0,
                              "interp" : "eioe"
                            },
                            "geometryCrop3" : {
                              "type" : "double",
                              "defaultValue" : 0.0,
                              "interp" : "eioe"
                            },
                            "cursorScale" : {
                              "type" : "double",
                              "defaultValue" : 1.0,
                              "interp" : "linr"
                            },
                            "cursorOpacity" : {
                              "type" : "double",
                              "defaultValue" : 1.0,
                              "interp" : "linr"
                            },
                            "smoothCursorAcrossEditDuration" : 235200000
                          },
                          "effects" : [

                          ],
                          "start" : 2703929760000,
                          "duration" : 108215520000,
                          "mediaStart" : 2422560000,
                          "mediaDuration" : 108215520000,
                          "scalar" : 1,
                          "animationTracks" : {

                          }
                        },
                    "audio" : 
                        {
                          "id" : 138,
                          "_type" : "AMFile",
                          "src" : 30,
                          "trackNumber" : 2,
                          "attributes" : {
                            "ident" : "",
                            "gain" : 1.0,
                            "mixToMono" : false,
                            "loudnessNormalization" : true,
                            "sourceFileOffset" : 0
                          },
                            "channelNumber" : "0,1",
                          "effects" : [
                              {
                                "effectName" : "WinCompression",
                                "bypassed" : false,
                                "category" : "categoryAudioEffects",
                                "parameters" : {
                                  "ratio" : 10.0,
                                  "threshold" : -20.0,
                                  "gain" : 9.0,
                                  "attack" : 0.0,
                                  "release" : 3500.0,
                                  "preset" : 1
                                },
                                "metadata" : {
                                  "effectIndex" : "0",
                                  "presetName" : "Audio Compression"
                                }
                              },
                              {
                                "effectName" : "NoiseReduction",
                                "bypassed" : false,
                                "category" : "categoryAudioEffects",
                                "parameters" : {
                                  "denoiserAmount" : 20.0,
                                  "denoiserThreshold" : 0.0,
                                  "noiseProfile" : "",
                                  "noiseTrainingType" : "default"
                                },
                                "metadata" : {
                                  "effectIndex" : "1",
                                  "presetName" : "Noise Removal"
                                }
                              }
                          ],
                          "start" : 2703929760000,
                          "duration" : 108215520000,
                          "mediaStart" : 2422560000,
                          "mediaDuration" : 108215520000,
                          "scalar" : 1,
                          "animationTracks" : {

                          }
                        }
,
                    "start" : 2703929760000,
                    "duration" : 108215520000,
                    "mediaStart" : 2422560000,
                    "mediaDuration" : 108215520000,
                    "scalar" : 1,
                    "metadata" : {
                      "AutoAppliedSmartFocus" : "False",
                      "clipSpeedAttribute" : false,
                      "default-height" : 720.0,
                      "default-translation0" : 0.0,
                      "default-translation1" : 0.0,
                      "default-translation2" : 0.0,
                      "default-width" : 1280.0
                    }
                  },
                  {
                    "id" : 139,
                    "_type" : "UnifiedMedia",
                    "video" : 
                        {
                          "id" : 140,
                          "_type" : "ScreenVMFile",
                          "src" : 31,
                          "trackNumber" : 0,
                          "attributes" : {
                            "ident" : "Rec 12-18-2023-12-00-22-PM"
                          },
                          "parameters" : {
                            "translation0" : {
                              "type" : "double",
                              "defaultValue" : -1.13686837721616e-13,
                              "interp" : "eioe"
                            },
                            "translation1" : {
                              "type" : "double",
                              "defaultValue" : -5.6843418860808e-14,
                              "interp" : "eioe"
                            },
                            "scale0" : {
                              "type" : "double",
                              "defaultValue" : 0.666666666666667,
                              "interp" : "eioe"
                            },
                            "scale1" : {
                              "type" : "double",
                              "defaultValue" : 0.666666666666667,
                              "interp" : "eioe"
                            },
                            "sourceCrop0" : {
                              "type" : "double",
                              "defaultValue" : 0.0,
                              "interp" : "eioe"
                            },
                            "sourceCrop1" : {
                              "type" : "double",
                              "defaultValue" : 0.0,
                              "interp" : "eioe"
                            },
                            "sourceCrop2" : {
                              "type" : "double",
                              "defaultValue" : 0.0,
                              "interp" : "eioe"
                            },
                            "sourceCrop3" : {
                              "type" : "double",
                              "defaultValue" : 0.0,
                              "interp" : "eioe"
                            },
                            "geometryCrop0" : {
                              "type" : "double",
                              "defaultValue" : 0.0,
                              "interp" : "eioe"
                            },
                            "geometryCrop1" : {
                              "type" : "double",
                              "defaultValue" : 0.0,
                              "interp" : "eioe"
                            },
                            "geometryCrop2" : {
                              "type" : "double",
                              "defaultValue" : 0.0,
                              "interp" : "eioe"
                            },
                            "geometryCrop3" : {
                              "type" : "double",
                              "defaultValue" : 0.0,
                              "interp" : "eioe"
                            },
                            "cursorScale" : {
                              "type" : "double",
                              "defaultValue" : 1.0,
                              "interp" : "linr"
                            },
                            "cursorOpacity" : {
                              "type" : "double",
                              "defaultValue" : 1.0,
                              "interp" : "linr"
                            },
                            "smoothCursorAcrossEditDuration" : 235200000
                          },
                          "effects" : [

                          ],
                          "start" : 2812192320000,
                          "duration" : 109532640000,
                          "mediaStart" : 0,
                          "mediaDuration" : 109532640000,
                          "scalar" : 1,
                          "animationTracks" : {

                          }
                        },
                    "audio" : 
                        {
                          "id" : 141,
                          "_type" : "AMFile",
                          "src" : 31,
                          "trackNumber" : 2,
                          "attributes" : {
                            "ident" : "",
                            "gain" : 1.0,
                            "mixToMono" : false,
                            "loudnessNormalization" : true,
                            "sourceFileOffset" : 0
                          },
                            "channelNumber" : "0,1",
                          "effects" : [
                              {
                                "effectName" : "WinCompression",
                                "bypassed" : false,
                                "category" : "categoryAudioEffects",
                                "parameters" : {
                                  "ratio" : 10.0,
                                  "threshold" : -20.0,
                                  "gain" : 9.0,
                                  "attack" : 0.0,
                                  "release" : 3500.0,
                                  "preset" : 1
                                },
                                "metadata" : {
                                  "effectIndex" : "0",
                                  "presetName" : "Audio Compression"
                                }
                              },
                              {
                                "effectName" : "NoiseReduction",
                                "bypassed" : false,
                                "category" : "categoryAudioEffects",
                                "parameters" : {
                                  "denoiserAmount" : 20.0,
                                  "denoiserThreshold" : 0.0,
                                  "noiseProfile" : "",
                                  "noiseTrainingType" : "default"
                                },
                                "metadata" : {
                                  "effectIndex" : "1",
                                  "presetName" : "Noise Removal"
                                }
                              }
                          ],
                          "start" : 2812192320000,
                          "duration" : 109532640000,
                          "mediaStart" : 0,
                          "mediaDuration" : 109532640000,
                          "scalar" : 1,
                          "animationTracks" : {

                          }
                        }
,
                    "start" : 2812192320000,
                    "duration" : 109532640000,
                    "mediaStart" : 0,
                    "mediaDuration" : 109532640000,
                    "scalar" : 1,
                    "metadata" : {
                      "AutoAppliedSmartFocus" : "False",
                      "clipSpeedAttribute" : false,
                      "default-anchor0" : 0.0,
                      "default-anchor1" : 0.0,
                      "default-anchor2" : 0.0,
                      "default-height" : 720.0,
                      "default-rotation0" : 0.0,
                      "default-rotation1" : 0.0,
                      "default-rotation2" : 0.0,
                      "default-scale0" : 0.666666666666667,
                      "default-scale1" : 0.666666666666667,
                      "default-scale2" : 1.0,
                      "default-shear0" : 0.0,
                      "default-shear1" : 0.0,
                      "default-shear2" : 0.0,
                      "default-translation0" : 0.0,
                      "default-translation1" : 0.0,
                      "default-translation2" : 0.0,
                      "default-width" : 1280.0
                    }
                  },
                  {
                    "id" : 142,
                    "_type" : "UnifiedMedia",
                    "video" : 
                        {
                          "id" : 143,
                          "_type" : "ScreenVMFile",
                          "src" : 37,
                          "trackNumber" : 0,
                          "attributes" : {
                            "ident" : "Rec 1-10-2024-11-11-18-AM"
                          },
                          "parameters" : {
                            "scale0" : {
                              "type" : "double",
                              "defaultValue" : 0.666666666666667,
                              "interp" : "eioe"
                            },
                            "scale1" : {
                              "type" : "double",
                              "defaultValue" : 0.666666666666667,
                              "interp" : "eioe"
                            },
                            "sourceCrop0" : {
                              "type" : "double",
                              "defaultValue" : 0.0,
                              "interp" : "eioe"
                            },
                            "sourceCrop1" : {
                              "type" : "double",
                              "defaultValue" : 0.0,
                              "interp" : "eioe"
                            },
                            "sourceCrop2" : {
                              "type" : "double",
                              "defaultValue" : 0.0,
                              "interp" : "eioe"
                            },
                            "sourceCrop3" : {
                              "type" : "double",
                              "defaultValue" : 0.0,
                              "interp" : "eioe"
                            },
                            "geometryCrop0" : {
                              "type" : "double",
                              "defaultValue" : 0.0,
                              "interp" : "eioe"
                            },
                            "geometryCrop1" : {
                              "type" : "double",
                              "defaultValue" : 0.0,
                              "interp" : "eioe"
                            },
                            "geometryCrop2" : {
                              "type" : "double",
                              "defaultValue" : 0.0,
                              "interp" : "eioe"
                            },
                            "geometryCrop3" : {
                              "type" : "double",
                              "defaultValue" : 0.0,
                              "interp" : "eioe"
                            },
                            "cursorScale" : {
                              "type" : "double",
                              "defaultValue" : 1.0,
                              "interp" : "linr"
                            },
                            "cursorOpacity" : {
                              "type" : "double",
                              "defaultValue" : 1.0,
                              "interp" : "linr"
                            },
                            "smoothCursorAcrossEditDuration" : 235200000
                          },
                          "effects" : [

                          ],
                          "start" : 2921724960000,
                          "duration" : 44523360000,
                          "mediaStart" : 0,
                          "mediaDuration" : 44523360000,
                          "scalar" : 1,
                          "animationTracks" : {

                          }
                        },
                    "audio" : 
                        {
                          "id" : 144,
                          "_type" : "AMFile",
                          "src" : 37,
                          "trackNumber" : 2,
                          "attributes" : {
                            "ident" : "",
                            "gain" : 1.0,
                            "mixToMono" : false,
                            "loudnessNormalization" : true,
                            "sourceFileOffset" : 0
                          },
                            "channelNumber" : "0,1",
                          "effects" : [
                              {
                                "effectName" : "WinCompression",
                                "bypassed" : false,
                                "category" : "categoryAudioEffects",
                                "parameters" : {
                                  "ratio" : 10.0,
                                  "threshold" : -20.0,
                                  "gain" : 9.0,
                                  "attack" : 0.0,
                                  "release" : 3500.0,
                                  "preset" : 1
                                },
                                "metadata" : {
                                  "effectIndex" : "0",
                                  "presetName" : "Audio Compression"
                                }
                              },
                              {
                                "effectName" : "NoiseReduction",
                                "bypassed" : false,
                                "category" : "categoryAudioEffects",
                                "parameters" : {
                                  "denoiserAmount" : 20.0,
                                  "denoiserThreshold" : 0.0,
                                  "noiseProfile" : "",
                                  "noiseTrainingType" : "default"
                                },
                                "metadata" : {
                                  "effectIndex" : "1",
                                  "presetName" : "Noise Removal"
                                }
                              }
                          ],
                          "start" : 2921724960000,
                          "duration" : 44523360000,
                          "mediaStart" : 0,
                          "mediaDuration" : 44523360000,
                          "scalar" : 1,
                          "animationTracks" : {

                          }
                        }
,
                    "start" : 2921724960000,
                    "duration" : 44523360000,
                    "mediaStart" : 0,
                    "mediaDuration" : 44523360000,
                    "scalar" : 1,
                    "metadata" : {
                      "AutoAppliedSmartFocus" : "False",
                      "clipSpeedAttribute" : false
                    }
                  },
                  {
                    "id" : 145,
                    "_type" : "UnifiedMedia",
                    "video" : 
                        {
                          "id" : 146,
                          "_type" : "ScreenVMFile",
                          "src" : 38,
                          "trackNumber" : 0,
                          "attributes" : {
                            "ident" : "Rec 1-10-2024-11-17-22-AM"
                          },
                          "parameters" : {
                            "scale0" : {
                              "type" : "double",
                              "defaultValue" : 0.666666666666667,
                              "interp" : "eioe"
                            },
                            "scale1" : {
                              "type" : "double",
                              "defaultValue" : 0.666666666666667,
                              "interp" : "eioe"
                            },
                            "sourceCrop0" : {
                              "type" : "double",
                              "defaultValue" : 0.0,
                              "interp" : "eioe"
                            },
                            "sourceCrop1" : {
                              "type" : "double",
                              "defaultValue" : 0.0,
                              "interp" : "eioe"
                            },
                            "sourceCrop2" : {
                              "type" : "double",
                              "defaultValue" : 0.0,
                              "interp" : "eioe"
                            },
                            "sourceCrop3" : {
                              "type" : "double",
                              "defaultValue" : 0.0,
                              "interp" : "eioe"
                            },
                            "geometryCrop0" : {
                              "type" : "double",
                              "defaultValue" : 0.0,
                              "interp" : "eioe"
                            },
                            "geometryCrop1" : {
                              "type" : "double",
                              "defaultValue" : 0.0,
                              "interp" : "eioe"
                            },
                            "geometryCrop2" : {
                              "type" : "double",
                              "defaultValue" : 0.0,
                              "interp" : "eioe"
                            },
                            "geometryCrop3" : {
                              "type" : "double",
                              "defaultValue" : 0.0,
                              "interp" : "eioe"
                            },
                            "cursorScale" : {
                              "type" : "double",
                              "defaultValue" : 1.0,
                              "interp" : "linr"
                            },
                            "cursorOpacity" : {
                              "type" : "double",
                              "defaultValue" : 1.0,
                              "interp" : "linr"
                            },
                            "smoothCursorAcrossEditDuration" : 235200000
                          },
                          "effects" : [

                          ],
                          "start" : 2967048000000,
                          "duration" : 107698080000,
                          "mediaStart" : 0,
                          "mediaDuration" : 107698080000,
                          "scalar" : 1,
                          "animationTracks" : {

                          }
                        },
                    "audio" : 
                        {
                          "id" : 147,
                          "_type" : "AMFile",
                          "src" : 38,
                          "trackNumber" : 2,
                          "attributes" : {
                            "ident" : "",
                            "gain" : 1.0,
                            "mixToMono" : false,
                            "loudnessNormalization" : true,
                            "sourceFileOffset" : 0
                          },
                            "channelNumber" : "0,1",
                          "effects" : [
                              {
                                "effectName" : "WinCompression",
                                "bypassed" : false,
                                "category" : "categoryAudioEffects",
                                "parameters" : {
                                  "ratio" : 10.0,
                                  "threshold" : -20.0,
                                  "gain" : 9.0,
                                  "attack" : 0.0,
                                  "release" : 3500.0,
                                  "preset" : 1
                                },
                                "metadata" : {
                                  "effectIndex" : "0",
                                  "presetName" : "Audio Compression"
                                }
                              },
                              {
                                "effectName" : "NoiseReduction",
                                "bypassed" : false,
                                "category" : "categoryAudioEffects",
                                "parameters" : {
                                  "denoiserAmount" : 20.0,
                                  "denoiserThreshold" : 0.0,
                                  "noiseProfile" : "",
                                  "noiseTrainingType" : "default"
                                },
                                "metadata" : {
                                  "effectIndex" : "1",
                                  "presetName" : "Noise Removal"
                                }
                              }
                          ],
                          "start" : 2967048000000,
                          "duration" : 107698080000,
                          "mediaStart" : 0,
                          "mediaDuration" : 107698080000,
                          "scalar" : 1,
                          "animationTracks" : {

                          }
                        }
,
                    "start" : 2967048000000,
                    "duration" : 107698080000,
                    "mediaStart" : 0,
                    "mediaDuration" : 107698080000,
                    "scalar" : 1,
                    "metadata" : {
                      "AutoAppliedSmartFocus" : "False",
                      "clipSpeedAttribute" : false,
                      "default-height" : 720.0,
                      "default-translation0" : 0.0,
                      "default-translation1" : 0.0,
                      "default-translation2" : 0.0,
                      "default-width" : 1280.0
                    }
                  },
                  {
                    "id" : 148,
                    "_type" : "UnifiedMedia",
                    "video" : 
                        {
                          "id" : 149,
                          "_type" : "ScreenVMFile",
                          "src" : 32,
                          "trackNumber" : 0,
                          "attributes" : {
                            "ident" : "Rec 12-18-2023-12-12-27-PM"
                          },
                          "parameters" : {
                            "scale0" : {
                              "type" : "double",
                              "defaultValue" : 0.666666666666667,
                              "interp" : "eioe"
                            },
                            "scale1" : {
                              "type" : "double",
                              "defaultValue" : 0.666666666666667,
                              "interp" : "eioe"
                            },
                            "sourceCrop0" : {
                              "type" : "double",
                              "defaultValue" : 0.0,
                              "interp" : "eioe"
                            },
                            "sourceCrop1" : {
                              "type" : "double",
                              "defaultValue" : 0.0,
                              "interp" : "eioe"
                            },
                            "sourceCrop2" : {
                              "type" : "double",
                              "defaultValue" : 0.0,
                              "interp" : "eioe"
                            },
                            "sourceCrop3" : {
                              "type" : "double",
                              "defaultValue" : 0.0,
                              "interp" : "eioe"
                            },
                            "geometryCrop0" : {
                              "type" : "double",
                              "defaultValue" : 0.0,
                              "interp" : "eioe"
                            },
                            "geometryCrop1" : {
                              "type" : "double",
                              "defaultValue" : 0.0,
                              "interp" : "eioe"
                            },
                            "geometryCrop2" : {
                              "type" : "double",
                              "defaultValue" : 0.0,
                              "interp" : "eioe"
                            },
                            "geometryCrop3" : {
                              "type" : "double",
                              "defaultValue" : 0.0,
                              "interp" : "eioe"
                            },
                            "cursorScale" : {
                              "type" : "double",
                              "defaultValue" : 1.0,
                              "interp" : "linr"
                            },
                            "cursorOpacity" : {
                              "type" : "double",
                              "defaultValue" : 1.0,
                              "interp" : "linr"
                            },
                            "smoothCursorAcrossEditDuration" : 235200000
                          },
                          "effects" : [

                          ],
                          "start" : 3074910720000,
                          "duration" : 83966400000,
                          "mediaStart" : 0,
                          "mediaDuration" : 83966400000,
                          "scalar" : 1,
                          "animationTracks" : {

                          }
                        },
                    "audio" : 
                        {
                          "id" : 150,
                          "_type" : "AMFile",
                          "src" : 32,
                          "trackNumber" : 2,
                          "attributes" : {
                            "ident" : "",
                            "gain" : 1.0,
                            "mixToMono" : false,
                            "loudnessNormalization" : true,
                            "sourceFileOffset" : 0
                          },
                            "channelNumber" : "0,1",
                          "effects" : [
                              {
                                "effectName" : "WinCompression",
                                "bypassed" : false,
                                "category" : "categoryAudioEffects",
                                "parameters" : {
                                  "ratio" : 10.0,
                                  "threshold" : -20.0,
                                  "gain" : 9.0,
                                  "attack" : 0.0,
                                  "release" : 3500.0,
                                  "preset" : 1
                                },
                                "metadata" : {
                                  "effectIndex" : "0",
                                  "presetName" : "Audio Compression"
                                }
                              }
                          ],
                          "start" : 3074910720000,
                          "duration" : 83966400000,
                          "mediaStart" : 0,
                          "mediaDuration" : 83966400000,
                          "scalar" : 1,
                          "animationTracks" : {

                          }
                        }
,
                    "start" : 3074910720000,
                    "duration" : 83966400000,
                    "mediaStart" : 0,
                    "mediaDuration" : 83966400000,
                    "scalar" : 1,
                    "metadata" : {
                      "AutoAppliedSmartFocus" : "False",
                      "clipSpeedAttribute" : false
                    }
                  }
                ],
                "transitions" : [
                  {
                    "name" : "CardFlipSwap",
                    "duration" : 352800000,
                    "leftMedia" : 40,
                    "rightMedia" : 43,
                    "attributes" : {
                      "Angle" : 0.6,
                      "Color-blue" : 1.0,
                      "Color-green" : 1.0,
                      "Color-red" : 1.0,
                      "Depth" : 1.0,
                      "bypass" : false,
                      "reverse" : false,
                      "trivial" : false,
                      "useAudioPreRoll" : true,
                      "useVisualPreRoll" : true
                    }

                  },
                  {
                    "name" : "CardFlipSwap",
                    "duration" : 705600000,
                    "leftMedia" : 43,
                    "attributes" : {
                      "Angle" : 0.6,
                      "Color-blue" : 1.0,
                      "Color-green" : 1.0,
                      "Color-red" : 1.0,
                      "Depth" : 1.0,
                      "bypass" : false,
                      "reverse" : false,
                      "trivial" : false,
                      "useAudioPreRoll" : true,
                      "useVisualPreRoll" : true
                    }

                  },
                  {
                    "name" : "CardFlip",
                    "duration" : 705600000,
                    "rightMedia" : 52,
                    "attributes" : {
                      "Angle" : -0.5,
                      "Color-blue" : 1.0,
                      "Color-green" : 1.0,
                      "Color-red" : 1.0,
                      "Depth" : 1.25,
                      "bypass" : false,
                      "reverse" : false,
                      "trivial" : false,
                      "useAudioPreRoll" : true,
                      "useVisualPreRoll" : true
                    }

                  },
                  {
                    "name" : "CardFlipSwap",
                    "duration" : 705600000,
                    "rightMedia" : 55,
                    "attributes" : {
                      "Angle" : 0.6,
                      "Color-blue" : 1.0,
                      "Color-green" : 1.0,
                      "Color-red" : 1.0,
                      "Depth" : 1.0,
                      "bypass" : false,
                      "reverse" : false,
                      "trivial" : false,
                      "useAudioPreRoll" : true,
                      "useVisualPreRoll" : true
                    }

                  },
                  {
                    "name" : "CardFlip",
                    "duration" : 352800000,
                    "leftMedia" : 55,
                    "rightMedia" : 58,
                    "attributes" : {
                      "Angle" : -0.5,
                      "Color-blue" : 1.0,
                      "Color-green" : 1.0,
                      "Color-red" : 1.0,
                      "Depth" : 1.25,
                      "bypass" : false,
                      "reverse" : false,
                      "trivial" : false,
                      "useAudioPreRoll" : true,
                      "useVisualPreRoll" : true
                    }

                  },
                  {
                    "name" : "CardFlip",
                    "duration" : 705600000,
                    "leftMedia" : 58,
                    "attributes" : {
                      "Angle" : -0.5,
                      "Color-blue" : 1.0,
                      "Color-green" : 1.0,
                      "Color-red" : 1.0,
                      "Depth" : 1.25,
                      "bypass" : false,
                      "reverse" : false,
                      "trivial" : false,
                      "useAudioPreRoll" : true,
                      "useVisualPreRoll" : true
                    }

                  },
                  {
                    "name" : "CardFlipSwap",
                    "duration" : 705600000,
                    "rightMedia" : 64,
                    "attributes" : {
                      "Angle" : 0.6,
                      "Color-blue" : 1.0,
                      "Color-green" : 1.0,
                      "Color-red" : 1.0,
                      "Depth" : 1.0,
                      "bypass" : false,
                      "reverse" : false,
                      "trivial" : false,
                      "useAudioPreRoll" : true,
                      "useVisualPreRoll" : true
                    }

                  },
                  {
                    "name" : "CardFlipSwap",
                    "duration" : 705600000,
                    "leftMedia" : 64,
                    "attributes" : {
                      "Angle" : 0.6,
                      "Color-blue" : 1.0,
                      "Color-green" : 1.0,
                      "Color-red" : 1.0,
                      "Depth" : 1.0,
                      "bypass" : false,
                      "reverse" : false,
                      "trivial" : false,
                      "useAudioPreRoll" : true,
                      "useVisualPreRoll" : true
                    }

                  },
                  {
                    "name" : "CardFlipSwap",
                    "duration" : 705600000,
                    "rightMedia" : 70,
                    "attributes" : {
                      "Angle" : 0.6,
                      "Color-blue" : 1.0,
                      "Color-green" : 1.0,
                      "Color-red" : 1.0,
                      "Depth" : 1.0,
                      "bypass" : false,
                      "reverse" : false,
                      "trivial" : false,
                      "useAudioPreRoll" : true,
                      "useVisualPreRoll" : true
                    }

                  },
                  {
                    "name" : "CardFlipSwap",
                    "duration" : 705600000,
                    "rightMedia" : 76,
                    "attributes" : {
                      "Angle" : 0.6,
                      "Color-blue" : 1.0,
                      "Color-green" : 1.0,
                      "Color-red" : 1.0,
                      "Depth" : 1.0,
                      "bypass" : false,
                      "reverse" : false,
                      "trivial" : false,
                      "useAudioPreRoll" : true,
                      "useVisualPreRoll" : true
                    }

                  },
                  {
                    "name" : "CardFlipSwap",
                    "duration" : 705600000,
                    "leftMedia" : 76,
                    "attributes" : {
                      "Angle" : 0.6,
                      "Color-blue" : 1.0,
                      "Color-green" : 1.0,
                      "Color-red" : 1.0,
                      "Depth" : 1.0,
                      "bypass" : false,
                      "reverse" : false,
                      "trivial" : false,
                      "useAudioPreRoll" : true,
                      "useVisualPreRoll" : true
                    }

                  },
                  {
                    "name" : "CardFlipSwap",
                    "duration" : 352800000,
                    "leftMedia" : 82,
                    "rightMedia" : 85,
                    "attributes" : {
                      "Angle" : 0.6,
                      "Color-blue" : 1.0,
                      "Color-green" : 1.0,
                      "Color-red" : 1.0,
                      "Depth" : 1.0,
                      "bypass" : false,
                      "reverse" : false,
                      "trivial" : false,
                      "useAudioPreRoll" : true,
                      "useVisualPreRoll" : true
                    }

                  },
                  {
                    "name" : "CardFlipSwap",
                    "duration" : 705600000,
                    "rightMedia" : 88,
                    "attributes" : {
                      "Angle" : 0.6,
                      "Color-blue" : 1.0,
                      "Color-green" : 1.0,
                      "Color-red" : 1.0,
                      "Depth" : 1.0,
                      "bypass" : false,
                      "reverse" : false,
                      "trivial" : false,
                      "useAudioPreRoll" : true,
                      "useVisualPreRoll" : true
                    }

                  },
                  {
                    "name" : "CardFlipSwap",
                    "duration" : 352800000,
                    "leftMedia" : 88,
                    "rightMedia" : 91,
                    "attributes" : {
                      "Angle" : 0.6,
                      "Color-blue" : 1.0,
                      "Color-green" : 1.0,
                      "Color-red" : 1.0,
                      "Depth" : 1.0,
                      "bypass" : false,
                      "reverse" : false,
                      "trivial" : false,
                      "useAudioPreRoll" : true,
                      "useVisualPreRoll" : true
                    }

                  },
                  {
                    "name" : "CardFlipSwap",
                    "duration" : 705600000,
                    "leftMedia" : 91,
                    "attributes" : {
                      "Angle" : 0.6,
                      "Color-blue" : 1.0,
                      "Color-green" : 1.0,
                      "Color-red" : 1.0,
                      "Depth" : 1.0,
                      "bypass" : false,
                      "reverse" : false,
                      "trivial" : false,
                      "useAudioPreRoll" : true,
                      "useVisualPreRoll" : true
                    }

                  },
                  {
                    "name" : "CardFlipSwap",
                    "duration" : 705600000,
                    "rightMedia" : 97,
                    "attributes" : {
                      "Angle" : 0.6,
                      "Color-blue" : 1.0,
                      "Color-green" : 1.0,
                      "Color-red" : 1.0,
                      "Depth" : 1.0,
                      "bypass" : false,
                      "reverse" : false,
                      "trivial" : false,
                      "useAudioPreRoll" : true,
                      "useVisualPreRoll" : true
                    }

                  },
                  {
                    "name" : "CardFlipSwap",
                    "duration" : 705600000,
                    "rightMedia" : 100,
                    "attributes" : {
                      "Angle" : 0.6,
                      "Color-blue" : 1.0,
                      "Color-green" : 1.0,
                      "Color-red" : 1.0,
                      "Depth" : 1.0,
                      "bypass" : false,
                      "reverse" : false,
                      "trivial" : false,
                      "useAudioPreRoll" : true,
                      "useVisualPreRoll" : true
                    }

                  },
                  {
                    "name" : "CardFlipSwap",
                    "duration" : 705600000,
                    "rightMedia" : 103,
                    "attributes" : {
                      "Angle" : 0.6,
                      "Color-blue" : 1.0,
                      "Color-green" : 1.0,
                      "Color-red" : 1.0,
                      "Depth" : 1.0,
                      "bypass" : false,
                      "reverse" : false,
                      "trivial" : false,
                      "useAudioPreRoll" : true,
                      "useVisualPreRoll" : true
                    }

                  },
                  {
                    "name" : "CardFlipSwap",
                    "duration" : 352800000,
                    "leftMedia" : 103,
                    "rightMedia" : 106,
                    "attributes" : {
                      "Angle" : 0.6,
                      "Color-blue" : 1.0,
                      "Color-green" : 1.0,
                      "Color-red" : 1.0,
                      "Depth" : 1.0,
                      "bypass" : false,
                      "reverse" : false,
                      "trivial" : false,
                      "useAudioPreRoll" : true,
                      "useVisualPreRoll" : true
                    }

                  },
                  {
                    "name" : "CardFlipSwap",
                    "duration" : 705600000,
                    "rightMedia" : 109,
                    "attributes" : {
                      "Angle" : 0.6,
                      "Color-blue" : 1.0,
                      "Color-green" : 1.0,
                      "Color-red" : 1.0,
                      "Depth" : 1.0,
                      "bypass" : false,
                      "reverse" : false,
                      "trivial" : false,
                      "useAudioPreRoll" : true,
                      "useVisualPreRoll" : true
                    }

                  },
                  {
                    "name" : "CardFlip",
                    "duration" : 705600000,
                    "rightMedia" : 112,
                    "attributes" : {
                      "Angle" : -0.5,
                      "Color-blue" : 1.0,
                      "Color-green" : 1.0,
                      "Color-red" : 1.0,
                      "Depth" : 1.25,
                      "bypass" : false,
                      "reverse" : false,
                      "trivial" : false,
                      "useAudioPreRoll" : true,
                      "useVisualPreRoll" : true
                    }

                  },
                  {
                    "name" : "CardFlip",
                    "duration" : 705600000,
                    "leftMedia" : 112,
                    "attributes" : {
                      "Angle" : -0.5,
                      "Color-blue" : 1.0,
                      "Color-green" : 1.0,
                      "Color-red" : 1.0,
                      "Depth" : 1.25,
                      "bypass" : false,
                      "reverse" : false,
                      "trivial" : false,
                      "useAudioPreRoll" : true,
                      "useVisualPreRoll" : true
                    }

                  },
                  {
                    "name" : "CardFlip",
                    "duration" : 705600000,
                    "rightMedia" : 118,
                    "attributes" : {
                      "Angle" : -0.5,
                      "Color-blue" : 1.0,
                      "Color-green" : 1.0,
                      "Color-red" : 1.0,
                      "Depth" : 1.25,
                      "bypass" : false,
                      "reverse" : false,
                      "trivial" : false,
                      "useAudioPreRoll" : true,
                      "useVisualPreRoll" : true
                    }

                  },
                  {
                    "name" : "CardFlip",
                    "duration" : 352800000,
                    "leftMedia" : 118,
                    "rightMedia" : 121,
                    "attributes" : {
                      "Angle" : -0.5,
                      "Color-blue" : 1.0,
                      "Color-green" : 1.0,
                      "Color-red" : 1.0,
                      "Depth" : 1.25,
                      "bypass" : false,
                      "reverse" : false,
                      "trivial" : false,
                      "useAudioPreRoll" : true,
                      "useVisualPreRoll" : true
                    }

                  },
                  {
                    "name" : "CardFlip",
                    "duration" : 352800000,
                    "leftMedia" : 121,
                    "rightMedia" : 124,
                    "attributes" : {
                      "Angle" : -0.5,
                      "Color-blue" : 1.0,
                      "Color-green" : 1.0,
                      "Color-red" : 1.0,
                      "Depth" : 1.25,
                      "bypass" : false,
                      "reverse" : false,
                      "trivial" : false,
                      "useAudioPreRoll" : true,
                      "useVisualPreRoll" : true
                    }

                  },
                  {
                    "name" : "CardFlip",
                    "duration" : 705600000,
                    "rightMedia" : 127,
                    "attributes" : {
                      "Angle" : -0.5,
                      "Color-blue" : 1.0,
                      "Color-green" : 1.0,
                      "Color-red" : 1.0,
                      "Depth" : 1.25,
                      "bypass" : false,
                      "reverse" : false,
                      "trivial" : false,
                      "useAudioPreRoll" : true,
                      "useVisualPreRoll" : true
                    }

                  },
                  {
                    "name" : "CardFlip",
                    "duration" : 705600000,
                    "rightMedia" : 130,
                    "attributes" : {
                      "Angle" : -0.5,
                      "Color-blue" : 1.0,
                      "Color-green" : 1.0,
                      "Color-red" : 1.0,
                      "Depth" : 1.25,
                      "bypass" : false,
                      "reverse" : false,
                      "trivial" : false,
                      "useAudioPreRoll" : true,
                      "useVisualPreRoll" : true
                    }

                  },
                  {
                    "name" : "CardFlip",
                    "duration" : 705600000,
                    "leftMedia" : 130,
                    "attributes" : {
                      "Angle" : -0.5,
                      "Color-blue" : 1.0,
                      "Color-green" : 1.0,
                      "Color-red" : 1.0,
                      "Depth" : 1.25,
                      "bypass" : false,
                      "reverse" : false,
                      "trivial" : false,
                      "useAudioPreRoll" : true,
                      "useVisualPreRoll" : true
                    }

                  },
                  {
                    "name" : "CardFlip",
                    "duration" : 705600000,
                    "rightMedia" : 136,
                    "attributes" : {
                      "Angle" : -0.5,
                      "Color-blue" : 1.0,
                      "Color-green" : 1.0,
                      "Color-red" : 1.0,
                      "Depth" : 1.25,
                      "bypass" : false,
                      "reverse" : false,
                      "trivial" : false,
                      "useAudioPreRoll" : true,
                      "useVisualPreRoll" : true
                    }

                  },
                  {
                    "name" : "CardFlip",
                    "duration" : 705600000,
                    "rightMedia" : 139,
                    "attributes" : {
                      "Angle" : -0.5,
                      "Color-blue" : 1.0,
                      "Color-green" : 1.0,
                      "Color-red" : 1.0,
                      "Depth" : 1.25,
                      "bypass" : false,
                      "reverse" : false,
                      "trivial" : false,
                      "useAudioPreRoll" : true,
                      "useVisualPreRoll" : true
                    }

                  },
                  {
                    "name" : "CardFlip",
                    "duration" : 705600000,
                    "rightMedia" : 145,
                    "attributes" : {
                      "Angle" : -0.5,
                      "Color-blue" : 1.0,
                      "Color-green" : 1.0,
                      "Color-red" : 1.0,
                      "Depth" : 1.25,
                      "bypass" : false,
                      "reverse" : false,
                      "trivial" : false,
                      "useAudioPreRoll" : true,
                      "useVisualPreRoll" : true
                    }

                  },
                  {
                    "name" : "CardFlip",
                    "duration" : 705600000,
                    "rightMedia" : 148,
                    "attributes" : {
                      "Angle" : -0.5,
                      "Color-blue" : 1.0,
                      "Color-green" : 1.0,
                      "Color-red" : 1.0,
                      "Depth" : 1.25,
                      "bypass" : false,
                      "reverse" : false,
                      "trivial" : false,
                      "useAudioPreRoll" : true,
                      "useVisualPreRoll" : true
                    }

                  }
                ]
              },
              {
                "trackIndex" : 1,
                "medias" : [
                  {
                    "id" : 151,
                    "_type" : "AMFile",
                    "src" : 1,
                    "trackNumber" : 1,
                    "attributes" : {
                      "ident" : "Rec 10-16-2023-2-33-25-PM",
                      "gain" : 1.0,
                      "mixToMono" : false,
                      "loudnessNormalization" : true,
                      "sourceFileOffset" : 0
                    },
                      "channelNumber" : "0,1",
                    "parameters" : {
                      "volume" : {
                        "type" : "double",
                        "keyframes" : [
                          {
                            "endTime" : -23520000,
                            "time" : -23520000,
                            "value" : 1.0,
                            "duration" : 0
                          },
                          {
                            "endTime" : 0,
                            "time" : 0,
                            "value" : 0.0,
                            "duration" : 0
                          },
                          {
                            "endTime" : 2116800000,
                            "time" : 2116800000,
                            "value" : 1.0,
                            "duration" : 0
                          }
                        ]
                      }
                    },
                    "effects" : [
                        {
                          "effectName" : "NoiseReduction",
                          "bypassed" : false,
                          "category" : "categoryAudioEffects",
                          "parameters" : {
                            "denoiserAmount" : 20.0,
                            "denoiserThreshold" : 5.42372881355932,
                            "noiseProfile" : "",
                            "noiseTrainingType" : "default"
                          },
                          "metadata" : {
                            "default-NoiseReduction_denoiserThreshold" : 0.0,
                            "presetName" : "Noise Removal"
                          }
                        }
                    ],
                    "start" : 0,
                    "duration" : 6797280000,
                    "mediaStart" : 0,
                    "mediaDuration" : 6797280000,
                    "scalar" : 1,
                    "metadata" : {
                      "clipSpeedAttribute" : false,
                      "default-height" : 0.0,
                      "default-width" : 0.0
                    },
                    "animationTracks" : {

                    }
                  },
                  {
                    "id" : 152,
                    "_type" : "AMFile",
                    "src" : 2,
                    "trackNumber" : 1,
                    "attributes" : {
                      "ident" : "Rec 10-16-2023-2-37-03-PM",
                      "gain" : 1.0,
                      "mixToMono" : false,
                      "loudnessNormalization" : true,
                      "sourceFileOffset" : 0
                    },
                      "channelNumber" : "0,1",
                    "effects" : [
                        {
                          "effectName" : "WinCompression",
                          "bypassed" : false,
                          "category" : "categoryAudioEffects",
                          "parameters" : {
                            "ratio" : 10.0,
                            "threshold" : -20.0,
                            "gain" : 9.0,
                            "attack" : 0.0,
                            "release" : 3500.0,
                            "preset" : 1
                          },
                          "metadata" : {
                            "presetName" : "Audio Compression"
                          }
                        }
                    ],
                    "start" : 6797280000,
                    "duration" : 45087840000,
                    "mediaStart" : 0,
                    "mediaDuration" : 45087840000,
                    "scalar" : 1,
                    "metadata" : {
                      "clipSpeedAttribute" : false
                    },
                    "animationTracks" : {

                    }
                  },
                  {
                    "id" : 153,
                    "_type" : "AMFile",
                    "src" : 36,
                    "trackNumber" : 1,
                    "attributes" : {
                      "ident" : "Rec 1-4-2024-11-39-03-AM",
                      "gain" : 1.0,
                      "mixToMono" : false,
                      "loudnessNormalization" : true,
                      "sourceFileOffset" : 0
                    },
                      "channelNumber" : "0,1",
                    "effects" : [
                        {
                          "effectName" : "WinCompression",
                          "bypassed" : false,
                          "category" : "categoryAudioEffects",
                          "parameters" : {
                            "ratio" : 10.0,
                            "threshold" : -20.0,
                            "gain" : 9.0,
                            "attack" : 0.0,
                            "release" : 3500.0,
                            "preset" : 1
                          },
                          "metadata" : {
                            "presetName" : "Audio Compression"
                          }
                        },
                        {
                          "effectName" : "NoiseReduction",
                          "bypassed" : false,
                          "category" : "categoryAudioEffects",
                          "parameters" : {
                            "denoiserAmount" : 20.0,
                            "denoiserThreshold" : 0.0,
                            "noiseProfile" : "",
                            "noiseTrainingType" : "default"
                          },
                          "metadata" : {
                            "presetName" : "Noise Removal"
                          }
                        }
                    ],
                    "start" : 52261440000,
                    "duration" : 51767520000,
                    "mediaStart" : 0,
                    "mediaDuration" : 51767520000,
                    "scalar" : 1,
                    "metadata" : {
                      "clipSpeedAttribute" : false
                    },
                    "animationTracks" : {

                    }
                  },
                  {
                    "id" : 154,
                    "_type" : "AMFile",
                    "src" : 3,
                    "trackNumber" : 1,
                    "attributes" : {
                      "ident" : "Rec 11-7-2023-1-51-37-PM",
                      "gain" : 1.0,
                      "mixToMono" : false,
                      "loudnessNormalization" : true,
                      "sourceFileOffset" : 0
                    },
                      "channelNumber" : "0,1",
                    "effects" : [
                        {
                          "effectName" : "WinCompression",
                          "bypassed" : false,
                          "category" : "categoryAudioEffects",
                          "parameters" : {
                            "ratio" : 10.0,
                            "threshold" : -20.0,
                            "gain" : 9.0,
                            "attack" : 0.0,
                            "release" : 3500.0,
                            "preset" : 1
                          },
                          "metadata" : {
                            "presetName" : "Audio Compression"
                          }
                        }
                    ],
                    "start" : 104922720000,
                    "duration" : 54425280000,
                    "mediaStart" : 705600000,
                    "mediaDuration" : 54425280000,
                    "scalar" : 1,
                    "metadata" : {
                      "clipSpeedAttribute" : false
                    },
                    "animationTracks" : {

                    }
                  },
                  {
                    "id" : 155,
                    "_type" : "AMFile",
                    "src" : 4,
                    "trackNumber" : 1,
                    "attributes" : {
                      "ident" : "Rec 11-7-2023-1-54-49-PM",
                      "gain" : 1.0,
                      "mixToMono" : false,
                      "loudnessNormalization" : true,
                      "sourceFileOffset" : 0
                    },
                      "channelNumber" : "0,1",
                    "effects" : [
                        {
                          "effectName" : "WinCompression",
                          "bypassed" : false,
                          "category" : "categoryAudioEffects",
                          "parameters" : {
                            "ratio" : 10.0,
                            "threshold" : -20.0,
                            "gain" : 9.0,
                            "attack" : 0.0,
                            "release" : 3500.0,
                            "preset" : 1
                          },
                          "metadata" : {
                            "presetName" : "Audio Compression"
                          }
                        }
                    ],
                    "start" : 159348000000,
                    "duration" : 54895680000,
                    "mediaStart" : 0,
                    "mediaDuration" : 54895680000,
                    "scalar" : 1,
                    "metadata" : {
                      "clipSpeedAttribute" : false
                    },
                    "animationTracks" : {

                    }
                  },
                  {
                    "id" : 156,
                    "_type" : "AMFile",
                    "src" : 5,
                    "trackNumber" : 1,
                    "attributes" : {
                      "ident" : "Rec 11-7-2023-2-00-53-PM",
                      "gain" : 1.0,
                      "mixToMono" : false,
                      "loudnessNormalization" : true,
                      "sourceFileOffset" : 0
                    },
                      "channelNumber" : "0,1",
                    "effects" : [
                        {
                          "effectName" : "WinCompression",
                          "bypassed" : false,
                          "category" : "categoryAudioEffects",
                          "parameters" : {
                            "ratio" : 10.0,
                            "threshold" : -20.0,
                            "gain" : 9.0,
                            "attack" : 0.0,
                            "release" : 3500.0,
                            "preset" : 1
                          },
                          "metadata" : {
                            "presetName" : "Audio Compression"
                          }
                        }
                    ],
                    "start" : 214243680000,
                    "duration" : 65315040000,
                    "mediaStart" : 0,
                    "mediaDuration" : 65315040000,
                    "scalar" : 1,
                    "metadata" : {
                      "clipSpeedAttribute" : false
                    },
                    "animationTracks" : {

                    }
                  },
                  {
                    "id" : 157,
                    "_type" : "AMFile",
                    "src" : 6,
                    "trackNumber" : 1,
                    "attributes" : {
                      "ident" : "Rec 11-7-2023-2-06-46-PM",
                      "gain" : 1.0,
                      "mixToMono" : false,
                      "loudnessNormalization" : true,
                      "sourceFileOffset" : 0
                    },
                      "channelNumber" : "0,1",
                    "effects" : [
                        {
                          "effectName" : "WinCompression",
                          "bypassed" : false,
                          "category" : "categoryAudioEffects",
                          "parameters" : {
                            "ratio" : 10.0,
                            "threshold" : -20.0,
                            "gain" : 9.0,
                            "attack" : 0.0,
                            "release" : 3500.0,
                            "preset" : 1
                          },
                          "metadata" : {
                            "presetName" : "Audio Compression"
                          }
                        }
                    ],
                    "start" : 279558720000,
                    "duration" : 93092160000,
                    "mediaStart" : 0,
                    "mediaDuration" : 93092160000,
                    "scalar" : 1,
                    "metadata" : {
                      "clipSpeedAttribute" : false
                    },
                    "animationTracks" : {

                    }
                  },
                  {
                    "id" : 158,
                    "_type" : "AMFile",
                    "src" : 7,
                    "trackNumber" : 1,
                    "attributes" : {
                      "ident" : "Rec 11-7-2023-2-10-55-PM",
                      "gain" : 1.0,
                      "mixToMono" : false,
                      "loudnessNormalization" : true,
                      "sourceFileOffset" : 0
                    },
                      "channelNumber" : "0,1",
                    "effects" : [
                        {
                          "effectName" : "WinCompression",
                          "bypassed" : false,
                          "category" : "categoryAudioEffects",
                          "parameters" : {
                            "ratio" : 10.0,
                            "threshold" : -20.0,
                            "gain" : 9.0,
                            "attack" : 0.0,
                            "release" : 3500.0,
                            "preset" : 1
                          },
                          "metadata" : {
                            "presetName" : "Audio Compression"
                          }
                        }
                    ],
                    "start" : 372650880000,
                    "duration" : 67337760000,
                    "mediaStart" : 0,
                    "mediaDuration" : 67337760000,
                    "scalar" : 1,
                    "metadata" : {
                      "clipSpeedAttribute" : false
                    },
                    "animationTracks" : {

                    }
                  },
                  {
                    "id" : 159,
                    "_type" : "AMFile",
                    "src" : 8,
                    "trackNumber" : 1,
                    "attributes" : {
                      "ident" : "Rec 11-7-2023-2-14-20-PM",
                      "gain" : 1.0,
                      "mixToMono" : false,
                      "loudnessNormalization" : true,
                      "sourceFileOffset" : 0
                    },
                      "channelNumber" : "0,1",
                    "effects" : [
                        {
                          "effectName" : "WinCompression",
                          "bypassed" : false,
                          "category" : "categoryAudioEffects",
                          "parameters" : {
                            "ratio" : 10.0,
                            "threshold" : -20.0,
                            "gain" : 9.0,
                            "attack" : 0.0,
                            "release" : 3500.0,
                            "preset" : 1
                          },
                          "metadata" : {
                            "presetName" : "Audio Compression"
                          }
                        }
                    ],
                    "start" : 439988640000,
                    "duration" : 64609440000,
                    "mediaStart" : 0,
                    "mediaDuration" : 64609440000,
                    "scalar" : 1,
                    "metadata" : {
                      "clipSpeedAttribute" : false
                    },
                    "animationTracks" : {

                    }
                  },
                  {
                    "id" : 160,
                    "_type" : "AMFile",
                    "src" : 9,
                    "trackNumber" : 1,
                    "attributes" : {
                      "ident" : "Rec 11-7-2023-2-18-05-PM",
                      "gain" : 1.0,
                      "mixToMono" : false,
                      "loudnessNormalization" : true,
                      "sourceFileOffset" : 0
                    },
                      "channelNumber" : "0,1",
                    "effects" : [
                        {
                          "effectName" : "WinCompression",
                          "bypassed" : false,
                          "category" : "categoryAudioEffects",
                          "parameters" : {
                            "ratio" : 10.0,
                            "threshold" : -20.0,
                            "gain" : 9.0,
                            "attack" : 0.0,
                            "release" : 3500.0,
                            "preset" : 1
                          },
                          "metadata" : {
                            "presetName" : "Audio Compression"
                          }
                        }
                    ],
                    "start" : 504598080000,
                    "duration" : 54542880000,
                    "mediaStart" : 0,
                    "mediaDuration" : 54542880000,
                    "scalar" : 1,
                    "metadata" : {
                      "clipSpeedAttribute" : false
                    },
                    "animationTracks" : {

                    }
                  },
                  {
                    "id" : 161,
                    "_type" : "AMFile",
                    "src" : 10,
                    "trackNumber" : 1,
                    "attributes" : {
                      "ident" : "Rec 11-7-2023-2-26-45-PM",
                      "gain" : 1.0,
                      "mixToMono" : false,
                      "loudnessNormalization" : true,
                      "sourceFileOffset" : 0
                    },
                      "channelNumber" : "0,1",
                    "effects" : [
                        {
                          "effectName" : "WinCompression",
                          "bypassed" : false,
                          "category" : "categoryAudioEffects",
                          "parameters" : {
                            "ratio" : 10.0,
                            "threshold" : -20.0,
                            "gain" : 9.0,
                            "attack" : 0.0,
                            "release" : 3500.0,
                            "preset" : 1
                          },
                          "metadata" : {
                            "presetName" : "Audio Compression"
                          }
                        }
                    ],
                    "start" : 559140960000,
                    "duration" : 63433440000,
                    "mediaStart" : 0,
                    "mediaDuration" : 63433440000,
                    "scalar" : 1,
                    "metadata" : {
                      "clipSpeedAttribute" : false
                    },
                    "animationTracks" : {

                    }
                  },
                  {
                    "id" : 162,
                    "_type" : "AMFile",
                    "src" : 11,
                    "trackNumber" : 1,
                    "attributes" : {
                      "ident" : "Rec 11-7-2023-2-31-28-PM",
                      "gain" : 1.0,
                      "mixToMono" : false,
                      "loudnessNormalization" : true,
                      "sourceFileOffset" : 0
                    },
                      "channelNumber" : "0,1",
                    "effects" : [
                        {
                          "effectName" : "WinCompression",
                          "bypassed" : false,
                          "category" : "categoryAudioEffects",
                          "parameters" : {
                            "ratio" : 10.0,
                            "threshold" : -20.0,
                            "gain" : 9.0,
                            "attack" : 0.0,
                            "release" : 3500.0,
                            "preset" : 1
                          },
                          "metadata" : {
                            "presetName" : "Audio Compression"
                          }
                        }
                    ],
                    "start" : 622574400000,
                    "duration" : 66561600000,
                    "mediaStart" : 0,
                    "mediaDuration" : 66561600000,
                    "scalar" : 1,
                    "metadata" : {
                      "clipSpeedAttribute" : false
                    },
                    "animationTracks" : {

                    }
                  },
                  {
                    "id" : 163,
                    "_type" : "AMFile",
                    "src" : 12,
                    "trackNumber" : 1,
                    "attributes" : {
                      "ident" : "Rec 11-7-2023-2-35-00-PM",
                      "gain" : 1.0,
                      "mixToMono" : false,
                      "loudnessNormalization" : true,
                      "sourceFileOffset" : 0
                    },
                      "channelNumber" : "0,1",
                    "effects" : [
                        {
                          "effectName" : "WinCompression",
                          "bypassed" : false,
                          "category" : "categoryAudioEffects",
                          "parameters" : {
                            "ratio" : 10.0,
                            "threshold" : -20.0,
                            "gain" : 9.0,
                            "attack" : 0.0,
                            "release" : 3500.0,
                            "preset" : 1
                          },
                          "metadata" : {
                            "presetName" : "Audio Compression"
                          }
                        },
                        {
                          "effectName" : "NoiseReduction",
                          "bypassed" : false,
                          "category" : "categoryAudioEffects",
                          "parameters" : {
                            "denoiserAmount" : 20.0,
                            "denoiserThreshold" : 0.0,
                            "noiseProfile" : "",
                            "noiseTrainingType" : "default"
                          },
                          "metadata" : {
                            "presetName" : "Noise Removal"
                          }
                        }
                    ],
                    "start" : 689136000000,
                    "duration" : 99019200000,
                    "mediaStart" : 0,
                    "mediaDuration" : 99019200000,
                    "scalar" : 1,
                    "metadata" : {
                      "clipSpeedAttribute" : false
                    },
                    "animationTracks" : {

                    }
                  },
                  {
                    "id" : 164,
                    "_type" : "AMFile",
                    "src" : 13,
                    "trackNumber" : 1,
                    "attributes" : {
                      "ident" : "Rec 11-7-2023-2-39-17-PM",
                      "gain" : 1.0,
                      "mixToMono" : false,
                      "loudnessNormalization" : true,
                      "sourceFileOffset" : 0
                    },
                      "channelNumber" : "0,1",
                    "effects" : [
                        {
                          "effectName" : "WinCompression",
                          "bypassed" : false,
                          "category" : "categoryAudioEffects",
                          "parameters" : {
                            "ratio" : 10.0,
                            "threshold" : -20.0,
                            "gain" : 9.0,
                            "attack" : 0.0,
                            "release" : 3500.0,
                            "preset" : 1
                          },
                          "metadata" : {
                            "presetName" : "Audio Compression"
                          }
                        }
                    ],
                    "start" : 788155200000,
                    "duration" : 88458720000,
                    "mediaStart" : 0,
                    "mediaDuration" : 88458720000,
                    "scalar" : 1,
                    "metadata" : {
                      "clipSpeedAttribute" : false
                    },
                    "animationTracks" : {

                    }
                  },
                  {
                    "id" : 165,
                    "_type" : "AMFile",
                    "src" : 14,
                    "trackNumber" : 1,
                    "attributes" : {
                      "ident" : "Rec 11-7-2023-2-41-27-PM",
                      "gain" : 1.0,
                      "mixToMono" : false,
                      "loudnessNormalization" : true,
                      "sourceFileOffset" : 0
                    },
                      "channelNumber" : "0,1",
                    "effects" : [
                        {
                          "effectName" : "WinCompression",
                          "bypassed" : false,
                          "category" : "categoryAudioEffects",
                          "parameters" : {
                            "ratio" : 10.0,
                            "threshold" : -20.0,
                            "gain" : 9.0,
                            "attack" : 0.0,
                            "release" : 3500.0,
                            "preset" : 1
                          },
                          "metadata" : {
                            "presetName" : "Audio Compression"
                          }
                        }
                    ],
                    "start" : 876613920000,
                    "duration" : 34762560000,
                    "mediaStart" : 0,
                    "mediaDuration" : 34762560000,
                    "scalar" : 1,
                    "metadata" : {
                      "clipSpeedAttribute" : false
                    },
                    "animationTracks" : {

                    }
                  },
                  {
                    "id" : 166,
                    "_type" : "AMFile",
                    "src" : 15,
                    "trackNumber" : 1,
                    "attributes" : {
                      "ident" : "Rec 11-7-2023-2-44-36-PM",
                      "gain" : 1.0,
                      "mixToMono" : false,
                      "loudnessNormalization" : true,
                      "sourceFileOffset" : 0
                    },
                      "channelNumber" : "0,1",
                    "effects" : [
                        {
                          "effectName" : "WinCompression",
                          "bypassed" : false,
                          "category" : "categoryAudioEffects",
                          "parameters" : {
                            "ratio" : 10.0,
                            "threshold" : -20.0,
                            "gain" : 9.0,
                            "attack" : 0.0,
                            "release" : 3500.0,
                            "preset" : 1
                          },
                          "metadata" : {
                            "presetName" : "Audio Compression"
                          }
                        },
                        {
                          "effectName" : "NoiseReduction",
                          "bypassed" : false,
                          "category" : "categoryAudioEffects",
                          "parameters" : {
                            "denoiserAmount" : 20.0,
                            "denoiserThreshold" : 0.0,
                            "noiseProfile" : "",
                            "noiseTrainingType" : "default"
                          },
                          "metadata" : {
                            "presetName" : "Noise Removal"
                          }
                        }
                    ],
                    "start" : 911400000000,
                    "duration" : 70512960000,
                    "mediaStart" : 0,
                    "mediaDuration" : 70512960000,
                    "scalar" : 1,
                    "metadata" : {
                      "clipSpeedAttribute" : false
                    },
                    "animationTracks" : {

                    }
                  },
                  {
                    "id" : 167,
                    "_type" : "AMFile",
                    "src" : 16,
                    "trackNumber" : 1,
                    "attributes" : {
                      "ident" : "Rec 11-7-2023-2-47-57-PM",
                      "gain" : 1.0,
                      "mixToMono" : false,
                      "loudnessNormalization" : true,
                      "sourceFileOffset" : 0
                    },
                      "channelNumber" : "0,1",
                    "effects" : [
                        {
                          "effectName" : "WinCompression",
                          "bypassed" : false,
                          "category" : "categoryAudioEffects",
                          "parameters" : {
                            "ratio" : 10.0,
                            "threshold" : -20.0,
                            "gain" : 9.0,
                            "attack" : 0.0,
                            "release" : 3500.0,
                            "preset" : 1
                          },
                          "metadata" : {
                            "presetName" : "Audio Compression"
                          }
                        },
                        {
                          "effectName" : "NoiseReduction",
                          "bypassed" : false,
                          "category" : "categoryAudioEffects",
                          "parameters" : {
                            "denoiserAmount" : 20.0,
                            "denoiserThreshold" : 0.0,
                            "noiseProfile" : "",
                            "noiseTrainingType" : "default"
                          },
                          "metadata" : {
                            "presetName" : "Noise Removal"
                          }
                        }
                    ],
                    "start" : 981912960000,
                    "duration" : 96455520000,
                    "mediaStart" : 0,
                    "mediaDuration" : 96455520000,
                    "scalar" : 1,
                    "metadata" : {
                      "clipSpeedAttribute" : false
                    },
                    "animationTracks" : {

                    }
                  },
                  {
                    "id" : 168,
                    "_type" : "AMFile",
                    "src" : 17,
                    "trackNumber" : 1,
                    "attributes" : {
                      "ident" : "Rec 12-4-2023-11-06-41-AM",
                      "gain" : 1.0,
                      "mixToMono" : false,
                      "loudnessNormalization" : true,
                      "sourceFileOffset" : 0
                    },
                      "channelNumber" : "0,1",
                    "effects" : [
                        {
                          "effectName" : "WinCompression",
                          "bypassed" : false,
                          "category" : "categoryAudioEffects",
                          "parameters" : {
                            "ratio" : 10.0,
                            "threshold" : -20.0,
                            "gain" : 9.0,
                            "attack" : 0.0,
                            "release" : 3500.0,
                            "preset" : 1
                          },
                          "metadata" : {
                            "presetName" : "Audio Compression"
                          }
                        },
                        {
                          "effectName" : "NoiseReduction",
                          "bypassed" : false,
                          "category" : "categoryAudioEffects",
                          "parameters" : {
                            "denoiserAmount" : 20.0,
                            "denoiserThreshold" : 0.0,
                            "noiseProfile" : "",
                            "noiseTrainingType" : "default"
                          },
                          "metadata" : {
                            "presetName" : "Noise Removal"
                          }
                        }
                    ],
                    "start" : 1078368480000,
                    "duration" : 13359360000,
                    "mediaStart" : 0,
                    "mediaDuration" : 13359360000,
                    "scalar" : 1,
                    "metadata" : {
                      "clipSpeedAttribute" : false
                    },
                    "animationTracks" : {

                    }
                  },
                  {
                    "id" : 169,
                    "_type" : "AMFile",
                    "src" : 18,
                    "trackNumber" : 1,
                    "attributes" : {
                      "ident" : "Rec 12-4-2023-11-15-35-AM",
                      "gain" : 1.0,
                      "mixToMono" : false,
                      "loudnessNormalization" : true,
                      "sourceFileOffset" : 0
                    },
                      "channelNumber" : "0,1",
                    "effects" : [
                        {
                          "effectName" : "WinCompression",
                          "bypassed" : false,
                          "category" : "categoryAudioEffects",
                          "parameters" : {
                            "ratio" : 10.0,
                            "threshold" : -20.0,
                            "gain" : 9.0,
                            "attack" : 0.0,
                            "release" : 3500.0,
                            "preset" : 1
                          },
                          "metadata" : {
                            "presetName" : "Audio Compression"
                          }
                        },
                        {
                          "effectName" : "NoiseReduction",
                          "bypassed" : false,
                          "category" : "categoryAudioEffects",
                          "parameters" : {
                            "denoiserAmount" : 20.0,
                            "denoiserThreshold" : 0.0,
                            "noiseProfile" : "",
                            "noiseTrainingType" : "default"
                          },
                          "metadata" : {
                            "presetName" : "Noise Removal"
                          }
                        }
                    ],
                    "start" : 1091727840000,
                    "duration" : 110661600000,
                    "mediaStart" : 0,
                    "mediaDuration" : 110661600000,
                    "scalar" : 1,
                    "metadata" : {
                      "clipSpeedAttribute" : false
                    },
                    "animationTracks" : {

                    }
                  },
                  {
                    "id" : 170,
                    "_type" : "AMFile",
                    "src" : 19,
                    "trackNumber" : 1,
                    "attributes" : {
                      "ident" : "Rec 12-4-2023-11-24-34-AM",
                      "gain" : 1.0,
                      "mixToMono" : false,
                      "loudnessNormalization" : true,
                      "sourceFileOffset" : 0
                    },
                      "channelNumber" : "0,1",
                    "effects" : [
                        {
                          "effectName" : "WinCompression",
                          "bypassed" : false,
                          "category" : "categoryAudioEffects",
                          "parameters" : {
                            "ratio" : 10.0,
                            "threshold" : -20.0,
                            "gain" : 9.0,
                            "attack" : 0.0,
                            "release" : 3500.0,
                            "preset" : 1
                          },
                          "metadata" : {
                            "presetName" : "Audio Compression"
                          }
                        },
                        {
                          "effectName" : "NoiseReduction",
                          "bypassed" : false,
                          "category" : "categoryAudioEffects",
                          "parameters" : {
                            "denoiserAmount" : 20.0,
                            "denoiserThreshold" : 0.0,
                            "noiseProfile" : "",
                            "noiseTrainingType" : "default"
                          },
                          "metadata" : {
                            "presetName" : "Noise Removal"
                          }
                        }
                    ],
                    "start" : 1202389440000,
                    "duration" : 132605760000,
                    "mediaStart" : 0,
                    "mediaDuration" : 132605760000,
                    "scalar" : 1,
                    "metadata" : {
                      "clipSpeedAttribute" : false
                    },
                    "animationTracks" : {

                    }
                  },
                  {
                    "id" : 171,
                    "_type" : "AMFile",
                    "src" : 20,
                    "trackNumber" : 1,
                    "attributes" : {
                      "ident" : "Rec 12-4-2023-11-28-14-AM",
                      "gain" : 1.0,
                      "mixToMono" : false,
                      "loudnessNormalization" : true,
                      "sourceFileOffset" : 0
                    },
                      "channelNumber" : "0,1",
                    "effects" : [
                        {
                          "effectName" : "NoiseReduction",
                          "bypassed" : false,
                          "category" : "categoryAudioEffects",
                          "parameters" : {
                            "denoiserAmount" : 20.0,
                            "denoiserThreshold" : 0.0,
                            "noiseProfile" : "",
                            "noiseTrainingType" : "default"
                          },
                          "metadata" : {
                            "presetName" : "Noise Removal"
                          }
                        },
                        {
                          "effectName" : "WinCompression",
                          "bypassed" : false,
                          "category" : "categoryAudioEffects",
                          "parameters" : {
                            "ratio" : 10.0,
                            "threshold" : -20.0,
                            "gain" : 9.0,
                            "attack" : 0.0,
                            "release" : 3500.0,
                            "preset" : 1
                          },
                          "metadata" : {
                            "presetName" : "Audio Compression"
                          }
                        }
                    ],
                    "start" : 1334995200000,
                    "duration" : 80438400000,
                    "mediaStart" : 0,
                    "mediaDuration" : 80438400000,
                    "scalar" : 1,
                    "metadata" : {
                      "clipSpeedAttribute" : false
                    },
                    "animationTracks" : {

                    }
                  },
                  {
                    "id" : 172,
                    "_type" : "AMFile",
                    "src" : 21,
                    "trackNumber" : 1,
                    "attributes" : {
                      "ident" : "Rec 12-4-2023-11-41-15-AM",
                      "gain" : 1.0,
                      "mixToMono" : false,
                      "loudnessNormalization" : true,
                      "sourceFileOffset" : 0
                    },
                      "channelNumber" : "0,1",
                    "effects" : [
                        {
                          "effectName" : "WinCompression",
                          "bypassed" : false,
                          "category" : "categoryAudioEffects",
                          "parameters" : {
                            "ratio" : 10.0,
                            "threshold" : -20.0,
                            "gain" : 9.0,
                            "attack" : 0.0,
                            "release" : 3500.0,
                            "preset" : 1
                          },
                          "metadata" : {
                            "presetName" : "Audio Compression"
                          }
                        },
                        {
                          "effectName" : "NoiseReduction",
                          "bypassed" : false,
                          "category" : "categoryAudioEffects",
                          "parameters" : {
                            "denoiserAmount" : 20.0,
                            "denoiserThreshold" : 0.0,
                            "noiseProfile" : "",
                            "noiseTrainingType" : "default"
                          },
                          "metadata" : {
                            "presetName" : "Noise Removal"
                          }
                        }
                    ],
                    "start" : 1415433600000,
                    "duration" : 108215520000,
                    "mediaStart" : 0,
                    "mediaDuration" : 108215520000,
                    "scalar" : 1,
                    "metadata" : {
                      "clipSpeedAttribute" : false
                    },
                    "animationTracks" : {

                    }
                  },
                  {
                    "id" : 173,
                    "_type" : "AMFile",
                    "src" : 22,
                    "trackNumber" : 1,
                    "attributes" : {
                      "ident" : "Rec 12-4-2023-11-44-20-AM",
                      "gain" : 1.0,
                      "mixToMono" : false,
                      "loudnessNormalization" : true,
                      "sourceFileOffset" : 0
                    },
                      "channelNumber" : "0,1",
                    "parameters" : {
                      "volume" : {
                        "type" : "double",
                        "keyframes" : [
                          {
                            "endTime" : -23520000,
                            "time" : -23520000,
                            "value" : 1.0,
                            "duration" : 0
                          },
                          {
                            "endTime" : 0,
                            "time" : 0,
                            "value" : 0.0,
                            "duration" : 0
                          },
                          {
                            "endTime" : 2116800000,
                            "time" : 2116800000,
                            "value" : 1.0,
                            "duration" : 0
                          }
                        ]
                      }
                    },
                    "effects" : [
                        {
                          "effectName" : "WinCompression",
                          "bypassed" : false,
                          "category" : "categoryAudioEffects",
                          "parameters" : {
                            "ratio" : 10.0,
                            "threshold" : -20.0,
                            "gain" : 9.0,
                            "attack" : 0.0,
                            "release" : 3500.0,
                            "preset" : 1
                          },
                          "metadata" : {
                            "presetName" : "Audio Compression"
                          }
                        },
                        {
                          "effectName" : "NoiseReduction",
                          "bypassed" : false,
                          "category" : "categoryAudioEffects",
                          "parameters" : {
                            "denoiserAmount" : 20.0,
                            "denoiserThreshold" : 0.0,
                            "noiseProfile" : "",
                            "noiseTrainingType" : "default"
                          },
                          "metadata" : {
                            "presetName" : "Noise Removal"
                          }
                        }
                    ],
                    "start" : 1523696160000,
                    "duration" : 79521120000,
                    "mediaStart" : 0,
                    "mediaDuration" : 79521120000,
                    "scalar" : 1,
                    "metadata" : {
                      "clipSpeedAttribute" : false
                    },
                    "animationTracks" : {

                    }
                  },
                  {
                    "id" : 174,
                    "_type" : "AMFile",
                    "src" : 23,
                    "trackNumber" : 1,
                    "attributes" : {
                      "ident" : "Rec 12-4-2023-11-55-03-AM",
                      "gain" : 1.0,
                      "mixToMono" : false,
                      "loudnessNormalization" : true,
                      "sourceFileOffset" : 0
                    },
                      "channelNumber" : "0,1",
                    "effects" : [
                        {
                          "effectName" : "WinCompression",
                          "bypassed" : false,
                          "category" : "categoryAudioEffects",
                          "parameters" : {
                            "ratio" : 10.0,
                            "threshold" : -20.0,
                            "gain" : 9.0,
                            "attack" : 0.0,
                            "release" : 3500.0,
                            "preset" : 1
                          },
                          "metadata" : {
                            "presetName" : "Audio Compression"
                          }
                        },
                        {
                          "effectName" : "NoiseReduction",
                          "bypassed" : false,
                          "category" : "categoryAudioEffects",
                          "parameters" : {
                            "denoiserAmount" : 20.0,
                            "denoiserThreshold" : 0.0,
                            "noiseProfile" : "",
                            "noiseTrainingType" : "default"
                          },
                          "metadata" : {
                            "presetName" : "Noise Removal"
                          }
                        }
                    ],
                    "start" : 1603217280000,
                    "duration" : 97184640000,
                    "mediaStart" : 0,
                    "mediaDuration" : 97184640000,
                    "scalar" : 1,
                    "metadata" : {
                      "clipSpeedAttribute" : false
                    },
                    "animationTracks" : {

                    }
                  },
                  {
                    "id" : 175,
                    "_type" : "AMFile",
                    "src" : 24,
                    "trackNumber" : 1,
                    "attributes" : {
                      "ident" : "Rec 12-18-2023-10-49-29-AM",
                      "gain" : 1.0,
                      "mixToMono" : false,
                      "loudnessNormalization" : true,
                      "sourceFileOffset" : 0
                    },
                      "channelNumber" : "0,1",
                    "effects" : [
                        {
                          "effectName" : "WinCompression",
                          "bypassed" : false,
                          "category" : "categoryAudioEffects",
                          "parameters" : {
                            "ratio" : 10.0,
                            "threshold" : -20.0,
                            "gain" : 9.0,
                            "attack" : 0.0,
                            "release" : 3500.0,
                            "preset" : 1
                          },
                          "metadata" : {
                            "presetName" : "Audio Compression"
                          }
                        },
                        {
                          "effectName" : "NoiseReduction",
                          "bypassed" : false,
                          "category" : "categoryAudioEffects",
                          "parameters" : {
                            "denoiserAmount" : 20.0,
                            "denoiserThreshold" : 0.0,
                            "noiseProfile" : "",
                            "noiseTrainingType" : "default"
                          },
                          "metadata" : {
                            "presetName" : "Noise Removal"
                          }
                        }
                    ],
                    "start" : 1700401920000,
                    "duration" : 114142560000,
                    "mediaStart" : 0,
                    "mediaDuration" : 114142560000,
                    "scalar" : 1,
                    "metadata" : {
                      "clipSpeedAttribute" : false
                    },
                    "animationTracks" : {

                    }
                  },
                  {
                    "id" : 176,
                    "_type" : "AMFile",
                    "src" : 25,
                    "trackNumber" : 1,
                    "attributes" : {
                      "ident" : "Rec 12-18-2023-11-03-54-AM",
                      "gain" : 1.0,
                      "mixToMono" : false,
                      "loudnessNormalization" : true,
                      "sourceFileOffset" : 0
                    },
                      "channelNumber" : "0,1",
                    "effects" : [
                        {
                          "effectName" : "WinCompression",
                          "bypassed" : false,
                          "category" : "categoryAudioEffects",
                          "parameters" : {
                            "ratio" : 10.0,
                            "threshold" : -20.0,
                            "gain" : 9.0,
                            "attack" : 0.0,
                            "release" : 3500.0,
                            "preset" : 1
                          },
                          "metadata" : {
                            "presetName" : "Audio Compression"
                          }
                        },
                        {
                          "effectName" : "NoiseReduction",
                          "bypassed" : false,
                          "category" : "categoryAudioEffects",
                          "parameters" : {
                            "denoiserAmount" : 20.0,
                            "denoiserThreshold" : 0.0,
                            "noiseProfile" : "",
                            "noiseTrainingType" : "default"
                          },
                          "metadata" : {
                            "presetName" : "Noise Removal"
                          }
                        }
                    ],
                    "start" : 1814544480000,
                    "duration" : 167885760000,
                    "mediaStart" : 0,
                    "mediaDuration" : 167885760000,
                    "scalar" : 1,
                    "metadata" : {
                      "clipSpeedAttribute" : false
                    },
                    "animationTracks" : {

                    }
                  },
                  {
                    "id" : 177,
                    "_type" : "AMFile",
                    "src" : 26,
                    "trackNumber" : 1,
                    "attributes" : {
                      "ident" : "Rec 12-18-2023-11-07-51-AM",
                      "gain" : 1.0,
                      "mixToMono" : false,
                      "loudnessNormalization" : true,
                      "sourceFileOffset" : 0
                    },
                      "channelNumber" : "0,1",
                    "effects" : [
                        {
                          "effectName" : "NoiseReduction",
                          "bypassed" : false,
                          "category" : "categoryAudioEffects",
                          "parameters" : {
                            "denoiserAmount" : 20.0,
                            "denoiserThreshold" : 0.0,
                            "noiseProfile" : "",
                            "noiseTrainingType" : "default"
                          },
                          "metadata" : {
                            "presetName" : "Noise Removal"
                          }
                        },
                        {
                          "effectName" : "WinCompression",
                          "bypassed" : false,
                          "category" : "categoryAudioEffects",
                          "parameters" : {
                            "ratio" : 10.0,
                            "threshold" : -20.0,
                            "gain" : 9.0,
                            "attack" : 0.0,
                            "release" : 3500.0,
                            "preset" : 1
                          },
                          "metadata" : {
                            "presetName" : "Audio Compression"
                          }
                        }
                    ],
                    "start" : 1982430240000,
                    "duration" : 100077600000,
                    "mediaStart" : 0,
                    "mediaDuration" : 100077600000,
                    "scalar" : 1,
                    "metadata" : {
                      "clipSpeedAttribute" : false
                    },
                    "animationTracks" : {

                    }
                  },
                  {
                    "id" : 178,
                    "_type" : "AMFile",
                    "src" : 27,
                    "trackNumber" : 1,
                    "attributes" : {
                      "ident" : "Rec 12-18-2023-11-14-44-AM",
                      "gain" : 1.0,
                      "mixToMono" : false,
                      "loudnessNormalization" : true,
                      "sourceFileOffset" : 0
                    },
                      "channelNumber" : "0,1",
                    "effects" : [
                        {
                          "effectName" : "WinCompression",
                          "bypassed" : false,
                          "category" : "categoryAudioEffects",
                          "parameters" : {
                            "ratio" : 10.0,
                            "threshold" : -20.0,
                            "gain" : 9.0,
                            "attack" : 0.0,
                            "release" : 3500.0,
                            "preset" : 1
                          },
                          "metadata" : {
                            "presetName" : "Audio Compression"
                          }
                        }
                    ],
                    "start" : 2082507840000,
                    "duration" : 112472640000,
                    "mediaStart" : 0,
                    "mediaDuration" : 112472640000,
                    "scalar" : 1,
                    "metadata" : {
                      "clipSpeedAttribute" : false
                    },
                    "animationTracks" : {

                    }
                  },
                  {
                    "id" : 179,
                    "_type" : "AMFile",
                    "src" : 28,
                    "trackNumber" : 1,
                    "attributes" : {
                      "ident" : "Rec 12-18-2023-11-19-26-AM",
                      "gain" : 1.0,
                      "mixToMono" : false,
                      "loudnessNormalization" : true,
                      "sourceFileOffset" : 0
                    },
                      "channelNumber" : "0,1",
                    "parameters" : {
                      "volume" : {
                        "type" : "double",
                        "keyframes" : [
                          {
                            "endTime" : 0,
                            "time" : 0,
                            "value" : 1.0,
                            "duration" : 0
                          },
                          {
                            "endTime" : 102170880000,
                            "time" : 102170880000,
                            "value" : 1.0,
                            "duration" : 0
                          },
                          {
                            "endTime" : 104287680000,
                            "time" : 104287680000,
                            "value" : 0.0,
                            "duration" : 0
                          },
                          {
                            "endTime" : 104311200000,
                            "time" : 104311200000,
                            "value" : 1.0,
                            "duration" : 0
                          }
                        ]
                      }
                    },
                    "effects" : [
                        {
                          "effectName" : "NoiseReduction",
                          "bypassed" : false,
                          "category" : "categoryAudioEffects",
                          "parameters" : {
                            "denoiserAmount" : 20.0,
                            "denoiserThreshold" : 0.0,
                            "noiseProfile" : "",
                            "noiseTrainingType" : "default"
                          },
                          "metadata" : {
                            "presetName" : "Noise Removal"
                          }
                        },
                        {
                          "effectName" : "WinCompression",
                          "bypassed" : false,
                          "category" : "categoryAudioEffects",
                          "parameters" : {
                            "ratio" : 10.0,
                            "threshold" : -20.0,
                            "gain" : 9.0,
                            "attack" : 0.0,
                            "release" : 3500.0,
                            "preset" : 1
                          },
                          "metadata" : {
                            "presetName" : "Audio Compression"
                          }
                        }
                    ],
                    "start" : 2195121600000,
                    "duration" : 104287680000,
                    "mediaStart" : 0,
                    "mediaDuration" : 104287680000,
                    "scalar" : 1,
                    "metadata" : {
                      "clipSpeedAttribute" : false
                    },
                    "animationTracks" : {

                    }
                  },
                  {
                    "id" : 180,
                    "_type" : "AMFile",
                    "src" : 29,
                    "trackNumber" : 1,
                    "attributes" : {
                      "ident" : "Rec 12-18-2023-11-25-22-AM",
                      "gain" : 1.0,
                      "mixToMono" : false,
                      "loudnessNormalization" : true,
                      "sourceFileOffset" : 0
                    },
                      "channelNumber" : "0,1",
                    "effects" : [
                        {
                          "effectName" : "WinCompression",
                          "bypassed" : false,
                          "category" : "categoryAudioEffects",
                          "parameters" : {
                            "ratio" : 10.0,
                            "threshold" : -20.0,
                            "gain" : 9.0,
                            "attack" : 0.0,
                            "release" : 3500.0,
                            "preset" : 1
                          },
                          "metadata" : {
                            "presetName" : "Audio Compression"
                          }
                        },
                        {
                          "effectName" : "NoiseReduction",
                          "bypassed" : false,
                          "category" : "categoryAudioEffects",
                          "parameters" : {
                            "denoiserAmount" : 20.0,
                            "denoiserThreshold" : 0.0,
                            "noiseProfile" : "",
                            "noiseTrainingType" : "default"
                          },
                          "metadata" : {
                            "presetName" : "Noise Removal"
                          }
                        }
                    ],
                    "start" : 2299409280000,
                    "duration" : 106169280000,
                    "mediaStart" : 0,
                    "mediaDuration" : 106169280000,
                    "scalar" : 1,
                    "metadata" : {
                      "clipSpeedAttribute" : false
                    },
                    "animationTracks" : {

                    }
                  },
                  {
                    "id" : 181,
                    "_type" : "AMFile",
                    "src" : 33,
                    "trackNumber" : 1,
                    "attributes" : {
                      "ident" : "Rec 12-20-2023-10-56-29-AM",
                      "gain" : 1.0,
                      "mixToMono" : false,
                      "loudnessNormalization" : true,
                      "sourceFileOffset" : 0
                    },
                      "channelNumber" : "0,1",
                    "effects" : [
                        {
                          "effectName" : "WinCompression",
                          "bypassed" : false,
                          "category" : "categoryAudioEffects",
                          "parameters" : {
                            "ratio" : 10.0,
                            "threshold" : -20.0,
                            "gain" : 9.0,
                            "attack" : 0.0,
                            "release" : 3500.0,
                            "preset" : 1
                          },
                          "metadata" : {
                            "presetName" : "Audio Compression"
                          }
                        },
                        {
                          "effectName" : "NoiseReduction",
                          "bypassed" : false,
                          "category" : "categoryAudioEffects",
                          "parameters" : {
                            "denoiserAmount" : 20.0,
                            "denoiserThreshold" : 0.0,
                            "noiseProfile" : "",
                            "noiseTrainingType" : "default"
                          },
                          "metadata" : {
                            "presetName" : "Noise Removal"
                          }
                        }
                    ],
                    "start" : 2405578560000,
                    "duration" : 179434080000,
                    "mediaStart" : 0,
                    "mediaDuration" : 179434080000,
                    "scalar" : 1,
                    "metadata" : {
                      "clipSpeedAttribute" : false
                    },
                    "animationTracks" : {

                    }
                  },
                  {
                    "id" : 182,
                    "_type" : "AMFile",
                    "src" : 34,
                    "trackNumber" : 1,
                    "attributes" : {
                      "ident" : "Rec 12-26-2023-1-24-30-PM",
                      "gain" : 1.0,
                      "mixToMono" : false,
                      "loudnessNormalization" : true,
                      "sourceFileOffset" : 0
                    },
                      "channelNumber" : "0,1",
                    "effects" : [
                        {
                          "effectName" : "NoiseReduction",
                          "bypassed" : false,
                          "category" : "categoryAudioEffects",
                          "parameters" : {
                            "denoiserAmount" : 20.0,
                            "denoiserThreshold" : 0.0,
                            "noiseProfile" : "",
                            "noiseTrainingType" : "default"
                          },
                          "metadata" : {
                            "presetName" : "Noise Removal"
                          }
                        }
                    ],
                    "start" : 2588046720000,
                    "duration" : 115765440000,
                    "mediaStart" : 0,
                    "mediaDuration" : 115765440000,
                    "scalar" : 1,
                    "metadata" : {
                      "clipSpeedAttribute" : false
                    },
                    "animationTracks" : {

                    }
                  },
                  {
                    "id" : 183,
                    "_type" : "AMFile",
                    "src" : 30,
                    "trackNumber" : 1,
                    "attributes" : {
                      "ident" : "Rec 12-18-2023-11-52-16-AM",
                      "gain" : 1.0,
                      "mixToMono" : false,
                      "loudnessNormalization" : true,
                      "sourceFileOffset" : 0
                    },
                      "channelNumber" : "0,1",
                    "effects" : [
                        {
                          "effectName" : "WinCompression",
                          "bypassed" : false,
                          "category" : "categoryAudioEffects",
                          "parameters" : {
                            "ratio" : 10.0,
                            "threshold" : -20.0,
                            "gain" : 9.0,
                            "attack" : 0.0,
                            "release" : 3500.0,
                            "preset" : 1
                          },
                          "metadata" : {
                            "presetName" : "Audio Compression"
                          }
                        },
                        {
                          "effectName" : "NoiseReduction",
                          "bypassed" : false,
                          "category" : "categoryAudioEffects",
                          "parameters" : {
                            "denoiserAmount" : 20.0,
                            "denoiserThreshold" : 0.0,
                            "noiseProfile" : "",
                            "noiseTrainingType" : "default"
                          },
                          "metadata" : {
                            "presetName" : "Noise Removal"
                          }
                        }
                    ],
                    "start" : 2703929760000,
                    "duration" : 108262560000,
                    "mediaStart" : 2422560000,
                    "mediaDuration" : 108262560000,
                    "scalar" : 1,
                    "metadata" : {
                      "clipSpeedAttribute" : false
                    },
                    "animationTracks" : {

                    }
                  },
                  {
                    "id" : 184,
                    "_type" : "AMFile",
                    "src" : 31,
                    "trackNumber" : 1,
                    "attributes" : {
                      "ident" : "Rec 12-18-2023-12-00-22-PM",
                      "gain" : 1.0,
                      "mixToMono" : false,
                      "loudnessNormalization" : true,
                      "sourceFileOffset" : 0
                    },
                      "channelNumber" : "0,1",
                    "effects" : [
                        {
                          "effectName" : "WinCompression",
                          "bypassed" : false,
                          "category" : "categoryAudioEffects",
                          "parameters" : {
                            "ratio" : 10.0,
                            "threshold" : -20.0,
                            "gain" : 9.0,
                            "attack" : 0.0,
                            "release" : 3500.0,
                            "preset" : 1
                          },
                          "metadata" : {
                            "presetName" : "Audio Compression"
                          }
                        },
                        {
                          "effectName" : "NoiseReduction",
                          "bypassed" : false,
                          "category" : "categoryAudioEffects",
                          "parameters" : {
                            "denoiserAmount" : 20.0,
                            "denoiserThreshold" : 0.0,
                            "noiseProfile" : "",
                            "noiseTrainingType" : "default"
                          },
                          "metadata" : {
                            "presetName" : "Noise Removal"
                          }
                        }
                    ],
                    "start" : 2812192320000,
                    "duration" : 109532640000,
                    "mediaStart" : 0,
                    "mediaDuration" : 109532640000,
                    "scalar" : 1,
                    "metadata" : {
                      "clipSpeedAttribute" : false
                    },
                    "animationTracks" : {

                    }
                  },
                  {
                    "id" : 185,
                    "_type" : "AMFile",
                    "src" : 37,
                    "trackNumber" : 1,
                    "attributes" : {
                      "ident" : "Rec 1-10-2024-11-11-18-AM",
                      "gain" : 1.0,
                      "mixToMono" : false,
                      "loudnessNormalization" : true,
                      "sourceFileOffset" : 0
                    },
                      "channelNumber" : "0,1",
                    "effects" : [
                        {
                          "effectName" : "WinCompression",
                          "bypassed" : false,
                          "category" : "categoryAudioEffects",
                          "parameters" : {
                            "ratio" : 10.0,
                            "threshold" : -20.0,
                            "gain" : 9.0,
                            "attack" : 0.0,
                            "release" : 3500.0,
                            "preset" : 1
                          },
                          "metadata" : {
                            "presetName" : "Audio Compression"
                          }
                        },
                        {
                          "effectName" : "NoiseReduction",
                          "bypassed" : false,
                          "category" : "categoryAudioEffects",
                          "parameters" : {
                            "denoiserAmount" : 20.0,
                            "denoiserThreshold" : 0.0,
                            "noiseProfile" : "",
                            "noiseTrainingType" : "default"
                          },
                          "metadata" : {
                            "presetName" : "Noise Removal"
                          }
                        }
                    ],
                    "start" : 2921724960000,
                    "duration" : 44523360000,
                    "mediaStart" : 0,
                    "mediaDuration" : 44523360000,
                    "scalar" : 1,
                    "metadata" : {
                      "clipSpeedAttribute" : false
                    },
                    "animationTracks" : {

                    }
                  },
                  {
                    "id" : 186,
                    "_type" : "AMFile",
                    "src" : 38,
                    "trackNumber" : 1,
                    "attributes" : {
                      "ident" : "Rec 1-10-2024-11-17-22-AM",
                      "gain" : 1.0,
                      "mixToMono" : false,
                      "loudnessNormalization" : true,
                      "sourceFileOffset" : 0
                    },
                      "channelNumber" : "0,1",
                    "effects" : [
                        {
                          "effectName" : "WinCompression",
                          "bypassed" : false,
                          "category" : "categoryAudioEffects",
                          "parameters" : {
                            "ratio" : 10.0,
                            "threshold" : -20.0,
                            "gain" : 9.0,
                            "attack" : 0.0,
                            "release" : 3500.0,
                            "preset" : 1
                          },
                          "metadata" : {
                            "presetName" : "Audio Compression"
                          }
                        },
                        {
                          "effectName" : "NoiseReduction",
                          "bypassed" : false,
                          "category" : "categoryAudioEffects",
                          "parameters" : {
                            "denoiserAmount" : 20.0,
                            "denoiserThreshold" : 0.0,
                            "noiseProfile" : "",
                            "noiseTrainingType" : "default"
                          },
                          "metadata" : {
                            "presetName" : "Noise Removal"
                          }
                        }
                    ],
                    "start" : 2967048000000,
                    "duration" : 107745120000,
                    "mediaStart" : 0,
                    "mediaDuration" : 107745120000,
                    "scalar" : 1,
                    "metadata" : {
                      "clipSpeedAttribute" : false
                    },
                    "animationTracks" : {

                    }
                  },
                  {
                    "id" : 187,
                    "_type" : "AMFile",
                    "src" : 32,
                    "trackNumber" : 1,
                    "attributes" : {
                      "ident" : "Rec 12-18-2023-12-12-27-PM",
                      "gain" : 1.0,
                      "mixToMono" : false,
                      "loudnessNormalization" : true,
                      "sourceFileOffset" : 0
                    },
                      "channelNumber" : "0,1",
                    "effects" : [
                        {
                          "effectName" : "WinCompression",
                          "bypassed" : false,
                          "category" : "categoryAudioEffects",
                          "parameters" : {
                            "ratio" : 10.0,
                            "threshold" : -20.0,
                            "gain" : 9.0,
                            "attack" : 0.0,
                            "release" : 3500.0,
                            "preset" : 1
                          },
                          "metadata" : {
                            "presetName" : "Audio Compression"
                          }
                        }
                    ],
                    "start" : 3074910720000,
                    "duration" : 83966400000,
                    "mediaStart" : 0,
                    "mediaDuration" : 83966400000,
                    "scalar" : 1,
                    "metadata" : {
                      "clipSpeedAttribute" : false
                    },
                    "animationTracks" : {

                    }
                  }
                ]
              },
              {
                "trackIndex" : 2,
                "medias" : [
                  {
                    "id" : 188,
                    "_type" : "Callout",
                    "def" : {
                        "kind" : "TypeWinSVG",
                        "shape" : "",
                        "style" : "",
                        "DrawTime" : 1.0,
                        "borderColorBlue" : 0.0,
                        "borderColorGreen" : 0.0,
                        "borderColorRed" : 1.0,
                        "borderWidth" : 5.0,
                        "enable-ligatures" : 0.0,
                        "flipOnXAxis" : 0.0,
                        "flipOnYAxis" : 0.0,
                        "height" : 180.0,
                        "width" : 320.0,
                        "filename" : "C:\\Users\\Angelo\\AppData\\Local\\TechSmith\\Camtasia Studio\\23.0\\Features\\Tools\\Annotations\\Defaults\\anim_checkmark.svg",
                        "name" : "",
                        "resize-behavior" : "resizeCallout",
                        "xmlContent" : "﻿<?xml version=\"1.0\" encoding=\"utf-8\"?>\n<!-- Generator: Adobe Illustrator 13.0.2, SVG Export Plug-In . SVG Version: 6.00 Build 14948)  -->\n<!DOCTYPE svg PUBLIC \"-//W3C//DTD SVG 1.1//EN\" \"http://www.w3.org/Graphics/SVG/1.1/DTD/svg11.dtd\">\n<svg version=\"1.1\" id=\"Layer_1\" xmlns=\"http://www.w3.org/2000/svg\" xmlns:xlink=\"http://www.w3.org/1999/xlink\" x=\"0px\" y=\"0px\"\n\t width=\"128px\" height=\"109px\" viewBox=\"0 0 128 109\" enable-background=\"new 0 0 128 109\" xml:space=\"preserve\">\n<path fill=\"none\" d=\"M22.304,53.27c0,0,18.242,16.407,28.666,45.94c26.712-78.755,54.727-89.42,54.727-89.42\"/>\n</svg>\n"
                    },
                    "attributes" : {
                      "ident" : "",
                      "autoRotateText" : true
                    },
                    "parameters" : {
                      "translation0" : -30.3488372093023,
                      "translation1" : 170.348837209302,
                      "scale0" : 0.189680232558139,
                      "scale1" : 0.373385012919897,
                      "sourceCrop0" : 0.0,
                      "sourceCrop1" : 0.0,
                      "sourceCrop2" : 0.0,
                      "sourceCrop3" : 0.0,
                      "geometryCrop0" : 0.0,
                      "geometryCrop1" : 0.0,
                      "geometryCrop2" : 0.0,
                      "geometryCrop3" : 0.0
                    },
                    "leftEdgeMods" : [
                      {
                        "group" : "DrawPercentageFade",
                        "duration" : 705600000,
                        "parameters" : [
                          {
                            "name" : "DrawTime",
                              "func" : "FadeInFunc"
                            }
                        ]
                      }
                    ],
                    "effects" : [

                    ],
                    "start" : 1110308640000,
                    "duration" : 3528000000,
                    "mediaStart" : 0,
                    "mediaDuration" : 3528000000,
                    "scalar" : 1,
                    "metadata" : {
                      "clipSpeedAttribute" : false,
                      "default-anchor0" : 0.0,
                      "default-anchor1" : 0.0,
                      "default-anchor2" : 0.0,
                      "default-height" : 180.0,
                      "default-rotation0" : 0.0,
                      "default-rotation1" : 0.0,
                      "default-rotation2" : 0.0,
                      "default-scale0" : 1.0,
                      "default-scale1" : 1.0,
                      "default-scale2" : 1.0,
                      "default-shear0" : 0.0,
                      "default-shear1" : 0.0,
                      "default-shear2" : 0.0,
                      "default-translation0" : 0.0,
                      "default-translation1" : 0.0,
                      "default-translation2" : 0.0,
                      "default-width" : 320.0
                    },
                    "animationTracks" : {

                    }
                  },
                  {
                    "id" : 189,
                    "_type" : "Callout",
                    "def" : {
                        "kind" : "TypeWinSVG",
                        "shape" : "",
                        "style" : "",
                        "DrawTime" : 1.0,
                        "borderColorBlue" : 0.0,
                        "borderColorGreen" : 0.0,
                        "borderColorRed" : 1.0,
                        "borderWidth" : 5.0,
                        "enable-ligatures" : 0.0,
                        "flipOnXAxis" : 0.0,
                        "flipOnYAxis" : 0.0,
                        "height" : 180.0,
                        "width" : 320.0,
                        "filename" : "C:\\Users\\Angelo\\AppData\\Local\\TechSmith\\Camtasia Studio\\23.0\\Features\\Tools\\Annotations\\Defaults\\anim_checkmark.svg",
                        "name" : "",
                        "resize-behavior" : "resizeCallout",
                        "xmlContent" : "﻿<?xml version=\"1.0\" encoding=\"utf-8\"?>\n<!-- Generator: Adobe Illustrator 13.0.2, SVG Export Plug-In . SVG Version: 6.00 Build 14948)  -->\n<!DOCTYPE svg PUBLIC \"-//W3C//DTD SVG 1.1//EN\" \"http://www.w3.org/Graphics/SVG/1.1/DTD/svg11.dtd\">\n<svg version=\"1.1\" id=\"Layer_1\" xmlns=\"http://www.w3.org/2000/svg\" xmlns:xlink=\"http://www.w3.org/1999/xlink\" x=\"0px\" y=\"0px\"\n\t width=\"128px\" height=\"109px\" viewBox=\"0 0 128 109\" enable-background=\"new 0 0 128 109\" xml:space=\"preserve\">\n<path fill=\"none\" d=\"M22.304,53.27c0,0,18.242,16.407,28.666,45.94c26.712-78.755,54.727-89.42,54.727-89.42\"/>\n</svg>\n"
                    },
                    "attributes" : {
                      "ident" : "",
                      "autoRotateText" : true
                    },
                    "parameters" : {
                      "translation0" : 311.627906976744,
                      "translation1" : 92.3255813953488,
                      "scale0" : 0.186046511627907,
                      "scale1" : 0.405684754521964,
                      "sourceCrop0" : 0.0,
                      "sourceCrop1" : 0.0,
                      "sourceCrop2" : 0.0,
                      "sourceCrop3" : 0.0,
                      "geometryCrop0" : 0.0,
                      "geometryCrop1" : 0.0,
                      "geometryCrop2" : 0.0,
                      "geometryCrop3" : 0.0
                    },
                    "leftEdgeMods" : [
                      {
                        "group" : "DrawPercentageFade",
                        "duration" : 705600000,
                        "parameters" : [
                          {
                            "name" : "DrawTime",
                              "func" : "FadeInFunc"
                            }
                        ]
                      }
                    ],
                    "effects" : [

                    ],
                    "start" : 1116706080000,
                    "duration" : 3528000000,
                    "mediaStart" : 0,
                    "mediaDuration" : 3528000000,
                    "scalar" : 1,
                    "metadata" : {
                      "clipSpeedAttribute" : false,
                      "default-anchor0" : 0.0,
                      "default-anchor1" : 0.0,
                      "default-anchor2" : 0.0,
                      "default-height" : 180.0,
                      "default-rotation0" : 0.0,
                      "default-rotation1" : 0.0,
                      "default-rotation2" : 0.0,
                      "default-scale0" : 1.0,
                      "default-scale1" : 1.0,
                      "default-scale2" : 1.0,
                      "default-shear0" : 0.0,
                      "default-shear1" : 0.0,
                      "default-shear2" : 0.0,
                      "default-translation0" : 0.0,
                      "default-translation1" : 0.0,
                      "default-translation2" : 0.0,
                      "default-width" : 320.0
                    },
                    "animationTracks" : {

                    }
                  },
                  {
                    "id" : 190,
                    "_type" : "Callout",
                    "def" : {
                        "kind" : "TypeWinSVG",
                        "shape" : "",
                        "style" : "",
                        "DrawTime" : 1.0,
                        "borderColorBlue" : 0.0,
                        "borderColorGreen" : 0.0,
                        "borderColorRed" : 1.0,
                        "borderWidth" : 5.0,
                        "enable-ligatures" : 0.0,
                        "flipOnXAxis" : 0.0,
                        "flipOnYAxis" : 0.0,
                        "height" : 180.0,
                        "width" : 320.0,
                        "filename" : "C:\\Users\\Angelo\\AppData\\Local\\TechSmith\\Camtasia Studio\\23.0\\Features\\Tools\\Annotations\\Defaults\\anim_checkmark.svg",
                        "name" : "",
                        "resize-behavior" : "resizeCallout",
                        "xmlContent" : "﻿<?xml version=\"1.0\" encoding=\"utf-8\"?>\n<!-- Generator: Adobe Illustrator 13.0.2, SVG Export Plug-In . SVG Version: 6.00 Build 14948)  -->\n<!DOCTYPE svg PUBLIC \"-//W3C//DTD SVG 1.1//EN\" \"http://www.w3.org/Graphics/SVG/1.1/DTD/svg11.dtd\">\n<svg version=\"1.1\" id=\"Layer_1\" xmlns=\"http://www.w3.org/2000/svg\" xmlns:xlink=\"http://www.w3.org/1999/xlink\" x=\"0px\" y=\"0px\"\n\t width=\"128px\" height=\"109px\" viewBox=\"0 0 128 109\" enable-background=\"new 0 0 128 109\" xml:space=\"preserve\">\n<path fill=\"none\" d=\"M22.304,53.27c0,0,18.242,16.407,28.666,45.94c26.712-78.755,54.727-89.42,54.727-89.42\"/>\n</svg>\n"
                    },
                    "attributes" : {
                      "ident" : "",
                      "autoRotateText" : true
                    },
                    "parameters" : {
                      "translation0" : -28.8372093023255,
                      "translation1" : 22.5000000000001,
                      "scale0" : 0.180232558139535,
                      "scale1" : 0.250000000000001,
                      "sourceCrop0" : 0.0,
                      "sourceCrop1" : 0.0,
                      "sourceCrop2" : 0.0,
                      "sourceCrop3" : 0.0,
                      "geometryCrop0" : 0.0,
                      "geometryCrop1" : 0.0,
                      "geometryCrop2" : 0.0,
                      "geometryCrop3" : 0.0
                    },
                    "leftEdgeMods" : [
                      {
                        "group" : "DrawPercentageFade",
                        "duration" : 705600000,
                        "parameters" : [
                          {
                            "name" : "DrawTime",
                              "func" : "FadeInFunc"
                            }
                        ]
                      }
                    ],
                    "effects" : [

                    ],
                    "start" : 1121363040000,
                    "duration" : 3528000000,
                    "mediaStart" : 0,
                    "mediaDuration" : 3528000000,
                    "scalar" : 1,
                    "metadata" : {
                      "clipSpeedAttribute" : false,
                      "default-anchor0" : 0.0,
                      "default-anchor1" : 0.0,
                      "default-anchor2" : 0.0,
                      "default-height" : 180.0,
                      "default-rotation0" : 0.0,
                      "default-rotation1" : 0.0,
                      "default-rotation2" : 0.0,
                      "default-scale0" : 1.0,
                      "default-scale1" : 1.0,
                      "default-scale2" : 1.0,
                      "default-shear0" : 0.0,
                      "default-shear1" : 0.0,
                      "default-shear2" : 0.0,
                      "default-translation0" : 0.0,
                      "default-translation1" : 0.0,
                      "default-translation2" : 0.0,
                      "default-width" : 320.0
                    },
                    "animationTracks" : {

                    }
                  },
                  {
                    "id" : 191,
                    "_type" : "Callout",
                    "def" : {
                        "kind" : "TypeWinSVG",
                        "shape" : "",
                        "style" : "",
                        "DrawTime" : 1.0,
                        "borderColorBlue" : 0.0,
                        "borderColorGreen" : 0.0,
                        "borderColorRed" : 1.0,
                        "borderWidth" : 5.0,
                        "enable-ligatures" : 0.0,
                        "flipOnXAxis" : 0.0,
                        "flipOnYAxis" : 0.0,
                        "height" : 180.0,
                        "width" : 320.0,
                        "filename" : "C:\\Users\\Angelo\\AppData\\Local\\TechSmith\\Camtasia Studio\\23.0\\Features\\Tools\\Annotations\\Defaults\\anim_checkmark.svg",
                        "name" : "",
                        "resize-behavior" : "resizeCallout",
                        "xmlContent" : "﻿<?xml version=\"1.0\" encoding=\"utf-8\"?>\n<!-- Generator: Adobe Illustrator 13.0.2, SVG Export Plug-In . SVG Version: 6.00 Build 14948)  -->\n<!DOCTYPE svg PUBLIC \"-//W3C//DTD SVG 1.1//EN\" \"http://www.w3.org/Graphics/SVG/1.1/DTD/svg11.dtd\">\n<svg version=\"1.1\" id=\"Layer_1\" xmlns=\"http://www.w3.org/2000/svg\" xmlns:xlink=\"http://www.w3.org/1999/xlink\" x=\"0px\" y=\"0px\"\n\t width=\"128px\" height=\"109px\" viewBox=\"0 0 128 109\" enable-background=\"new 0 0 128 109\" xml:space=\"preserve\">\n<path fill=\"none\" d=\"M22.304,53.27c0,0,18.242,16.407,28.666,45.94c26.712-78.755,54.727-89.42,54.727-89.42\"/>\n</svg>\n"
                    },
                    "attributes" : {
                      "ident" : "",
                      "autoRotateText" : true
                    },
                    "parameters" : {
                      "translation1" : -26.3953488372094,
                      "scale0" : 0.240552325581395,
                      "scale1" : 0.29328165374677,
                      "sourceCrop0" : 0.0,
                      "sourceCrop1" : 0.0,
                      "sourceCrop2" : 0.0,
                      "sourceCrop3" : 0.0,
                      "geometryCrop0" : 0.0,
                      "geometryCrop1" : 0.0,
                      "geometryCrop2" : 0.0,
                      "geometryCrop3" : 0.0
                    },
                    "leftEdgeMods" : [
                      {
                        "group" : "DrawPercentageFade",
                        "duration" : 705600000,
                        "parameters" : [
                          {
                            "name" : "DrawTime",
                              "func" : "FadeInFunc"
                            }
                        ]
                      }
                    ],
                    "effects" : [

                    ],
                    "start" : 1128254400000,
                    "duration" : 3528000000,
                    "mediaStart" : 0,
                    "mediaDuration" : 3528000000,
                    "scalar" : 1,
                    "metadata" : {
                      "clipSpeedAttribute" : false,
                      "default-anchor0" : 0.0,
                      "default-anchor1" : 0.0,
                      "default-anchor2" : 0.0,
                      "default-height" : 180.0,
                      "default-rotation0" : 0.0,
                      "default-rotation1" : 0.0,
                      "default-rotation2" : 0.0,
                      "default-scale0" : 1.0,
                      "default-scale1" : 1.0,
                      "default-scale2" : 1.0,
                      "default-shear0" : 0.0,
                      "default-shear1" : 0.0,
                      "default-shear2" : 0.0,
                      "default-translation0" : 0.0,
                      "default-translation1" : 0.0,
                      "default-translation2" : 0.0,
                      "default-width" : 320.0
                    },
                    "animationTracks" : {

                    }
                  },
                  {
                    "id" : 192,
                    "_type" : "Callout",
                    "def" : {
                        "kind" : "TypeWinSVG",
                        "shape" : "",
                        "style" : "",
                        "DrawTime" : 1.0,
                        "borderColorBlue" : 0.0,
                        "borderColorGreen" : 0.0,
                        "borderColorRed" : 1.0,
                        "borderWidth" : 5.0,
                        "enable-ligatures" : 0.0,
                        "flipOnXAxis" : 0.0,
                        "flipOnYAxis" : 0.0,
                        "height" : 180.0,
                        "width" : 320.0,
                        "filename" : "C:\\Users\\Angelo\\AppData\\Local\\TechSmith\\Camtasia Studio\\23.0\\Features\\Tools\\Annotations\\Defaults\\anim_checkmark.svg",
                        "name" : "",
                        "resize-behavior" : "resizeCallout",
                        "xmlContent" : "﻿<?xml version=\"1.0\" encoding=\"utf-8\"?>\n<!-- Generator: Adobe Illustrator 13.0.2, SVG Export Plug-In . SVG Version: 6.00 Build 14948)  -->\n<!DOCTYPE svg PUBLIC \"-//W3C//DTD SVG 1.1//EN\" \"http://www.w3.org/Graphics/SVG/1.1/DTD/svg11.dtd\">\n<svg version=\"1.1\" id=\"Layer_1\" xmlns=\"http://www.w3.org/2000/svg\" xmlns:xlink=\"http://www.w3.org/1999/xlink\" x=\"0px\" y=\"0px\"\n\t width=\"128px\" height=\"109px\" viewBox=\"0 0 128 109\" enable-background=\"new 0 0 128 109\" xml:space=\"preserve\">\n<path fill=\"none\" d=\"M22.304,53.27c0,0,18.242,16.407,28.666,45.94c26.712-78.755,54.727-89.42,54.727-89.42\"/>\n</svg>\n"
                    },
                    "attributes" : {
                      "ident" : "",
                      "autoRotateText" : true
                    },
                    "parameters" : {
                      "translation0" : -56.9767441860464,
                      "translation1" : -141.279069767442,
                      "scale0" : 0.142441860465116,
                      "scale1" : 0.373385012919897,
                      "sourceCrop0" : 0.0,
                      "sourceCrop1" : 0.0,
                      "sourceCrop2" : 0.0,
                      "sourceCrop3" : 0.0,
                      "geometryCrop0" : 0.0,
                      "geometryCrop1" : 0.0,
                      "geometryCrop2" : 0.0,
                      "geometryCrop3" : 0.0
                    },
                    "leftEdgeMods" : [
                      {
                        "group" : "DrawPercentageFade",
                        "duration" : 705600000,
                        "parameters" : [
                          {
                            "name" : "DrawTime",
                              "func" : "FadeInFunc"
                            }
                        ]
                      }
                    ],
                    "effects" : [

                    ],
                    "start" : 1135475040000,
                    "duration" : 3528000000,
                    "mediaStart" : 0,
                    "mediaDuration" : 3528000000,
                    "scalar" : 1,
                    "metadata" : {
                      "clipSpeedAttribute" : false,
                      "default-anchor0" : 0.0,
                      "default-anchor1" : 0.0,
                      "default-anchor2" : 0.0,
                      "default-height" : 180.0,
                      "default-rotation0" : 0.0,
                      "default-rotation1" : 0.0,
                      "default-rotation2" : 0.0,
                      "default-scale0" : 1.0,
                      "default-scale1" : 1.0,
                      "default-scale2" : 1.0,
                      "default-shear0" : 0.0,
                      "default-shear1" : 0.0,
                      "default-shear2" : 0.0,
                      "default-translation0" : 0.0,
                      "default-translation1" : 0.0,
                      "default-translation2" : 0.0,
                      "default-width" : 320.0
                    },
                    "animationTracks" : {

                    }
                  },
                  {
                    "id" : 193,
                    "_type" : "Callout",
                    "def" : {
                        "kind" : "TypeWinSVG",
                        "shape" : "",
                        "style" : "",
                        "DrawTime" : 1.0,
                        "borderColorBlue" : 0.0,
                        "borderColorGreen" : 0.0,
                        "borderColorRed" : 1.0,
                        "borderWidth" : 5.0,
                        "enable-ligatures" : 0.0,
                        "flipOnXAxis" : 0.0,
                        "flipOnYAxis" : 0.0,
                        "height" : 180.0,
                        "width" : 320.0,
                        "filename" : "C:\\Users\\Angelo\\AppData\\Local\\TechSmith\\Camtasia Studio\\23.0\\Features\\Tools\\Annotations\\Defaults\\anim_drawnperfectrectangle.svg",
                        "name" : "",
                        "resize-behavior" : "resizeCallout",
                        "xmlContent" : "﻿<?xml version=\"1.0\" encoding=\"utf-8\"?>\n<!DOCTYPE svg PUBLIC \"-//W3C//DTD SVG 1.1//EN\" \"http://www.w3.org/Graphics/SVG/1.1/DTD/svg11.dtd\">\n<svg version=\"1.1\" x=\"0px\" y=\"0px\" width=\"100px\" height=\"100px\" xml:space=\"preserve\">\n<path fill=\"none\" d=\"M 10 10 L 10 90 L 90 90 L 90 10 Z\"/>\n</svg>\n"
                    },
                    "attributes" : {
                      "ident" : "",
                      "autoRotateText" : true
                    },
                    "parameters" : {
                      "translation0" : -308.139534883721,
                      "translation1" : -223.255813953488,
                      "scale0" : 1.40697674418605,
                      "sourceCrop0" : 0.0,
                      "sourceCrop1" : 0.0,
                      "sourceCrop2" : 0.0,
                      "sourceCrop3" : 0.0,
                      "geometryCrop0" : 0.0,
                      "geometryCrop1" : 0.0,
                      "geometryCrop2" : 0.0,
                      "geometryCrop3" : 0.0
                    },
                    "leftEdgeMods" : [
                      {
                        "group" : "DrawPercentageFade",
                        "duration" : 705600000,
                        "parameters" : [
                          {
                            "name" : "DrawTime",
                              "func" : "FadeInFunc"
                            }
                        ]
                      }
                    ],
                    "effects" : [

                    ],
                    "start" : 1173154080000,
                    "duration" : 3528000000,
                    "mediaStart" : 0,
                    "mediaDuration" : 3528000000,
                    "scalar" : 1,
                    "metadata" : {
                      "clipSpeedAttribute" : false,
                      "default-anchor0" : 0.0,
                      "default-anchor1" : 0.0,
                      "default-anchor2" : 0.0,
                      "default-height" : 180.0,
                      "default-rotation0" : 0.0,
                      "default-rotation1" : 0.0,
                      "default-rotation2" : 0.0,
                      "default-scale0" : 1.0,
                      "default-scale1" : 1.0,
                      "default-scale2" : 1.0,
                      "default-shear0" : 0.0,
                      "default-shear1" : 0.0,
                      "default-shear2" : 0.0,
                      "default-translation0" : 0.0,
                      "default-translation1" : 0.0,
                      "default-translation2" : 0.0,
                      "default-width" : 320.0
                    },
                    "animationTracks" : {

                    }
                  },
                  {
                    "id" : 194,
                    "_type" : "Callout",
                    "def" : {
                        "kind" : "TypeWinSVG",
                        "shape" : "",
                        "style" : "",
                        "DrawTime" : 1.0,
                        "borderColorBlue" : 0.0,
                        "borderColorGreen" : 0.0,
                        "borderColorRed" : 1.0,
                        "borderWidth" : 5.0,
                        "enable-ligatures" : 0.0,
                        "flipOnXAxis" : 0.0,
                        "flipOnYAxis" : 0.0,
                        "height" : 180.0,
                        "width" : 320.0,
                        "filename" : "C:\\Users\\Angelo\\AppData\\Local\\TechSmith\\Camtasia Studio\\23.0\\Features\\Tools\\Annotations\\Defaults\\anim_drawnperfectrectangle.svg",
                        "name" : "",
                        "resize-behavior" : "resizeCallout",
                        "xmlContent" : "﻿<?xml version=\"1.0\" encoding=\"utf-8\"?>\n<!DOCTYPE svg PUBLIC \"-//W3C//DTD SVG 1.1//EN\" \"http://www.w3.org/Graphics/SVG/1.1/DTD/svg11.dtd\">\n<svg version=\"1.1\" x=\"0px\" y=\"0px\" width=\"100px\" height=\"100px\" xml:space=\"preserve\">\n<path fill=\"none\" d=\"M 10 10 L 10 90 L 90 90 L 90 10 Z\"/>\n</svg>\n"
                    },
                    "attributes" : {
                      "ident" : "",
                      "autoRotateText" : true
                    },
                    "parameters" : {
                      "translation0" : -226.162790697674,
                      "translation1" : -101.744186046512,
                      "scale0" : 1.65043604651163,
                      "scale1" : 0.580103359173126,
                      "sourceCrop0" : 0.0,
                      "sourceCrop1" : 0.0,
                      "sourceCrop2" : 0.0,
                      "sourceCrop3" : 0.0,
                      "geometryCrop0" : 0.0,
                      "geometryCrop1" : 0.0,
                      "geometryCrop2" : 0.0,
                      "geometryCrop3" : 0.0
                    },
                    "leftEdgeMods" : [
                      {
                        "group" : "DrawPercentageFade",
                        "duration" : 705600000,
                        "parameters" : [
                          {
                            "name" : "DrawTime",
                              "func" : "FadeInFunc"
                            }
                        ]
                      }
                    ],
                    "effects" : [

                    ],
                    "start" : 1183220640000,
                    "duration" : 3528000000,
                    "mediaStart" : 0,
                    "mediaDuration" : 3528000000,
                    "scalar" : 1,
                    "metadata" : {
                      "clipSpeedAttribute" : false,
                      "default-anchor0" : 0.0,
                      "default-anchor1" : 0.0,
                      "default-anchor2" : 0.0,
                      "default-height" : 180.0,
                      "default-rotation0" : 0.0,
                      "default-rotation1" : 0.0,
                      "default-rotation2" : 0.0,
                      "default-scale0" : 1.0,
                      "default-scale1" : 1.0,
                      "default-scale2" : 1.0,
                      "default-shear0" : 0.0,
                      "default-shear1" : 0.0,
                      "default-shear2" : 0.0,
                      "default-translation0" : 0.0,
                      "default-translation1" : 0.0,
                      "default-translation2" : 0.0,
                      "default-width" : 320.0
                    },
                    "animationTracks" : {

                    }
                  },
                  {
                    "id" : 195,
                    "_type" : "Callout",
                    "def" : {
                        "kind" : "TypeWinSVG",
                        "shape" : "",
                        "style" : "",
                        "DrawTime" : 1.0,
                        "borderColorBlue" : 0.0,
                        "borderColorGreen" : 0.0,
                        "borderColorRed" : 1.0,
                        "borderWidth" : 5.0,
                        "enable-ligatures" : 0.0,
                        "flipOnXAxis" : 0.0,
                        "flipOnYAxis" : 0.0,
                        "height" : 180.0,
                        "width" : 320.0,
                        "filename" : "C:\\Users\\Angelo\\AppData\\Local\\TechSmith\\Camtasia Studio\\23.0\\Features\\Tools\\Annotations\\Defaults\\anim_drawnperfectrectangle.svg",
                        "name" : "",
                        "resize-behavior" : "resizeCallout",
                        "xmlContent" : "﻿<?xml version=\"1.0\" encoding=\"utf-8\"?>\n<!DOCTYPE svg PUBLIC \"-//W3C//DTD SVG 1.1//EN\" \"http://www.w3.org/Graphics/SVG/1.1/DTD/svg11.dtd\">\n<svg version=\"1.1\" x=\"0px\" y=\"0px\" width=\"100px\" height=\"100px\" xml:space=\"preserve\">\n<path fill=\"none\" d=\"M 10 10 L 10 90 L 90 90 L 90 10 Z\"/>\n</svg>\n"
                    },
                    "attributes" : {
                      "ident" : "",
                      "autoRotateText" : true
                    },
                    "parameters" : {
                      "translation0" : -120.93023255814,
                      "translation1" : 61.8604651162791,
                      "scale0" : 1.73401162790698,
                      "scale1" : 0.68733850129199,
                      "sourceCrop0" : 0.0,
                      "sourceCrop1" : 0.0,
                      "sourceCrop2" : 0.0,
                      "sourceCrop3" : 0.0,
                      "geometryCrop0" : 0.0,
                      "geometryCrop1" : 0.0,
                      "geometryCrop2" : 0.0,
                      "geometryCrop3" : 0.0
                    },
                    "leftEdgeMods" : [
                      {
                        "group" : "DrawPercentageFade",
                        "duration" : 705600000,
                        "parameters" : [
                          {
                            "name" : "DrawTime",
                              "func" : "FadeInFunc"
                            }
                        ]
                      }
                    ],
                    "effects" : [

                    ],
                    "start" : 1236281760000,
                    "duration" : 3528000000,
                    "mediaStart" : 0,
                    "mediaDuration" : 3528000000,
                    "scalar" : 1,
                    "metadata" : {
                      "clipSpeedAttribute" : false,
                      "default-anchor0" : 0.0,
                      "default-anchor1" : 0.0,
                      "default-anchor2" : 0.0,
                      "default-height" : 180.0,
                      "default-rotation0" : 0.0,
                      "default-rotation1" : 0.0,
                      "default-rotation2" : 0.0,
                      "default-scale0" : 1.0,
                      "default-scale1" : 1.0,
                      "default-scale2" : 1.0,
                      "default-shear0" : 0.0,
                      "default-shear1" : 0.0,
                      "default-shear2" : 0.0,
                      "default-translation0" : 0.0,
                      "default-translation1" : 0.0,
                      "default-translation2" : 0.0,
                      "default-width" : 320.0
                    },
                    "animationTracks" : {

                    }
                  },
                  {
                    "id" : 196,
                    "_type" : "Callout",
                    "def" : {
                        "kind" : "TypeWinSVG",
                        "shape" : "",
                        "style" : "",
                        "DrawTime" : 1.0,
                        "borderColorBlue" : 0.0,
                        "borderColorGreen" : 0.0,
                        "borderColorRed" : 1.0,
                        "borderWidth" : 5.0,
                        "enable-ligatures" : 0.0,
                        "flipOnXAxis" : 0.0,
                        "flipOnYAxis" : 0.0,
                        "height" : 180.0,
                        "width" : 320.0,
                        "filename" : "C:\\Users\\Angelo\\AppData\\Local\\TechSmith\\Camtasia Studio\\23.0\\Features\\Tools\\Annotations\\Defaults\\anim_drawnperfectrectangle.svg",
                        "name" : "",
                        "resize-behavior" : "resizeCallout",
                        "xmlContent" : "﻿<?xml version=\"1.0\" encoding=\"utf-8\"?>\n<!DOCTYPE svg PUBLIC \"-//W3C//DTD SVG 1.1//EN\" \"http://www.w3.org/Graphics/SVG/1.1/DTD/svg11.dtd\">\n<svg version=\"1.1\" x=\"0px\" y=\"0px\" width=\"100px\" height=\"100px\" xml:space=\"preserve\">\n<path fill=\"none\" d=\"M 10 10 L 10 90 L 90 90 L 90 10 Z\"/>\n</svg>\n"
                    },
                    "attributes" : {
                      "ident" : "",
                      "autoRotateText" : true
                    },
                    "parameters" : {
                      "translation0" : -195.116279069767,
                      "translation1" : -54.5348837209302,
                      "scale0" : 1.21947674418605,
                      "scale1" : 0.60594315245478,
                      "sourceCrop0" : 0.0,
                      "sourceCrop1" : 0.0,
                      "sourceCrop2" : 0.0,
                      "sourceCrop3" : 0.0,
                      "geometryCrop0" : 0.0,
                      "geometryCrop1" : 0.0,
                      "geometryCrop2" : 0.0,
                      "geometryCrop3" : 0.0
                    },
                    "leftEdgeMods" : [
                      {
                        "group" : "DrawPercentageFade",
                        "duration" : 705600000,
                        "parameters" : [
                          {
                            "name" : "DrawTime",
                              "func" : "FadeInFunc"
                            }
                        ]
                      }
                    ],
                    "effects" : [

                    ],
                    "start" : 1247053920000,
                    "duration" : 3528000000,
                    "mediaStart" : 0,
                    "mediaDuration" : 3528000000,
                    "scalar" : 1,
                    "metadata" : {
                      "clipSpeedAttribute" : false,
                      "default-anchor0" : 0.0,
                      "default-anchor1" : 0.0,
                      "default-anchor2" : 0.0,
                      "default-height" : 180.0,
                      "default-rotation0" : 0.0,
                      "default-rotation1" : 0.0,
                      "default-rotation2" : 0.0,
                      "default-scale0" : 1.0,
                      "default-scale1" : 1.0,
                      "default-scale2" : 1.0,
                      "default-shear0" : 0.0,
                      "default-shear1" : 0.0,
                      "default-shear2" : 0.0,
                      "default-translation0" : 0.0,
                      "default-translation1" : 0.0,
                      "default-translation2" : 0.0,
                      "default-width" : 320.0
                    },
                    "animationTracks" : {

                    }
                  },
                  {
                    "id" : 197,
                    "_type" : "Callout",
                    "def" : {
                        "kind" : "TypeWinSVG",
                        "shape" : "",
                        "style" : "",
                        "DrawTime" : 1.0,
                        "borderColorBlue" : 0.0,
                        "borderColorGreen" : 0.0,
                        "borderColorRed" : 1.0,
                        "borderWidth" : 5.0,
                        "enable-ligatures" : 0.0,
                        "flipOnXAxis" : 0.0,
                        "flipOnYAxis" : 0.0,
                        "height" : 180.0,
                        "width" : 320.0,
                        "filename" : "C:\\Users\\Angelo\\AppData\\Local\\TechSmith\\Camtasia Studio\\23.0\\Features\\Tools\\Annotations\\Defaults\\anim_drawnperfectrectangle.svg",
                        "name" : "",
                        "resize-behavior" : "resizeCallout",
                        "xmlContent" : "﻿<?xml version=\"1.0\" encoding=\"utf-8\"?>\n<!DOCTYPE svg PUBLIC \"-//W3C//DTD SVG 1.1//EN\" \"http://www.w3.org/Graphics/SVG/1.1/DTD/svg11.dtd\">\n<svg version=\"1.1\" x=\"0px\" y=\"0px\" width=\"100px\" height=\"100px\" xml:space=\"preserve\">\n<path fill=\"none\" d=\"M 10 10 L 10 90 L 90 90 L 90 10 Z\"/>\n</svg>\n"
                    },
                    "attributes" : {
                      "ident" : "",
                      "autoRotateText" : true
                    },
                    "parameters" : {
                      "translation0" : -150.0,
                      "translation1" : -174.418604651163,
                      "scale0" : 1.50145348837209,
                      "scale1" : 1.06459948320413,
                      "sourceCrop0" : 0.0,
                      "sourceCrop1" : 0.0,
                      "sourceCrop2" : 0.0,
                      "sourceCrop3" : 0.0,
                      "geometryCrop0" : 0.0,
                      "geometryCrop1" : 0.0,
                      "geometryCrop2" : 0.0,
                      "geometryCrop3" : 0.0
                    },
                    "leftEdgeMods" : [
                      {
                        "group" : "DrawPercentageFade",
                        "duration" : 705600000,
                        "parameters" : [
                          {
                            "name" : "DrawTime",
                              "func" : "FadeInFunc"
                            }
                        ]
                      }
                    ],
                    "effects" : [

                    ],
                    "start" : 1276900800000,
                    "duration" : 3528000000,
                    "mediaStart" : 0,
                    "mediaDuration" : 3528000000,
                    "scalar" : 1,
                    "metadata" : {
                      "clipSpeedAttribute" : false,
                      "default-anchor0" : 0.0,
                      "default-anchor1" : 0.0,
                      "default-anchor2" : 0.0,
                      "default-height" : 180.0,
                      "default-rotation0" : 0.0,
                      "default-rotation1" : 0.0,
                      "default-rotation2" : 0.0,
                      "default-scale0" : 1.0,
                      "default-scale1" : 1.0,
                      "default-scale2" : 1.0,
                      "default-shear0" : 0.0,
                      "default-shear1" : 0.0,
                      "default-shear2" : 0.0,
                      "default-translation0" : 0.0,
                      "default-translation1" : 0.0,
                      "default-translation2" : 0.0,
                      "default-width" : 320.0
                    },
                    "animationTracks" : {

                    }
                  },
                  {
                    "id" : 198,
                    "_type" : "Callout",
                    "def" : {
                        "kind" : "TypeWinSVG",
                        "shape" : "",
                        "style" : "",
                        "DrawTime" : 1.0,
                        "borderColorBlue" : 0.0,
                        "borderColorGreen" : 0.0,
                        "borderColorRed" : 1.0,
                        "borderWidth" : 5.0,
                        "enable-ligatures" : 0.0,
                        "flipOnXAxis" : 0.0,
                        "flipOnYAxis" : 0.0,
                        "height" : 180.0,
                        "width" : 320.0,
                        "filename" : "C:\\Users\\Angelo\\AppData\\Local\\TechSmith\\Camtasia Studio\\23.0\\Features\\Tools\\Annotations\\Defaults\\anim_drawnperfectrectangle.svg",
                        "name" : "",
                        "resize-behavior" : "resizeCallout",
                        "xmlContent" : "﻿<?xml version=\"1.0\" encoding=\"utf-8\"?>\n<!DOCTYPE svg PUBLIC \"-//W3C//DTD SVG 1.1//EN\" \"http://www.w3.org/Graphics/SVG/1.1/DTD/svg11.dtd\">\n<svg version=\"1.1\" x=\"0px\" y=\"0px\" width=\"100px\" height=\"100px\" xml:space=\"preserve\">\n<path fill=\"none\" d=\"M 10 10 L 10 90 L 90 90 L 90 10 Z\"/>\n</svg>\n"
                    },
                    "attributes" : {
                      "ident" : "",
                      "autoRotateText" : true
                    },
                    "parameters" : {
                      "translation0" : -223.837209302326,
                      "translation1" : -173.255813953489,
                      "scale0" : 0.146075581395349,
                      "scale1" : 1.5297157622739,
                      "sourceCrop0" : 0.0,
                      "sourceCrop1" : 0.0,
                      "sourceCrop2" : 0.0,
                      "sourceCrop3" : 0.0,
                      "geometryCrop0" : 0.0,
                      "geometryCrop1" : 0.0,
                      "geometryCrop2" : 0.0,
                      "geometryCrop3" : 0.0
                    },
                    "leftEdgeMods" : [
                      {
                        "group" : "DrawPercentageFade",
                        "duration" : 705600000,
                        "parameters" : [
                          {
                            "name" : "DrawTime",
                              "func" : "FadeInFunc"
                            }
                        ]
                      }
                    ],
                    "effects" : [

                    ],
                    "start" : 1322858880000,
                    "duration" : 3528000000,
                    "mediaStart" : 0,
                    "mediaDuration" : 3528000000,
                    "scalar" : 1,
                    "metadata" : {
                      "clipSpeedAttribute" : false,
                      "default-anchor0" : 0.0,
                      "default-anchor1" : 0.0,
                      "default-anchor2" : 0.0,
                      "default-height" : 180.0,
                      "default-rotation0" : 0.0,
                      "default-rotation1" : 0.0,
                      "default-rotation2" : 0.0,
                      "default-scale0" : 1.0,
                      "default-scale1" : 1.0,
                      "default-scale2" : 1.0,
                      "default-shear0" : 0.0,
                      "default-shear1" : 0.0,
                      "default-shear2" : 0.0,
                      "default-translation0" : 0.0,
                      "default-translation1" : 0.0,
                      "default-translation2" : 0.0,
                      "default-width" : 320.0
                    },
                    "animationTracks" : {

                    }
                  },
                  {
                    "id" : 199,
                    "_type" : "Callout",
                    "def" : {
                        "kind" : "TypeWinSVG",
                        "shape" : "",
                        "style" : "",
                        "DrawTime" : 1.0,
                        "borderColorBlue" : 0.0,
                        "borderColorGreen" : 0.0,
                        "borderColorRed" : 1.0,
                        "borderWidth" : 5.0,
                        "enable-ligatures" : 0.0,
                        "flipOnXAxis" : 0.0,
                        "flipOnYAxis" : 0.0,
                        "height" : 180.0,
                        "width" : 320.0,
                        "filename" : "C:\\Users\\Angelo\\AppData\\Local\\TechSmith\\Camtasia Studio\\23.0\\Features\\Tools\\Annotations\\Defaults\\anim_drawnperfectrectangle.svg",
                        "name" : "",
                        "resize-behavior" : "resizeCallout",
                        "xmlContent" : "﻿<?xml version=\"1.0\" encoding=\"utf-8\"?>\n<!DOCTYPE svg PUBLIC \"-//W3C//DTD SVG 1.1//EN\" \"http://www.w3.org/Graphics/SVG/1.1/DTD/svg11.dtd\">\n<svg version=\"1.1\" x=\"0px\" y=\"0px\" width=\"100px\" height=\"100px\" xml:space=\"preserve\">\n<path fill=\"none\" d=\"M 10 10 L 10 90 L 90 90 L 90 10 Z\"/>\n</svg>\n"
                    },
                    "attributes" : {
                      "ident" : "",
                      "autoRotateText" : true
                    },
                    "parameters" : {
                      "translation0" : -180.0,
                      "translation1" : -10.4651162790698,
                      "scale0" : 1.125,
                      "scale1" : 0.444444444444445,
                      "sourceCrop0" : 0.0,
                      "sourceCrop1" : 0.0,
                      "sourceCrop2" : 0.0,
                      "sourceCrop3" : 0.0,
                      "geometryCrop0" : 0.0,
                      "geometryCrop1" : 0.0,
                      "geometryCrop2" : 0.0,
                      "geometryCrop3" : 0.0
                    },
                    "leftEdgeMods" : [
                      {
                        "group" : "DrawPercentageFade",
                        "duration" : 705600000,
                        "parameters" : [
                          {
                            "name" : "DrawTime",
                              "func" : "FadeInFunc"
                            }
                        ]
                      }
                    ],
                    "effects" : [

                    ],
                    "start" : 1424559360000,
                    "duration" : 3528000000,
                    "mediaStart" : 0,
                    "mediaDuration" : 3528000000,
                    "scalar" : 1,
                    "metadata" : {
                      "clipSpeedAttribute" : false,
                      "default-anchor0" : 0.0,
                      "default-anchor1" : 0.0,
                      "default-anchor2" : 0.0,
                      "default-height" : 180.0,
                      "default-rotation0" : 0.0,
                      "default-rotation1" : 0.0,
                      "default-rotation2" : 0.0,
                      "default-scale0" : 1.0,
                      "default-scale1" : 1.0,
                      "default-scale2" : 1.0,
                      "default-shear0" : 0.0,
                      "default-shear1" : 0.0,
                      "default-shear2" : 0.0,
                      "default-translation0" : 0.0,
                      "default-translation1" : 0.0,
                      "default-translation2" : 0.0,
                      "default-width" : 320.0
                    },
                    "animationTracks" : {

                    }
                  },
                  {
                    "id" : 200,
                    "_type" : "Callout",
                    "def" : {
                        "kind" : "TypeWinSVG",
                        "shape" : "",
                        "style" : "",
                        "DrawTime" : 1.0,
                        "borderColorBlue" : 0.0,
                        "borderColorGreen" : 0.0,
                        "borderColorRed" : 1.0,
                        "borderWidth" : 5.0,
                        "enable-ligatures" : 0.0,
                        "flipOnXAxis" : 0.0,
                        "flipOnYAxis" : 0.0,
                        "height" : 180.0,
                        "width" : 320.0,
                        "filename" : "C:\\Users\\Angelo\\AppData\\Local\\TechSmith\\Camtasia Studio\\23.0\\Features\\Tools\\Annotations\\Defaults\\anim_arrow.svg",
                        "name" : "",
                        "resize-behavior" : "resizeCallout",
                        "xmlContent" : "﻿<?xml version=\"1.0\" encoding=\"utf-8\"?>\n<!-- Generator: Adobe Illustrator 13.0.2, SVG Export Plug-In . SVG Version: 6.00 Build 14948)  -->\n<!DOCTYPE svg PUBLIC \"-//W3C//DTD SVG 1.1//EN\" \"http://www.w3.org/Graphics/SVG/1.1/DTD/svg11.dtd\">\n<svg version=\"1.1\" id=\"Layer_1\" xmlns=\"http://www.w3.org/2000/svg\" xmlns:xlink=\"http://www.w3.org/1999/xlink\" x=\"0px\" y=\"0px\"\n\t width=\"151.268px\" height=\"53px\" viewBox=\"0 0 151.268 53\" enable-background=\"new 0 0 151.268 53\" xml:space=\"preserve\">\n<path fill=\"none\" d=\"M12.852,24.926c0,0,85.25-8.838,118.688-2.996\"/>\n<path fill=\"none\" d=\"M93.169,2.713c0,0,46.52,8.657,49.944,18.729c3.424,10.071-43.753,26.022-43.753,26.022\"/>\n</svg>\n"
                    },
                    "attributes" : {
                      "ident" : "",
                      "autoRotateText" : true
                    },
                    "parameters" : {
                      "translation0" : -151.162790697675,
                      "translation1" : -20.7381961743499,
                      "rotation2" : 3.8326239867108,
                      "shear0" : 4.09357013354684e-16,
                      "scale0" : 0.20585622775678,
                      "scale1" : 0.143112981644403,
                      "sourceCrop0" : 0.0,
                      "sourceCrop1" : 0.0,
                      "sourceCrop2" : 0.0,
                      "sourceCrop3" : 0.0,
                      "geometryCrop0" : 0.0,
                      "geometryCrop1" : 0.0,
                      "geometryCrop2" : 0.0,
                      "geometryCrop3" : 0.0
                    },
                    "leftEdgeMods" : [
                      {
                        "group" : "DrawPercentageFade",
                        "duration" : 705600000,
                        "parameters" : [
                          {
                            "name" : "DrawTime",
                              "func" : "FadeInFunc"
                            }
                        ]
                      }
                    ],
                    "effects" : [

                    ],
                    "start" : 1457016960000,
                    "duration" : 3528000000,
                    "mediaStart" : 0,
                    "mediaDuration" : 3528000000,
                    "scalar" : 1,
                    "metadata" : {
                      "clipSpeedAttribute" : false,
                      "default-anchor0" : 0.0,
                      "default-anchor1" : 0.0,
                      "default-anchor2" : 0.0,
                      "default-height" : 180.0,
                      "default-rotation0" : 0.0,
                      "default-rotation1" : 0.0,
                      "default-rotation2" : 0.0,
                      "default-scale0" : 1.0,
                      "default-scale1" : 1.0,
                      "default-scale2" : 1.0,
                      "default-shear0" : 0.0,
                      "default-shear1" : 0.0,
                      "default-shear2" : 0.0,
                      "default-translation0" : 0.0,
                      "default-translation1" : 0.0,
                      "default-translation2" : 0.0,
                      "default-width" : 320.0
                    },
                    "animationTracks" : {

                    }
                  },
                  {
                    "id" : 201,
                    "_type" : "Callout",
                    "def" : {
                        "kind" : "TypeWinSVG",
                        "shape" : "",
                        "style" : "",
                        "DrawTime" : 1.0,
                        "borderColorBlue" : 0.0,
                        "borderColorGreen" : 0.0,
                        "borderColorRed" : 1.0,
                        "borderWidth" : 5.0,
                        "enable-ligatures" : 0.0,
                        "flipOnXAxis" : 0.0,
                        "flipOnYAxis" : 0.0,
                        "height" : 180.0,
                        "width" : 320.0,
                        "filename" : "C:\\Users\\Angelo\\AppData\\Local\\TechSmith\\Camtasia Studio\\23.0\\Features\\Tools\\Annotations\\Defaults\\anim_drawnsquare.svg",
                        "name" : "",
                        "resize-behavior" : "resizeCallout",
                        "xmlContent" : "﻿<?xml version=\"1.0\" encoding=\"utf-8\"?>\n<!-- Generator: Adobe Illustrator 13.0.2, SVG Export Plug-In . SVG Version: 6.00 Build 14948)  -->\n<!DOCTYPE svg PUBLIC \"-//W3C//DTD SVG 1.1//EN\" \"http://www.w3.org/Graphics/SVG/1.1/DTD/svg11.dtd\">\n<svg version=\"1.1\" id=\"Layer_1\" xmlns=\"http://www.w3.org/2000/svg\" xmlns:xlink=\"http://www.w3.org/1999/xlink\" x=\"0px\" y=\"0px\"\n\t width=\"296.633px\" height=\"227.883px\" viewBox=\"0 0 296.633 227.883\" enable-background=\"new 0 0 296.633 227.883\"\n\t xml:space=\"preserve\">\n<path fill=\"none\" d=\"M2.662,1.793c8.266,53.25,2.802,171.963,5.305,226.067\"/>\n<path fill=\"none\" d=\"M1.031,222.146c67.199-9.078,213.034,6.17,279.931-5.306\"/>\n<path fill=\"none\" d=\"M290.581,0.007c-0.5,33.125-2.356,191.708-11.658,223.363\"/>\n<path fill=\"none\" d=\"M0.07,10.703C127.409-7.206,237.174,4.794,296.602,8.604\"/>\n</svg>\n"
                    },
                    "attributes" : {
                      "ident" : "",
                      "autoRotateText" : true
                    },
                    "parameters" : {
                      "translation0" : 271.511627906977,
                      "translation1" : -131.395348837209,
                      "scale0" : 2.08648255813953,
                      "scale1" : 0.922480620155039,
                      "sourceCrop0" : 0.0,
                      "sourceCrop1" : 0.0,
                      "sourceCrop2" : 0.0,
                      "sourceCrop3" : 0.0,
                      "geometryCrop0" : 0.0,
                      "geometryCrop1" : 0.0,
                      "geometryCrop2" : 0.0,
                      "geometryCrop3" : 0.0
                    },
                    "leftEdgeMods" : [
                      {
                        "group" : "DrawPercentageFade",
                        "duration" : 705600000,
                        "parameters" : [
                          {
                            "name" : "DrawTime",
                              "func" : "FadeInFunc"
                            }
                        ]
                      }
                    ],
                    "effects" : [

                    ],
                    "start" : 1738739520000,
                    "duration" : 3528000000,
                    "mediaStart" : 0,
                    "mediaDuration" : 3528000000,
                    "scalar" : 1,
                    "metadata" : {
                      "clipSpeedAttribute" : false,
                      "default-anchor0" : 0.0,
                      "default-anchor1" : 0.0,
                      "default-anchor2" : 0.0,
                      "default-height" : 180.0,
                      "default-rotation0" : 0.0,
                      "default-rotation1" : 0.0,
                      "default-rotation2" : 0.0,
                      "default-scale0" : 1.0,
                      "default-scale1" : 1.0,
                      "default-scale2" : 1.0,
                      "default-shear0" : 0.0,
                      "default-shear1" : 0.0,
                      "default-shear2" : 0.0,
                      "default-translation0" : 0.0,
                      "default-translation1" : 0.0,
                      "default-translation2" : 0.0,
                      "default-width" : 320.0
                    },
                    "animationTracks" : {

                    }
                  },
                  {
                    "id" : 202,
                    "_type" : "Callout",
                    "def" : {
                        "kind" : "TypeWinSVG",
                        "shape" : "",
                        "style" : "",
                        "DrawTime" : 1.0,
                        "borderColorBlue" : 0.0,
                        "borderColorGreen" : 0.0,
                        "borderColorRed" : 1.0,
                        "borderWidth" : 5.0,
                        "enable-ligatures" : 0.0,
                        "flipOnXAxis" : 0.0,
                        "flipOnYAxis" : 0.0,
                        "height" : 180.0,
                        "width" : 320.0,
                        "filename" : "C:\\Users\\Angelo\\AppData\\Local\\TechSmith\\Camtasia Studio\\23.0\\Features\\Tools\\Annotations\\Defaults\\anim_drawnperfectrectangle.svg",
                        "name" : "",
                        "resize-behavior" : "resizeCallout",
                        "xmlContent" : "﻿<?xml version=\"1.0\" encoding=\"utf-8\"?>\n<!DOCTYPE svg PUBLIC \"-//W3C//DTD SVG 1.1//EN\" \"http://www.w3.org/Graphics/SVG/1.1/DTD/svg11.dtd\">\n<svg version=\"1.1\" x=\"0px\" y=\"0px\" width=\"100px\" height=\"100px\" xml:space=\"preserve\">\n<path fill=\"none\" d=\"M 10 10 L 10 90 L 90 90 L 90 10 Z\"/>\n</svg>\n"
                    },
                    "attributes" : {
                      "ident" : "",
                      "autoRotateText" : true
                    },
                    "parameters" : {
                      "translation0" : -160.0,
                      "translation1" : -38.8372093023256,
                      "scale1" : 0.431524547803617,
                      "sourceCrop0" : 0.0,
                      "sourceCrop1" : 0.0,
                      "sourceCrop2" : 0.0,
                      "sourceCrop3" : 0.0,
                      "geometryCrop0" : 0.0,
                      "geometryCrop1" : 0.0,
                      "geometryCrop2" : 0.0,
                      "geometryCrop3" : 0.0
                    },
                    "leftEdgeMods" : [
                      {
                        "group" : "DrawPercentageFade",
                        "duration" : 705600000,
                        "parameters" : [
                          {
                            "name" : "DrawTime",
                              "func" : "FadeInFunc"
                            }
                        ]
                      }
                    ],
                    "effects" : [

                    ],
                    "start" : 1889879040000,
                    "duration" : 3528000000,
                    "mediaStart" : 0,
                    "mediaDuration" : 3528000000,
                    "scalar" : 1,
                    "metadata" : {
                      "clipSpeedAttribute" : false,
                      "default-anchor0" : 0.0,
                      "default-anchor1" : 0.0,
                      "default-anchor2" : 0.0,
                      "default-height" : 180.0,
                      "default-rotation0" : 0.0,
                      "default-rotation1" : 0.0,
                      "default-rotation2" : 0.0,
                      "default-scale0" : 1.0,
                      "default-scale1" : 1.0,
                      "default-scale2" : 1.0,
                      "default-shear0" : 0.0,
                      "default-shear1" : 0.0,
                      "default-shear2" : 0.0,
                      "default-translation0" : 0.0,
                      "default-translation1" : 0.0,
                      "default-translation2" : 0.0,
                      "default-width" : 320.0
                    },
                    "animationTracks" : {

                    }
                  },
                  {
                    "id" : 203,
                    "_type" : "Callout",
                    "def" : {
                        "kind" : "TypeWinSVG",
                        "shape" : "",
                        "style" : "",
                        "DrawTime" : 1.0,
                        "borderColorBlue" : 0.0,
                        "borderColorGreen" : 0.0,
                        "borderColorRed" : 1.0,
                        "borderWidth" : 5.0,
                        "enable-ligatures" : 0.0,
                        "flipOnXAxis" : 0.0,
                        "flipOnYAxis" : 0.0,
                        "height" : 180.0,
                        "width" : 320.0,
                        "filename" : "C:\\Users\\Angelo\\AppData\\Local\\TechSmith\\Camtasia Studio\\23.0\\Features\\Tools\\Annotations\\Defaults\\anim_arrow.svg",
                        "name" : "",
                        "resize-behavior" : "resizeCallout",
                        "xmlContent" : "﻿<?xml version=\"1.0\" encoding=\"utf-8\"?>\n<!-- Generator: Adobe Illustrator 13.0.2, SVG Export Plug-In . SVG Version: 6.00 Build 14948)  -->\n<!DOCTYPE svg PUBLIC \"-//W3C//DTD SVG 1.1//EN\" \"http://www.w3.org/Graphics/SVG/1.1/DTD/svg11.dtd\">\n<svg version=\"1.1\" id=\"Layer_1\" xmlns=\"http://www.w3.org/2000/svg\" xmlns:xlink=\"http://www.w3.org/1999/xlink\" x=\"0px\" y=\"0px\"\n\t width=\"151.268px\" height=\"53px\" viewBox=\"0 0 151.268 53\" enable-background=\"new 0 0 151.268 53\" xml:space=\"preserve\">\n<path fill=\"none\" d=\"M12.852,24.926c0,0,85.25-8.838,118.688-2.996\"/>\n<path fill=\"none\" d=\"M93.169,2.713c0,0,46.52,8.657,49.944,18.729c3.424,10.071-43.753,26.022-43.753,26.022\"/>\n</svg>\n"
                    },
                    "attributes" : {
                      "ident" : "",
                      "autoRotateText" : true
                    },
                    "parameters" : {
                      "translation0" : -258.720930232558,
                      "translation1" : -150.0,
                      "scale0" : 0.23328488372093,
                      "scale1" : 0.224806201550388,
                      "sourceCrop0" : 0.0,
                      "sourceCrop1" : 0.0,
                      "sourceCrop2" : 0.0,
                      "sourceCrop3" : 0.0,
                      "geometryCrop0" : 0.0,
                      "geometryCrop1" : 0.0,
                      "geometryCrop2" : 0.0,
                      "geometryCrop3" : 0.0
                    },
                    "leftEdgeMods" : [
                      {
                        "group" : "DrawPercentageFade",
                        "duration" : 705600000,
                        "parameters" : [
                          {
                            "name" : "DrawTime",
                              "func" : "FadeInFunc"
                            }
                        ]
                      }
                    ],
                    "effects" : [

                    ],
                    "start" : 1907472000000,
                    "duration" : 3528000000,
                    "mediaStart" : 0,
                    "mediaDuration" : 3528000000,
                    "scalar" : 1,
                    "metadata" : {
                      "clipSpeedAttribute" : false,
                      "default-anchor0" : 0.0,
                      "default-anchor1" : 0.0,
                      "default-anchor2" : 0.0,
                      "default-height" : 180.0,
                      "default-rotation0" : 0.0,
                      "default-rotation1" : 0.0,
                      "default-rotation2" : 0.0,
                      "default-scale0" : 1.0,
                      "default-scale1" : 1.0,
                      "default-scale2" : 1.0,
                      "default-shear0" : 0.0,
                      "default-shear1" : 0.0,
                      "default-shear2" : 0.0,
                      "default-translation0" : 0.0,
                      "default-translation1" : 0.0,
                      "default-translation2" : 0.0,
                      "default-width" : 320.0
                    },
                    "animationTracks" : {

                    }
                  },
                  {
                    "id" : 204,
                    "_type" : "Callout",
                    "def" : {
                        "kind" : "TypeWinSVG",
                        "shape" : "",
                        "style" : "",
                        "DrawTime" : 1.0,
                        "borderColorBlue" : 0.0,
                        "borderColorGreen" : 0.0,
                        "borderColorRed" : 1.0,
                        "borderWidth" : 5.0,
                        "enable-ligatures" : 0.0,
                        "flipOnXAxis" : 0.0,
                        "flipOnYAxis" : 0.0,
                        "height" : 180.0,
                        "width" : 320.0,
                        "filename" : "C:\\Users\\Angelo\\AppData\\Local\\TechSmith\\Camtasia Studio\\23.0\\Features\\Tools\\Annotations\\Defaults\\anim_arrow.svg",
                        "name" : "",
                        "resize-behavior" : "resizeCallout",
                        "xmlContent" : "﻿<?xml version=\"1.0\" encoding=\"utf-8\"?>\n<!-- Generator: Adobe Illustrator 13.0.2, SVG Export Plug-In . SVG Version: 6.00 Build 14948)  -->\n<!DOCTYPE svg PUBLIC \"-//W3C//DTD SVG 1.1//EN\" \"http://www.w3.org/Graphics/SVG/1.1/DTD/svg11.dtd\">\n<svg version=\"1.1\" id=\"Layer_1\" xmlns=\"http://www.w3.org/2000/svg\" xmlns:xlink=\"http://www.w3.org/1999/xlink\" x=\"0px\" y=\"0px\"\n\t width=\"151.268px\" height=\"53px\" viewBox=\"0 0 151.268 53\" enable-background=\"new 0 0 151.268 53\" xml:space=\"preserve\">\n<path fill=\"none\" d=\"M12.852,24.926c0,0,85.25-8.838,118.688-2.996\"/>\n<path fill=\"none\" d=\"M93.169,2.713c0,0,46.52,8.657,49.944,18.729c3.424,10.071-43.753,26.022-43.753,26.022\"/>\n</svg>\n"
                    },
                    "attributes" : {
                      "ident" : "",
                      "autoRotateText" : true
                    },
                    "parameters" : {
                      "translation0" : -110.149533978825,
                      "translation1" : -133.032078544928,
                      "rotation2" : -2.4186133001883,
                      "shear0" : 5.59965030542658e-16,
                      "scale0" : 0.124457099907469,
                      "scale1" : 0.153746770025839,
                      "sourceCrop0" : 0.0,
                      "sourceCrop1" : 0.0,
                      "sourceCrop2" : 0.0,
                      "sourceCrop3" : 0.0,
                      "geometryCrop0" : 0.0,
                      "geometryCrop1" : 0.0,
                      "geometryCrop2" : 0.0,
                      "geometryCrop3" : 0.0
                    },
                    "leftEdgeMods" : [
                      {
                        "group" : "DrawPercentageFade",
                        "duration" : 705600000,
                        "parameters" : [
                          {
                            "name" : "DrawTime",
                              "func" : "FadeInFunc"
                            }
                        ]
                      }
                    ],
                    "effects" : [

                    ],
                    "start" : 1920948960000,
                    "duration" : 3528000000,
                    "mediaStart" : 0,
                    "mediaDuration" : 3528000000,
                    "scalar" : 1,
                    "metadata" : {
                      "clipSpeedAttribute" : false,
                      "default-anchor0" : 0.0,
                      "default-anchor1" : 0.0,
                      "default-anchor2" : 0.0,
                      "default-height" : 180.0,
                      "default-rotation0" : 0.0,
                      "default-rotation1" : 0.0,
                      "default-rotation2" : 0.0,
                      "default-scale0" : 1.0,
                      "default-scale1" : 1.0,
                      "default-scale2" : 1.0,
                      "default-shear0" : 0.0,
                      "default-shear1" : 0.0,
                      "default-shear2" : 0.0,
                      "default-translation0" : 0.0,
                      "default-translation1" : 0.0,
                      "default-translation2" : 0.0,
                      "default-width" : 320.0
                    },
                    "animationTracks" : {

                    }
                  },
                  {
                    "id" : 205,
                    "_type" : "Callout",
                    "def" : {
                        "kind" : "TypeWinSVG",
                        "shape" : "",
                        "style" : "",
                        "DrawTime" : 1.0,
                        "borderColorBlue" : 0.0,
                        "borderColorGreen" : 0.0,
                        "borderColorRed" : 1.0,
                        "borderWidth" : 5.0,
                        "enable-ligatures" : 0.0,
                        "flipOnXAxis" : 0.0,
                        "flipOnYAxis" : 0.0,
                        "height" : 180.0,
                        "width" : 320.0,
                        "filename" : "C:\\Users\\Angelo\\AppData\\Local\\TechSmith\\Camtasia Studio\\23.0\\Features\\Tools\\Annotations\\Defaults\\anim_arrow.svg",
                        "name" : "",
                        "resize-behavior" : "resizeCallout",
                        "xmlContent" : "﻿<?xml version=\"1.0\" encoding=\"utf-8\"?>\n<!-- Generator: Adobe Illustrator 13.0.2, SVG Export Plug-In . SVG Version: 6.00 Build 14948)  -->\n<!DOCTYPE svg PUBLIC \"-//W3C//DTD SVG 1.1//EN\" \"http://www.w3.org/Graphics/SVG/1.1/DTD/svg11.dtd\">\n<svg version=\"1.1\" id=\"Layer_1\" xmlns=\"http://www.w3.org/2000/svg\" xmlns:xlink=\"http://www.w3.org/1999/xlink\" x=\"0px\" y=\"0px\"\n\t width=\"151.268px\" height=\"53px\" viewBox=\"0 0 151.268 53\" enable-background=\"new 0 0 151.268 53\" xml:space=\"preserve\">\n<path fill=\"none\" d=\"M12.852,24.926c0,0,85.25-8.838,118.688-2.996\"/>\n<path fill=\"none\" d=\"M93.169,2.713c0,0,46.52,8.657,49.944,18.729c3.424,10.071-43.753,26.022-43.753,26.022\"/>\n</svg>\n"
                    },
                    "attributes" : {
                      "ident" : "",
                      "autoRotateText" : true
                    },
                    "parameters" : {
                      "translation0" : -247.674418604651,
                      "translation1" : -147.093023255814,
                      "scale0" : 0.178779069767442,
                      "scale1" : 0.166666666666667,
                      "sourceCrop0" : 0.0,
                      "sourceCrop1" : 0.0,
                      "sourceCrop2" : 0.0,
                      "sourceCrop3" : 0.0,
                      "geometryCrop0" : 0.0,
                      "geometryCrop1" : 0.0,
                      "geometryCrop2" : 0.0,
                      "geometryCrop3" : 0.0
                    },
                    "leftEdgeMods" : [
                      {
                        "group" : "DrawPercentageFade",
                        "duration" : 705600000,
                        "parameters" : [
                          {
                            "name" : "DrawTime",
                              "func" : "FadeInFunc"
                            }
                        ]
                      }
                    ],
                    "effects" : [

                    ],
                    "start" : 1925017920000,
                    "duration" : 3528000000,
                    "mediaStart" : 0,
                    "mediaDuration" : 3528000000,
                    "scalar" : 1,
                    "metadata" : {
                      "clipSpeedAttribute" : false,
                      "default-anchor0" : 0.0,
                      "default-anchor1" : 0.0,
                      "default-anchor2" : 0.0,
                      "default-height" : 180.0,
                      "default-rotation0" : 0.0,
                      "default-rotation1" : 0.0,
                      "default-rotation2" : 0.0,
                      "default-scale0" : 1.0,
                      "default-scale1" : 1.0,
                      "default-scale2" : 1.0,
                      "default-shear0" : 0.0,
                      "default-shear1" : 0.0,
                      "default-shear2" : 0.0,
                      "default-translation0" : 0.0,
                      "default-translation1" : 0.0,
                      "default-translation2" : 0.0,
                      "default-width" : 320.0
                    },
                    "animationTracks" : {

                    }
                  },
                  {
                    "id" : 206,
                    "_type" : "Callout",
                    "def" : {
                        "kind" : "TypeWinSVG",
                        "shape" : "",
                        "style" : "",
                        "DrawTime" : 1.0,
                        "borderColorBlue" : 0.0,
                        "borderColorGreen" : 0.0,
                        "borderColorRed" : 1.0,
                        "borderWidth" : 5.0,
                        "enable-ligatures" : 0.0,
                        "flipOnXAxis" : 0.0,
                        "flipOnYAxis" : 0.0,
                        "height" : 180.0,
                        "width" : 320.0,
                        "filename" : "C:\\Users\\Angelo\\AppData\\Local\\TechSmith\\Camtasia Studio\\23.0\\Features\\Tools\\Annotations\\Defaults\\anim_arrow.svg",
                        "name" : "",
                        "resize-behavior" : "resizeCallout",
                        "xmlContent" : "﻿<?xml version=\"1.0\" encoding=\"utf-8\"?>\n<!-- Generator: Adobe Illustrator 13.0.2, SVG Export Plug-In . SVG Version: 6.00 Build 14948)  -->\n<!DOCTYPE svg PUBLIC \"-//W3C//DTD SVG 1.1//EN\" \"http://www.w3.org/Graphics/SVG/1.1/DTD/svg11.dtd\">\n<svg version=\"1.1\" id=\"Layer_1\" xmlns=\"http://www.w3.org/2000/svg\" xmlns:xlink=\"http://www.w3.org/1999/xlink\" x=\"0px\" y=\"0px\"\n\t width=\"151.268px\" height=\"53px\" viewBox=\"0 0 151.268 53\" enable-background=\"new 0 0 151.268 53\" xml:space=\"preserve\">\n<path fill=\"none\" d=\"M12.852,24.926c0,0,85.25-8.838,118.688-2.996\"/>\n<path fill=\"none\" d=\"M93.169,2.713c0,0,46.52,8.657,49.944,18.729c3.424,10.071-43.753,26.022-43.753,26.022\"/>\n</svg>\n"
                    },
                    "attributes" : {
                      "ident" : "",
                      "autoRotateText" : true
                    },
                    "parameters" : {
                      "translation0" : -34.7179223580023,
                      "translation1" : -139.53488372093,
                      "rotation2" : -2.63441069340622,
                      "shear0" : 2.0046898169257e-16,
                      "scale0" : 0.186046511627907,
                      "scale1" : 0.198966408268734,
                      "sourceCrop0" : 0.0,
                      "sourceCrop1" : 0.0,
                      "sourceCrop2" : 0.0,
                      "sourceCrop3" : 0.0,
                      "geometryCrop0" : 0.0,
                      "geometryCrop1" : 0.0,
                      "geometryCrop2" : 0.0,
                      "geometryCrop3" : 0.0
                    },
                    "leftEdgeMods" : [
                      {
                        "group" : "DrawPercentageFade",
                        "duration" : 705600000,
                        "parameters" : [
                          {
                            "name" : "DrawTime",
                              "func" : "FadeInFunc"
                            }
                        ]
                      }
                    ],
                    "effects" : [

                    ],
                    "start" : 1965425280000,
                    "duration" : 3528000000,
                    "mediaStart" : 0,
                    "mediaDuration" : 3528000000,
                    "scalar" : 1,
                    "metadata" : {
                      "clipSpeedAttribute" : false,
                      "default-anchor0" : 0.0,
                      "default-anchor1" : 0.0,
                      "default-anchor2" : 0.0,
                      "default-height" : 180.0,
                      "default-rotation0" : 0.0,
                      "default-rotation1" : 0.0,
                      "default-rotation2" : 0.0,
                      "default-scale0" : 1.0,
                      "default-scale1" : 1.0,
                      "default-scale2" : 1.0,
                      "default-shear0" : 0.0,
                      "default-shear1" : 0.0,
                      "default-shear2" : 0.0,
                      "default-translation0" : 0.0,
                      "default-translation1" : 0.0,
                      "default-translation2" : 0.0,
                      "default-width" : 320.0
                    },
                    "animationTracks" : {

                    }
                  },
                  {
                    "id" : 207,
                    "_type" : "Callout",
                    "def" : {
                        "kind" : "remix",
                        "shape" : "text-rectangle",
                        "style" : "basic",
                        "enable-ligatures" : 1.0,
                        "fill-color-blue" : 1.0,
                        "fill-color-green" : 1.0,
                        "fill-color-opacity" : 1.0,
                        "fill-color-red" : 1.0,
                        "height" : 95.3488372093024,
                        "line-spacing" : 0.0,
                        "stroke-color-blue" : 0.56078431372549,
                        "stroke-color-green" : 0.686274509803922,
                        "stroke-color-opacity" : 1.0,
                        "stroke-color-red" : 0.0196078431372549,
                        "stroke-width" : 2.0,
                        "tail-x" : 0.0,
                        "tail-y" : -20.0,
                        "width" : 274.418604651163,
                        "word-wrap" : 1.0,
                        "fill-style" : "solid",
                        "horizontal-alignment" : "left",
                        "resize-behavior" : "resizeText",
                        "stroke-style" : "solid",
                        "text" : "Oops! Should be labelled NextMonth Sales",
                        "vertical-alignment" : "center",
                        "font" : {
                          "color-blue" : 0.266666666666667,
                          "color-green" : 0.231372549019608,
                          "color-opacity" : 1.0,
                          "color-red" : 0.184313725490196,
                          "size" : 64.0,
                          "tracking" : 0.0,
                          "name" : "Montserrat",
                          "weight" : "Regular"
                        },
                        "textAttributes" : {
                          "type" : "textAttributeList",
                          "keyframes" : [
                            {
                              "endTime" : 0,
                              "time" : 0,
                              "value" : [{"name":"fgColor","rangeEnd":40,"rangeStart":0,"value":"(35,40,47,255)","valueType":"color"},{"name":"kerning","rangeEnd":40,"rangeStart":0,"value":0.0,"valueType":"double"},{"name":"fontSize","rangeEnd":40,"rangeStart":0,"value":24.0,"valueType":"double"},{"name":"fontItalic","rangeEnd":40,"rangeStart":0,"value":0,"valueType":"int"},{"name":"fontName","rangeEnd":40,"rangeStart":0,"value":"Montserrat","valueType":"string"},{"name":"fontWeight","rangeEnd":40,"rangeStart":0,"value":400,"valueType":"int"},{"name":"strikethrough","rangeEnd":40,"rangeStart":0,"value":0,"valueType":"int"},{"name":"underline","rangeEnd":40,"rangeStart":0,"value":0,"valueType":"int"}],
                              "duration" : 0
                            }
                          ]
                        }
                    },
                    "attributes" : {
                      "ident" : "",
                      "autoRotateText" : true
                    },
                    "parameters" : {
                      "translation0" : 308.720930232558,
                      "translation1" : -119.186046511628,
                      "sourceCrop0" : 0.0,
                      "sourceCrop1" : 0.0,
                      "sourceCrop2" : 0.0,
                      "sourceCrop3" : 0.0,
                      "geometryCrop0" : 0.0,
                      "geometryCrop1" : 0.0,
                      "geometryCrop2" : 0.0,
                      "geometryCrop3" : 0.0
                    },
                    "effects" : [

                    ],
                    "start" : 2055012960000,
                    "duration" : 25495680000,
                    "mediaStart" : 0,
                    "mediaDuration" : 25495680000,
                    "scalar" : 1,
                    "metadata" : {
                      "clipSpeedAttribute" : false,
                      "default-HAlign" : "center",
                      "default-LineSpace" : 0.0,
                      "default-VAlign" : "center",
                      "default-anchor0" : 0.0,
                      "default-anchor1" : 0.0,
                      "default-anchor2" : 0.0,
                      "default-height" : 176.0,
                      "default-rotation0" : 0.0,
                      "default-rotation1" : 0.0,
                      "default-rotation2" : 0.0,
                      "default-scale0" : 1.0,
                      "default-scale1" : 1.0,
                      "default-scale2" : 1.0,
                      "default-shear0" : 0.0,
                      "default-shear1" : 0.0,
                      "default-shear2" : 0.0,
                      "default-translation0" : 0.0,
                      "default-translation1" : 0.0,
                      "default-translation2" : 0.0,
                      "default-width" : 376.0
                    },
                    "animationTracks" : {

                    }
                  },
                  {
                    "id" : 208,
                    "_type" : "Callout",
                    "def" : {
                        "kind" : "TypeWinSVG",
                        "shape" : "",
                        "style" : "",
                        "DrawTime" : 1.0,
                        "borderColorBlue" : 0.0,
                        "borderColorGreen" : 0.0,
                        "borderColorRed" : 1.0,
                        "borderWidth" : 5.0,
                        "enable-ligatures" : 0.0,
                        "flipOnXAxis" : 0.0,
                        "flipOnYAxis" : 0.0,
                        "height" : 180.0,
                        "width" : 320.0,
                        "filename" : "C:\\Users\\Angelo\\AppData\\Local\\TechSmith\\Camtasia Studio\\23.0\\Features\\Tools\\Annotations\\Defaults\\anim_drawnperfectrectangle.svg",
                        "name" : "",
                        "resize-behavior" : "resizeCallout",
                        "xmlContent" : "﻿<?xml version=\"1.0\" encoding=\"utf-8\"?>\n<!DOCTYPE svg PUBLIC \"-//W3C//DTD SVG 1.1//EN\" \"http://www.w3.org/Graphics/SVG/1.1/DTD/svg11.dtd\">\n<svg version=\"1.1\" x=\"0px\" y=\"0px\" width=\"100px\" height=\"100px\" xml:space=\"preserve\">\n<path fill=\"none\" d=\"M 10 10 L 10 90 L 90 90 L 90 10 Z\"/>\n</svg>\n"
                    },
                    "attributes" : {
                      "ident" : "",
                      "autoRotateText" : true
                    },
                    "parameters" : {
                      "translation0" : 402.325581395349,
                      "translation1" : -53.4883720930233,
                      "scale0" : 0.265988372093023,
                      "scale1" : 0.17312661498708,
                      "sourceCrop0" : 0.0,
                      "sourceCrop1" : 0.0,
                      "sourceCrop2" : 0.0,
                      "sourceCrop3" : 0.0,
                      "geometryCrop0" : 0.0,
                      "geometryCrop1" : 0.0,
                      "geometryCrop2" : 0.0,
                      "geometryCrop3" : 0.0
                    },
                    "leftEdgeMods" : [
                      {
                        "group" : "DrawPercentageFade",
                        "duration" : 705600000,
                        "parameters" : [
                          {
                            "name" : "DrawTime",
                              "func" : "FadeInFunc"
                            }
                        ]
                      }
                    ],
                    "effects" : [

                    ],
                    "start" : 2163675360000,
                    "duration" : 3528000000,
                    "mediaStart" : 0,
                    "mediaDuration" : 3528000000,
                    "scalar" : 1,
                    "metadata" : {
                      "clipSpeedAttribute" : false,
                      "default-anchor0" : 0.0,
                      "default-anchor1" : 0.0,
                      "default-anchor2" : 0.0,
                      "default-height" : 180.0,
                      "default-rotation0" : 0.0,
                      "default-rotation1" : 0.0,
                      "default-rotation2" : 0.0,
                      "default-scale0" : 1.0,
                      "default-scale1" : 1.0,
                      "default-scale2" : 1.0,
                      "default-shear0" : 0.0,
                      "default-shear1" : 0.0,
                      "default-shear2" : 0.0,
                      "default-translation0" : 0.0,
                      "default-translation1" : 0.0,
                      "default-translation2" : 0.0,
                      "default-width" : 320.0
                    },
                    "animationTracks" : {

                    }
                  },
                  {
                    "id" : 209,
                    "_type" : "Callout",
                    "def" : {
                        "kind" : "TypeWinSVG",
                        "shape" : "",
                        "style" : "",
                        "DrawTime" : 1.0,
                        "borderColorBlue" : 0.0,
                        "borderColorGreen" : 0.0,
                        "borderColorRed" : 1.0,
                        "borderWidth" : 5.0,
                        "enable-ligatures" : 0.0,
                        "flipOnXAxis" : 0.0,
                        "flipOnYAxis" : 0.0,
                        "height" : 180.0,
                        "width" : 320.0,
                        "filename" : "C:\\Users\\Angelo\\AppData\\Local\\TechSmith\\Camtasia Studio\\23.0\\Features\\Tools\\Annotations\\Defaults\\anim_arrow.svg",
                        "name" : "",
                        "resize-behavior" : "resizeCallout",
                        "xmlContent" : "﻿<?xml version=\"1.0\" encoding=\"utf-8\"?>\n<!-- Generator: Adobe Illustrator 13.0.2, SVG Export Plug-In . SVG Version: 6.00 Build 14948)  -->\n<!DOCTYPE svg PUBLIC \"-//W3C//DTD SVG 1.1//EN\" \"http://www.w3.org/Graphics/SVG/1.1/DTD/svg11.dtd\">\n<svg version=\"1.1\" id=\"Layer_1\" xmlns=\"http://www.w3.org/2000/svg\" xmlns:xlink=\"http://www.w3.org/1999/xlink\" x=\"0px\" y=\"0px\"\n\t width=\"151.268px\" height=\"53px\" viewBox=\"0 0 151.268 53\" enable-background=\"new 0 0 151.268 53\" xml:space=\"preserve\">\n<path fill=\"none\" d=\"M12.852,24.926c0,0,85.25-8.838,118.688-2.996\"/>\n<path fill=\"none\" d=\"M93.169,2.713c0,0,46.52,8.657,49.944,18.729c3.424,10.071-43.753,26.022-43.753,26.022\"/>\n</svg>\n"
                    },
                    "attributes" : {
                      "ident" : "",
                      "autoRotateText" : true
                    },
                    "parameters" : {
                      "translation0" : 339.735022045474,
                      "translation1" : -77.4578542405119,
                      "rotation2" : 0.19204801724073,
                      "shear0" : -6.16660628810381e-17,
                      "scale0" : 0.205417598059469,
                      "scale1" : 0.177002583979328,
                      "sourceCrop0" : 0.0,
                      "sourceCrop1" : 0.0,
                      "sourceCrop2" : 0.0,
                      "sourceCrop3" : 0.0,
                      "geometryCrop0" : 0.0,
                      "geometryCrop1" : 0.0,
                      "geometryCrop2" : 0.0,
                      "geometryCrop3" : 0.0
                    },
                    "leftEdgeMods" : [
                      {
                        "group" : "DrawPercentageFade",
                        "duration" : 705600000,
                        "parameters" : [
                          {
                            "name" : "DrawTime",
                              "func" : "FadeInFunc"
                            }
                        ]
                      }
                    ],
                    "effects" : [

                    ],
                    "start" : 2174306400000,
                    "duration" : 3528000000,
                    "mediaStart" : 0,
                    "mediaDuration" : 3528000000,
                    "scalar" : 1,
                    "metadata" : {
                      "clipSpeedAttribute" : false,
                      "default-anchor0" : 0.0,
                      "default-anchor1" : 0.0,
                      "default-anchor2" : 0.0,
                      "default-height" : 180.0,
                      "default-rotation0" : 0.0,
                      "default-rotation1" : 0.0,
                      "default-rotation2" : 0.0,
                      "default-scale0" : 1.0,
                      "default-scale1" : 1.0,
                      "default-scale2" : 1.0,
                      "default-shear0" : 0.0,
                      "default-shear1" : 0.0,
                      "default-shear2" : 0.0,
                      "default-translation0" : 0.0,
                      "default-translation1" : 0.0,
                      "default-translation2" : 0.0,
                      "default-width" : 320.0
                    },
                    "animationTracks" : {

                    }
                  },
                  {
                    "id" : 210,
                    "_type" : "Callout",
                    "def" : {
                        "kind" : "TypeWinSVG",
                        "shape" : "",
                        "style" : "",
                        "DrawTime" : 1.0,
                        "borderColorBlue" : 0.0,
                        "borderColorGreen" : 0.0,
                        "borderColorRed" : 1.0,
                        "borderWidth" : 5.0,
                        "enable-ligatures" : 0.0,
                        "flipOnXAxis" : 0.0,
                        "flipOnYAxis" : 0.0,
                        "height" : 180.0,
                        "width" : 320.0,
                        "filename" : "C:\\Users\\Angelo\\AppData\\Local\\TechSmith\\Camtasia Studio\\23.0\\Features\\Tools\\Annotations\\Defaults\\anim_drawnperfectrectangle.svg",
                        "name" : "",
                        "resize-behavior" : "resizeCallout",
                        "xmlContent" : "﻿<?xml version=\"1.0\" encoding=\"utf-8\"?>\n<!DOCTYPE svg PUBLIC \"-//W3C//DTD SVG 1.1//EN\" \"http://www.w3.org/Graphics/SVG/1.1/DTD/svg11.dtd\">\n<svg version=\"1.1\" x=\"0px\" y=\"0px\" width=\"100px\" height=\"100px\" xml:space=\"preserve\">\n<path fill=\"none\" d=\"M 10 10 L 10 90 L 90 90 L 90 10 Z\"/>\n</svg>\n"
                    },
                    "attributes" : {
                      "ident" : "",
                      "autoRotateText" : true
                    },
                    "parameters" : {
                      "translation0" : -133.837209302326,
                      "translation1" : -10.4651162790697,
                      "scale0" : 1.16351744186047,
                      "scale1" : 0.521963824289405,
                      "sourceCrop0" : 0.0,
                      "sourceCrop1" : 0.0,
                      "sourceCrop2" : 0.0,
                      "sourceCrop3" : 0.0,
                      "geometryCrop0" : 0.0,
                      "geometryCrop1" : 0.0,
                      "geometryCrop2" : 0.0,
                      "geometryCrop3" : 0.0
                    },
                    "leftEdgeMods" : [
                      {
                        "group" : "DrawPercentageFade",
                        "duration" : 705600000,
                        "parameters" : [
                          {
                            "name" : "DrawTime",
                              "func" : "FadeInFunc"
                            }
                        ]
                      }
                    ],
                    "effects" : [

                    ],
                    "start" : 2326151520000,
                    "duration" : 3528000000,
                    "mediaStart" : 0,
                    "mediaDuration" : 3528000000,
                    "scalar" : 1,
                    "metadata" : {
                      "clipSpeedAttribute" : false,
                      "default-anchor0" : 0.0,
                      "default-anchor1" : 0.0,
                      "default-anchor2" : 0.0,
                      "default-height" : 180.0,
                      "default-rotation0" : 0.0,
                      "default-rotation1" : 0.0,
                      "default-rotation2" : 0.0,
                      "default-scale0" : 1.0,
                      "default-scale1" : 1.0,
                      "default-scale2" : 1.0,
                      "default-shear0" : 0.0,
                      "default-shear1" : 0.0,
                      "default-shear2" : 0.0,
                      "default-translation0" : 0.0,
                      "default-translation1" : 0.0,
                      "default-translation2" : 0.0,
                      "default-width" : 320.0
                    },
                    "animationTracks" : {

                    }
                  },
                  {
                    "id" : 211,
                    "_type" : "Callout",
                    "def" : {
                        "kind" : "TypeWinSVG",
                        "shape" : "",
                        "style" : "",
                        "DrawTime" : 1.0,
                        "borderColorBlue" : 0.0,
                        "borderColorGreen" : 0.0,
                        "borderColorRed" : 1.0,
                        "borderWidth" : 5.0,
                        "enable-ligatures" : 0.0,
                        "flipOnXAxis" : 0.0,
                        "flipOnYAxis" : 0.0,
                        "height" : 180.0,
                        "width" : 320.0,
                        "filename" : "C:\\Users\\Angelo\\AppData\\Local\\TechSmith\\Camtasia Studio\\23.0\\Features\\Tools\\Annotations\\Defaults\\anim_drawnperfectrectangle.svg",
                        "name" : "",
                        "resize-behavior" : "resizeCallout",
                        "xmlContent" : "﻿<?xml version=\"1.0\" encoding=\"utf-8\"?>\n<!DOCTYPE svg PUBLIC \"-//W3C//DTD SVG 1.1//EN\" \"http://www.w3.org/Graphics/SVG/1.1/DTD/svg11.dtd\">\n<svg version=\"1.1\" x=\"0px\" y=\"0px\" width=\"100px\" height=\"100px\" xml:space=\"preserve\">\n<path fill=\"none\" d=\"M 10 10 L 10 90 L 90 90 L 90 10 Z\"/>\n</svg>\n"
                    },
                    "attributes" : {
                      "ident" : "",
                      "autoRotateText" : true
                    },
                    "parameters" : {
                      "translation0" : -151.162790697675,
                      "translation1" : -209.883720930233,
                      "scale0" : 0.353197674418605,
                      "scale1" : 0.851421188630491,
                      "sourceCrop0" : 0.0,
                      "sourceCrop1" : 0.0,
                      "sourceCrop2" : 0.0,
                      "sourceCrop3" : 0.0,
                      "geometryCrop0" : 0.0,
                      "geometryCrop1" : 0.0,
                      "geometryCrop2" : 0.0,
                      "geometryCrop3" : 0.0
                    },
                    "leftEdgeMods" : [
                      {
                        "group" : "DrawPercentageFade",
                        "duration" : 705600000,
                        "parameters" : [
                          {
                            "name" : "DrawTime",
                              "func" : "FadeInFunc"
                            }
                        ]
                      }
                    ],
                    "effects" : [

                    ],
                    "start" : 2349295200000,
                    "duration" : 3528000000,
                    "mediaStart" : 0,
                    "mediaDuration" : 3528000000,
                    "scalar" : 1,
                    "metadata" : {
                      "clipSpeedAttribute" : false,
                      "default-anchor0" : 0.0,
                      "default-anchor1" : 0.0,
                      "default-anchor2" : 0.0,
                      "default-height" : 180.0,
                      "default-rotation0" : 0.0,
                      "default-rotation1" : 0.0,
                      "default-rotation2" : 0.0,
                      "default-scale0" : 1.0,
                      "default-scale1" : 1.0,
                      "default-scale2" : 1.0,
                      "default-shear0" : 0.0,
                      "default-shear1" : 0.0,
                      "default-shear2" : 0.0,
                      "default-translation0" : 0.0,
                      "default-translation1" : 0.0,
                      "default-translation2" : 0.0,
                      "default-width" : 320.0
                    },
                    "animationTracks" : {

                    }
                  },
                  {
                    "id" : 212,
                    "_type" : "Callout",
                    "def" : {
                        "kind" : "TypeWinSVG",
                        "shape" : "",
                        "style" : "",
                        "DrawTime" : 1.0,
                        "borderColorBlue" : 0.0,
                        "borderColorGreen" : 0.0,
                        "borderColorRed" : 1.0,
                        "borderWidth" : 5.0,
                        "enable-ligatures" : 0.0,
                        "flipOnXAxis" : 0.0,
                        "flipOnYAxis" : 0.0,
                        "height" : 180.0,
                        "width" : 320.0,
                        "filename" : "C:\\Users\\Angelo\\AppData\\Local\\TechSmith\\Camtasia Studio\\23.0\\Features\\Tools\\Annotations\\Defaults\\anim_drawnperfectrectangle.svg",
                        "name" : "",
                        "resize-behavior" : "resizeCallout",
                        "xmlContent" : "﻿<?xml version=\"1.0\" encoding=\"utf-8\"?>\n<!DOCTYPE svg PUBLIC \"-//W3C//DTD SVG 1.1//EN\" \"http://www.w3.org/Graphics/SVG/1.1/DTD/svg11.dtd\">\n<svg version=\"1.1\" x=\"0px\" y=\"0px\" width=\"100px\" height=\"100px\" xml:space=\"preserve\">\n<path fill=\"none\" d=\"M 10 10 L 10 90 L 90 90 L 90 10 Z\"/>\n</svg>\n"
                    },
                    "attributes" : {
                      "ident" : "",
                      "autoRotateText" : true
                    },
                    "parameters" : {
                      "translation0" : -98.0232558139535,
                      "translation1" : -208.139534883721,
                      "scale0" : 0.612645348837209,
                      "scale1" : 0.728682170542636,
                      "sourceCrop0" : 0.0,
                      "sourceCrop1" : 0.0,
                      "sourceCrop2" : 0.0,
                      "sourceCrop3" : 0.0,
                      "geometryCrop0" : 0.0,
                      "geometryCrop1" : 0.0,
                      "geometryCrop2" : 0.0,
                      "geometryCrop3" : 0.0
                    },
                    "leftEdgeMods" : [
                      {
                        "group" : "DrawPercentageFade",
                        "duration" : 705600000,
                        "parameters" : [
                          {
                            "name" : "DrawTime",
                              "func" : "FadeInFunc"
                            }
                        ]
                      }
                    ],
                    "effects" : [

                    ],
                    "start" : 2393512800000,
                    "duration" : 3528000000,
                    "mediaStart" : 0,
                    "mediaDuration" : 3528000000,
                    "scalar" : 1,
                    "metadata" : {
                      "clipSpeedAttribute" : false,
                      "default-anchor0" : 0.0,
                      "default-anchor1" : 0.0,
                      "default-anchor2" : 0.0,
                      "default-height" : 180.0,
                      "default-rotation0" : 0.0,
                      "default-rotation1" : 0.0,
                      "default-rotation2" : 0.0,
                      "default-scale0" : 1.0,
                      "default-scale1" : 1.0,
                      "default-scale2" : 1.0,
                      "default-shear0" : 0.0,
                      "default-shear1" : 0.0,
                      "default-shear2" : 0.0,
                      "default-translation0" : 0.0,
                      "default-translation1" : 0.0,
                      "default-translation2" : 0.0,
                      "default-width" : 320.0
                    },
                    "animationTracks" : {

                    }
                  },
                  {
                    "id" : 213,
                    "_type" : "Callout",
                    "def" : {
                        "kind" : "TypeWinSVG",
                        "shape" : "",
                        "style" : "",
                        "DrawTime" : 1.0,
                        "borderColorBlue" : 0.0,
                        "borderColorGreen" : 0.0,
                        "borderColorRed" : 1.0,
                        "borderWidth" : 5.0,
                        "enable-ligatures" : 0.0,
                        "flipOnXAxis" : 0.0,
                        "flipOnYAxis" : 0.0,
                        "height" : 180.0,
                        "width" : 320.0,
                        "filename" : "C:\\Users\\Angelo\\AppData\\Local\\TechSmith\\Camtasia Studio\\23.0\\Features\\Tools\\Annotations\\Defaults\\anim_arrow.svg",
                        "name" : "",
                        "resize-behavior" : "resizeCallout",
                        "xmlContent" : "﻿<?xml version=\"1.0\" encoding=\"utf-8\"?>\n<!-- Generator: Adobe Illustrator 13.0.2, SVG Export Plug-In . SVG Version: 6.00 Build 14948)  -->\n<!DOCTYPE svg PUBLIC \"-//W3C//DTD SVG 1.1//EN\" \"http://www.w3.org/Graphics/SVG/1.1/DTD/svg11.dtd\">\n<svg version=\"1.1\" id=\"Layer_1\" xmlns=\"http://www.w3.org/2000/svg\" xmlns:xlink=\"http://www.w3.org/1999/xlink\" x=\"0px\" y=\"0px\"\n\t width=\"151.268px\" height=\"53px\" viewBox=\"0 0 151.268 53\" enable-background=\"new 0 0 151.268 53\" xml:space=\"preserve\">\n<path fill=\"none\" d=\"M12.852,24.926c0,0,85.25-8.838,118.688-2.996\"/>\n<path fill=\"none\" d=\"M93.169,2.713c0,0,46.52,8.657,49.944,18.729c3.424,10.071-43.753,26.022-43.753,26.022\"/>\n</svg>\n"
                    },
                    "attributes" : {
                      "ident" : "",
                      "autoRotateText" : true
                    },
                    "parameters" : {
                      "translation0" : -538.720930232558,
                      "translation1" : 42.8827872691631,
                      "rotation2" : -0.345555580581712,
                      "shear0" : -3.57177362483851e-16,
                      "scale0" : 0.170706001606722,
                      "scale1" : 0.397158817772488,
                      "sourceCrop0" : 0.0,
                      "sourceCrop1" : 0.0,
                      "sourceCrop2" : 0.0,
                      "sourceCrop3" : 0.0,
                      "geometryCrop0" : 0.0,
                      "geometryCrop1" : 0.0,
                      "geometryCrop2" : 0.0,
                      "geometryCrop3" : 0.0
                    },
                    "leftEdgeMods" : [
                      {
                        "group" : "DrawPercentageFade",
                        "duration" : 705600000,
                        "parameters" : [
                          {
                            "name" : "DrawTime",
                              "func" : "FadeInFunc"
                            }
                        ]
                      }
                    ],
                    "effects" : [

                    ],
                    "start" : 2430815520000,
                    "duration" : 3528000000,
                    "mediaStart" : 0,
                    "mediaDuration" : 3528000000,
                    "scalar" : 1,
                    "metadata" : {
                      "clipSpeedAttribute" : false,
                      "default-anchor0" : 0.0,
                      "default-anchor1" : 0.0,
                      "default-anchor2" : 0.0,
                      "default-height" : 180.0,
                      "default-rotation0" : 0.0,
                      "default-rotation1" : 0.0,
                      "default-rotation2" : 0.0,
                      "default-scale0" : 1.0,
                      "default-scale1" : 1.0,
                      "default-scale2" : 1.0,
                      "default-shear0" : 0.0,
                      "default-shear1" : 0.0,
                      "default-shear2" : 0.0,
                      "default-translation0" : 0.0,
                      "default-translation1" : 0.0,
                      "default-translation2" : 0.0,
                      "default-width" : 320.0
                    },
                    "animationTracks" : {

                    }
                  },
                  {
                    "id" : 214,
                    "_type" : "Callout",
                    "def" : {
                        "kind" : "TypeWinSVG",
                        "shape" : "",
                        "style" : "",
                        "DrawTime" : 1.0,
                        "borderColorBlue" : 0.0,
                        "borderColorGreen" : 0.0,
                        "borderColorRed" : 1.0,
                        "borderWidth" : 5.0,
                        "enable-ligatures" : 0.0,
                        "flipOnXAxis" : 0.0,
                        "flipOnYAxis" : 0.0,
                        "height" : 180.0,
                        "width" : 320.0,
                        "filename" : "C:\\Users\\Angelo\\AppData\\Local\\TechSmith\\Camtasia Studio\\23.0\\Features\\Tools\\Annotations\\Defaults\\anim_drawnperfectrectangle.svg",
                        "name" : "",
                        "resize-behavior" : "resizeCallout",
                        "xmlContent" : "﻿<?xml version=\"1.0\" encoding=\"utf-8\"?>\n<!DOCTYPE svg PUBLIC \"-//W3C//DTD SVG 1.1//EN\" \"http://www.w3.org/Graphics/SVG/1.1/DTD/svg11.dtd\">\n<svg version=\"1.1\" x=\"0px\" y=\"0px\" width=\"100px\" height=\"100px\" xml:space=\"preserve\">\n<path fill=\"none\" d=\"M 10 10 L 10 90 L 90 90 L 90 10 Z\"/>\n</svg>\n"
                    },
                    "attributes" : {
                      "ident" : "",
                      "autoRotateText" : true
                    },
                    "parameters" : {
                      "translation0" : -397.674418604651,
                      "translation1" : -90.6976744186048,
                      "scale0" : 0.934593023255814,
                      "scale1" : 0.664082687338502,
                      "sourceCrop0" : 0.0,
                      "sourceCrop1" : 0.0,
                      "sourceCrop2" : 0.0,
                      "sourceCrop3" : 0.0,
                      "geometryCrop0" : 0.0,
                      "geometryCrop1" : 0.0,
                      "geometryCrop2" : 0.0,
                      "geometryCrop3" : 0.0
                    },
                    "leftEdgeMods" : [
                      {
                        "group" : "DrawPercentageFade",
                        "duration" : 705600000,
                        "parameters" : [
                          {
                            "name" : "DrawTime",
                              "func" : "FadeInFunc"
                            }
                        ]
                      }
                    ],
                    "effects" : [

                    ],
                    "start" : 2694027840000,
                    "duration" : 3528000000,
                    "mediaStart" : 0,
                    "mediaDuration" : 3528000000,
                    "scalar" : 1,
                    "metadata" : {
                      "clipSpeedAttribute" : false,
                      "default-anchor0" : 0.0,
                      "default-anchor1" : 0.0,
                      "default-anchor2" : 0.0,
                      "default-height" : 180.0,
                      "default-rotation0" : 0.0,
                      "default-rotation1" : 0.0,
                      "default-rotation2" : 0.0,
                      "default-scale0" : 1.0,
                      "default-scale1" : 1.0,
                      "default-scale2" : 1.0,
                      "default-shear0" : 0.0,
                      "default-shear1" : 0.0,
                      "default-shear2" : 0.0,
                      "default-translation0" : 0.0,
                      "default-translation1" : 0.0,
                      "default-translation2" : 0.0,
                      "default-width" : 320.0
                    },
                    "animationTracks" : {

                    }
                  },
                  {
                    "id" : 215,
                    "_type" : "Callout",
                    "def" : {
                        "kind" : "TypeWinSVG",
                        "shape" : "",
                        "style" : "",
                        "DrawTime" : 1.0,
                        "borderColorBlue" : 0.0,
                        "borderColorGreen" : 0.0,
                        "borderColorRed" : 1.0,
                        "borderWidth" : 5.0,
                        "enable-ligatures" : 0.0,
                        "flipOnXAxis" : 0.0,
                        "flipOnYAxis" : 0.0,
                        "height" : 180.0,
                        "width" : 320.0,
                        "filename" : "C:\\Users\\Angelo\\AppData\\Local\\TechSmith\\Camtasia Studio\\23.0\\Features\\Tools\\Annotations\\Defaults\\anim_drawnperfectrectangle.svg",
                        "name" : "",
                        "resize-behavior" : "resizeCallout",
                        "xmlContent" : "﻿<?xml version=\"1.0\" encoding=\"utf-8\"?>\n<!DOCTYPE svg PUBLIC \"-//W3C//DTD SVG 1.1//EN\" \"http://www.w3.org/Graphics/SVG/1.1/DTD/svg11.dtd\">\n<svg version=\"1.1\" x=\"0px\" y=\"0px\" width=\"100px\" height=\"100px\" xml:space=\"preserve\">\n<path fill=\"none\" d=\"M 10 10 L 10 90 L 90 90 L 90 10 Z\"/>\n</svg>\n"
                    },
                    "attributes" : {
                      "ident" : "",
                      "autoRotateText" : true
                    },
                    "parameters" : {
                      "translation0" : 452.674418604651,
                      "translation1" : -16.2790697674419,
                      "scale0" : 0.923691860465116,
                      "scale1" : 1.55555555555556,
                      "sourceCrop0" : 0.0,
                      "sourceCrop1" : 0.0,
                      "sourceCrop2" : 0.0,
                      "sourceCrop3" : 0.0,
                      "geometryCrop0" : 0.0,
                      "geometryCrop1" : 0.0,
                      "geometryCrop2" : 0.0,
                      "geometryCrop3" : 0.0
                    },
                    "leftEdgeMods" : [
                      {
                        "group" : "DrawPercentageFade",
                        "duration" : 705600000,
                        "parameters" : [
                          {
                            "name" : "DrawTime",
                              "func" : "FadeInFunc"
                            }
                        ]
                      }
                    ],
                    "effects" : [

                    ],
                    "start" : 2762494560000,
                    "duration" : 3528000000,
                    "mediaStart" : 0,
                    "mediaDuration" : 3528000000,
                    "scalar" : 1,
                    "metadata" : {
                      "clipSpeedAttribute" : false,
                      "default-anchor0" : 0.0,
                      "default-anchor1" : 0.0,
                      "default-anchor2" : 0.0,
                      "default-height" : 180.0,
                      "default-rotation0" : 0.0,
                      "default-rotation1" : 0.0,
                      "default-rotation2" : 0.0,
                      "default-scale0" : 1.0,
                      "default-scale1" : 1.0,
                      "default-scale2" : 1.0,
                      "default-shear0" : 0.0,
                      "default-shear1" : 0.0,
                      "default-shear2" : 0.0,
                      "default-translation0" : 0.0,
                      "default-translation1" : 0.0,
                      "default-translation2" : 0.0,
                      "default-width" : 320.0
                    },
                    "animationTracks" : {

                    }
                  },
                  {
                    "id" : 216,
                    "_type" : "Callout",
                    "def" : {
                        "kind" : "TypeWinSVG",
                        "shape" : "",
                        "style" : "",
                        "DrawTime" : 1.0,
                        "borderColorBlue" : 0.0,
                        "borderColorGreen" : 0.0,
                        "borderColorRed" : 1.0,
                        "borderWidth" : 5.0,
                        "enable-ligatures" : 0.0,
                        "flipOnXAxis" : 0.0,
                        "flipOnYAxis" : 0.0,
                        "height" : 180.0,
                        "width" : 320.0,
                        "filename" : "C:\\Users\\Angelo\\AppData\\Local\\TechSmith\\Camtasia Studio\\23.0\\Features\\Tools\\Annotations\\Defaults\\anim_arrow.svg",
                        "name" : "",
                        "resize-behavior" : "resizeCallout",
                        "xmlContent" : "﻿<?xml version=\"1.0\" encoding=\"utf-8\"?>\n<!-- Generator: Adobe Illustrator 13.0.2, SVG Export Plug-In . SVG Version: 6.00 Build 14948)  -->\n<!DOCTYPE svg PUBLIC \"-//W3C//DTD SVG 1.1//EN\" \"http://www.w3.org/Graphics/SVG/1.1/DTD/svg11.dtd\">\n<svg version=\"1.1\" id=\"Layer_1\" xmlns=\"http://www.w3.org/2000/svg\" xmlns:xlink=\"http://www.w3.org/1999/xlink\" x=\"0px\" y=\"0px\"\n\t width=\"151.268px\" height=\"53px\" viewBox=\"0 0 151.268 53\" enable-background=\"new 0 0 151.268 53\" xml:space=\"preserve\">\n<path fill=\"none\" d=\"M12.852,24.926c0,0,85.25-8.838,118.688-2.996\"/>\n<path fill=\"none\" d=\"M93.169,2.713c0,0,46.52,8.657,49.944,18.729c3.424,10.071-43.753,26.022-43.753,26.022\"/>\n</svg>\n"
                    },
                    "attributes" : {
                      "ident" : "",
                      "autoRotateText" : true
                    },
                    "parameters" : {
                      "translation0" : -226.744186046512,
                      "translation1" : 110.348837209302,
                      "scale0" : 0.316860465116279,
                      "scale1" : 0.321705426356589,
                      "sourceCrop0" : 0.0,
                      "sourceCrop1" : 0.0,
                      "sourceCrop2" : 0.0,
                      "sourceCrop3" : 0.0,
                      "geometryCrop0" : 0.0,
                      "geometryCrop1" : 0.0,
                      "geometryCrop2" : 0.0,
                      "geometryCrop3" : 0.0
                    },
                    "leftEdgeMods" : [
                      {
                        "group" : "DrawPercentageFade",
                        "duration" : 705600000,
                        "parameters" : [
                          {
                            "name" : "DrawTime",
                              "func" : "FadeInFunc"
                            }
                        ]
                      }
                    ],
                    "effects" : [

                    ],
                    "start" : 2777171040000,
                    "duration" : 3528000000,
                    "mediaStart" : 0,
                    "mediaDuration" : 3528000000,
                    "scalar" : 1,
                    "metadata" : {
                      "clipSpeedAttribute" : false,
                      "default-anchor0" : 0.0,
                      "default-anchor1" : 0.0,
                      "default-anchor2" : 0.0,
                      "default-height" : 180.0,
                      "default-rotation0" : 0.0,
                      "default-rotation1" : 0.0,
                      "default-rotation2" : 0.0,
                      "default-scale0" : 1.0,
                      "default-scale1" : 1.0,
                      "default-scale2" : 1.0,
                      "default-shear0" : 0.0,
                      "default-shear1" : 0.0,
                      "default-shear2" : 0.0,
                      "default-translation0" : 0.0,
                      "default-translation1" : 0.0,
                      "default-translation2" : 0.0,
                      "default-width" : 320.0
                    },
                    "animationTracks" : {

                    }
                  },
                  {
                    "id" : 217,
                    "_type" : "Callout",
                    "def" : {
                        "kind" : "TypeWinSVG",
                        "shape" : "",
                        "style" : "",
                        "DrawTime" : 1.0,
                        "borderColorBlue" : 0.0,
                        "borderColorGreen" : 0.0,
                        "borderColorRed" : 1.0,
                        "borderWidth" : 5.0,
                        "enable-ligatures" : 0.0,
                        "flipOnXAxis" : 0.0,
                        "flipOnYAxis" : 0.0,
                        "height" : 180.0,
                        "width" : 320.0,
                        "filename" : "C:\\Users\\Angelo\\AppData\\Local\\TechSmith\\Camtasia Studio\\23.0\\Features\\Tools\\Annotations\\Defaults\\anim_arrow.svg",
                        "name" : "",
                        "resize-behavior" : "resizeCallout",
                        "xmlContent" : "﻿<?xml version=\"1.0\" encoding=\"utf-8\"?>\n<!-- Generator: Adobe Illustrator 13.0.2, SVG Export Plug-In . SVG Version: 6.00 Build 14948)  -->\n<!DOCTYPE svg PUBLIC \"-//W3C//DTD SVG 1.1//EN\" \"http://www.w3.org/Graphics/SVG/1.1/DTD/svg11.dtd\">\n<svg version=\"1.1\" id=\"Layer_1\" xmlns=\"http://www.w3.org/2000/svg\" xmlns:xlink=\"http://www.w3.org/1999/xlink\" x=\"0px\" y=\"0px\"\n\t width=\"151.268px\" height=\"53px\" viewBox=\"0 0 151.268 53\" enable-background=\"new 0 0 151.268 53\" xml:space=\"preserve\">\n<path fill=\"none\" d=\"M12.852,24.926c0,0,85.25-8.838,118.688-2.996\"/>\n<path fill=\"none\" d=\"M93.169,2.713c0,0,46.52,8.657,49.944,18.729c3.424,10.071-43.753,26.022-43.753,26.022\"/>\n</svg>\n"
                    },
                    "attributes" : {
                      "ident" : "",
                      "autoRotateText" : true
                    },
                    "parameters" : {
                      "translation0" : -94.1860465116279,
                      "translation1" : 190.116279069767,
                      "rotation2" : -2.68943879130402,
                      "shear0" : -3.85834888720854e-16,
                      "scale0" : 0.164244186046512,
                      "scale1" : 0.347545219638243,
                      "sourceCrop0" : 0.0,
                      "sourceCrop1" : 0.0,
                      "sourceCrop2" : 0.0,
                      "sourceCrop3" : 0.0,
                      "geometryCrop0" : 0.0,
                      "geometryCrop1" : 0.0,
                      "geometryCrop2" : 0.0,
                      "geometryCrop3" : 0.0
                    },
                    "leftEdgeMods" : [
                      {
                        "group" : "DrawPercentageFade",
                        "duration" : 705600000,
                        "parameters" : [
                          {
                            "name" : "DrawTime",
                              "func" : "FadeInFunc"
                            }
                        ]
                      }
                    ],
                    "effects" : [

                    ],
                    "start" : 2849730240000,
                    "duration" : 3528000000,
                    "mediaStart" : 0,
                    "mediaDuration" : 3528000000,
                    "scalar" : 1,
                    "metadata" : {
                      "clipSpeedAttribute" : false,
                      "default-anchor0" : 0.0,
                      "default-anchor1" : 0.0,
                      "default-anchor2" : 0.0,
                      "default-height" : 180.0,
                      "default-rotation0" : 0.0,
                      "default-rotation1" : 0.0,
                      "default-rotation2" : 0.0,
                      "default-scale0" : 1.0,
                      "default-scale1" : 1.0,
                      "default-scale2" : 1.0,
                      "default-shear0" : 0.0,
                      "default-shear1" : 0.0,
                      "default-shear2" : 0.0,
                      "default-translation0" : 0.0,
                      "default-translation1" : 0.0,
                      "default-translation2" : 0.0,
                      "default-width" : 320.0
                    },
                    "animationTracks" : {

                    }
                  },
                  {
                    "id" : 218,
                    "_type" : "Callout",
                    "def" : {
                        "kind" : "TypeWinSVG",
                        "shape" : "",
                        "style" : "",
                        "DrawTime" : 1.0,
                        "borderColorBlue" : 0.0,
                        "borderColorGreen" : 0.0,
                        "borderColorRed" : 1.0,
                        "borderWidth" : 5.0,
                        "enable-ligatures" : 0.0,
                        "flipOnXAxis" : 0.0,
                        "flipOnYAxis" : 0.0,
                        "height" : 180.0,
                        "width" : 320.0,
                        "filename" : "C:\\Users\\Angelo\\AppData\\Local\\TechSmith\\Camtasia Studio\\23.0\\Features\\Tools\\Annotations\\Defaults\\anim_arrow.svg",
                        "name" : "",
                        "resize-behavior" : "resizeCallout",
                        "xmlContent" : "﻿<?xml version=\"1.0\" encoding=\"utf-8\"?>\n<!-- Generator: Adobe Illustrator 13.0.2, SVG Export Plug-In . SVG Version: 6.00 Build 14948)  -->\n<!DOCTYPE svg PUBLIC \"-//W3C//DTD SVG 1.1//EN\" \"http://www.w3.org/Graphics/SVG/1.1/DTD/svg11.dtd\">\n<svg version=\"1.1\" id=\"Layer_1\" xmlns=\"http://www.w3.org/2000/svg\" xmlns:xlink=\"http://www.w3.org/1999/xlink\" x=\"0px\" y=\"0px\"\n\t width=\"151.268px\" height=\"53px\" viewBox=\"0 0 151.268 53\" enable-background=\"new 0 0 151.268 53\" xml:space=\"preserve\">\n<path fill=\"none\" d=\"M12.852,24.926c0,0,85.25-8.838,118.688-2.996\"/>\n<path fill=\"none\" d=\"M93.169,2.713c0,0,46.52,8.657,49.944,18.729c3.424,10.071-43.753,26.022-43.753,26.022\"/>\n</svg>\n"
                    },
                    "attributes" : {
                      "ident" : "",
                      "autoRotateText" : true
                    },
                    "parameters" : {
                      "translation0" : -263.953488372093,
                      "translation1" : -51.5116279069767,
                      "rotation2" : 0.118489959158138,
                      "shear0" : 1.51249967583261e-17,
                      "scale0" : 0.338662790697674,
                      "scale1" : 0.241602067183462,
                      "sourceCrop0" : 0.0,
                      "sourceCrop1" : 0.0,
                      "sourceCrop2" : 0.0,
                      "sourceCrop3" : 0.0,
                      "geometryCrop0" : 0.0,
                      "geometryCrop1" : 0.0,
                      "geometryCrop2" : 0.0,
                      "geometryCrop3" : 0.0
                    },
                    "leftEdgeMods" : [
                      {
                        "group" : "DrawPercentageFade",
                        "duration" : 705600000,
                        "parameters" : [
                          {
                            "name" : "DrawTime",
                              "func" : "FadeInFunc"
                            }
                        ]
                      }
                    ],
                    "effects" : [

                    ],
                    "start" : 2893336320000,
                    "duration" : 3528000000,
                    "mediaStart" : 0,
                    "mediaDuration" : 3528000000,
                    "scalar" : 1,
                    "metadata" : {
                      "clipSpeedAttribute" : false,
                      "default-anchor0" : 0.0,
                      "default-anchor1" : 0.0,
                      "default-anchor2" : 0.0,
                      "default-height" : 180.0,
                      "default-rotation0" : 0.0,
                      "default-rotation1" : 0.0,
                      "default-rotation2" : 0.0,
                      "default-scale0" : 1.0,
                      "default-scale1" : 1.0,
                      "default-scale2" : 1.0,
                      "default-shear0" : 0.0,
                      "default-shear1" : 0.0,
                      "default-shear2" : 0.0,
                      "default-translation0" : 0.0,
                      "default-translation1" : 0.0,
                      "default-translation2" : 0.0,
                      "default-width" : 320.0
                    },
                    "animationTracks" : {

                    }
                  },
                  {
                    "id" : 219,
                    "_type" : "Callout",
                    "def" : {
                        "kind" : "TypeWinSVG",
                        "shape" : "",
                        "style" : "",
                        "DrawTime" : 1.0,
                        "borderColorBlue" : 0.0,
                        "borderColorGreen" : 0.0,
                        "borderColorRed" : 1.0,
                        "borderWidth" : 5.0,
                        "enable-ligatures" : 0.0,
                        "flipOnXAxis" : 0.0,
                        "flipOnYAxis" : 0.0,
                        "height" : 180.0,
                        "width" : 320.0,
                        "filename" : "C:\\Users\\Angelo\\AppData\\Local\\TechSmith\\Camtasia Studio\\23.0\\Features\\Tools\\Annotations\\Defaults\\anim_arrow.svg",
                        "name" : "",
                        "resize-behavior" : "resizeCallout",
                        "xmlContent" : "﻿<?xml version=\"1.0\" encoding=\"utf-8\"?>\n<!-- Generator: Adobe Illustrator 13.0.2, SVG Export Plug-In . SVG Version: 6.00 Build 14948)  -->\n<!DOCTYPE svg PUBLIC \"-//W3C//DTD SVG 1.1//EN\" \"http://www.w3.org/Graphics/SVG/1.1/DTD/svg11.dtd\">\n<svg version=\"1.1\" id=\"Layer_1\" xmlns=\"http://www.w3.org/2000/svg\" xmlns:xlink=\"http://www.w3.org/1999/xlink\" x=\"0px\" y=\"0px\"\n\t width=\"151.268px\" height=\"53px\" viewBox=\"0 0 151.268 53\" enable-background=\"new 0 0 151.268 53\" xml:space=\"preserve\">\n<path fill=\"none\" d=\"M12.852,24.926c0,0,85.25-8.838,118.688-2.996\"/>\n<path fill=\"none\" d=\"M93.169,2.713c0,0,46.52,8.657,49.944,18.729c3.424,10.071-43.753,26.022-43.753,26.022\"/>\n</svg>\n"
                    },
                    "attributes" : {
                      "ident" : "",
                      "autoRotateText" : true
                    },
                    "parameters" : {
                      "translation0" : -254.651162790698,
                      "translation1" : -71.279069767442,
                      "scale0" : 0.251453488372093,
                      "scale1" : 0.164082687338502,
                      "sourceCrop0" : 0.0,
                      "sourceCrop1" : 0.0,
                      "sourceCrop2" : 0.0,
                      "sourceCrop3" : 0.0,
                      "geometryCrop0" : 0.0,
                      "geometryCrop1" : 0.0,
                      "geometryCrop2" : 0.0,
                      "geometryCrop3" : 0.0
                    },
                    "leftEdgeMods" : [
                      {
                        "group" : "DrawPercentageFade",
                        "duration" : 705600000,
                        "parameters" : [
                          {
                            "name" : "DrawTime",
                              "func" : "FadeInFunc"
                            }
                        ]
                      }
                    ],
                    "effects" : [

                    ],
                    "start" : 2905872480000,
                    "duration" : 3528000000,
                    "mediaStart" : 0,
                    "mediaDuration" : 3528000000,
                    "scalar" : 1,
                    "metadata" : {
                      "clipSpeedAttribute" : false,
                      "default-anchor0" : 0.0,
                      "default-anchor1" : 0.0,
                      "default-anchor2" : 0.0,
                      "default-height" : 180.0,
                      "default-rotation0" : 0.0,
                      "default-rotation1" : 0.0,
                      "default-rotation2" : 0.0,
                      "default-scale0" : 1.0,
                      "default-scale1" : 1.0,
                      "default-scale2" : 1.0,
                      "default-shear0" : 0.0,
                      "default-shear1" : 0.0,
                      "default-shear2" : 0.0,
                      "default-translation0" : 0.0,
                      "default-translation1" : 0.0,
                      "default-translation2" : 0.0,
                      "default-width" : 320.0
                    },
                    "animationTracks" : {

                    }
                  },
                  {
                    "id" : 220,
                    "_type" : "Callout",
                    "def" : {
                        "kind" : "TypeWinSVG",
                        "shape" : "",
                        "style" : "",
                        "DrawTime" : 1.0,
                        "borderColorBlue" : 0.0,
                        "borderColorGreen" : 0.0,
                        "borderColorRed" : 1.0,
                        "borderWidth" : 5.0,
                        "enable-ligatures" : 0.0,
                        "flipOnXAxis" : 0.0,
                        "flipOnYAxis" : 0.0,
                        "height" : 180.0,
                        "width" : 320.0,
                        "filename" : "C:\\Users\\Angelo\\AppData\\Local\\TechSmith\\Camtasia Studio\\23.0\\Features\\Tools\\Annotations\\Defaults\\anim_arrow.svg",
                        "name" : "",
                        "resize-behavior" : "resizeCallout",
                        "xmlContent" : "﻿<?xml version=\"1.0\" encoding=\"utf-8\"?>\n<!-- Generator: Adobe Illustrator 13.0.2, SVG Export Plug-In . SVG Version: 6.00 Build 14948)  -->\n<!DOCTYPE svg PUBLIC \"-//W3C//DTD SVG 1.1//EN\" \"http://www.w3.org/Graphics/SVG/1.1/DTD/svg11.dtd\">\n<svg version=\"1.1\" id=\"Layer_1\" xmlns=\"http://www.w3.org/2000/svg\" xmlns:xlink=\"http://www.w3.org/1999/xlink\" x=\"0px\" y=\"0px\"\n\t width=\"151.268px\" height=\"53px\" viewBox=\"0 0 151.268 53\" enable-background=\"new 0 0 151.268 53\" xml:space=\"preserve\">\n<path fill=\"none\" d=\"M12.852,24.926c0,0,85.25-8.838,118.688-2.996\"/>\n<path fill=\"none\" d=\"M93.169,2.713c0,0,46.52,8.657,49.944,18.729c3.424,10.071-43.753,26.022-43.753,26.022\"/>\n</svg>\n"
                    },
                    "attributes" : {
                      "ident" : "",
                      "autoRotateText" : true
                    },
                    "parameters" : {
                      "translation0" : -257.558139534884,
                      "translation1" : -20.8139534883721,
                      "scale0" : 0.284156976744186,
                      "scale1" : 0.231266149870801,
                      "sourceCrop0" : 0.0,
                      "sourceCrop1" : 0.0,
                      "sourceCrop2" : 0.0,
                      "sourceCrop3" : 0.0,
                      "geometryCrop0" : 0.0,
                      "geometryCrop1" : 0.0,
                      "geometryCrop2" : 0.0,
                      "geometryCrop3" : 0.0
                    },
                    "leftEdgeMods" : [
                      {
                        "group" : "DrawPercentageFade",
                        "duration" : 705600000,
                        "parameters" : [
                          {
                            "name" : "DrawTime",
                              "func" : "FadeInFunc"
                            }
                        ]
                      }
                    ],
                    "effects" : [

                    ],
                    "start" : 2914504320000,
                    "duration" : 3528000000,
                    "mediaStart" : 0,
                    "mediaDuration" : 3528000000,
                    "scalar" : 1,
                    "metadata" : {
                      "clipSpeedAttribute" : false,
                      "default-anchor0" : 0.0,
                      "default-anchor1" : 0.0,
                      "default-anchor2" : 0.0,
                      "default-height" : 180.0,
                      "default-rotation0" : 0.0,
                      "default-rotation1" : 0.0,
                      "default-rotation2" : 0.0,
                      "default-scale0" : 1.0,
                      "default-scale1" : 1.0,
                      "default-scale2" : 1.0,
                      "default-shear0" : 0.0,
                      "default-shear1" : 0.0,
                      "default-shear2" : 0.0,
                      "default-translation0" : 0.0,
                      "default-translation1" : 0.0,
                      "default-translation2" : 0.0,
                      "default-width" : 320.0
                    },
                    "animationTracks" : {

                    }
                  },
                  {
                    "id" : 221,
                    "_type" : "Callout",
                    "def" : {
                        "kind" : "TypeWinSVG",
                        "shape" : "",
                        "style" : "",
                        "DrawTime" : 1.0,
                        "borderColorBlue" : 0.0,
                        "borderColorGreen" : 0.0,
                        "borderColorRed" : 1.0,
                        "borderWidth" : 5.0,
                        "enable-ligatures" : 0.0,
                        "flipOnXAxis" : 0.0,
                        "flipOnYAxis" : 0.0,
                        "height" : 180.0,
                        "width" : 320.0,
                        "filename" : "C:\\Users\\Angelo\\AppData\\Local\\TechSmith\\Camtasia Studio\\23.0\\Features\\Tools\\Annotations\\Defaults\\anim_arrow.svg",
                        "name" : "",
                        "resize-behavior" : "resizeCallout",
                        "xmlContent" : "﻿<?xml version=\"1.0\" encoding=\"utf-8\"?>\n<!-- Generator: Adobe Illustrator 13.0.2, SVG Export Plug-In . SVG Version: 6.00 Build 14948)  -->\n<!DOCTYPE svg PUBLIC \"-//W3C//DTD SVG 1.1//EN\" \"http://www.w3.org/Graphics/SVG/1.1/DTD/svg11.dtd\">\n<svg version=\"1.1\" id=\"Layer_1\" xmlns=\"http://www.w3.org/2000/svg\" xmlns:xlink=\"http://www.w3.org/1999/xlink\" x=\"0px\" y=\"0px\"\n\t width=\"151.268px\" height=\"53px\" viewBox=\"0 0 151.268 53\" enable-background=\"new 0 0 151.268 53\" xml:space=\"preserve\">\n<path fill=\"none\" d=\"M12.852,24.926c0,0,85.25-8.838,118.688-2.996\"/>\n<path fill=\"none\" d=\"M93.169,2.713c0,0,46.52,8.657,49.944,18.729c3.424,10.071-43.753,26.022-43.753,26.022\"/>\n</svg>\n"
                    },
                    "attributes" : {
                      "ident" : "",
                      "autoRotateText" : true
                    },
                    "parameters" : {
                      "translation0" : -467.441860465116,
                      "translation1" : -196.511627906977,
                      "scale0" : 0.331395348837209,
                      "scale1" : 0.302325581395349,
                      "sourceCrop0" : 0.0,
                      "sourceCrop1" : 0.0,
                      "sourceCrop2" : 0.0,
                      "sourceCrop3" : 0.0,
                      "geometryCrop0" : 0.0,
                      "geometryCrop1" : 0.0,
                      "geometryCrop2" : 0.0,
                      "geometryCrop3" : 0.0
                    },
                    "leftEdgeMods" : [
                      {
                        "group" : "DrawPercentageFade",
                        "duration" : 705600000,
                        "parameters" : [
                          {
                            "name" : "DrawTime",
                              "func" : "FadeInFunc"
                            }
                        ]
                      }
                    ],
                    "effects" : [

                    ],
                    "start" : 3056729760000,
                    "duration" : 3528000000,
                    "mediaStart" : 0,
                    "mediaDuration" : 3528000000,
                    "scalar" : 1,
                    "metadata" : {
                      "clipSpeedAttribute" : false,
                      "default-anchor0" : 0.0,
                      "default-anchor1" : 0.0,
                      "default-anchor2" : 0.0,
                      "default-height" : 180.0,
                      "default-rotation0" : 0.0,
                      "default-rotation1" : 0.0,
                      "default-rotation2" : 0.0,
                      "default-scale0" : 1.0,
                      "default-scale1" : 1.0,
                      "default-scale2" : 1.0,
                      "default-shear0" : 0.0,
                      "default-shear1" : 0.0,
                      "default-shear2" : 0.0,
                      "default-translation0" : 0.0,
                      "default-translation1" : 0.0,
                      "default-translation2" : 0.0,
                      "default-width" : 320.0
                    },
                    "animationTracks" : {

                    }
                  },
                  {
                    "id" : 222,
                    "_type" : "Callout",
                    "def" : {
                        "kind" : "TypeWinSVG",
                        "shape" : "",
                        "style" : "",
                        "DrawTime" : 1.0,
                        "borderColorBlue" : 0.0,
                        "borderColorGreen" : 0.0,
                        "borderColorRed" : 1.0,
                        "borderWidth" : 5.0,
                        "enable-ligatures" : 0.0,
                        "flipOnXAxis" : 0.0,
                        "flipOnYAxis" : 0.0,
                        "height" : 180.0,
                        "width" : 320.0,
                        "filename" : "C:\\Users\\Angelo\\AppData\\Local\\TechSmith\\Camtasia Studio\\23.0\\Features\\Tools\\Annotations\\Defaults\\anim_arrow.svg",
                        "name" : "",
                        "resize-behavior" : "resizeCallout",
                        "xmlContent" : "﻿<?xml version=\"1.0\" encoding=\"utf-8\"?>\n<!-- Generator: Adobe Illustrator 13.0.2, SVG Export Plug-In . SVG Version: 6.00 Build 14948)  -->\n<!DOCTYPE svg PUBLIC \"-//W3C//DTD SVG 1.1//EN\" \"http://www.w3.org/Graphics/SVG/1.1/DTD/svg11.dtd\">\n<svg version=\"1.1\" id=\"Layer_1\" xmlns=\"http://www.w3.org/2000/svg\" xmlns:xlink=\"http://www.w3.org/1999/xlink\" x=\"0px\" y=\"0px\"\n\t width=\"151.268px\" height=\"53px\" viewBox=\"0 0 151.268 53\" enable-background=\"new 0 0 151.268 53\" xml:space=\"preserve\">\n<path fill=\"none\" d=\"M12.852,24.926c0,0,85.25-8.838,118.688-2.996\"/>\n<path fill=\"none\" d=\"M93.169,2.713c0,0,46.52,8.657,49.944,18.729c3.424,10.071-43.753,26.022-43.753,26.022\"/>\n</svg>\n"
                    },
                    "attributes" : {
                      "ident" : "",
                      "autoRotateText" : true
                    },
                    "parameters" : {
                      "translation0" : -477.093023255814,
                      "translation1" : -230.813953488372,
                      "scale0" : 0.385901162790698,
                      "scale1" : 0.257105943152455,
                      "sourceCrop0" : 0.0,
                      "sourceCrop1" : 0.0,
                      "sourceCrop2" : 0.0,
                      "sourceCrop3" : 0.0,
                      "geometryCrop0" : 0.0,
                      "geometryCrop1" : 0.0,
                      "geometryCrop2" : 0.0,
                      "geometryCrop3" : 0.0
                    },
                    "leftEdgeMods" : [
                      {
                        "group" : "DrawPercentageFade",
                        "duration" : 705600000,
                        "parameters" : [
                          {
                            "name" : "DrawTime",
                              "func" : "FadeInFunc"
                            }
                        ]
                      }
                    ],
                    "effects" : [

                    ],
                    "start" : 3062586240000,
                    "duration" : 3528000000,
                    "mediaStart" : 0,
                    "mediaDuration" : 3528000000,
                    "scalar" : 1,
                    "metadata" : {
                      "clipSpeedAttribute" : false,
                      "default-anchor0" : 0.0,
                      "default-anchor1" : 0.0,
                      "default-anchor2" : 0.0,
                      "default-height" : 180.0,
                      "default-rotation0" : 0.0,
                      "default-rotation1" : 0.0,
                      "default-rotation2" : 0.0,
                      "default-scale0" : 1.0,
                      "default-scale1" : 1.0,
                      "default-scale2" : 1.0,
                      "default-shear0" : 0.0,
                      "default-shear1" : 0.0,
                      "default-shear2" : 0.0,
                      "default-translation0" : 0.0,
                      "default-translation1" : 0.0,
                      "default-translation2" : 0.0,
                      "default-width" : 320.0
                    },
                    "animationTracks" : {

                    }
                  },
                  {
                    "id" : 223,
                    "_type" : "Callout",
                    "def" : {
                        "kind" : "TypeWinSVG",
                        "shape" : "",
                        "style" : "",
                        "DrawTime" : 1.0,
                        "borderColorBlue" : 0.0,
                        "borderColorGreen" : 0.0,
                        "borderColorRed" : 1.0,
                        "borderWidth" : 5.0,
                        "enable-ligatures" : 0.0,
                        "flipOnXAxis" : 0.0,
                        "flipOnYAxis" : 0.0,
                        "height" : 180.0,
                        "width" : 320.0,
                        "filename" : "C:\\Users\\Angelo\\AppData\\Local\\TechSmith\\Camtasia Studio\\23.0\\Features\\Tools\\Annotations\\Defaults\\anim_arrow.svg",
                        "name" : "",
                        "resize-behavior" : "resizeCallout",
                        "xmlContent" : "﻿<?xml version=\"1.0\" encoding=\"utf-8\"?>\n<!-- Generator: Adobe Illustrator 13.0.2, SVG Export Plug-In . SVG Version: 6.00 Build 14948)  -->\n<!DOCTYPE svg PUBLIC \"-//W3C//DTD SVG 1.1//EN\" \"http://www.w3.org/Graphics/SVG/1.1/DTD/svg11.dtd\">\n<svg version=\"1.1\" id=\"Layer_1\" xmlns=\"http://www.w3.org/2000/svg\" xmlns:xlink=\"http://www.w3.org/1999/xlink\" x=\"0px\" y=\"0px\"\n\t width=\"151.268px\" height=\"53px\" viewBox=\"0 0 151.268 53\" enable-background=\"new 0 0 151.268 53\" xml:space=\"preserve\">\n<path fill=\"none\" d=\"M12.852,24.926c0,0,85.25-8.838,118.688-2.996\"/>\n<path fill=\"none\" d=\"M93.169,2.713c0,0,46.52,8.657,49.944,18.729c3.424,10.071-43.753,26.022-43.753,26.022\"/>\n</svg>\n"
                    },
                    "attributes" : {
                      "ident" : "",
                      "autoRotateText" : true
                    },
                    "parameters" : {
                      "translation0" : -468.604651162791,
                      "translation1" : -257.558139534884,
                      "scale0" : 0.331395348837209,
                      "scale1" : 0.282945736434108,
                      "sourceCrop0" : 0.0,
                      "sourceCrop1" : 0.0,
                      "sourceCrop2" : 0.0,
                      "sourceCrop3" : 0.0,
                      "geometryCrop0" : 0.0,
                      "geometryCrop1" : 0.0,
                      "geometryCrop2" : 0.0,
                      "geometryCrop3" : 0.0
                    },
                    "leftEdgeMods" : [
                      {
                        "group" : "DrawPercentageFade",
                        "duration" : 705600000,
                        "parameters" : [
                          {
                            "name" : "DrawTime",
                              "func" : "FadeInFunc"
                            }
                        ]
                      }
                    ],
                    "effects" : [

                    ],
                    "start" : 3067972320000,
                    "duration" : 3528000000,
                    "mediaStart" : 0,
                    "mediaDuration" : 3528000000,
                    "scalar" : 1,
                    "metadata" : {
                      "clipSpeedAttribute" : false,
                      "default-anchor0" : 0.0,
                      "default-anchor1" : 0.0,
                      "default-anchor2" : 0.0,
                      "default-height" : 180.0,
                      "default-rotation0" : 0.0,
                      "default-rotation1" : 0.0,
                      "default-rotation2" : 0.0,
                      "default-scale0" : 1.0,
                      "default-scale1" : 1.0,
                      "default-scale2" : 1.0,
                      "default-shear0" : 0.0,
                      "default-shear1" : 0.0,
                      "default-shear2" : 0.0,
                      "default-translation0" : 0.0,
                      "default-translation1" : 0.0,
                      "default-translation2" : 0.0,
                      "default-width" : 320.0
                    },
                    "animationTracks" : {

                    }
                  }
                ]
              },
              {
                "trackIndex" : 3,
                "medias" : [
                  {
                    "id" : 224,
                    "_type" : "Callout",
                    "def" : {
                        "kind" : "TypeWinSVG",
                        "shape" : "",
                        "style" : "",
                        "DrawTime" : 1.0,
                        "borderColorBlue" : 0.0,
                        "borderColorGreen" : 0.0,
                        "borderColorRed" : 1.0,
                        "borderWidth" : 5.0,
                        "enable-ligatures" : 0.0,
                        "flipOnXAxis" : 0.0,
                        "flipOnYAxis" : 0.0,
                        "height" : 180.0,
                        "width" : 320.0,
                        "filename" : "C:\\Users\\Angelo\\AppData\\Local\\TechSmith\\Camtasia Studio\\23.0\\Features\\Tools\\Annotations\\Defaults\\anim_drawnperfectrectangle.svg",
                        "name" : "",
                        "resize-behavior" : "resizeCallout",
                        "xmlContent" : "﻿<?xml version=\"1.0\" encoding=\"utf-8\"?>\n<!DOCTYPE svg PUBLIC \"-//W3C//DTD SVG 1.1//EN\" \"http://www.w3.org/Graphics/SVG/1.1/DTD/svg11.dtd\">\n<svg version=\"1.1\" x=\"0px\" y=\"0px\" width=\"100px\" height=\"100px\" xml:space=\"preserve\">\n<path fill=\"none\" d=\"M 10 10 L 10 90 L 90 90 L 90 10 Z\"/>\n</svg>\n"
                    },
                    "attributes" : {
                      "ident" : "",
                      "autoRotateText" : true
                    },
                    "parameters" : {
                      "translation0" : -144.883720930233,
                      "translation1" : 18.0232558139535,
                      "scale0" : 1.09447674418605,
                      "scale1" : 0.554263565891473,
                      "sourceCrop0" : 0.0,
                      "sourceCrop1" : 0.0,
                      "sourceCrop2" : 0.0,
                      "sourceCrop3" : 0.0,
                      "geometryCrop0" : 0.0,
                      "geometryCrop1" : 0.0,
                      "geometryCrop2" : 0.0,
                      "geometryCrop3" : 0.0
                    },
                    "leftEdgeMods" : [
                      {
                        "group" : "DrawPercentageFade",
                        "duration" : 705600000,
                        "parameters" : [
                          {
                            "name" : "DrawTime",
                              "func" : "FadeInFunc"
                            }
                        ]
                      }
                    ],
                    "effects" : [

                    ],
                    "start" : 1951619040000,
                    "duration" : 3528000000,
                    "mediaStart" : 0,
                    "mediaDuration" : 3528000000,
                    "scalar" : 1,
                    "metadata" : {
                      "clipSpeedAttribute" : false,
                      "default-anchor0" : 0.0,
                      "default-anchor1" : 0.0,
                      "default-anchor2" : 0.0,
                      "default-height" : 180.0,
                      "default-rotation0" : 0.0,
                      "default-rotation1" : 0.0,
                      "default-rotation2" : 0.0,
                      "default-scale0" : 1.0,
                      "default-scale1" : 1.0,
                      "default-scale2" : 1.0,
                      "default-shear0" : 0.0,
                      "default-shear1" : 0.0,
                      "default-shear2" : 0.0,
                      "default-translation0" : 0.0,
                      "default-translation1" : 0.0,
                      "default-translation2" : 0.0,
                      "default-width" : 320.0
                    },
                    "animationTracks" : {

                    }
                  },
                  {
                    "id" : 225,
                    "_type" : "Callout",
                    "def" : {
                        "kind" : "TypeWinSVG",
                        "shape" : "",
                        "style" : "",
                        "DrawTime" : 1.0,
                        "borderColorBlue" : 0.0,
                        "borderColorGreen" : 0.0,
                        "borderColorRed" : 1.0,
                        "borderWidth" : 5.0,
                        "enable-ligatures" : 0.0,
                        "flipOnXAxis" : 0.0,
                        "flipOnYAxis" : 0.0,
                        "height" : 180.0,
                        "width" : 320.0,
                        "filename" : "C:\\Users\\Angelo\\AppData\\Local\\TechSmith\\Camtasia Studio\\23.0\\Features\\Tools\\Annotations\\Defaults\\anim_arrow.svg",
                        "name" : "",
                        "resize-behavior" : "resizeCallout",
                        "xmlContent" : "﻿<?xml version=\"1.0\" encoding=\"utf-8\"?>\n<!-- Generator: Adobe Illustrator 13.0.2, SVG Export Plug-In . SVG Version: 6.00 Build 14948)  -->\n<!DOCTYPE svg PUBLIC \"-//W3C//DTD SVG 1.1//EN\" \"http://www.w3.org/Graphics/SVG/1.1/DTD/svg11.dtd\">\n<svg version=\"1.1\" id=\"Layer_1\" xmlns=\"http://www.w3.org/2000/svg\" xmlns:xlink=\"http://www.w3.org/1999/xlink\" x=\"0px\" y=\"0px\"\n\t width=\"151.268px\" height=\"53px\" viewBox=\"0 0 151.268 53\" enable-background=\"new 0 0 151.268 53\" xml:space=\"preserve\">\n<path fill=\"none\" d=\"M12.852,24.926c0,0,85.25-8.838,118.688-2.996\"/>\n<path fill=\"none\" d=\"M93.169,2.713c0,0,46.52,8.657,49.944,18.729c3.424,10.071-43.753,26.022-43.753,26.022\"/>\n</svg>\n"
                    },
                    "attributes" : {
                      "ident" : "",
                      "autoRotateText" : true
                    },
                    "parameters" : {
                      "translation0" : -541.922095431696,
                      "translation1" : -85.3735351531765,
                      "rotation2" : -0.493941368919582,
                      "shear0" : -1.15669353661006e-16,
                      "scale0" : 0.244926608669164,
                      "scale1" : 0.41509848210079,
                      "sourceCrop0" : 0.0,
                      "sourceCrop1" : 0.0,
                      "sourceCrop2" : 0.0,
                      "sourceCrop3" : 0.0,
                      "geometryCrop0" : 0.0,
                      "geometryCrop1" : 0.0,
                      "geometryCrop2" : 0.0,
                      "geometryCrop3" : 0.0
                    },
                    "leftEdgeMods" : [
                      {
                        "group" : "DrawPercentageFade",
                        "duration" : 705600000,
                        "parameters" : [
                          {
                            "name" : "DrawTime",
                              "func" : "FadeInFunc"
                            }
                        ]
                      }
                    ],
                    "effects" : [

                    ],
                    "start" : 2432085600000,
                    "duration" : 3528000000,
                    "mediaStart" : 0,
                    "mediaDuration" : 3528000000,
                    "scalar" : 1,
                    "metadata" : {
                      "clipSpeedAttribute" : false,
                      "default-anchor0" : 0.0,
                      "default-anchor1" : 0.0,
                      "default-anchor2" : 0.0,
                      "default-height" : 180.0,
                      "default-rotation0" : 0.0,
                      "default-rotation1" : 0.0,
                      "default-rotation2" : 0.0,
                      "default-scale0" : 1.0,
                      "default-scale1" : 1.0,
                      "default-scale2" : 1.0,
                      "default-shear0" : 0.0,
                      "default-shear1" : 0.0,
                      "default-shear2" : 0.0,
                      "default-translation0" : 0.0,
                      "default-translation1" : 0.0,
                      "default-translation2" : 0.0,
                      "default-width" : 320.0
                    },
                    "animationTracks" : {

                    }
                  }
                ]
              },
              {
                "trackIndex" : 4,
                "medias" : [
                ]
              }            ]
          }
        }
      ]
    },
    "trackAttributes" : [
      {
        "ident" : "",
        "audioMuted" : false,
        "videoHidden" : false,
        "magnetic" : false,
        "matte" : 0,
        "solo" : false,
        "metadata" : {
          "IsLocked" : "False",
          "WinTrackHeight" : "56"
        }
      },
      {
        "ident" : "",
        "audioMuted" : false,
        "videoHidden" : false,
        "magnetic" : false,
        "matte" : 0,
        "solo" : false,
        "metadata" : {
          "IsLocked" : "False",
          "WinTrackHeight" : "56"
        }
      },
      {
        "ident" : "",
        "audioMuted" : false,
        "videoHidden" : false,
        "magnetic" : false,
        "matte" : 0,
        "solo" : false,
        "metadata" : {
          "IsLocked" : "False",
          "WinTrackHeight" : "56"
        }
      },
      {
        "ident" : "",
        "audioMuted" : false,
        "videoHidden" : false,
        "magnetic" : false,
        "matte" : 0,
        "solo" : false,
        "metadata" : {
          "IsLocked" : "False",
          "WinTrackHeight" : "56"
        }
      },
      {
        "ident" : "",
        "audioMuted" : false,
        "videoHidden" : false,
        "magnetic" : false,
        "matte" : 0,
        "solo" : false,
        "metadata" : {
          "IsLocked" : "False",
          "WinTrackHeight" : "56"
        }
      }
    ],
    "parameters" : {
      "toc" : {
        "type" : "string",
        "keyframes" : [
          {
            "endTime" : 352800000,
            "time" : 352800000,
            "value" : "Introduction",
            "duration" : 0,
            "metadata" : {
              "markerIdentifier" : "9EB0431D-D567-4BE3-AA58-57608DAF159D"
            }
          },
          {
            "endTime" : 7103040000,
            "time" : 7103040000,
            "value" : "Author Background",
            "duration" : 0,
            "metadata" : {
              "markerIdentifier" : "73E89970-27D4-4825-97F0-B4BABFE6AFC0"
            }
          },
          {
            "endTime" : 51861600000,
            "time" : 51861600000,
            "value" : "Objectives",
            "duration" : 0,
            "metadata" : {
              "markerIdentifier" : "399BD48D-C42A-4A24-94C8-AF903B59FC89"
            }
          },
          {
            "endTime" : 104170080000,
            "time" : 104170080000,
            "value" : "The OVER() Clause",
            "duration" : 0,
            "metadata" : {
              "markerIdentifier" : "959F7C62-D0B7-40F0-BB06-13E0F5D71DD1"
            }
          },
          {
            "endTime" : 159348000000,
            "time" : 159348000000,
            "value" : "Syntax",
            "duration" : 0,
            "metadata" : {
              "markerIdentifier" : "3DBC6400-C613-409D-BF92-876956A88747"
            }
          },
          {
            "endTime" : 214243680000,
            "time" : 214243680000,
            "value" : "Partitions & Frames",
            "duration" : 0,
            "metadata" : {
              "markerIdentifier" : "5509C3E6-0009-4139-A802-B959E27B5356"
            }
          },
          {
            "endTime" : 372650880000,
            "time" : 372650880000,
            "value" : "Rows between UP & CR",
            "duration" : 0,
            "metadata" : {
              "markerIdentifier" : "D21C8DAF-6ACE-499E-A166-0C5ED24A35AD"
            }
          },
          {
            "endTime" : 439988640000,
            "time" : 439988640000,
            "value" : "Rows Between CR & UF",
            "duration" : 0,
            "metadata" : {
              "markerIdentifier" : "4952944D-BB08-43DE-9F16-C37B77EF6369"
            }
          },
          {
            "endTime" : 504598080000,
            "time" : 504598080000,
            "value" : "Rows between CR & NF1",
            "duration" : 0,
            "metadata" : {
              "markerIdentifier" : "B7096088-30B7-4A19-B7CD-1B4E7FE209DA"
            }
          },
          {
            "endTime" : 559140960000,
            "time" : 559140960000,
            "value" : "Rows between N2P & CR",
            "duration" : 0,
            "metadata" : {
              "markerIdentifier" : "DE298EF2-3DD9-40B6-8476-2A9868DD0765"
            }
          },
          {
            "endTime" : 622574400000,
            "time" : 622574400000,
            "value" : "Rows Between N1P & N2F",
            "duration" : 0,
            "metadata" : {
              "markerIdentifier" : "ECFBB616-CD62-4925-A0F4-2705ED67D532"
            }
          },
          {
            "endTime" : 689136000000,
            "time" : 689136000000,
            "value" : "Range Between UP & CR",
            "duration" : 0,
            "metadata" : {
              "markerIdentifier" : "D5CBF934-D958-412D-B4E6-332512C2510D"
            }
          },
          {
            "endTime" : 788155200000,
            "time" : 788155200000,
            "value" : "Range Between CR & UF",
            "duration" : 0,
            "metadata" : {
              "markerIdentifier" : "4986D5A4-39CF-45EA-8D34-331EF48F1E53"
            }
          },
          {
            "endTime" : 876613920000,
            "time" : 876613920000,
            "value" : "Window Frames - Rows between N1P & N1F",
            "duration" : 0,
            "metadata" : {
              "markerIdentifier" : "CC5D35FB-3D11-4607-9CB2-9BC556DBA73E"
            }
          },
          {
            "endTime" : 911400000000,
            "time" : 911400000000,
            "value" : "Window Frames - Rows Between N1P & N1F",
            "duration" : 0,
            "metadata" : {
              "markerIdentifier" : "7C762908-BD5F-4BCA-8FAA-F63EE4CF6730"
            }
          },
          {
            "endTime" : 981912960000,
            "time" : 981912960000,
            "value" : "Default Frame Behavior",
            "duration" : 0,
            "metadata" : {
              "markerIdentifier" : "C9EE5BA1-E9E0-46C0-9E3C-6D60793BD23F"
            }
          },
          {
            "endTime" : 1078368480000,
            "time" : 1078368480000,
            "value" : "Prep Work",
            "duration" : 0,
            "metadata" : {
              "markerIdentifier" : "1DA492AA-0C02-4184-9A74-A1AE2737F087"
            }
          },
          {
            "endTime" : 1091727840000,
            "time" : 1091727840000,
            "value" : "Create & Load Test Data",
            "duration" : 0,
            "metadata" : {
              "markerIdentifier" : "59C4C7A1-0F52-47A9-86D0-1A48E928E20F"
            }
          },
          {
            "endTime" : 1202389440000,
            "time" : 1202389440000,
            "value" : "DEMO - Prep work",
            "duration" : 0,
            "metadata" : {
              "markerIdentifier" : "057B8601-C7E8-4C41-81E2-30E2F4C6A54D"
            }
          },
          {
            "endTime" : 1334995200000,
            "time" : 1334995200000,
            "value" : "The FIRST_VALUE() Function",
            "duration" : 0,
            "metadata" : {
              "markerIdentifier" : "C809DEF8-0D85-4AC1-B8B6-ACED757B93E7"
            }
          },
          {
            "endTime" : 1415433600000,
            "time" : 1415433600000,
            "value" : "DEMO - FIRST_VALUE() Function",
            "duration" : 0,
            "metadata" : {
              "markerIdentifier" : "AF79DCAE-2F9A-4C53-B233-D51628427C60"
            }
          },
          {
            "endTime" : 1523696160000,
            "time" : 1523696160000,
            "value" : "The LAST_VALUE() Function",
            "duration" : 0,
            "metadata" : {
              "markerIdentifier" : "785BA2EA-DB9F-4619-9C8D-ECF49B647FF7"
            }
          },
          {
            "endTime" : 1603217280000,
            "time" : 1603217280000,
            "value" : "DEMO - LAST_VALUE Function",
            "duration" : 0,
            "metadata" : {
              "markerIdentifier" : "2EBE61B0-D321-4C0C-A1F3-EAB52B438E36"
            }
          },
          {
            "endTime" : 1700401920000,
            "time" : 1700401920000,
            "value" : "The LAG() Function",
            "duration" : 0,
            "metadata" : {
              "markerIdentifier" : "CEAE3FF1-1967-44B3-8D32-4A5102A19556"
            }
          },
          {
            "endTime" : 1814544480000,
            "time" : 1814544480000,
            "value" : "DEMO - LAG() Function",
            "duration" : 0,
            "metadata" : {
              "markerIdentifier" : "E3088562-80D7-48C0-8077-1E032C31F0AB"
            }
          },
          {
            "endTime" : 1982430240000,
            "time" : 1982430240000,
            "value" : "The LEAD() Function",
            "duration" : 0,
            "metadata" : {
              "markerIdentifier" : "DB8F38AC-65DF-4EE4-9DF7-A42CAD6A4227"
            }
          },
          {
            "endTime" : 2081990400000,
            "time" : 2081990400000,
            "value" : "DEMO - LEAD()",
            "duration" : 0,
            "metadata" : {
              "markerIdentifier" : "2B58C3D2-CB9E-492F-A86E-A808A60B03EB"
            }
          },
          {
            "endTime" : 2195662560000,
            "time" : 2195662560000,
            "value" : "The PERCENT_RANK() Function",
            "duration" : 0,
            "metadata" : {
              "markerIdentifier" : "88733859-04F5-4FCF-B129-51AD6BBC18AE"
            }
          },
          {
            "endTime" : 2299409280000,
            "time" : 2299409280000,
            "value" : "DEMO - PERCENT_RANK()",
            "duration" : 0,
            "metadata" : {
              "markerIdentifier" : "9D297820-7A6F-4BEE-BAA6-791D109A4931"
            }
          },
          {
            "endTime" : 2405578560000,
            "time" : 2405578560000,
            "value" : "The CUME_DIST() Function",
            "duration" : 0,
            "metadata" : {
              "markerIdentifier" : "B217CDA1-8B68-476C-AE11-C7A00EBDA231"
            }
          },
          {
            "endTime" : 2585436000000,
            "time" : 2585436000000,
            "value" : "DEMO - CUME_DIST()",
            "duration" : 0,
            "metadata" : {
              "markerIdentifier" : "4A3BEB3F-E328-4925-A7D1-EE0E68418BC6"
            }
          },
          {
            "endTime" : 2703765120000,
            "time" : 2703765120000,
            "value" : "The PERCETILE_CONT() Function",
            "duration" : 0,
            "metadata" : {
              "markerIdentifier" : "FA664D11-BBA5-4B0B-8211-70C3F5C79979"
            }
          },
          {
            "endTime" : 2706516960000,
            "time" : 2706516960000,
            "value" : "The PERCENTILE_CONT() Function",
            "duration" : 0,
            "metadata" : {
              "markerIdentifier" : "3414DF7B-AD46-469E-94E7-297B55D114D0"
            }
          },
          {
            "endTime" : 2812192320000,
            "time" : 2812192320000,
            "value" : "DEMO - PERCENTILE_CONT()",
            "duration" : 0,
            "metadata" : {
              "markerIdentifier" : "98B1C377-7991-4ED1-984A-665FEAC58D0B"
            }
          },
          {
            "endTime" : 2922124800000,
            "time" : 2922124800000,
            "value" : "The PERCENTILE_DISC() Function",
            "duration" : 0,
            "metadata" : {
              "markerIdentifier" : "8B96FCD4-17CC-49D4-BD8E-52503D480363"
            }
          },
          {
            "endTime" : 2966248320000,
            "time" : 2966248320000,
            "value" : "DEMO - PERCENTILE_DISC()",
            "duration" : 0,
            "metadata" : {
              "markerIdentifier" : "F9CECDD2-986C-4E41-A170-D39DA295417E"
            }
          },
          {
            "endTime" : 3074910720000,
            "time" : 3074910720000,
            "value" : "Summary",
            "duration" : 0,
            "metadata" : {
              "markerIdentifier" : "8923EF87-A840-4FEE-9A0C-A9C9F66340F8"
            }
          }
        ]
      }
    },
    "captionAttributes" : {
      "enabled" : true,
      "fontName" : "Arial",
      "fontSize" : 42,
      "backgroundColor" : [ 0, 0, 0, 191],
      "foregroundColor" : [ 255, 255, 255, 255],
      "lang" : "en",
      "alignment" : 0,
      "defaultFontSize" : true,
      "opacity" : 0.5,
      "backgroundEnabled" : true,
      "backgroundOnlyAroundText" : true
    },
    "gain" : 1.0,
    "legacyAttenuateAudioMix" : false,
    "backgroundColor" : [ 0, 0, 0, 255]
  },
  "metadata" : {
    "AutoSaveFile" : "",
    "CanvasZoom" : 86,
    "Date" : "2023-10-05 10:01:32 AM",
    "Fit" : 1,
    "IsAutoSave" : false,
    "IsStandalone" : true,
    "Language" : "ENU",
    "ProfileName" : "",
    "ProjectDimensionsChanged" : "1",
    "ProjectThumbnail" : "iVBORw0KGgoAAAANSUhEUgAAAoAAAAFoCAYAAADHMkpRAAAAAXNSR0IArs4c6QAAAARnQU1BAACx\r\njwv8YQUAAAAJcEhZcwAAJOgAACToAYJjBRwAAGNwSURBVHhe7Z0HfBRl+sfVu/Oa/1PPu/POhkp6\r\nT0jovaiAiqhYKaIiWPGsFBHFAuqpiIhYUbBiQcGCSgsdktCr9F6lJbSEnd//fd6Zyc5OZpNNSCDJ\r\n/r6fz0PCTtmZ2c3Od5/3fZ/3FEyNBIPBCJ8wMi+Fb/KFMKZcBMyIg7GwA4yNw4DcpTB8R2GAEEJI\r\ndYcCyGBU64gyf2bWBKbUUHE+MC0OmN9OSd8QGLmLYRgF+sNAxE/LHw2QEEKqPRRABqPaRgQMLX0X\r\nwJhWE76cNjDWvQRjXzbgO2J9BBBCCAlHKIAMRpWPKGCa+buhpA+ZFyvxE+mLgpFzObD2eSV9s2Ac\r\nO6T/6JnlI4QQQgFkMKpB+KbWUNJ3PozMS2DMbQ7fqn7w7Z2qpO+A9adOCCGE+KEAMhhVJqz+fHYo\r\n2cOUC4FplyrpawxjZW8Yu3+Bkb9P/3GzTx8hhJBgUAAZjKoUWvougJFZA8ac+jCWPwxj5w9K+nbS\r\n8wghhIQMBZDBqKyRaf+8VGf6DOnbNztDSd+9wI4xwJGt1p+xCQWQEEJIqFAAGYzKGJk1YUy+SInf\r\nRTBmpcFY0g2+HZ/BOLwBPuuPlxBCCCkrFEAGo7KE1OrLVMI35Xz4ZiYDi7rA2DIKvkNrYVjpPfMH\r\nFZAQQsjxQQFkME5q1NS1+nyS7ZueCGPhjfBtege+vOXqz5ONuoQQQioGCiCDcULCHMFr6J8RwJSL\r\nzRG80xNgzL8OxsY3YOQu0bNyiPZR/QghhFQkFEAG4wSFDOLwTblASV80jAVXw9jwKnz75un5dwkh\r\nhJATCQWQwaiwMGflMGv1RQE5bYD1g2Dsz4LPOKJ78jHTRwgh5GRAAWQwyjVE+i6BL/M8c1q2rBYw\r\nVj8N7JkGHMuz/uwIIYSQkwsFkMEoj7AKNMugDmQ1U9LXF8buSTAK9jHLRwghpNJBAWQwyhw1cWzK\r\nhfBJgea59WCsfBjY/ROQ/5v150UIIYRUTiiADEaJEQVjmvw0m3elODMyawCz68G3/F74dowFjm63\r\n/qRsDMDH3B8hhJDKCQWQwSgpZFYOJX0+mY5tVi34lnaHsX00jMNbWLKFEEJIlYQCyGB4Rk0r06dC\r\npG9xVxhbP4FxcH3h6F39U/1iz9JBCCGEVBUogAyGHZlmgWZDyrbMTICxpBN8W0cCB/1TsRFCCCHV\r\nAQogIzwj0/7dX6vPkKnYFtwAY/ObQN5SJX2cc5cQQkj1hALICMOQTF8NGFMugDEtFljQHsaGITBy\r\nF8M4VmD9aRBCCCHVFwogo9qGoUPJnv1TZ/ouAKbFwJjXBsb6F4H9OTB8hwIHcjDzRwghpJpDAWRU\r\n2xDp0yN3p5yvfr8URk4LGOsGwNg7C8axgxy9SwghJGyhADKqUUTByFTiJ7X6JivxK5yV4wngt6lA\r\nwYFC6dM/ObKDEEJImEIBZFSDUOI35VKzT59k+rKaACt7wfjtZxj5e5jpI4QQQlxQABlVKqRfnxY+\r\n3adPZuW4EIZMxTa7LnwrHgR2/wjk7wrI9BlUQEIIISQACiCjyoQe1JF5qZK+i9TPi3BsdjqM5ffC\r\n2PkVYM3KQQghhJCSoQAyKnlEWQWaLzTFb2YqjMV3ANs+g3F4k/U2ZqaPEEIIKQ0UQEbljEyZiq2G\r\nJX1JSvo6wbdtFIyDq623LiGEEELKCgWQUYlC+vWZ0ocZycCCG4FN7yjpW4Fj8FlZPkIIIYQcLxRA\r\nxkkOU/pkBC+mx8KY3x7G+jdgHFgMwzhmvU0JIYQQUp5QABknPqRPnzX/rjkrx9XAhteAA/Ph8x1l\r\nlo8QQgipYCiAjBMUZtkWs1ZfFJBzBYx1g2DsmwUcO2i9HQkhhBByIqAAMiow7EzfBeb/sy8H1gyA\r\n8ds0+I6Zs3Iw20cIIYSceCiAjAqIS3WdPpmKzTe3CXyrnlDSN0lPxUYIIYSQkw8FkHFcYRZntpp3\r\nJ1+gf2JOYxgrH4Jvl8zK8Vthpo/ZPkIIIaRyQAFklD0yL4VPSZ9v6oUwZmfAWHY/fDu/gXF0u35z\r\nUfgIIYSQygkFkFG60AWaL1I/awCz6gBL7gK2jQYOby4UPvnpU/8Y8JkPEEIIIaRSQQFkhBAy/+6F\r\nMCRmJMG3uKuSvo+BQxv0m4iZPkIIIaRqQQFkuCIKmKZCj+C9yBS/mSkwFtwEbHofyFvlMj4DhsFM\r\nHyGEEFKVoAAy/JFZE77JNeAT6Zser6SvA4yNw2DkrYDPOMZMHyGEEFJNoACGc0yTLJ/06bsYmHyB\r\nkr44GPOvATYMgZG7EIZxVL9JRPxkJl5m+gghhJDqAQUwDMOYGgFf5sUwplwEY1oUfDltYax7Ecb+\r\nHBi+I9ZbgxBCCCHVFQpgtY4oJXjm71KvT9fo0/PvRgHZlwFrnlXSNx3GsYM6y8cmXkIIISQ8oABW\r\n8zCmKumbfBGMKREw9KwcfeHbkwkc46wchBBCSLhCAawWIaN27VD/15k+mX/3EvjmNoSx8nEYu3+G\r\nkb/H6s9nwZQfIYQQEpZQAKtLWM27xpSLYcypA2PFAzB2fQ/j6E6WYyaEEEJIABTAqhyZUqBZZuVQ\r\n0je7lpK+e4AdY4AjW/WLy359hBBCCPGCAljVQpdtqaHFz5iVCmPJHTB2jIZxeCMzfYQQQggJCQpg\r\nVQh7/t0p5wMzk4CFnWFsGQXfoTWFKT7zBxWQEEIIISVDAay0EaHr9PlkMMcMmZXjBvg2DYeRt1y9\r\nbBQ9QgghhJQdCuBJD8cI3kyZmUOady8EZCq2+dfB2PA6jAOLYFhTsVH9CCGEEHK8UAArQRh6Vg6R\r\nvigYC65U0vcyfJyVgxBCCCEVBAXwhIajVt8Uq1afzNSR0xrG+oHAgWz4jEM6y8dMHyGEEEIqCgrg\r\nCQtp3r0Uvinnwzf1UhjZLWCsfhrYMw0oOGi9HIQQQgghFQ8FsMLCzPQZmZfA0LNyiPQ1h29Vbxi/\r\n/QKjYK9HjT5W7SOEEEJIxUMBrIjIrIljmRcp+asBY05dGCsfhrH7Rxj5u6zLTgghhBBy8qAAHmcY\r\n9k9dq+9CcxTv7Ho4tvwe+HaOBY5uty61DbN8hBBCCDm5UACPI4ypl8Inmb4pNWDMzIBvaTcY20fD\r\nOLRZax5VjxBCCCGVEQpgaSLTzvTJrBwXArPS4VtyG4ytHyvpW6tH7triZ9AACSGEEFJJoQCGFBFK\r\n+C5W8ncRfDMT4Ft8E7DlfeDgKiV6tDxCCCGEVC0ogO7ItH+vqX6/WGf6jOmJwIIOMGQqttwlSvoK\r\nApt46YCEEEIIqUJQAJ2RGQGf9OebcgGMadFK+q4BNrxmTsXmy7cuGSGEEEJI1SZsBdCQZl37p56K\r\nzZQ+Y15rYP2LwP4s4JirQDObewkhhBBSDQhPAcyMwLHMC03pUwJoZLeEsWYAjL0zYBzLsy4NIYQQ\r\nQkj1pNoLoCFz7cpPJX0yKwcmK/GTWTmymgGrngB+mwIU7LMuh9Wdj4k+QgghhFRjqrkARinpU7I3\r\n5QL4plwM35yGMFY+BmP3TzDy99DzCCGEEBKWVBsBtGfk0KGkT9fqy7wEvtn14FvZE9j1HYyjO7T0\r\n+YMKSAghhJDwo1oIoMifmemroX7WAObUApbdDWPHGODwFmoeIYQQQoiDqi2AMiuHHsyhYmYyjMW3\r\nw9j2GYzDG63Ts6ECEkIIIYTYVEEBtKdiO19JXyKwqCOMrSNh6Fk5rLMihBBCCCFBqcQCGOX4KbX6\r\napjiNyMZWHADsPFtGHnLAUNm4LVyfOavhBBCCCGkGCqxAJrSJ827mB4HY357GBuGwjiwWIneMevw\r\nCSGEEEJIaakEAmhn+lRkmrNyyPy70LNyXAVsfAU4kAOf76jO8rGVlxBCCCHk+KgcGcApl8CnZ+WI\r\ngZF1OYw1z8PYNwuGzzUVGyGEEEIIOW5OoABKps+f7dOzckimT8/K0RLG6ieBvdNgFOzXXfmY6SOE\r\nEEIIqRhOcAawphK/i2BMvQS+rCbwrXoCxu6JSvr2WodDCCGEEEIqmgoUwAgletKn7xJzIIf07ZvT\r\nCFjxEIxd44H83UWyfCzjQgghhBBS8VSMAGbWhDH5IjPbNysDxrL7Yez8Bjiy3XpaQgghhBBysign\r\nAYzQU7GZ8++qmJUO35JuMLZ/rqRvs/VUZr8+s2wfC/YRQgghhJwsjlMAzVk5jMzz4JuRCGNxF3NW\r\njkNrWbKFEEIIIaSSEroAZkbC0L9HKOmzZ+VIgbHgJmDTO0DeKmuXDtipjxBCCCGk0hGiAEbAmHIx\r\nfDL/rszKseA6GBvegC93GXxGATN9hBBCCCFVCG8BnKaicFYOS/rmtYOxfjCM3IUwjKN6YxE/XbOP\r\nmT5CCCGEkCpDgABK2ZZjUy6GMVnKtigBzG4DY90gGPuylekdsTYhhBBCCCFVmVPMWn32/LtKArNa\r\nwFj9DLBvBnAsr3Awh07yMdFHCCGEEFLlOUWmZDOyGutZOXx7Juup2Oh5hBBCCCHVl1Ow+wcY+b8V\r\n9ucjhBBCCCHVm1Osn4QQQgghJEygABJCCCGEhBkUQEIIIYSQMIMCSAghhBASZlAACSGEEELCDAog\r\nIYQQQkiYQQEkhBBCCAkzKICEEEIIIWEGBZAQQgghJMygABJCCCGEhBkUQEIIIYSQMIMCSAghhBAS\r\nZlAACSGEEELCDAogIYQQQkiYQQEkhBBCCAkzKICEEEIIIWEGBZAQQgghJMygABJCCCGEhBkUQEII\r\nIYSQMIMCSAghhBASZlAACSGEEELCDAogIYQQQkiYQQEkhBBCCAkzKICEEEIIIWEGBZAQQgghJMyg\r\nABJCCCGEhBkUQEIIIYSQMIMCSAghhBASZlAACSGEEELCDAogIYQQQkiYQQEkhBBCCAkzKICEEEII\r\nIWEGBZAQQgghJMygABJCCCGEhBkUQEIIIYSQMIMCSAghhBASZlAACSGEEELCDAogIYQQQkiYQQEk\r\nhBBCCAkzKICEEEIIIWEGBZAQQgghJMygABJCCCGEhBkUQEIIIYSQMIMCSAghhBASZlAACSGEEELC\r\nDAogIYQQQkiYQQEkhBBCCAkzKICEEEIIIWEGBZAQQgghJMygABJCCCGEhBkUQEIIIYSQMIMCSAgh\r\nhBASZlAACalARo0ahfr166Np06Zo3LgxWrdujbVr11pLKye7d+/GjTfeiEaNGunjbtiwIe644w4c\r\nPnzYWqPyUxWvO/Hm6NGj+v0n70N5PeV9Ke9PeZ8SQsoOBZCcEAzDsH4LL55++mmccsophfH73/8e\r\nCxcutJZWTrZs2YJ///vfAccdGxuLgwcPWmtUfqridSfeHDp0SL//nK+nvD/lfUoIKTsUQFLh2PK3\r\nYcMGTJw4EZMnT8akSZMwY8YM/e2+OvPss88G3LjOOOMMLF682FpaOdm6dSsuvvjigONOTk7WN+Kq\r\nQnld92PHjiErK0u/X+V9W9qQ9/v8+fOtvZGyIO87ef85X88aNWpQAAk5TiiA5ITRtm3bgA9xiR9/\r\n/NFaWj2pqgIoN1jncYerAHpln0ob0hRNyg4FkJCKgQJITghLlizB//3f/wV8iEtIX57qzMkUQHff\r\nKRGRnj17WkuDIzfW//znPwHHXdWagMtTAN3yUdqQa09MHnzwwcK+maH2LfWScDYBE3L8UADJCeGZ\r\nZ54J+AC34+yzz8aqVaustaofJ1MAvW6coWSjRBxnzZpV2OwpP6UZVJpDqwqVSQCZAfQj18J5bUL5\r\nYuHz+QKa4eXnzJkzceTIEWsNQkhZoACSCic3NxcJCQkBH/zOGDRokLVm9eNkC6BbXsIlG1WRAij7\r\nkpHFci1LChEeyXoRE7kmzmsp11auMSHkxEMBJBXON998E/Chb8epp56qf6akpFR4iZGTNQqZAnhy\r\nqEgBTE1NDdtR7U7Kcg0ogCXjvK7BfiekPKAAkgrnuuuuK/zAt6XP/fvPP/9srV29OJkCKE1nItfO\r\n52/evLm1tHpTkQIo/69K/SErE/L+c15LkWl5nxJCTjwUQFKhLFu2DGeeeWbAh740i5133nkBj3Xu\r\n3NnaomSc5WTk544dO6wl0Dfmb7/9Fvfffz9atWqli8Z26tQJQ4cOxaZNm6y1imffvn3IzMzE66+/\r\njnvvvRdXXnmlbvJr1qwZOnbsiJdeeglz585FQUGBtUVwShIR2Y+zxMi0adMKs6HFfeOXZdnZ2QHb\r\nTp06VfenlN/l+MePH4+aNWsGPL8IoZTfsbeRkGu4d+9ea89F+1yVppRJfn6+Po7nnnsON9xwQ8B1\r\nk8dkWV5enrV2ICfyuodKMAE8nqyVXEv7/SvXWK51cRIkr429vv16bN++3Vpq4nzNJGbPnq1fCxsp\r\ngi3XVa6jXFP525C/kbFjxwasFyorVqzAO++8g7vuugstWrRAkyZNcM011+DRRx/FZ599hs2bN+v1\r\nnMcu7zv3FxJ5f8r7VF734s6vtNfMRj4bRo8erY/Lfj/Juffo0UMXC1+/fr21ZvE4n1/+Rp1fAORY\r\n33vvPdx22236Osj1kOsizxvsve5GXoMpU6bgiSee0NdR9iNx8803o3fv3vpYZSAds6WkPKEAkgrF\r\nXZBXQm46zqygxD/+8Y+QZ2pw73PgwIH68e+//x7p6ekBy5wh0vn+++/rdYPx5ptv4tJLL/Xc3hlS\r\nWFg+oOWGUBwliYiMgnQul/j000/1suIEUMT6r3/9a8B28fHxePXVVwMeCzXk5mYjN5mYmJiA5SLt\r\nJSE3vNq1awds5xWynpsTfd1DpSIEUK6lc39yrYvLKMpr41xfYsSIEdZSEzke54CfP/3pT/j111/1\r\nwB35eznnnHMCtneGNMsuX77c2lPxrFy5Ukvk3/72N8992XH11Vfr9b2OPZRwn5/7msm5FvcayLLn\r\nn3++SDkjd/zzn//EQw89FPAl0gv388sXGUGk+sILLwxY5gz5PBJhFIL9PS9durRIZtQr/vCHP6Bf\r\nv37WVoQcPxRAUmF4Df646KKLsH//fi05zsclBg8ebG1ZPJJJcm7XtWtXvPvuuzjttNMCHg8WH3/8\r\nsbWnokgm0msbZzibruVG+8knn1hbF6UkEZFMxumnnx6wzuWXX24tDc6AAQMCtpF47bXX8MUXXxR5\r\nPJRwCpWX9BTXd1BGY0o2ybl+cfHBBx9YW/o50dc9VLyuxfEKYGn7wclr41xfYuTIkdZSE6/j/Oqr\r\nr4p80QoWIqFS/7E4vv76a5x77rme27tDMm2C17GHEu7zK801k6yjTP1nr+t83zjD+bh8eSpuphj3\r\n8w8fPlxnqZ2PBQu5ZiJ5Xoh4X3LJJZ7beYVkGQkpLyiApMLwGvzRvXt3vUyaiNy15uTbciilHdwC\r\nKE3MzmyYfOuXLJE0/0pm0bmuhDQ7BZtH1BYRkUmZDaNWrVp6X9IMmZaWhj/+8Y9F9ifZkAULFlh7\r\nCCQUEXHerCRECEUMg+El1nKT2blzp75xOh8PNdwZQLdMFCeA99xzT8C6dsi1r1u3rr528vP888/X\r\nj3tlYU/GdQ8Fr2tR2kEg7nVPlAA6u1nIdZXlkmmSayuZVHuZLUKSCQuGNNNKBsq5voQ8lpSUpF8n\r\nkT47c1yvXj29nVcGMJiQOcP9Hgn1mslj7r8nCTl/aX6W85fPGa/3kxx7sNqC7ud3f3aJQMo1kAy4\r\nfDmRx5zn2aFDB2tPfuR90aZNm8J17JAvyfLel5D3vnye2V9uS9NVhpCSoACSCuP666/XH1rOD8Jf\r\nfvnFWlo06yPrTZgwwVoaHLcA2vGvf/1L9/VzNudIX6UGDRro5c7j+Pzzz601Annrrbfwv//9T9fB\r\n27ZtW0D/KPld6o/JDdTen71P6WfoRSgiIpka5zoSxZUOGTNmTOF69vPfd999epkcs/SRkj5VP/30\r\nEyIiIgrXlQilD6CXTAQTQGcm1z4WEdgnn3wSa9assdYyb3Yi/dK0N336dOtRPyfjuoeC17WQfdl9\r\nE+W6eIUUOZYi515fNGS5c3/BZMamrAJoh4iEvCfsL1fSd0766bkLs4t479q1S6/jRL5YREVFBawr\r\ncdlll+n3kvPYpR+nPNewYcP0/0vqAyjvT3mfuvsAurORoV4zafa117HfI/KF74cffiicdlKaxeX9\r\nJJJqr2ev26VLF72OG/fz2yHHIV1anH39ZECbu4+zfFmR5nMnc+bMCRBxiW7dugV8fskxy7WQv4uX\r\nX35Z/50QUl5QAEmFIH3U3P2E5MPf+aEtWQXncolgN3QnXgJ4wQUXICcnx1ojELkhudd/5JFHrKWl\r\nR85N+g459xcdHa2btt2EIiJeN2+5gYgIeSGd2Z3rSsbB69zlRu++4YYyCtjreOQG6EZuepINc64n\r\nmQq3nJQX5X3dQ8HrWoQaMluFV7PqiRRAkdBg+3b3P5XXTqTEjVc/XvlyF8pgHDdlHQUcyjWTa21n\r\nme2Qvo8yWMoL+fuKjIwMWF+ETAYaufESQPkCEKwlwavwvbSIOJGBHc7lcqyh9oMmpDygAJIKwdlH\r\nzf52bQ/WsJvE5APcLSjSbLhu3Tq9PBheAih932zcTW4y+td9Y5B+g8dD+/btA/YnTbBeH96hisiQ\r\nIUMC1pPw+rYv27oHf9gd7t14SYGXyLkJdTu7id9+fSUquomqvK97SXhdi1BDmu5OpgCKHDszu26k\r\n36xzfQn5suREtrezf/brLM2fMhK/LJT23G1C2U5G4jrXkZDRv17YnxHS1OzexuvLofv55RqsXr3a\r\nWloUyQI615f48MMPraUm8n/ncnmPLlq0yFpq4v4sI6Q8oQCScserj5r003M3gQhegxlkJKsQ7MPP\r\nLYDSlFXcKEb5pi/NW85tJPtREnKDkc7bMuJPbozyU/4vj0uZB+f+RMrcH95CqCIiouDuVyRNVO4s\r\nS9++fQPWkXBnFmy8pMBL5NyEup37GkiIrBwvJ/K6l4TXtQg1gs1XW1oJKqsAlpTtlX0415dwv35e\r\nzy2vgVAWOSntuduEst0tt9wSsI5k86QcTnFs3LhRv07O7erUqVMkK+l+fslc2k3KXkhJF+f6Em4B\r\ntLtPOL9AZWRk6GoGe/bssdYipOKgAJJyx84MOUPqWXkh/cRkPmDnutJJu7gPV7cAlnRzF7kqjQBK\r\nX7WnnnpK32TcNQzl/1KCwj0aMtgxlEZEpN+fc125MUjfKBvpX+XuiyU3jGADZ7ykwEvk3IS6nd2H\r\nyg7JeLnrt5WGk3Xdi8PrWnj1W3OHiKv02/J6bUorQbI/5/oSoQhgSa+1OwMlIc/lRMrzuNf56KOP\r\n9LLKJIAibO4SUDK6tqTyLnIOInzO7aQckXu78njN3AIomWvnZ59TBKVp+tprr9V9moMNdCLkeKEA\r\nknLHq/SEfKhKgVT5IHWGdKZ3N2lKFDczSEUKoHxwu4snhxLlISJShsJ9LZxNql9++WXAMgm7s70X\r\nZZECIZTtZB0Z/elcJ9SbuRcn87oXh9e1kG4LofRbC4ZcS+f+yiITJ0oAvfqyudcpDaU9d5uStvM6\r\n/7Lu+6yzzirSolAer5lbAIUXXnihcLlTAJ0hfXxlZHNxlQEIKQsUQFKueM38UZYori9ZRQmgFM51\r\nNgfZpRdCifISEfnW71xfMl72DCbuwR9SLqK4jJvXTbEkKRBC2e54brhuKsN1D0Z5nqdNecjEiRJA\r\n93WUcGalS0tpz92mpO28zr+s+/bqVlAer5mXAApSUzBYwWqnFP79738v0keTkOOBAkjKFa8Rg2WJ\r\n4mYGqSgBlCKrznUkJCslg1ckIyn9eqQY7qBBg4rMlFFeIiL9f5zrS8hgELkW7rIdjz32mLWVN143\r\nxZKkQAhlO691pN+n9P8sLZXhugfD6zxLuvmXRGllwqs/2ckUwOKy8yVR2nO3KWk7r/MP9f0orRDO\r\n7WQEvnuQS2mPuzQCKEipHSlsLl1l5D3uLg9jh2SfQ51ejpCSoACScsNr8MfxRLCZQSpCAGUdKSXj\r\nXEearYNJqHswQnmJiMwD7J5OTTrzu5viZD8yN6gQrC9WWaRACHU79/RYkvn1GuhTHJXlugfD61qU\r\ndPMvCanLV5r9SW1M5/oSbpkoy2sdigB69QGUOZnLSmlFyiaU7aQsiyyzs2aSMStupK4gn1lSxNm5\r\n77i4OBw4cMBaw6S0x11aAXQizy2DV/773/8WFpV2hvs1IqSsUABJueE1+EM6WMtcmJLFkA8ur5Dl\r\n8uHo7v8WbGaQihBA6bDvXC7x+OOPW0uLcueddwasW54iIv36nNv85S9/KdKsftNNN1lrB6csUiCE\r\nut3dd98dsI7E22+/bS0Njcp03b3wuhYl3fxLolWrVgH7iy6hXIvXaN0ff/zRWmpSltc6FAGUEdju\r\ndURgy0ppRcomlO369OmjlzmbTYubLlAQ0bJnOLFDumG4Ke1xy3V0ri8RqgA68SoPVZb9EOIFBZCU\r\nG14zf5Tmw0rmwLW3s/fjNTNIRQig141OZrNw4sy03XrrrQHrlqeIyAhE9/G6I5QZU+QG5R6oUdzN\r\n2z6/UGXCS/gle+I1m0QwKtN198LrWoQqLcF44IEHAvYnAuJVgNlGpk90ri9ZIfe8taG+Zk5CEUAZ\r\neS6C6lxH+miOHj3aWsNPsEy0E3f2U96foVzLUARM3kvOzx4Jr1JKTm6//faA9SXsuaqd53OyBFBm\r\nzXHvpySpJSRUKICkXPCa+UMGKUjfllBxV8aX8JoZpCIEUEb9ubNsUuvLq7+N9MlzZyvLW0Skf59z\r\nO2fIHMehzMIgNzB3c7KUxgj2mpRWAA8ePFg4PZszWrZsqeureSHTcMnrYVPZrrsbr2tR0s2/JJxT\r\n+dnRrl07z2y3lJuRY3euK9fHvW6or5mTUARQsK+lU65k1opvv/3WWqMo8iVGujO4kaLl9j4kpJlW\r\nPju8KK2AyXvLnV2VkKZULzmVwRfudaXUkFcNvooQQCl7VNKXJZkazrkPke+SahsSEioUQFIueBV0\r\n7tmzp7U0NERMRBqd+/CaGaQiBFBuHnafNueNTvoVybzBMvLxnXfe0XJjL3OuV94iIv373LJjhz0A\r\nwOum5qZjx45Ftpc+hZLBkYyJ3MRl/lTnzbw0MjFu3LiA62D/LjOv9OrVS+9Xrp38lGshQnrvvfda\r\nW1e+6+7G61qUdPMvCZFbd806ibp16+pzle4S0sQr189rRL30yxOcr39pXjObUAVQmqfT0tL0cue1\r\nl4EKN9xwg64LKNvJPN8i6R06dNBdP0Rw3Eh2197eDrkWsg95P3733Xd6Tmg7C2cTqoBJxszr70ZK\r\nUMk81PJ+kve+HKPzXOzwymwKFSGA8jkm/V9lEJQ09UpGXY5PrqO8xu5p8yTkdZAvXoSUBxRActx4\r\nDf6Qm4NMuF5aRA6c+5FwzwxSEQIoyAT5znWKCxFT50i9ihAR98wGElKEuLj+Ym68RhV7hRRgtimt\r\nTHj1Uyou3NPwVbbr7sTrWpR08w8F6ffqLoAeLJyiIqWAvLK/pX3NhFAFUJBrJ4Nz3OsHC/kC4DUL\r\nyrx58/DHP/7RcxtnuMtAlUbARKK95K6kcHc9cFJRAuhexyvsc5GuAmPHjrW2JuT4oQCS40a+Nbs/\r\ntCSrI9md0iKDAtwf3omJiQHNSe5SMyIEXtOB2ciNyD3dU7A6g14ZCndcddVVOlPhHKEX7BhErJzb\r\nlnSsTqT0iXNbCcm0lpYnnniiyH7cIdfURm5s0hTmXC6vZ3FIBufCCy8M2CZYeF37ynTdnXhdCynT\r\nUR5ZGJEEmfHBue/iQsQ5mPyX5TXzmgd34sSJ1tKiyAhvdz/dYBFsGjzh9ddfL1HQunTpYq1tYmeJ\r\n7ZBzLU7AZG5w6e7g3CZY/POf/wyYd9srs17a55fr6FxfQq63k9KUzJIvPjJ1nBBK5p+QUKAAkuNG\r\n6rVJZ2v5liwhH5bBmlJKIj8/X4/0bNCggd6XdBqX5htneRFpApXnkOVSw0uq5AcrGyLs3r1bN1VJ\r\n3zn7+F588UVraVGkKUb268zQSAZJpl2TfkMittJPSGY8kX0WdwyjRo0q1bE6efjhhwNuAtLvSqbO\r\nKwvSnCrH+q9//StgnzLCWOYglon0bWQaPudrIMcfSnO+3PClRIi8F2Sfzpu8SJsUu5X9BctiVJbr\r\n7kT62km22L4W8lP+79VfryxIXznJVkozqPu1kaZMybpJc6X0BSwO93HKucvUgsUh+7Svkb3N/Pnz\r\nraXeSPZRvpi0b99eH5u8f5zHLOcg2TER+uIEafz48Vompeaes/C3vE9kH/3797fWNJH3n32sob4G\r\nMgd4sGsrTetynNLXNpS/qdI+v1xH97V110+UgTzSRUO+4IrguQugi5jKMcqo+LL+3RNSHBRAclyc\r\n6G+jxT1faY+luPVFNkQ6pV+SZGqkCay4+YnLG2m2Foly3hDkpnM8yPRl0p9SmuZlRgHpbyQ3IXmu\r\nULK1oV5feR4ppCud1eXaSUjTn3PwRzBO9nU/Wcg5yk3efm3k3OW1Kc0gqtJQHn+3MoBBjtF+jeXY\r\n5RxKI8cyWEjeJ3LO0vdRxEkeO97X3Hl+8qXSeW3lvSUDT9yCWh7XpCzIcchsOPbfixyjHKvUMHS2\r\nfJys4yPVFwogIZUQd7+6008/Xd8UCCGEkPKAAkhIJUOyH+7yKpdddpm1lBBCCDl+KICEVDJkoINT\r\n/iTK2qeSEEII8YICSEglQwY5iPTZgyikxA5rfxFCCClPKICEVCKkVIm7kO0rr7xiLSWEEELKBwog\r\nIZUId+kXKZPhNaMCIYQQcjxQAAmpJGzatEnXA3MK4AMPPGAtJYQQQsoPCiAhlQQpFGsX8pUC2DIf\r\nbllmryCEEEJKggJICCGEEBJmUAAJIYQQQsIMCiAhhBBCSJhBASSEEEIICTMogIQQQgghYQYFkBBC\r\nCCEkzKAAEkIIIYSEGRRAQgghhJAwgwJICCGEEBJmUAAJIYQQQsIMCiAhhBBCSJhBASSEEEIICTMo\r\ngIQQQgghYQYFkBBCCCEkzKAAEkIIIYSEGRRAQgghhJAwgwJICCGEEBJmUAAJIYQQQsIMCiAhhBBC\r\nSJhBASSEEEIICTMogIQQQgghYQYFkBBCCCEkzKAAEkIIIYSEGRRAQgghhJAwgwJICCGEEBJmUAAJ\r\nIYQQQsIMCiAhhBBCSJhBASSEEEIICTMogIQQQgghYQYFkBBCCCEkzKAAEkIIIYSEGRRAQki1YOuW\r\nfEyceEDH/PmHrEerMYb1sxxZvvwwJlnXcO26o9ajFUdurg9Tp+Zi0qQDmDkzD0eOVMBJEUI8oQAS\r\nUo5s3nJU3zwnT84tElNUzJuXh23b5MZ6cm50a9YcVse3HxMn7FM3+MPWo1Ub+0oOe2MnTjllro76\r\nDVZaj1YMuQeOITNTvc6TXK+z+v/UzFwsXJiLLdvyrbVDp6DAwJw5B5WEufar930A06fvw8oVh3H4\r\ncMW8f26+dW3hNezVe4v1aMWxQIn6706bp5/vnHMWYv2GipdOQogJBZCQcmTYUFtCshyRrSJHx5/+\r\nOA8XXbgId9yxDit/NQXsxKigAZ/PQMOGv6rjmKNiLi6/YpW1rGpjX7+3hu+yrnUWmjb71Xq0Ypg/\r\n/yBO0+LifI3lp/k6//Uv2bioxiK0a7cKP/64z9qqZPbtK0DNmkvUPuz3kOzX//6Rx8/++3zUrbMC\r\n77+3y9qq/Oh82zr1HObzPtFvq/VoxbFwwSH85c/z9fOdd/4ibNhIASTkREEBJKQceetNEUDnDdt5\r\nE5eQ/5tR45LFWLDgoLVlxTNzZi7+8Dv7uHJwxhkLsFCJTFXnZAigX1zs6ynPK9Lmfp3N///vxdBk\r\nar8SwLg4EUDZzn7/+PcT+P8sPPrwJrVV+X2FoAASEj5QAAkpR/wCmI2LayzG99/t002FU1SMH79f\r\n3VQ344LzF6jlcnOfiwYNVuLwoROTA+z5wAb9nOYN3nz+vk9stpaWBTnu0I/dCFi3lOccsHrgtvb/\r\nQhdAawv5oSLwuELDKS5/+uN8vPvuLkydlqtfZ8n4vTBoO9LTlutjOeUUUxR/+vmAtXVwAgUwG48o\r\nwZs+IxeTpxxQ76NcfPDBbrRpuxqnnGpLZzZGjy4+w6hP03mexZyuUwD7PmE1AZfy8hjqySScyP+8\r\nrjMFkJCTBwWQkHLEKYAJ8ctw9IjPWuJnzJh9armZ3fnDH+YhZ17FZ+F27CjAxRcvLnzO0083BTA6\r\nZiH27S2w1jqRmEpQHth7CU0Ay+c5neLy5z/Pw9LlRQed7Nt7DKlaAs0m9y5d1ltLguMWwPff3Wkt\r\n8SNn0ESdn32uN9+0xlxQDnTuIgIo+83BoEE7rEfLi6LXngJIyMmDAkhIOeIUwLi4Zdi//5i1xH/7\r\nW7/hCP75z4XWevMwdaqZGVq16jAmyAANPYo1uBQuXXpIryOxeElo8vjBh7YczUXbK1fiisttgcjG\r\nN98EzyDJqNAJE2SEZq7O6uTl+TDi3V24ocMaNGr0K27ssBYjR+7B0aP+83SzcVM+nnt+O664Yg2a\r\nN/8VvR/fhI0bZCCDD5Mm5arzyMXatUestQNZvuwwnhqwFVe0/hXNmv6Kzh3XqXPZrY/DpjQCeOBA\r\nAT7/7Dfcdtt6NFPH0rzZctx55zqM/mIvjlgDK4pqSlHcAjg/oClfMmDm8fXpvUmtYwpgkybL9WPF\r\n4RbAt4a7JMw6uEcf3ayWm18iWrYMHPBiH//RAh/Gjt2Hu+9ej+YtV6Gpen65fqM+2l34vnRn6vwC\r\nmI033til3o97dX/Vxk1+1ZnHgQM3Y8Mmb0nbtbsAX3+9Fw8/tBHtr1mJxo2Xo2WLVejRfR2+/nYP\r\nCvKt53I8ZVABtNbZutUc2S0Z0J9+2o81Qd4nhJDSQwEkpBwJJQP45de7rXWy8I9zF2LtenMwyMhR\r\nIjAiC1n497mL9M3PjQwSiIxcpNeRdV/6X2j9tK64QoTPbP799LPdGPG+HIPZZ+3a9jIYRO64gTIg\r\nmKNC5+BPf87GV1/t1SJgbmc3JZtxy62rlQQWPddflNDKYAhzPTln2W4O4uKX4MWXd1iPZ+HxXtKX\r\nzYmB14Zsx9lniRyYAuV/zmw0bLxSyYLIgDQsmscdVACt01q06CAy6iwrXMe/T3O/zZquxOpVoQlG\r\n8QLo5557RajM11RksyRCygAquWyizt887tno1adoM/4G9SXjstayjn3N/ecpj0lmUkakC04J9DcB\r\n5+CSi5cUjtD1b5uFGhcuwU/jizZnP/PMdms95+slYZ5LWyWQ27cHvqeLywDu3JWPug3kHGapmI2I\r\nyMXqC48cc9H3KSGk9FAACSlHvPoATsnMxZQpufj55wN4ZsA2/Oc/csMzb6YPPrjR2hI4kOtDUvJS\r\na/scDBtu3vydfac+//w3a3kWLjh/IbZtlRtm8TdEqYn3p7+YI1b/9a+F2KLEcs3awzjzTPOxs86c\r\nj2XLvOvmmUIwF6edloW/nyN9F7Nw4UWL0VTJUlSkiIrdFy0L778TOCp19erDOO88yXTKuc7DOefM\r\nR2MlLgnx5jn+4Y/zcOqppmD4+yKa5zJihMic2Uwt/d1SUpehYcMV+Otf5dqZma/27VajoMAvncVl\r\nADduzEdkhMifKSR//es8NGiwAnXqrsAfTpdjkO3mIiV5GbaFUL7FLYDLPJqAlyw+pF4jkV/zOR98\r\nYIO1JDhuAZRs2vQZeboMjLyPPvn0N1x9pfQBNCXtX/9cgKVLA+Vz/wEfate2zzULfzx9PurUWaHP\r\n13/9stXruBDLVgQKr/l6Z+NU9XrJtn9W51hXXaMG6tqf8Vd5/c3rdM4585SMWedsCWSf3ltwxv/N\r\nR0zMQvVarUQz9RrERNvvZzneObjxxnV6XZsAATxPCaBVBmbnznw0birN5+ZrHRGxWGfIBXfWkhBS\r\nNiiAhJQjfgGUG5d58woM+2aYja5d18NnNRXavPKqnUXJRu26y3AkP3B5mzZ25mcOHn7Elsfib4iP\r\nPSbNkObz33Sj3V/MhyuvXKWfRx5/9hnvTKIzIyQS91jvzdixwxSkvP0FaHe17MPMcF17jbOsjIG7\r\nuq23ts1GQuJyfbMXDuYdw1tv78bfz7abwWXAgQignIeBXTsLcMklZn/F3/0+G4Nf345jPvMcpc7e\r\nP/8lUqW2OzUb02bs148LxQngfffKNTCfKyJyKWbOyrWWAL/8cgDn/cc+lrl45BErG1mMaDjF5XQl\r\nsu++twvTp+fqgRojR/yGu+9eZ4m++ZxnnqWEaVHJzfWBAmiKmnkN7TCPUX7/57/mY+oUfybOFCMf\r\nXnhxq7VOthLE+Rj73R5ZqmP2nFzEx4kcyr6VkHVYK5sWYgu/7L9e/WXIylbHrPdrYNq0A0oaRQJN\r\nieyi3r8a/R42dNZx5a9HAvqUSqHn/v2ludo89r/8JQdLbHFUBAqg+nKy6SjyCwy0bWsPoMlBjYuW\r\nICfHzFYSQsoPCiAh5UhRAbRv4PbvcnM1b7AREQvxztvbrS1NNm85rMTBypqdlgMp2mwzf95h/PnP\r\n5gjiM/42H4sWl3xT3LsvH5FRtlBk4esxe60lBj4eaWcTs5GcvBh5B4sOBvELYDZu7+bPVmqfUHzy\r\nyV61zDwf6fNls3nzUZx/vl9kxn1nnYclKcKtt67R28k6ztHIoz6U5mnz+l12edG+fHf1MLNUsu2T\r\nT9riGFwAN2/Nx3kX+AXvo492W0v8DBsqzdHm8oiai7FrV/FZQL+42K+zLXvyu5k9s8X43+cuxOef\r\niYSVjLcA2r87/69k6q8LccP1a7DeMWNH3sFjSEySrJs8/1wMGrTNWqKukfWafTtWXjM5xnk4+6wF\r\nhZk1wf96Z6H/U/6srJ2FfleJu7k8GzVqLMH2HeZ7xu7zGIi5zeGjPkRF+9+Dkyf539NOAbzwwsVY\r\nseywel9stJ5jHs75x0LMnWOJs3X8hJDygQJISDkS0AR88ZLCMjCTJ+fpEiEffLgTV1y+wlrHvKl/\r\n/ZUtB+Yd7p777MxZFjp3XK0fE5yZvOuu9z9eHJ995pe8uLjlOKQEwWbfvmNWps1c/sN3thz6cQpg\r\n/6eKZgkzp+Ray5V0NfVL18wZeeoxU1gkg7N9W1G57NRF+hea+37CIYCSPTMfz9H9wlq0WKmbnJs2\r\nXYHmzVeqY5YMoOw7C126+JsUgwngtOlyjObj0uzp1cS7cuURnHmm2cT5+9/NR5YtHUEoKoCyfzPr\r\nZjZr5+DMsxfp1+xXq+B3KAYTKIBZeOThjZghZWDU+yczM0+XEurbZxPO/bfdtJ6FZs1W4uAh8/ou\r\nWnxQ13eU7c84Y74eRONmp5I283UXQc3GmDF+OXW+3l51AGUWkrOUNMryP/1pnmOwknluq9ccwbMD\r\nt6Jdu9W6ub9t219x372b8Z/z5DUzRW/yZH/W0imA55+3GFdcsVr9bp7X2f9YhO++98siIaR8oQAS\r\nUo4UGQTiUePP8Bm4/lppOjVvdE0a/2o135nr5szLw5//YgqOzPogI2Rl1OalNe0BDPP03KnFY+7r\r\nSt1Ea4rJOf9YjJYtf0WTJiJTq9G82Sp1M7clJgs33xLYHCiUJATSN80+D6cAfvyxXzzlOhxwjIa2\r\n6dTZLYDmMbduY16bU3WtOwnz+M11RVrMzJr8vKyV/zmDCeDI9+VxWT8H8fHLsf9A0WPZsycf0Y4s\r\n1SRHlsoLp7jYdQBnz8lDtx72VGrZ+Ps5C7Fokd3cWfR94IW7D+B77xUdBCJMnHAAf/6zLZ5ZGPe9\r\nOZJb+gnaQnq+kq6NeqBMUaQ/pXlNsvCmum42Jb3eMkjj/MJsapZ6/f3X6Qd1DOfq7LWcv4T9epnP\r\nc6p1XDKi16aoSMt25u/D3zIztc4+sISQ8oMCSEg54hRAdxkYJ8Pflr5+Zgbm/AuWYNPmwKzUNe1t\r\ncZuD14fsxJhvRagkszQX9eqtxBE94tb7xmg/KiVi/qqzQeaN17wR2zdnO8ybvcQ//rEQ69Z5DQoI\r\nLgTBBNB5HeLjlqrr4M8A2sfXqbN3E3DzZtLPUR7PQUTEEp31E6FzhxTRfmaAf7tgAvjhCLt5V70m\r\nCcuw90DRDOCePUcQHVM2AXTWAfxNiWRSsn8/cox5eUWzn8FwC2CRMjAWubkFiHWs91R/s2izlBSy\r\nHzv/gsW6BI8XDRvZfUnnYvib/ucoWQCP4PzzbQHMwYzpZl/KDeulyd/MDMr2MmBIJFO6BcRELcUf\r\nfi+Py/s3mABm429nLtAZWlsA69Vbge3b/c3bhJDyhQJISDkSqgC+/oZ/sIfM/bp7t0iCX+jGjrMz\r\naHNRV90IpS+ceQPNwYgPi/Zhc2Lv5elntqj15WY+H+eeu1DX4BNJc0ZzJUrn6NG9ctPNwsuvBGac\r\nyiqAP4zfX7idjODcvbvoaOWiGUCTTrr0jPl4P8fjwTCsPoVBm4CniRSZxyiCsdWrCfjXQ3qghmx/\r\n2u/mY+7cUJuAi5aB+fmXvXrwinksc/FEX2tGjRAoSQDtKyhCbfbtNM/rlVfNvn5SJuWMv5ki9n9K\r\n/lcsL9oEvGNnAS6+RLY1M25jvvE3/Qe+3kWPe/myPLVf87wle7x8uXneQ1/fpvcljycmLMVSXa7F\r\nZOPGo9axFi+ANS5ejB9+2IcaF/lHTrdvLyO9A983hJDygQJISDlSpAnYow7gli1HkJZud9TPQgfd\r\nn09ucv4b3cHDx5BWy+wreOpp6kYtoX6XWmh7fis5o5R7QETC7t+XhddeCz6rw7PPy6hR81gy0lfg\r\nsOOYyyqAS5YctkqOZON3SqgmOfp92XTu7B8l7BTAl1+y6wNKk+0yx6hSbxGwHw0mgFL25oLCZsts\r\nfPTxb9YS//7eeMOfJYy8dAl27RRJ9H4+oTgBFPr0kf6aIjE5SgZlGrjip2uzcQugVx1AYehQOVdT\r\n4H73u3mYNdsUrryDgRnIF16wB4H4GfutyLlsm4Ozzg4+CKTfk7YA+q/Da4PlOplfRJKTl+HgIfML\r\nTq/eMs2gud1jvQK3k78ByQKXJIDST1DKv0z8ZR/+8hfzMYnCUdnFvB6EkNJDASSkHHEKoL8O4AFM\r\nUTe9r7/cjd69N6HmpSJm5g34T3/Kxiy7JIl1f7Nvc8OG2fsy5U9iwIDQsknfj5Pp5ky5knIra1ab\r\nRZO9WLxUydoZ5k391N9lqeP1N3+WVQDzC45Z/czMTE6dOisLB0NI8/UXX+7Bef+xyrmocDYBr1h5\r\nGH870xaAHLS/ZjWWLT3or/mnTkNG6S5cdEgPZLEJJoDCHXeIbJr9By+8cJHuK2fzixIOs16hXAPJ\r\n2NnnGVw4ShLAvNxjyKglpUzM44lPEKm0RDb4bosIoF0HUOpISrmaYeocr2m3BqfrDKM8fxZuvtUe\r\nCGNenycdZVfOOmsevvh6jzn4WjFnbi7ilFSb76ksdFES7sScCcTcNjJ6MSZOFHE19ztlcp56zfzN\r\nvE65fO45yQCaj9fOWK6k22y6/W13Afr3347f/958f8k6wQRQ6gCutwpBD3/bfu+bxzJ0mD1avpiL\r\nRwgpFRRAQsqRt4Y7pc28yXpHNv529nyM1M25RbOEwo6d+bhYy6LsLxtnn7MAKx3ZmuK4+WbpXyfy\r\nNVcXTDYJfvNsrWeNMDM0tytZsimdAJpTktmd9sd+ZzcDm9v/69wFaNxkJZKS/QJiS4FTAIXnn5Pm\r\na1MeZT0ZoVsrfRmaNV+BunVWICJiEX73h3mYOMkvcqYAWsfiEsB1a4/gUn0tzWOR7KQUOK5ddzn+\r\ncLpfNFJTl2OnVeewOIoTQLtQsYze/aMSfPMcstGju5TRUctsG/MgUADNa2OfU2DMVjEXbdqsxraA\r\n4zWwW8lxero9B3G2Or8cde2W6+LMZ+isrFzXLD1KfWXhCGUT8/U2s4qy7WmnKnlX16hOveWF5yvb\r\n1k5fif17/fI9L+eg+jJjH282LlL7ltfanH/arJV42mnmtvJlyCZAAM93zgTiQ+9e8h4wt5EBL+Pt\r\n2UeKuX6EkNChABJSjgwbKgIoN165GTpDbmQ5+L//m4/IyMXoduc6PTWZSfAb2h13+JvW7rwrMFsT\r\njCVLjuBPehSxOQLz00/tMh/eoinI/Lp2096ZZy3A2rWmGNyi++OZwtCrd9H+eDJPq/089es756Q1\r\nz+l/L2/Xo2TtczD3NQf/+PtCJCbYMz0UFUDZ/OkBW3UpE3MdU2bNMCVD9iOFl+3nelNfe/M56tcv\r\nOu3a/IW5SK/tnJnClCgzcpQ0rrIypSUjs6ucdpopLqedNg/z3HM3W6O6n3jSX7pHnuP9D+3mZ29k\r\nqj+pQ2geo/3esSMbv/99Ds5VIt2o4XK89fYO5BeZfs+8FmvXHMZlreyRvvY18x9HauoSzJvnOmbF\r\nLbeKAM7Bf85diOef34p/62LWZubU3kd6+gqsXuMcnGE+50svSr9WWccO83lvu22Dnk/YvtYfvOcf\r\ndey/jlk455xFWL/ef/19PgO36C8y5nGfffZCZGf7i0gTQo4PCiAh5YgUQJZmM6nb5o5p0/L0LAh7\r\n95ScYZKb6t69+ZCBJHIT/f0fsjFjVvEjU03MmTQmTNyv+91NnZqLQ4eCi59Nbl6BbqqW45w0KVc/\r\nt+xr+fLDWvIkbCl0sketJ8WqJ07M1TdzL+bMycMD929AixbL0arVSt0/btWqI+j9uH92jr593XMB\r\nm8h0ai+8sAM337ROZ5SaNFmF629Yg969NuKbMXuQl+fPQm3dLMeSq2PefO85Yw/kFuCTz3YpKVmL\r\nZs1W6FI4d961AV98vhdHDhddPxgHco+p62Veq6lT85Cr/u/1fFKfTzJecl0nTMjVzdbFcazAwNy5\r\n5n6d7x39ukzOxdysPKxbdxjHfCW9pgby8w18/c0edO++ES1arlLXbjk6d16HUR/t8izLI8jrPWHC\r\nft1ULKxedRgPPbRRbbsC7a9fg6FDt6v3hve2wvgf96Nzl7Vo1Gglbrx5HX743vzysWmT+ruYsE+/\r\nVzapvxEb/3XMw4wZeeq9qvbtKCotg6ik5JGcv0yluHZNaIJOCCkZCiAhJxSRBDuK5+OPJCtnZlJa\r\ntwls0gxO6BITiHs7o3D6tTJjSGNwcFHp2MlfBubpp4s2LxeP/9j0YRY51OM89hJx71+dq+ElRkWP\r\nI9hctuaj8q/38iIU2xRa0j7keEtYp6TlRfBev/i9uJaK/AU8r3trn1pc8hcaQkjJUAAJqYQcO+ZD\r\nk6Z2E14ORo8uOktHVWbfXp81GMHMAH5ezc6PEEIqOxRAQiohmVP34Xe/M/t9JSUtRa6evaL4XEpl\r\nY82ao1i//iiOHPZnbA4e8iErOw9XXSmFrkX+svDvfy/Epk1s2iOEkBMJBZCQSojMcWt3mn/1VbsE\r\nRtVCRpRKkenUlKV6vtqmKhKTlulRs3bmT7KbMnrXpGoJLiGEVGUogIRUMpYuPWyN4p2rs2NbtlbN\r\n7NhNt0jtPRlpa4qe2ZwtUmuO6rz00qX4YETRosyEEEIqHgogIZUKAzutUbwTJx3AgoVFS3VUDQzM\r\nn38QT/TbrERwra4R2KTJSrRuuwIPPLABn3z6G3bvCn2OXEIIIeULBZCQSkXRTFiJozUrHTLClCM1\r\nCSGkMkMBJIQQQggJMyiAhBBCCCFhBgWQEEIIISTMoAASQgghhIQZFEBCCCGEkDCDAkgIIYQQEmZQ\r\nAAkhhBBCwgwKICGEEEJImEEBJIQQQggJMyiAhBBCCCFhBgWQEEIIISTMoAASQgghhIQZFEBCCCGE\r\nkDCDAkgIIYQQEmZQAAkhhBBCwgwKICGEEEJImEEBJIQQQggJMyiAhBBCCCFhBgWQEEIIISTMoAAS\r\nQgghhIQZFEBCCCGEkDCDAkgIIYQQEmZQAAkhhBBCwgwKICGEEEJImEEBJIQQQggJMyiAhBBCCCFh\r\nBgWQEEIIISTMoAASQgghhIQZFEBCCCGEkDCDAkgIIYQQEmZQAAkhhBBCwgwKICGEEEJImEEBJIQQ\r\nQggJMyiAhBBCCCFhBgWQEEIIISTMoAASQgghhIQZFEBCCCGEkDCDAkgIIYQQEmZQAAkhhBBCwgwK\r\nICGEEEJImEEBJIQQQggJMyiAhBBCCCFhBgWQEEIIISTMoAASQgghhIQZFEBCCCGEkDCDAkgIIYQQ\r\nEmZQAAkhhBBCwgwKICGEEEJImEEBJIQQQggJMyiAhBBCCCFhBgWQEEIIISTMoAASQgghhIQZFEBC\r\nCCGEkDCDAkgIIYQQEmZQAAkhhBBCwgwKICGEEEJINSc/Px/79+/H5s2bsXz5cgogIYQQQkhV58iR\r\nI9i7dy82bNiARYsWYfLkyfjoo4/w0ksv4fHHH0fXrl1x9dVXo3nz5qhbty4FkBBCCCGksiOCt2fP\r\nHqxbtw7z58/Hzz//jBEjRmDgwIF45JFH0LlzZ7Rt2xZNmzZFeno6kpKSkJiYiPj4eB3ye3JyMlJT\r\nU5GWlkYBJIQQQgg5mRiGgUOHDmH37t1Yu3YtsrOz8f333+Pdd9/F888/j//+97/o2LEj2rRpgyZN\r\nmqBWrVpa8BISErTcyU/5v1PwZJ3iggJICCGEEBIiImulxRa8nTt3YvXq1Zg7dy7GjRuHt956CwMG\r\nDMADDzyAm2++GVdccQUaNmyoJU6kzhY8O4OXkpKiwyl4ku1zhlPyigsKICGEEELIcXDs2DHk5eVh\r\n27ZtWLFiBWbNmoUxY8bgjTfeQP/+/XHvvffihhtuwGWXXYb69etriXM2z5Ylg3e8QQEkhBBCCCmG\r\ngoIC5ObmYuvWrVi2bBlmzJiBL774AkOGDEG/fv3Qo0cPXH/99WjVqhXq1asX0DwbFxenfxe5E/ET\r\nwXOKWGkzd+UVFEBCCCGEhDVHjx7VJVI2bdqEJUuW6BG0n376KV599VX06dMH3bp1Q/v27dGiRQvU\r\nqVNHC567D14wwausQQEkhBBCSLVGBE9KpGzcuFGXSJk4cWKREint2rXTJVIkGyfNs7bcSdgjaG3B\r\n8+qD55SrqhAUQEIIIYRUaWSAxW+//VZYIuWnn37CBx98gEGDBukSKV26dNElUpo1axYgeNI86xa8\r\nE9H/rjIEBZAQQgghJ5TSjqQ9fPgwdu3apUuk5OTk6BIp77zzDp577jk89NBDuPXWW3WJlMaNG2uB\r\nc2bw5Kf83yt7J1FVM3jHGxRAQgghhJw0fD6fHkHrLJEyduxYDB8+HE899RTuv/9+3HTTTbpESqNG\r\njTwF70SPoK0OQQEkhBBCSIVhl0jZvn07Vq1ahdmzZ+sSKcOGDdOCJyVSOnTooEukNGjQQGfqRPDs\r\n/nd2E22wDB6Fr2xBASSEEEJImcnPz9cjaLds2aJLpEyfPh2jR4/G4MGD0bdvX3Tv3h3XXXddYYkU\r\nydRJ1s4OkTvJ4AUTPEbFBAWQEEIIIUGxBW/z5s1YunQppkyZokukvPLKK7pEyp133qlH0EqJlNq1\r\naxcKnnOAhd1Ea8sdJe/kBwWQEEIICWOkRMqePXuwYcMGLFy4EBMmTMCoUaMKS6TcfvvtuPrqq3WJ\r\nFBE8d/07ZwaPYld1ggJICCGEVGOOHDkSUCLl559/xogRIwJKpMgI2iZNmhQpkWILnrN51pa8cBw5\r\nW52CAkgIIYRUUaScitTA2717ty6Rkp2drUukvPvuu3j22Wfx4IMPomPHjoUlUuTGL0JnD64QweMI\r\n2vAMCiAhhBBSSZESKQcPHvQskTJgwABdIuXmm2/WJVIaNmyoJU6kzs7guUfQOgXArn9nh3MZo/oH\r\nBZAQQgg5SUiJlNzcXF0iZeXKlZg5c6YukfLGG2+gf//+ukTKjTfeiMsvv9yzRAozeIyyBgWQEEII\r\nqSAKCgq04G3duhXLly/XJVK++OILDBkyBP369UOPHj10iZSWLVsWlkgRwbMlT37KY14lUpi5YxxP\r\nUAAJIYSQMiIjaKVEyqZNm7BkyZLCEikvv/wyevfujW7duqF9+/a6REqdOnW0zLlH0ToFz+tGzWBU\r\nRFAACSGEkCCI4O3btw8bN27UJVImTpyIjz76qLBESteuXXWJlGbNmiEjI0Nn7Gy58xI8ZvAYlSUo\r\ngIQQQsKWw4cPB5RIGT9+vC6RMnDgQDz88MPo3LkzrrzySjRt2lTLmi14zgEWtuCx/x2jKgUFkBBC\r\nSJVByp6Eiqwrgrdr1y5dIiUnJwffffcd3nnnncISKbfccgvatm2rS6SIwNl97+ywBc9rgAUzeIyq\r\nHBRAQgghVRIpkZKXlxdQIuXbb7/VJVKefvrpgBIpjRo1KhQ8Z/87jqBlhGtQAAkhhFRKpESKCJ6U\r\nSPn11191iZSvvvpKl0h58skndYmUDh064LLLLitSIsWrBp5b8Ch8jHAOCiAhhJCTQn5+vh5Ba5dI\r\nmTZtGkaPHo3BgwejT58+6N69uy6R0qpVq8ISKZK1s0Pkzp6DliNoGYzSBQWQEEJIhWAL3ubNm7F0\r\n6VJdIuWTTz7BK6+8ogXvzjvvRLt27XSJlNq1aweUR5EMni14In7M1pVHyDVMV9dSsp/y/3Skq/Be\r\nNzDSVKSr7WW7lFT107U8XUVaWrpaJlELqfJ4uiwL5XVLQ6reb9HHZX+pKgIfN5dJyPPK/83tZX3Z\r\nl5xjKfpmqvdWmhyDen69vfXTvEbFhf0c6hit47e3t7e1j69oyLGq9VPkWp2c9zYFkBBCSJmQEil7\r\n9uzBhg0bdImUCRMmYNSoUXjhhRcCSqQ0b95c18BzCp7dPGtn8Ch4FRtaRNQ1FplKT89Q/1eSpGQl\r\nvVaG5/p2yPqJSemITUxDfLK5fv36qcjIMOVHRCchRUZHq8drp+Gy5mlo2bQW6tSthaTkdCXv3iKW\r\norZJSKil9qvWUxKUkZGKhmq/tdLN90GykqMk9ZxNG6SiZSPzOAKFzBQ0eY7EtAw0qKueu2kKWres\r\nhWZqfTm/xOQMLVj+bYqGSFicOnaRsCZquzYt0nB50zQ0qJOiZS5OnbsInde2qWp5gromScm1UC8j\r\nGa2apOLy5snq+eX6qGVJqWqZOzOdps5NnaM6zytbpaJtK3UN1bknn4QMNgWQEEKIJ+4SKT///LMu\r\nkTJo0CA88sgj6NKlC9q0aYMmTZoUlkiRcJdIsfvf2ZLHkbMnJ0Rk3usfj/kfxiJHxX2dUpSgBBfA\r\nFCVYIkS970zCa4/F44uXEjB3RBxWfRmFjtckI04JnGS+7rgxBd+8FId1Y2Kwc3wktn0fjRWfx+Cz\r\ngfG49WolQUr2/NkyUxpvuioNA+5JxvC+CRj7SiwWjYpGzqhYNGuipEvtt40SyU+ejcfGsTHY/kMU\r\n3noiwcw6aglMQ6ISu/TaqXj49iT8+Hos1n8TiS3fR2H7j7HYMT4a80bGYljfJCVZKUoE7e0CI1HJ\r\nYyv1fC89pM7rg1hsVMe9RcWun6Kx+dsYZL4dh+d7JqJpQ3n/Ot6z6v0rmclaaXVwz63J+G6wOvev\r\no7BZbbtjvDren6Kw5OM4jHo2AR3bi9hZ73t1DZJT0nD9FWl4p08SXnjQjLd6J+LaK1KRoo4zXWdN\r\nT0xQAAkhJAyREimHDh3SJVLWrFmD7OxsfP/993j33Xfx3HPPoWfPnrpESuvWrXWJFLlhiNDZ2TvJ\r\n5NnNsxxBW/kjIakWOl+bioKpkcCsKCArAtkjY1A7w99c6QzJGCYmK/m7Kxnrx8Th4CS1zZxLzW3n\r\nRKrHk9BaSdqEYXE4NCUSu76PwPqvY7D/Z1muYrZ6njkRyFPbPf9gshIfv0ClKJl678l4bPo2Avly\r\nPGo9zKyJI1Oj0F7J0d03J2HbOPVYVk1ghlqu9nVgYjTatJTsWS31vqul15v1Xqze9tCUKHzwdDzu\r\n75SE+zom472nEnFoUozaXo4rGo/dmYgEVyYyQclW52uTtbghJwKzR0SjT/ck9LglBU/2SMKs99W+\r\ns9UxqGWfDZRMtfX+VoKWrH7Wq1MLX72UqK5HJPaqc36jTyLu7ZiC/3ZOwYfPxKvzjtbb7lYy2rpF\r\nipK7DH3elzWthU+fi0e/uxIx9LFEvPTfZDxyeyo+fT4BlzWWL0mBx1mRQQEkhJBqiJRIOXjwIHbs\r\n2BFSiRSROHtwhZ3Bs5tnvTJ4znDfWBiVL6TZ8aehSliylVBNM+PY9Jp4sGuimSHz2CZDMlfqNa+j\r\nJLFzu1T89pOSpelq25kRWPxxLHb8EINpb8XhtuuS0LShkqK6tdC6ZSreVDJ0dIoSIFlXhaHi8TvN\r\nTJx+z6h9p6Vl6N9FhDA9Gsa0CBzNjMCUN+OxfmwMFo6Mw+Zv1T5mqn3kRGLl6Fg0rG82q7a7PA3r\r\nv1GCpgRPhLPbDSmISVDv3xQRuwzExtdWMpiCQ5PVtrOicXhKTdzTMcl6fmn2TVfymoqNY0xJ+2lo\r\nrDrfFMQlyv5rIT5R3tMZ+ExJmUjgd6/GIznJfJ+bWTwlsP3VcedE48DP0VokYxIy9HPHS3N5Qi10\r\nuylFLYvFwYlRuOZyJdPq2KSp+Ol7kvBw12T0viMR//tvIh7olIx3lAw/fkeyWpasnr/4JvnyDAog\r\nIYRUQaRESm5uri6RsnLlysISKa+//roukXLPPfcElEgRiZMMnt0Hjxm88AkRn65K0o4p6Vs0Kgb7\r\nf1LiM02ydJL5ilHr+OW+aJiDOupmpGHtmBglZGo7ydrNjsSXLyTofoQiTbKONAdLc6804T59bwJ8\r\nU2VdFWobybQ1aZBqDg6xQra78apaOoOoZVEd3/4JUejSXolQcjpaNKmFgT0T8dmgRNxytWT+aqO2\r\nEripb8fpLCRmReDtfkmIjVNyZmXOzEEX6bpv4PeD481MpJLIJZ/GKkFV56mON14te/lhJXBqmTE9\r\nCvfeYjZnOwdsJCtha9KgFrYqyf1hiJJkS8yk72KbFrWw80d1LdQxTB4Wr/tIuvtSigS+1S8eR6bG\r\naGGVpt9EJZZvPB6HW9ul4DElfFOGxuHnIQk6M3vbdSl4/fFELZDO/VRkUAAJIaQSUlBQgAMHDmDL\r\nli1YtmwZpk+fji+++AJDhgxBv3790KNHD10ipWXLlkVKpEgGrzjBY+YujEJJWXJqOn55PQb5Ssau\r\nb5uMH18TMTKzeT4lcw/cKpknj211mCNcGyp5WicZMxHAGRHYpGSweaM0pKRl6DmQnetLdk9G4k59\r\nWz3PrJpmxnFmBHrdmYI4R4ZLMmK3tkvDYVsAlZB98mwi4uLNASqSqYtPUoIpA0VENNXP+zpLxjBC\r\n7TMCeRNi0KGN7CdQwETkEpJro9/dpuSJ7PqU6HW/WbKd0icxA+MGK4mcfanaVxR6dkpGrHpO94jo\r\nBCVsX/8vQWdOExLNvx/pNygZR9lOBDTzTfVlSq6dFlBZx9yHeW7J2K1E8ZorzHNJUHL3xF2J6Nst\r\nGb3uSEG/Hsl4o1eykuBU9O+u/t8tyco++o+hIoMCSAghJwEZQSslUjZt2hRQIuXll19Gr169dImU\r\n9u3bB4yglXBm8ETuWAOPUVwkKIHqen2SlpUfXotBVFwt9Lg1FYZIme4PGIkZ78QgXUmeV19AWwAb\r\n1a2F9SKA0gdQyeO3SoykyVSaSotuIyNra6G3Eh29vvU8X72ovpg4RNMWwCMigDPM/T7VXcmokqCi\r\nx5JuitsrIpWyfgRWfBaL2hlmk6xdLkaHkrHYhAzcfoN6fmlC1hnLCAx+TP3tqGOW7N6PryVY+4lE\r\n9gfxaNEkVW2j9qXPx5Sw5JRUXH15Cm5WIpeWZv6NicT1uFEJoIiwuoaHJkbioa5KWtUxy2jmFGtb\r\nOf56dVJw5/XJaFAvDanpZoa0iZLmj5+N103B7S6TEcvpeF0d1+jnEtG0QW2dSfWfc8UGBZAQQioA\r\nEby9e/fqEimLFi3CxIkTdYmUF198UZdIue2223SJlGbNmulsnLN5VkL+H0zumMFjhBRKOFLTMjBh\r\nmNkU2qVDghYYee/MHaEemymZtEg9MOTuW5KQ6JkF9BDAOdEYOUC9X+2BER4hMnR92zTkToyxMoCR\r\nmPdBlBIjKfljreMWwFnR6HOnZPqKCqBkFRvXT8ear9UxyMAQdezZH8aiZdNUtGmZEhgtUtGqaS28\r\n/qgIqDrHqSrmROKTQervKjkN8UkZeOkRtWxOFIxMtUzta/VX0Xj2gSS0bZmKNCVh0hdPRk0np2Zo\r\nYbT/3qSszBUtUrDzR3W8cszTI3F4UiRGD5Sm3DQ0qCtZSylBo45biaj0S0wVKbS2l+sig0JefzwB\r\nrz2qopeMsE7S5WNk2YnsikEBJISQMuAukTJ+/HhdImXgwIF46KGH0KlTJ1x55ZVFBM9dIoU18BgV\r\nFdKP7o4OtZTgRGPqW3FITlNyo2REmmEfvT1VPa4EJlPEKwqZb8fr5alF3oseAqhi5DMJQYTRDMlk\r\ntWiUii3j/MK2+osY1K+nvtQEFcAo9OnmnQEUCbu6VSp+G6/2Z/UXPKKOfaf6/67xESoiC3/u/CkK\r\nu36Ohm+6PLcSvOk11b5rYoiSLpEzyRA2bZSGxZ8qOZ1tCaL1/LvVtpnDY9H/7gQ0b5Ki+/45j8Vs\r\nXk7H4MeVQM5W+5e+lCK4SjSPquNZ9lkM3u+foM5LvryZx+08Dwm7v2TLpilo0ThVfQaIbHpnUisy\r\nKICEkLBAyp6Eil0iZffu3Vi7dq0ukTJu3Di88847ePbZZ/Hggw/qEilSA09KpIjAidDZ2TsRPVvw\r\nvAZYMIPHqPBQgiF1/CYMi1XyFYPuN6YiKjYNyUlS3DhNiWAGFn4kzammwOQrkbnzRlO+AvdVNgEU\r\n+WlcP0Nto57fEsB1Y6LQWImXLJN1SiOAklG76aoUHJpoCZfa36JRsXi4ayoeuz3FEckqEvHYHUl4\r\n9LY0PHJbKh69IxX33ZqEhvVFPs26fFL/8MpWaZjxrjo+EUrpqyj9+uRYpWl4diQ2jY3GoJ6J6m9V\r\npM38GxYBlIEsUtLl1UcScOAXdU2kn6GI5jQRSXPbw5OjMH5wHNrJCGDJBlq1AJ0hJV9ERqUZPSNI\r\nU3pFBgWQEBJ22CNo7RIpc+bMwTfffKNLpDz11FO6RMpNN92kS6Q0bNhQS5xInd1EKz85gpZRmUP6\r\n2t3ZIVUJSYwu0NytQwq66NGmZtx6dRo+fT7RlB3dRy4SE4cmQEa5Bk7zVkYBVGLTqEEa1n0jcqRC\r\nCduaL6KUhJnZL1mnVAKYkqYF8LDUI7QybhOHRiM6Rp2rWt875Dqkq+M0o0hWUUmgDGCRbOiUt+Kw\r\nV8rcSJOxZAVloImWwQjdvCt/487t5XcpSXNdmxSMfDYJq7+WQTZKIkUG5fgkqzg3EhvHxeL6KyXL\r\nF/jclSEogISQaocIXl5eHrZt21ZYIuXLL7/E0KFDC0ukXH/99YUlUkTkbLlzCp6zBp7zg5PCx6jM\r\nIXIikjVpWJySkGgcyoxB7qRIHJwSpeOQkqiDk6ORNykGPpEVLSyRSsSicLuSQxnp6i+JUnYBbNXc\r\nLKNiZtgisWCkXXLGXKe0TcDtrkjBPik0rfcXgXkfRiNN/32a5+wVsm1aupm5k3PRU+Cp33VWLr22\r\n7u8nzcJSYPqqFil46t5kzBkRC0MEUDc1y3FFotedyVYmzzyWZPW77FPqK8Yn1Uaj+um468YUfPZ8\r\nPPaNN0VS9y+cE4kZ78Xrmor28VSWoAASQqoc+fn5egStXSJl2rRp+PzzzzF48GD07dsX3bt39yyR\r\nYgueNM86Bc/rw5HBqKoRL9m/G9IgAy9Wfh6LTu2TlWiloss1qehshfx+05Vp+KC/ORjEEAlTAvbD\r\na3G6aLFdV89TAGdHYuQAqX8X+LzOkAENHdomIm+CkiARTLXN2FdkG/+Xp9IIoAhl84Zp2PSt1aSs\r\nYtM3MWjS0OxT51zXHSlKvhJkvl/dzy4NDZWs3d9FmoSlLqD/798s1SK/p+P5BxPVcVklbOZE4ech\r\nMeqcTFHspCT55qulOdnflUOOQQbFyCjj69qm6r6A+lqp48xT8t2hTYpnf8CTGRRAQsgJoTR98OwS\r\nKZs3b9YlUiZPnlxYIqVPnz66REq7du3QokUL1K5du7A8SkkDLNjvjlHdQ8RJ+qdNGq7ELjsCz9yX\r\noEu/yOhXyew5Izaxlp4Ld8u3IioiahE4omTllnbJ6m/K3qe3AH70jCmA/kxhYIiEPto1SUuobmKe\r\nWRP9eyQqQfKvUxoBlP8nK1mb9pb0aVTrqn1Kv8WuNyQHFVHJ9smx16uXiifvTUbLpmm6ibtZ4xRs\r\nGx+Lh9TxuesfymdEivrMiEtIw5cvSh9JUzYXSfZSLYtLSsenAxMwa0Sc+oyR43S1DijBjFHn2Ona\r\nFByeLP0KI3FsagTuvlldUyuDWFmCAkgIOeEcOXIEe/bsKSyRMmHCBIwcOVKXSHnsscfQtWvXwhIp\r\n0kfHXf/OmcFjcyyD4Q/p83b3TTLCNxobx0ShWUPpp+q9roQI0PA+SnT0aFglO0p4xr0sXSDsvyuv\r\nJuBIjH9N/S2qdYqOGjYlSoozj3tFCaD0iVNyuXlcLFo0M2vw2euJEN2iBFAXgi5BACVzF6ue79n7\r\npaahWldGL8+Owlf/U1/61Dmkub7cmUWd1TYJ6bq8S4Ha5tZrzVI3Mo/vhm9i9ACZxCTvFgBpFpbB\r\nJHafwDnvx+vsn9Q3HPJYoh6BfF3rFIco+yM1NQ3166Rj9VcxOrt6dGpNdFZCSAEkhFR7vEqkvP/+\r\n+xg0aBAeeeQRdOnSBW3btkXTpk31B5EInZ3BK07wmMFjMIKH1JtLT0/DrPfi9Jy/w/uqL01KpoJl\r\n6USQZHBC2xZp2Padkjvd5y0CByfG4KarJGOYZmXR0pQAppkCKDOIzIjGtm+j0ap5mq5z59+feq60\r\ndC1JndunIe8Xta4uwXIpBj0o2T/5+61trptu9sO76apaODJZ1lOhpFVmyBAB9O/TDnP0cLMGqVjz\r\npSmqMs3cUSWPj9+RirgE9UVR7U9kVUKmXpPHetycqmQtEj8MkYEc5r7kc2TeyHgYMyNxn8wCoiRR\r\n9i+jfXWodeSxF3paAjj3Ugx5XGYDSVefT2l4qkcKkCPN5UqU1TGJGOr9auk0B6y0aJSurqlIaqQS\r\nwVg0aiBi6Dyfkx8UQEJIqXCWSFmzZg2ysrLwww8/FJZI6dmzpy6R0rp1a10iRT5oROjs/ncieCJ3\r\nHEHLYBx/iKyI8MQmpiE6Nh197pJm1yjkTYpCu8tTEB2ToZsqi2yrREekR6SmZkwtjHgyQWer9Ny9\r\nSvLGviKZNSVRanlSUioa1XNkAHWTbhR+eiMejRuYWTbJJErx5AT1e4c2Sfh1dKyWHxGojwbG67Iz\r\n/qxequ4LGBefgQeVgGF6NAwlabLPN3rJlz/Znzl3rkil87gls3jXTSk48IslgUocD06KxFtPJOCa\r\nK5L1/L0yo8a1bVIwrE8C8qdGK2GMxhXNU82+giKHSlKnyTR1SuK2jYtCtxsk6yifU+Z5yCwiV7ZI\r\nx2o5B7XOCvWzRWNT4GT5g53VMWep6zArGiMGxKNOXVNApWagNBEnpqTjLSXfZvYzCn3vCt5MfTKD\r\nAkgICcDn8+HgwYO6RMqqVasKS6QMGzYMAwYMwH333VdYIqVRo0Za4kTqnBk8O3vnHmAh37yd4VzG\r\nYDDKEEpoGjVMxaCHEvD1/+JwSJpT50bANyMS416Nw7v9E9GzY2phlsoOkaE2LZQk9Y3He08lYqkU\r\nRc5S20qGb44ZE9+MxVv94nFzuyTUrZ0eIIAyh7BkGTeNicW7Sh7735OMgfcnYez/EvSgB2RHYfPY\r\nOLzw30Qlf+mF2S+pfVendhreUdtkvh2DPT9Lhk2tP0d+quNWMjh/VLySy1i8qmRQz6LhOG4RQhGt\r\nbjemYOXoOPN4ZPvsmjisJHLrdzEqonFEavJlRWDWe7G4spU5slk/vwqZOu7R21Ow5Vt1znMuQcH0\r\nmvhlaCwGPRiP/j2S1TWLx44f1LkqyZs1IhbXXiHZSvOLqlw36Tc58c14GJIxzY7Ayi+i8Xa/RDx5\r\ndwJeUK/D9PeVOKrz2aX2MeA++SyULOyJr/NXUlAACQkzCgoKdA08u0TKjBkzipRI6dChgy6RUr9+\r\nfS1ydhMtM3gMRuUKyao1UQL48mPJGNZPphZLxKuPJWLw44kY2jcBbynR6tk1xcx+ObbTTb/N05QA\r\nJmDYEwkY0jvB3E5FwPb9E9Dp2mTUy7CagEW4Zkdg/OsiTEmYMjwGq76MwcZvotTySCz5NBrfD1ZC\r\n2D0JLZpKpi9wJg3JVtZWAviskq03lVy+5nre1x5P0M87XAlV/3sT1TYphds6Q4SuUb109OqWqqQz\r\nFgtHRmPtV7H6GJd9GotvXo5Hzy7J1lzBRbeXTGKLJrXR/+5kfKdEecVnMXqE8UYltMvV72NejlXb\r\np6hjVfLs2t68lhm468ZkvK9kMefDGKz7Klptr47hy1hMfzcOLz+ciDbNpXSMWXbGuX1lCQogIdUM\r\nEbwDBw4UlkiZOnUqvvjiC7z22mt6BO1dd92Fa6+9tkiJFC/Bc8sdM3cMRuUL+TuVJlMZ1Sv972Sk\r\nrfyMS5QmXHc/PTtkAIcMdsjQzceynmxnh2xv70/61gU0Ac+OxIinEhERo+QqSQmdksMG9VJQX60j\r\nnw/S3ClNyyKZaV5TnKnjTdTPZ4f/ec2wjls9b1qt4GWa0qRsixIsyc6lpaeiQf0MdRy1kKGWycCQ\r\nOHlcreO1rURqitnkK5Imff8a1FP7UFIpy2S2lDiRN48vuGl6Sj3pc6ieWx1nckoq6tSRa5CqrkWq\r\nvl7SpCylcORc3dtXlqAAElLFkBG0UiJl06ZNWLJkSUCJlF69ehWWSGnevLn6UKqjZU7CKXh2iRTW\r\nwGMwGMWFXUqluELQkuGTdSSc2b4TGcd7DMe7vd429eSdf1mCAkhIJUNq4O3du1eXSFm4cCEmTpyI\r\nUaNGFZZIue2223DVVVd5lkiRkOZaW/Dcf/DM4DEYjNJFyQLIqJpBASTkBCMjaO0SKfPmzcOPP/6I\r\nESNGYODAgXjooYfQqVOnwhIpujnFVSLFbp51l0hhMBiM8g8KYHUNCiAhJVCaGSzsEim7du3C2rVr\r\nkZ2djXHjxhWWSHnwwQd1iRTnCFp3iRT5v0ie3TzrzthR+hgMxokI87PGFMAGdWphbWEfwCh8OCBw\r\nVo/gtQYZlTUogISUgmPHjukRtHaJlNmzZ+sSKcOHD8dTTz2F+++/X5dIkRG0DRo00BInUmc30Toz\r\neBxBy2AwKmtooUtTn1/JqYhJSMeVLVOw/cdIYHqEFsBJw+KQnip18cxBHMUN1mBUzqAAEuJABC8v\r\nL6+wRMrMmTOLlEi5/vrrCwVPRM6Wu2CC58zgUfgYDEZVieTUDDxxTwLGD4vGhm+V/M2VWT1EANXv\r\nMyOw7LNo/DQ0AUP7JKBWunzeee+HUTmDAkjCivz8fD2C1i6RMm3aNHz++ecYPHgw+vbti+7du+O6\r\n664rUiLFFjy7eZYjaBkMRnUOu2Byz9uT8PbTSXi9d4Ku1VcYjyfi9b4JeLNfAp55IAkZ6osuBbBq\r\nBQWQVCtkBO2+ffs8S6T07t27sERKixYtULt2bS1zIngywMIWPK8BFhw5y2Awwi2kBExycgbiE+2w\r\n6/Sl659Sq09qCCYmyUwXbN2oakEBJFUKEbw9e/Zg/fr1ukTKhAkTMHLkSLzwwgt49NFHdYmUq6++\r\n2rNEivx0ZvDYHMtgMBiMcA0KIKlUSJFjKZEiI2hzcnJ0iZT3338fzz33HB5++GF07tzZs0SKnb1z\r\nZ/BsyWMGj8FgMBgMf1AAyQnD5/MVlkhZs2YNsrKyAkqk9OzZU5dIad26NRo3bqzfoCJ0dv87ET33\r\nAAv3G5rBYDAYDEbJQQEkJRJqHTwRPBlBa5dImTNnji6RMmzYMDz99NO47777cOONN+Lyyy/XI2gl\r\nS2dn79yC55XBc4b7jcxgMBgMBiP0oACSkLFr4G3duhXLly/H9OnTA0qk3H333bpESqtWrQoFz9lE\r\nawuePM4RtAwGg8FgnLygAFZjSjODhVBQUIADBw5g8+bNukTK1KlTdYmUV199VZdIueuuu3Dttdfq\r\nEil169YtHGAhYU9T5jWCVoKZOwaDwWAwKk9QAMMIGWAhNfC8SqT06tULd9xxhy6R0rx5c10ixc7g\r\nOZtogwkeg8FgMBiMqhMUwGqElEjZu3cvNmzYUFgiZdSoUXjxxRfx2GOPFZZIkRG07hIpEu4RtM4+\r\nd8zgMRgMBoNRfYICWEWQ5lwZQSslUtatW4d58+YVlkh5/vnn8dBDD6FTp05o06ZNkRIpdvOsW/C8\r\n3hAMBoPBYDCqf1AAKykyolZq4YnkvfHGG7oPXseOHQvnoLWbZ23Jk7BH0DpHztovtDxG6WMwGAwG\r\ng1GrVi38P8/Zt9g7gW2eAAAAAElFTkSuQmCC",
    "RulerGuidesX" : [],
    "RulerGuidesY" : [],
    "RulerShowing" : false,
    "Title" : "Analytical Functions - Apress",
    "audioNarrationNotes" : "",
    "calloutStyle" : "Basic"
  }
}
